<svg width="61" height="58" viewBox="0 0 61 58" fill="none" xmlns="http://www.w3.org/2000/svg">
<path d="M60 6.21739V10H57.1188H4.80605H2V6.21739C2 3.33478 4.24233 1 7.0108 1H54.9892C57.7577 1 60 3.33478 60 6.21739Z" fill="#CEC9AE"/>
<path fill-rule="evenodd" clip-rule="evenodd" d="M57 42.9113V10H4V42.9113C4 45.7228 6.27179 48 9.07663 48H51.9234C54.7282 48 57 45.7228 57 42.9113ZM41.7067 28.93V41.6518V41.6645H37.3154V28.93H41.7067ZM32.7464 41.6518V31.1309H28.3424V41.6518H32.7464ZM23.7862 34.0824V41.6518H19.3949V34.0824H23.7862Z" fill="#EDEADA"/>
<rect x="37.6625" y="29" width="4.325" height="12.8842" fill="#FDC75B"/>
<rect x="28.8375" y="31.2396" width="4.3375" height="10.6446" fill="#FDC75B"/>
<rect x="20.025" y="34.2257" width="4.325" height="7.65842" fill="#FDC75B"/>
<path fill-rule="evenodd" clip-rule="evenodd" d="M54.7484 0H6.37785C2.89213 0 0 2.91528 0 6.42888V10.1207C0 10.8209 0.63147 11.3301 1.32609 11.3301H2.90476V43.0417C2.90476 46.5553 5.72112 49.3942 9.20683 49.3942H26.7996L18.1863 55.6831C17.618 56.0904 17.4917 56.8924 17.9085 57.4653C18.1611 57.809 18.54 58 18.9315 58C19.1841 58 19.4493 57.9236 19.6766 57.7581L30.5379 49.8398L41.3992 57.7581C41.6265 57.9236 41.8791 58 42.1443 58C42.5358 58 42.9273 57.8218 43.1673 57.4781C43.5714 56.9052 43.4451 56.1032 42.8894 55.6958L34.2509 49.3942H51.8437C55.3294 49.3942 58.2215 46.5553 58.2215 43.0417V11.3301H59.8002C60.4948 11.3301 61 10.8209 61 10.1207V6.42888C61 2.91528 58.2342 0 54.7484 0ZM55.6957 43.0417C55.6957 45.1422 53.9402 46.8481 51.8437 46.8481H9.20683C7.11035 46.8481 5.43064 45.155 5.43064 43.0417V11.3301H55.6957V43.0417ZM2.52588 8.78402H58.4741V6.42888C58.4741 4.31563 56.8323 2.54609 54.7484 2.54609H6.37785C4.294 2.54609 2.52588 4.31563 2.52588 6.42888V8.78402Z" fill="#8E8872"/>
<path d="M18.2427 28C18.554 28 18.8654 27.8844 19.1021 27.6404L25.3795 21.4246L31.8812 26.7029C32.3296 27.0625 32.9648 27.0753 33.4132 26.7029L42.2813 19.601L42.0073 23.3125C41.9575 24.0188 42.4682 24.6353 43.1532 24.6866C43.1906 24.6866 43.2155 24.6866 43.2528 24.6866C43.9005 24.6866 44.4485 24.1729 44.4984 23.5051L44.9966 16.8912C45.0215 16.5445 44.9094 16.2106 44.6976 15.9537C44.4859 15.6969 44.1745 15.5299 43.8382 15.5171L36.938 15.0034C36.253 14.952 35.6551 15.4914 35.6053 16.1977C35.5555 16.9041 36.0786 17.5205 36.7636 17.5719L40.4255 17.8416L32.6659 24.0574L26.077 18.7149C25.5913 18.3168 24.8938 18.3553 24.4454 18.7919L17.3832 25.7782C16.885 26.2663 16.8726 27.0882 17.3459 27.589C17.595 27.8716 17.9188 28 18.2427 28Z" fill="#8E8872"/>
<path fill-rule="evenodd" clip-rule="evenodd" d="M32.7273 30C33.4273 30 34 30.568 34 31.2621V41.7379C34 42.432 33.4273 43 32.7273 43H28.2727C27.5727 43 27 42.432 27 41.7379V31.2621C27 30.568 27.5727 30 28.2727 30H32.7273ZM29.5455 40.3495H31.3273V32.5243H29.5455V40.3495Z" fill="#8E8872"/>
<path fill-rule="evenodd" clip-rule="evenodd" d="M23.7273 33C24.4273 33 25 33.5696 25 34.2658V41.7342C25 42.4304 24.4273 43 23.7273 43H19.2727C18.5727 43 18 42.4304 18 41.7342V34.2658C18 33.5696 18.5727 33 19.2727 33H23.7273ZM20.5455 40.4684H22.4545V35.5316H20.5455V40.4684Z" fill="#8E8872"/>
<path fill-rule="evenodd" clip-rule="evenodd" d="M41.7273 28C42.4273 28 43 28.5625 43 29.25V41.75C43 42.4375 42.4273 43 41.7273 43H37.2727C36.5727 43 36 42.4375 36 41.75V29.25C36 28.5625 36.5727 28 37.2727 28H41.7273ZM38.5455 40.5H40.4545V30.5H38.5455V40.5Z" fill="#8E8872"/>
</svg>
