<svg width="11" height="7" viewBox="0 0 11 7" fill="none" xmlns="http://www.w3.org/2000/svg">
<path d="M10.6921 0.894277L10.151 0.357423C10.079 0.285733 9.9959 0.25 9.90201 0.25C9.80835 0.25 9.72534 0.285733 9.65325 0.357423L5.40006 4.57774L1.14706 0.357536C1.07492 0.285845 0.991915 0.250113 0.89814 0.250113C0.804327 0.250113 0.721317 0.285845 0.649223 0.357536L0.108254 0.894427C0.036009 0.965968 0 1.04834 0 1.14143C0 1.23445 0.0361227 1.31682 0.108254 1.38836L5.15114 6.39265C5.22324 6.46423 5.30628 6.5 5.40006 6.5C5.49383 6.5 5.57673 6.46423 5.64879 6.39265L10.6921 1.38836C10.7642 1.31679 10.8 1.23441 10.8 1.14143C10.8 1.04834 10.7642 0.965968 10.6921 0.894277Z" fill="black"/>
</svg>
