<svg width="80" height="79" viewBox="0 0 80 79" fill="none" xmlns="http://www.w3.org/2000/svg">
<g clip-path="url(#clip0)">
<path d="M29.8126 42.2471C41.7263 42.2471 51.3843 32.7898 51.3843 21.1236C51.3843 9.45734 41.7263 0 29.8126 0C17.8988 0 8.24084 9.45734 8.24084 21.1236C8.24084 32.7898 17.8988 42.2471 29.8126 42.2471Z" fill="#E2A975"/>
<path d="M29.8126 0C29.0107 0.000146648 28.2095 0.0441751 27.4124 0.131886C38.1905 1.3018 46.57 10.253 46.57 21.1251C46.57 31.9972 38.189 40.9453 27.4124 42.1168C28.2111 42.2039 29.0139 42.2479 29.8173 42.2487C41.7308 42.2487 51.389 32.7839 51.389 21.1251C51.389 9.46634 41.7261 0 29.8126 0Z" fill="#C38C66"/>
<path d="M34.5942 41.324V52.1231C34.5942 52.1231 32.909 52.6972 29.864 52.6972C26.9779 52.6972 25.0357 52.0921 25.0357 52.0921V41.386L34.5942 41.324Z" fill="#FFE4C2"/>
<path d="M31.3888 41.3473V52.1231C31.3888 52.1231 30.2985 52.4924 28.3065 52.6383C28.7862 52.6755 29.3079 52.6972 29.864 52.6972C32.9089 52.6972 34.5942 52.1231 34.5942 52.1231V41.324L31.3888 41.3473Z" fill="#F2D0A5"/>
<path d="M44.9268 26.8428C38.3338 25.7226 35.7608 21.7225 35.7608 21.7225H23.8629C23.8629 21.7225 21.2898 25.7257 14.6968 26.8428V26.8987C14.6968 35.5489 21.5375 42.2596 29.8905 42.2596C38.2435 42.2596 44.944 35.5551 44.944 26.8987" fill="#FFE4C2"/>
<path d="M14.7965 26.8195L14.6922 26.8381V26.8753L14.7965 26.8195Z" fill="#F2D0A5"/>
<path d="M44.9268 26.8428C38.3338 25.7226 35.7608 21.7225 35.7608 21.7225H23.8629C23.4441 22.3119 22.9545 22.8481 22.405 23.3191H29.0089C30.1431 23.3255 31.2295 23.7745 32.0352 24.5697C33.8918 26.3758 36.2966 27.5504 38.8073 28.171C39.1878 28.2627 39.5227 28.4871 39.7513 28.8037C39.9799 29.1202 40.087 29.5079 40.0533 29.8964C39.5861 35.251 36.5271 39.7491 32.1692 42.0858C39.4257 40.9904 44.9409 34.7467 44.9409 26.9018L44.9268 26.8428Z" fill="#F2D0A5"/>
<path d="M30.068 57.923C39.9365 57.923 44.9611 53.1052 46.0046 51.9757C44.4689 50.9316 42.8359 50.0373 41.128 49.3054C40.8853 49.2036 40.6185 49.1732 40.3591 49.2177C40.0996 49.2623 39.8584 49.3799 39.6639 49.5567C38.5737 50.5373 35.7499 52.3496 29.8905 52.3496C23.8768 52.3496 20.9783 50.4427 19.9005 49.4822C19.7221 49.324 19.5029 49.2187 19.2675 49.1781C19.0322 49.1375 18.7902 49.1633 18.5688 49.2526C16.8555 49.9472 15.2247 50.8287 13.7062 51.881C14.5737 52.8027 19.8958 57.923 30.068 57.923Z" fill="#B3E59F"/>
<path d="M46.0046 51.9788C44.9611 53.1084 39.9303 57.9261 30.068 57.9261C19.8943 57.9261 14.5738 52.8058 13.6985 51.8842C5.99649 57.1829 0.46728 66.8959 2.27516e-05 77.5213C-0.00838223 77.7123 0.0220793 77.9029 0.0895739 78.0818C0.157068 78.2607 0.2602 78.4241 0.392762 78.5623C0.525323 78.7004 0.684573 78.8104 0.860926 78.8857C1.03728 78.9609 1.22709 78.9998 1.41893 79H58.197C58.3895 79 58.5801 78.9612 58.7573 78.8859C58.9344 78.8107 59.0945 78.7006 59.2279 78.5622C59.3613 78.4238 59.4652 78.26 59.5335 78.0806C59.6018 77.9012 59.633 77.7099 59.6252 77.5182C59.186 66.8897 54.0866 57.4699 46.0046 51.9788Z" fill="#95D6A4"/>
<path d="M19.8771 69.7866C19.8771 70.8071 19.4702 71.7859 18.7458 72.5075C18.0214 73.2291 17.0389 73.6345 16.0145 73.6345C15.5069 73.635 15.0043 73.5357 14.5353 73.3425C14.0663 73.1493 13.6401 72.866 13.2811 72.5086C12.9221 72.1512 12.6373 71.7269 12.443 71.2598C12.2487 70.7928 12.1487 70.2921 12.1487 69.7866V65.7043C12.1487 65.62 12.1654 65.5366 12.1978 65.4587C12.2302 65.3809 12.2777 65.3101 12.3376 65.2506C12.3975 65.1911 12.4686 65.1439 12.5469 65.1118C12.6251 65.0797 12.7089 65.0633 12.7935 65.0635H19.2323C19.4029 65.0635 19.5665 65.131 19.6872 65.2512C19.8078 65.3713 19.8756 65.5343 19.8756 65.7043L19.8771 69.7866Z" fill="#B3E59F"/>
<path d="M24.1308 30.2547C25.083 30.2547 25.8549 29.4857 25.8549 28.5371C25.8549 27.5885 25.083 26.8195 24.1308 26.8195C23.1785 26.8195 22.4066 27.5885 22.4066 28.5371C22.4066 29.4857 23.1785 30.2547 24.1308 30.2547Z" fill="#3A3A3A"/>
<path d="M35.3948 30.2547C36.347 30.2547 37.119 29.4857 37.119 28.5371C37.119 27.5885 36.347 26.8195 35.3948 26.8195C34.4425 26.8195 33.6706 27.5885 33.6706 28.5371C33.6706 29.4857 34.4425 30.2547 35.3948 30.2547Z" fill="#3A3A3A"/>
<path d="M79.7453 62.2194C79.7644 64.4285 79.3417 66.6192 78.5018 68.6637C77.662 70.7082 76.4218 72.5656 74.8536 74.1276C73.2854 75.6895 71.4207 76.9247 69.3682 77.761C67.3157 78.5973 65.1166 79.018 62.8991 78.9985C53.8312 78.9209 46.422 71.5399 46.3442 62.5065C46.3248 60.2973 46.7474 58.1065 47.5872 56.0618C48.427 54.017 49.6671 52.1594 51.2353 50.5973C52.8035 49.0352 54.6683 47.8 56.7209 46.9636C58.7735 46.1272 60.9728 45.7064 63.1904 45.7259C72.2567 45.8019 79.6674 53.1844 79.7453 62.2194Z" fill="#FF8086"/>
<path d="M63.1904 45.7258C62.0618 45.7161 60.9352 45.8201 59.8277 46.0362C67.4502 47.5242 73.2644 54.2255 73.333 62.221C73.3668 66.1022 72.0375 69.873 69.5752 72.881C67.113 75.889 63.6726 77.9448 59.8495 78.6928C62.2802 79.1668 64.7863 79.0959 67.1861 78.4853C69.5859 77.8746 71.8191 76.7396 73.7239 75.1624C75.6288 73.5853 77.1573 71.6056 78.1988 69.3669C79.2403 67.1282 79.7686 64.6867 79.7453 62.2194C79.6674 53.1844 72.2567 45.8019 63.1904 45.7258Z" fill="#E5646E"/>
<path d="M63.0439 57.2745C66.5048 52.8741 73.4591 56.9517 71.5839 62.5499C70.4064 66.0705 66.2104 68.5639 63.0439 71.2032C59.879 68.5655 55.6831 66.0705 54.5056 62.5499C52.6303 56.9517 59.5847 52.8741 63.0439 57.2745Z" fill="white"/>
<path d="M29.8515 36.9003C27.671 36.9003 25.4905 36.6226 24.3597 34.6039C24.303 34.5059 24.2665 34.3976 24.2522 34.2854C24.2379 34.1732 24.2462 34.0593 24.2765 33.9503C24.3068 33.8413 24.3586 33.7394 24.4287 33.6505C24.4989 33.5616 24.5862 33.4875 24.6854 33.4324C24.7846 33.3774 24.8938 33.3426 25.0066 33.33C25.1194 33.3174 25.2337 33.3273 25.3426 33.359C25.4516 33.3908 25.5531 33.4438 25.6414 33.515C25.7296 33.5862 25.8027 33.6742 25.8565 33.7738C26.3315 34.6272 27.1928 35.1935 29.8515 35.1935C32.1614 35.1935 33.1551 34.5729 33.9369 33.6419C34.0081 33.553 34.0964 33.4791 34.1966 33.4247C34.2968 33.3702 34.4069 33.3362 34.5205 33.3248C34.634 33.3133 34.7488 33.3246 34.8579 33.3579C34.967 33.3912 35.0684 33.446 35.156 33.5189C35.2436 33.5918 35.3157 33.6814 35.3681 33.7824C35.4204 33.8835 35.452 33.9939 35.4609 34.1073C35.4698 34.2207 35.4558 34.3347 35.4199 34.4426C35.3839 34.5506 35.3267 34.6502 35.2515 34.7358C34.3544 35.8064 33.0102 36.9003 29.8515 36.9003Z" fill="#7F2644"/>
</g>
<defs>
<clipPath id="clip0">
<rect width="79.7453" height="79" fill="white"/>
</clipPath>
</defs>
</svg>
