<svg width="21" height="23" viewBox="0 0 21 23" fill="none" xmlns="http://www.w3.org/2000/svg">
<path d="M18.9753 15.8604H1.98352C2.76212 15.8604 3.20235 15.453 3.45226 14.7778C4.66101 11.5173 1.44128 2.01538 10.4797 2.01538C19.5179 2.01538 16.2976 11.5173 17.5065 14.7778C17.7568 15.453 18.1972 15.8604 18.9753 15.8604Z" fill="#F7D360"/>
<path d="M20.6204 17.5056C20.6204 18.4142 19.8837 19.1507 18.9753 19.1507H1.98352C1.52922 19.1507 1.11785 18.9667 0.820139 18.6689C0.522428 18.3712 0.338379 17.9599 0.338379 17.5056C0.338379 16.5971 1.07492 15.8606 1.98352 15.8606H18.9753C19.4296 15.8606 19.841 16.0446 20.1387 16.3424C20.4364 16.6401 20.6204 17.0514 20.6204 17.5056Z" fill="#E58E13"/>
<path d="M17.5067 14.778H8.67503C7.72297 14.778 6.96157 13.9898 6.99112 13.0381C7.11556 9.01164 6.47338 2.09199 10.4135 2.01587C-0.40217 2.07183 6.51161 15.8605 1.9837 15.8605H18.9754C18.1973 15.8605 17.7569 15.4532 17.5067 14.778Z" fill="#E58E13"/>
<path d="M20.6204 17.5056C20.6204 18.4142 19.8837 19.1507 18.9753 19.1507H6.73732C6.28319 19.1507 5.87182 18.9667 5.57411 18.6689C5.2764 18.3712 5.09235 17.9599 5.09235 17.5056C5.09235 16.5971 5.82889 15.8606 6.73732 15.8606H18.9753C19.4296 15.8606 19.8409 16.0446 20.1386 16.3424C20.4364 16.6401 20.6204 17.0514 20.6204 17.5056Z" fill="#F7D360"/>
<path d="M13.7698 19.1506C13.7698 20.6635 12.7489 21.9374 11.3592 22.3222C11.0791 22.3997 10.7841 22.4413 10.4797 22.4413C8.66211 22.4413 7.18903 20.968 7.18903 19.1506L13.7698 19.1506Z" fill="#E58E13"/>
<path d="M13.6106 20.1655C13.2719 21.2111 12.4238 22.0276 11.3593 22.3221C10.69 22.1371 10.1064 21.7458 9.68092 21.2212C9.33802 20.7981 9.64738 20.1655 10.1919 20.1655H13.6106Z" fill="#F7D360"/>
<path d="M12.1518 2.14133C12.1554 2.09979 12.1568 2.05791 12.1568 2.0155C12.1568 1.08935 11.4057 0.338379 10.4797 0.338379C9.553 0.338379 8.80255 1.08935 8.80255 2.0155C8.80255 2.05791 8.80377 2.09979 8.80742 2.14133" fill="#E58E13"/>
<path fill-rule="evenodd" clip-rule="evenodd" d="M18.9753 15.522H18.9739C18.3189 15.5216 17.949 15.1817 17.7373 14.3861C17.521 13.5723 17.5137 12.3923 17.506 11.1429V11.1427C17.4968 9.62902 17.4864 7.91337 17.1101 6.37897C17.0656 6.19753 16.8823 6.08648 16.7008 6.13097C16.5196 6.17546 16.4085 6.35864 16.4528 6.54008C16.8102 7.9965 16.8204 9.66909 16.8294 11.145L16.8294 11.147L16.8295 11.1512V11.1512C16.8375 12.4434 16.845 13.6637 17.0834 14.5599C17.1871 14.95 17.3359 15.2707 17.5281 15.522H3.43071C3.62293 15.2707 3.7717 14.95 3.87546 14.5599C4.11408 13.6627 4.12155 12.4408 4.12937 11.147C4.14136 9.17186 4.15509 6.9332 4.96324 5.21993C5.87288 3.29133 7.67722 2.35371 10.4795 2.35371C12.0184 2.35371 13.2778 2.6429 14.2223 3.21347C15.0414 3.70809 15.6428 4.41109 16.0607 5.36262C16.1358 5.53363 16.3355 5.61149 16.5065 5.53624C16.6775 5.46116 16.7554 5.26164 16.6803 5.09046C16.2109 4.02196 15.5016 3.19557 14.5722 2.63421C13.9789 2.27585 13.2821 2.01741 12.4886 1.85995C12.4086 0.821182 11.5384 0 10.4795 0C9.42056 0 8.55019 0.821355 8.47077 1.8603C7.71372 2.01029 7.04443 2.25204 6.47004 2.58485C5.5458 3.12049 4.83289 3.91004 4.35113 4.93126C3.47938 6.77957 3.46513 9.09765 3.45279 11.1429L3.45278 11.1446C3.44513 12.3934 3.43791 13.5727 3.22146 14.3861C3.00978 15.1817 2.63995 15.5216 1.98491 15.522H1.98352C0.88983 15.522 0 16.4118 0 17.5057C0 18.5994 0.88983 19.4892 1.98352 19.4892H4.12485C4.31168 19.4892 4.46323 19.3377 4.46323 19.1508C4.46323 18.964 4.31168 18.8126 4.12485 18.8126H1.98352C1.26297 18.8126 0.676584 18.2262 0.676584 17.5057C0.676584 16.7851 1.26279 16.1989 1.98335 16.1987H1.98352H1.98474H18.9739H18.9751H18.9755C19.6958 16.1989 20.2821 16.7851 20.2821 17.5057C20.2821 18.2262 19.6957 18.8126 18.9751 18.8126H5.47819C5.29136 18.8126 5.13999 18.964 5.13999 19.1508C5.13999 19.3377 5.29136 19.4892 5.47819 19.4892H6.86699C7.03818 21.3321 8.5926 22.7797 10.4795 22.7797C12.3662 22.7797 13.9206 21.3321 14.0918 19.4892H18.9753C20.069 19.4892 20.9588 18.5994 20.9588 17.5057C20.9588 16.4118 20.069 15.522 18.9753 15.522ZM10.4795 0.676584C11.1274 0.676584 11.6693 1.1394 11.7922 1.75168C11.3768 1.70267 10.9395 1.67712 10.4795 1.67712C10.0195 1.67712 9.58219 1.7025 9.16699 1.75151C9.28987 1.13923 9.83158 0.676584 10.4795 0.676584ZM7.54722 19.4892C7.71563 20.9581 8.96609 22.1031 10.4795 22.1031C11.9927 22.1031 13.2432 20.9581 13.4116 19.4892H7.54722Z" fill="black"/>
<path d="M15.9116 2.12314C15.9177 2.12644 16.5201 2.47021 17.1127 3.2688C17.9066 4.33833 18.309 5.67447 18.309 7.24019C18.309 7.42702 18.4605 7.57857 18.6474 7.57857C18.8342 7.57857 18.9857 7.42702 18.9857 7.24019C18.9857 5.08478 18.2497 3.6541 17.6322 2.83362C16.9537 1.93197 16.2688 1.54736 16.2399 1.53137C16.0768 1.44134 15.872 1.50043 15.7813 1.66311C15.6906 1.82595 15.7492 2.03173 15.9116 2.12314Z" fill="black"/>
<path d="M18.4642 2.2474C18.5185 2.28303 19.7975 3.1414 19.7975 5.30098C19.7975 5.48781 19.9491 5.63919 20.1359 5.63919C20.3227 5.63919 20.4741 5.48781 20.4741 5.30098C20.4741 2.75384 18.8962 1.72028 18.8289 1.67753C18.672 1.5776 18.4645 1.62383 18.3637 1.78041C18.2629 1.93683 18.3083 2.14573 18.4642 2.2474Z" fill="black"/>
<path d="M2.31129 7.57862C2.49812 7.57862 2.64967 7.42707 2.64967 7.24024C2.64967 5.67452 3.05218 4.33838 3.8459 3.26885C4.43489 2.4753 5.03361 2.13084 5.04682 2.12319C5.20967 2.03264 5.26876 1.82722 5.17856 1.66402C5.08801 1.50048 4.88224 1.44122 4.7187 1.53142C4.68985 1.54741 4.00492 1.93202 3.32643 2.83366C2.70911 3.65415 1.97308 5.08483 1.97308 7.24024C1.97308 7.42707 2.12446 7.57862 2.31129 7.57862Z" fill="black"/>
<path d="M0.822937 5.63917C1.00977 5.63917 1.16114 5.48779 1.16114 5.30096C1.16114 3.14312 2.43819 2.28423 2.4945 2.24756C2.65091 2.14693 2.69679 1.93855 2.59686 1.78144C2.49658 1.62381 2.28751 1.57741 2.1297 1.67768C2.06262 1.72044 0.484558 2.75382 0.484558 5.30096C0.484558 5.48779 0.636107 5.63917 0.822937 5.63917Z" fill="black"/>
</svg>
