<svg width="21" height="21" viewBox="0 0 21 21" fill="none" xmlns="http://www.w3.org/2000/svg">
<path d="M6.65 17.15H18.55L20.65 19.95V6.65C20.65 5.8768 20.0232 5.25 19.25 5.25H6.65C5.8768 5.25 5.25 5.8768 5.25 6.65V15.75C5.25 16.5232 5.8768 17.15 6.65 17.15Z" fill="#6ED2F0"/>
<path d="M14.35 12.2501H2.44998L0.349976 15.0501V1.7501C0.349976 0.976899 0.976777 0.350098 1.74998 0.350098H14.35C15.1232 0.350098 15.75 0.976899 15.75 1.7501V10.8501C15.75 11.6233 15.1232 12.2501 14.35 12.2501Z" fill="#E9EEF2"/>
<path d="M8.04998 7.0001C8.43657 7.0001 8.74998 6.6867 8.74998 6.3001C8.74998 5.9135 8.43657 5.6001 8.04998 5.6001C7.66338 5.6001 7.34998 5.9135 7.34998 6.3001C7.34998 6.6867 7.66338 7.0001 8.04998 7.0001Z" fill="#C3C6C7"/>
<path d="M5.24999 7.0001C5.63659 7.0001 5.94999 6.6867 5.94999 6.3001C5.94999 5.9135 5.63659 5.6001 5.24999 5.6001C4.86339 5.6001 4.54999 5.9135 4.54999 6.3001C4.54999 6.6867 4.86339 7.0001 5.24999 7.0001Z" fill="#C3C6C7"/>
<path d="M10.85 7.0001C11.2366 7.0001 11.55 6.6867 11.55 6.3001C11.55 5.9135 11.2366 5.6001 10.85 5.6001C10.4634 5.6001 10.15 5.9135 10.15 6.3001C10.15 6.6867 10.4634 7.0001 10.85 7.0001Z" fill="#C3C6C7"/>
<path fill-rule="evenodd" clip-rule="evenodd" d="M19.25 4.9H16.1V1.75C16.0989 0.783951 15.316 0.00108497 14.35 0H1.75C0.783951 0.00108497 0.00108497 0.783951 0 1.75V15.05C0 15.2007 0.0964005 15.3344 0.23932 15.382C0.38224 15.4297 0.53961 15.3805 0.63 15.26L2.625 12.6H4.9V15.75C4.90108 16.716 5.68395 17.4989 6.65 17.5H18.375L20.37 20.16C20.4604 20.2805 20.6178 20.3297 20.7607 20.282C20.9036 20.2344 21 20.1007 21 19.95V6.65C20.9989 5.68395 20.216 4.90108 19.25 4.9ZM2.45 11.9C2.33983 11.9 2.2361 11.9519 2.17 12.04L0.7 14V1.75C0.700675 1.17038 1.17038 0.700675 1.75 0.7H14.35C14.9296 0.700675 15.3993 1.17038 15.4 1.75V10.85C15.3993 11.4296 14.9296 11.8993 14.35 11.9H2.45ZM18.83 16.94L20.3 18.9V6.65C20.2993 6.07038 19.8296 5.60068 19.25 5.6H16.1V7.7H17.85C18.0433 7.7 18.2 7.8567 18.2 8.05C18.2 8.2433 18.0433 8.4 17.85 8.4H16.1V9.8H17.85C18.0433 9.8 18.2 9.9567 18.2 10.15C18.2 10.3433 18.0433 10.5 17.85 10.5H16.1V10.85C16.0989 11.816 15.316 12.5989 14.35 12.6H5.6V15.75C5.60068 16.3296 6.07038 16.7993 6.65 16.8H18.55C18.6602 16.8 18.7639 16.8519 18.83 16.94Z" fill="black"/>
<path fill-rule="evenodd" clip-rule="evenodd" d="M7 6.3C7 5.7201 7.4701 5.25 8.05 5.25C8.62963 5.25065 9.09935 5.72037 9.1 6.3C9.1 6.8799 8.6299 7.35 8.05 7.35C7.4701 7.35 7 6.8799 7 6.3ZM7.7 6.3C7.7 6.4933 7.8567 6.65 8.05 6.65C8.24321 6.64978 8.39978 6.49321 8.4 6.3C8.4 6.1067 8.2433 5.95 8.05 5.95C7.8567 5.95 7.7 6.1067 7.7 6.3Z" fill="black"/>
<path fill-rule="evenodd" clip-rule="evenodd" d="M4.20001 6.3C4.20001 5.7201 4.67011 5.25 5.25001 5.25C5.82964 5.25065 6.29936 5.72037 6.30001 6.3C6.30001 6.8799 5.82991 7.35 5.25001 7.35C4.67011 7.35 4.20001 6.8799 4.20001 6.3ZM4.90001 6.3C4.90001 6.4933 5.05671 6.65 5.25001 6.65C5.44322 6.64978 5.5998 6.49321 5.60001 6.3C5.60001 6.1067 5.44331 5.95 5.25001 5.95C5.05671 5.95 4.90001 6.1067 4.90001 6.3Z" fill="black"/>
<path fill-rule="evenodd" clip-rule="evenodd" d="M9.79999 6.3C9.79999 5.7201 10.2701 5.25 10.85 5.25C11.4296 5.25065 11.8993 5.72037 11.9 6.3C11.9 6.8799 11.4299 7.35 10.85 7.35C10.2701 7.35 9.79999 6.8799 9.79999 6.3ZM10.5 6.3C10.5 6.4933 10.6567 6.65 10.85 6.65C11.0432 6.64978 11.1998 6.49321 11.2 6.3C11.2 6.1067 11.0433 5.95 10.85 5.95C10.6567 5.95 10.5 6.1067 10.5 6.3Z" fill="black"/>
<path d="M8.05001 14.7C8.24331 14.7 8.40001 14.5433 8.40001 14.35C8.40001 14.1567 8.24331 14 8.05001 14C7.85671 14 7.70001 14.1567 7.70001 14.35C7.70001 14.5433 7.85671 14.7 8.05001 14.7Z" fill="black"/>
<path d="M17.85 11.8999H16.8C16.6067 11.8999 16.45 12.0566 16.45 12.2499C16.45 12.4432 16.6067 12.5999 16.8 12.5999H17.85C18.0433 12.5999 18.2 12.4432 18.2 12.2499C18.2 12.0566 18.0433 11.8999 17.85 11.8999Z" fill="black"/>
<path d="M17.85 14H15.05C14.8567 14 14.7 14.1567 14.7 14.35C14.7 14.5433 14.8567 14.7 15.05 14.7H17.85C18.0433 14.7 18.2 14.5433 18.2 14.35C18.2 14.1567 18.0433 14 17.85 14Z" fill="black"/>
<path d="M13.65 14H9.44998C9.25668 14 9.09998 14.1567 9.09998 14.35C9.09998 14.5433 9.25668 14.7 9.44998 14.7H13.65C13.8433 14.7 14 14.5433 14 14.35C14 14.1567 13.8433 14 13.65 14Z" fill="black"/>
</svg>
