<svg width="79" height="79" viewBox="0 0 79 79" fill="none" xmlns="http://www.w3.org/2000/svg">
<path d="M66.4008 2.72414C66.3962 1.22174 65.1791 0.00465552 63.6767 0H21.4526V13.6207C21.4526 15.1251 20.2328 16.3448 18.7284 16.3448H3.74567V76.2759C3.75032 77.7783 4.96741 78.9953 6.4698 79H63.6767C65.1791 78.9953 66.3962 77.7783 66.4008 76.2759V2.72414Z" fill="#FFE9CC"/>
<path d="M24.617 71.7514L26.5424 58.2677L35.2109 61.1568L38.1014 69.8253L24.617 71.7514Z" fill="#939598"/>
<path d="M21.4526 79H63.6767C65.1811 79 66.4009 77.7802 66.4009 76.2758V36.8995C58.9607 57.2794 42.2747 72.9079 21.4526 79Z" fill="#FFE2BD"/>
<path d="M55.4378 29.3736L59.2899 25.5215L70.8475 37.0791L66.9954 40.9312L55.4378 29.3736Z" fill="#ACABB1"/>
<path d="M66.1202 21.2484C65.6593 21.2936 65.2037 21.3801 64.7581 21.5071C63.4193 21.8882 62.2002 22.6051 61.2166 23.5908L59.2965 25.5255L70.8468 37.0758L72.7669 35.1551C75.2184 32.7056 75.8582 28.9765 74.3637 25.85C72.8693 22.7235 69.5659 20.8793 66.1202 21.2484Z" fill="#C6C5CA"/>
<path d="M55.4444 29.3663L26.541 58.2691L34.2559 62.1185L51.5857 44.7821L34.2559 62.1185L35.995 65.5962L38.112 69.8181L66.1281 41.8032L67 40.9313L64.7634 38.6953L55.4444 29.3663ZM55.5681 40.7996L57.4955 38.8735L55.5681 40.7996Z" fill="#FFD733"/>
<path d="M21.4526 13.6207V0L3.74567 16.3448H18.7284C20.2328 16.3448 21.4526 15.1251 21.4526 13.6207Z" fill="#FFA993"/>
<path d="M37.9012 59.8299C37.3498 59.8306 36.8524 59.4987 36.6415 58.9893C36.4307 58.4798 36.5477 57.8932 36.9381 57.5035L51.5545 42.8919C51.8883 42.5081 52.4084 42.3432 52.9026 42.4635C53.3967 42.5833 53.7831 42.969 53.9035 43.4631C54.0245 43.9573 53.8603 44.4774 53.4778 44.8119L38.8642 59.4309C38.6088 59.6863 38.2623 59.8299 37.9012 59.8299Z" fill="#F1F2F2"/>
<path d="M56.3662 41.3634C55.8155 41.3628 55.3194 41.0316 55.1085 40.5221C54.8977 40.0133 55.0141 39.4274 55.4032 39.0383L57.3292 37.1123C57.8639 36.5962 58.7132 36.6035 59.2387 37.1289C59.7641 37.6543 59.7714 38.5036 59.2553 39.0383L57.3292 40.9644C57.0745 41.2204 56.728 41.3641 56.3662 41.3634Z" fill="#F1F2F2"/>
<path d="M41.8836 36.7759H13.2802C12.528 36.7759 11.9181 36.166 11.9181 35.4138C11.9181 34.6616 12.528 34.0518 13.2802 34.0518H41.8836C42.6358 34.0518 43.2457 34.6616 43.2457 35.4138C43.2457 36.166 42.6358 36.7759 41.8836 36.7759Z" fill="#FF7956"/>
<path d="M33.7112 44.9483H13.2802C12.528 44.9483 11.9181 44.3384 11.9181 43.5862C11.9181 42.834 12.528 42.2241 13.2802 42.2241H33.7112C34.4634 42.2241 35.0733 42.834 35.0733 43.5862C35.0733 44.3384 34.4634 44.9483 33.7112 44.9483Z" fill="#FF7956"/>
<path d="M25.5388 53.1207H13.2802C12.528 53.1207 11.9181 52.5109 11.9181 51.7587C11.9181 51.0065 12.528 50.3966 13.2802 50.3966H25.5388C26.291 50.3966 26.9009 51.0065 26.9009 51.7587C26.9009 52.5109 26.291 53.1207 25.5388 53.1207Z" fill="#FF7956"/>
<path d="M50.056 28.6034H24.1767C23.4245 28.6034 22.8146 27.9935 22.8146 27.2413C22.8146 26.4891 23.4245 25.8793 24.1767 25.8793H50.056C50.8082 25.8793 51.4181 26.4891 51.4181 27.2413C51.4181 27.9935 50.8082 28.6034 50.056 28.6034Z" fill="#FF7956"/>
<path d="M18.7284 28.6034H13.2802C12.528 28.6034 11.9181 27.9935 11.9181 27.2413C11.9181 26.4891 12.528 25.8793 13.2802 25.8793H18.7284C19.4806 25.8793 20.0905 26.4891 20.0905 27.2413C20.0905 27.9935 19.4806 28.6034 18.7284 28.6034Z" fill="#FF7956"/>
</svg>
