<svg width="58" height="58" viewBox="0 0 58 58" fill="none" xmlns="http://www.w3.org/2000/svg">
<path fill-rule="evenodd" clip-rule="evenodd" d="M10.1949 1H47.8056C48.6743 0.999977 49.4361 1.58 49.6671 2.41738L57.0002 29H1.00024L8.33818 2.41738C8.56876 1.58172 9.32798 1.00214 10.1949 1ZM6.07211 25.1379H51.9284L50.064 18.3793L46.3351 4.86207H11.6653L7.93652 18.3793L6.07211 25.1379Z" fill="#EDEADA"/>
<path fill-rule="evenodd" clip-rule="evenodd" d="M4.86231 57C2.72935 57 1.00024 55.2709 1.00024 53.1379V29H57.0002V53.1379C57.0002 55.2709 55.2711 57 53.1382 57H4.86231ZM36.3507 34.7931H21.6498C21.3392 34.7927 21.0475 34.9417 20.8657 35.1935C20.684 35.4453 20.6344 35.7691 20.7325 36.0637L21.7994 39.2654C22.0624 40.055 22.8017 40.5872 23.6339 40.5862H34.3666C35.1999 40.5885 35.9407 40.056 36.204 39.2654L37.266 36.0637C37.3641 35.7694 37.3147 35.446 37.1334 35.1943C36.9521 34.9426 36.6609 34.7933 36.3507 34.7931Z" fill="#EDEADA"/>
<path fill-rule="evenodd" clip-rule="evenodd" d="M57.9654 28.7429L50.6236 2.12667C50.2732 0.871621 49.131 0.00268838 47.828 0H10.1724C8.86941 0.00268838 7.72716 0.871621 7.37683 2.12667L0.0301628 28.7409C0.00851752 28.8255 -0.00156309 28.9127 0.000196164 29V53.1667C0.00339208 55.8347 2.16548 57.9968 4.83353 58H53.1669C55.8349 57.9968 57.997 55.8347 58.0002 53.1667V29C58.0002 28.9131 57.9885 28.8266 57.9654 28.7429ZM9.2454 2.64287C9.36059 2.2254 9.73937 1.93549 10.1724 1.93333H47.828C48.2628 1.93332 48.6442 2.22368 48.7598 2.64287L55.7643 28.0333H2.2361L9.2454 2.64287ZM4.83353 56.0667H53.1669C54.7685 56.0667 56.0669 54.7683 56.0669 53.1667V29.9667H1.93353V53.1667C1.93353 54.7683 3.2319 56.0667 4.83353 56.0667Z" fill="#8E8872"/>
<path fill-rule="evenodd" clip-rule="evenodd" d="M6.04966 26.1C5.74641 26.1014 5.46009 25.9604 5.27632 25.7192C5.09322 25.4791 5.03279 25.1673 5.11296 24.8762L10.7129 4.57623C10.8285 4.15704 11.2099 3.86669 11.6447 3.8667H46.3558C46.7906 3.86669 47.172 4.15704 47.2877 4.57623L52.8876 24.8762C52.9678 25.1672 52.9076 25.4789 52.7248 25.719C52.542 25.9591 52.2575 26.1 51.9557 26.1H6.04966ZM8.64709 19.3334L7.31406 24.1667H50.6865L49.3534 19.3334H8.64709ZM10.5137 12.5667H47.4868L48.8169 17.4H9.18359L10.5137 12.5667ZM45.6192 5.80003H12.3813L11.0473 10.6334H46.9532L45.6192 5.80003Z" fill="#8E8872"/>
<path fill-rule="evenodd" clip-rule="evenodd" d="M21.6409 33.8334H36.3594C36.9801 33.835 37.5622 34.1345 37.9244 34.6385C38.2866 35.1426 38.3848 35.7898 38.1883 36.3786L37.125 39.5831C36.7305 40.7675 35.6223 41.5666 34.3739 41.5667H23.6265C22.3801 41.5647 21.2744 40.7664 20.8802 39.5841L19.8043 36.3776C19.6078 35.7877 19.707 35.1393 20.071 34.6351C20.4349 34.1309 21.0191 33.8326 21.6409 33.8334ZM34.3739 39.6334C34.7898 39.6331 35.1589 39.3668 35.2903 38.9722L36.3584 35.7667H21.6409L22.7101 38.9722C22.8415 39.3668 23.2106 39.6331 23.6265 39.6334H34.3739Z" fill="#8E8872"/>
</svg>
