<svg width="79" height="79" viewBox="0 0 79 79" fill="none" xmlns="http://www.w3.org/2000/svg">
<g clip-path="url(#clip0)">
<path d="M49.5424 56.2374C49.2936 56.2375 49.0497 56.1684 48.838 56.0378C48.6264 55.9071 48.4553 55.72 48.344 55.4976L40.1695 39.1469L31.995 55.4976C31.9163 55.655 31.8074 55.7953 31.6745 55.9106C31.5415 56.0259 31.3872 56.1138 31.2203 56.1695C31.0534 56.2251 30.8771 56.2473 30.7016 56.2349C30.5261 56.2224 30.3548 56.1755 30.1974 56.0968C30.04 56.0181 29.8997 55.9092 29.7844 55.7762C29.6691 55.6433 29.5812 55.489 29.5255 55.3221C29.4699 55.1552 29.4477 54.9789 29.4601 54.8034C29.4726 54.6279 29.5195 54.4566 29.5982 54.2992L38.9711 35.5534C39.4263 34.6463 40.9126 34.6463 41.3679 35.5534L50.7407 54.2992C50.8429 54.5034 50.8912 54.7304 50.881 54.9585C50.8707 55.1866 50.8023 55.4083 50.6822 55.6026C50.5621 55.7968 50.3943 55.9571 50.1948 56.0682C49.9953 56.1793 49.7707 56.2375 49.5424 56.2374Z" fill="#95573A"/>
<path d="M20.0847 56.2374C19.836 56.2375 19.5921 56.1684 19.3804 56.0378C19.1687 55.9071 18.9976 55.72 18.8863 55.4976L10.7118 39.1469L2.53734 55.4976C2.37842 55.8152 2.09985 56.0567 1.76289 56.1689C1.42594 56.2811 1.0582 56.2548 0.740593 56.0959C0.422982 55.937 0.181509 55.6584 0.069295 55.3215C-0.0429189 54.9845 -0.0166818 54.6168 0.142235 54.2992L9.51512 35.5534C9.97037 34.6463 11.455 34.6463 11.9102 35.5534L21.2831 54.2992C21.3853 54.5034 21.4336 54.7304 21.4233 54.9585C21.4131 55.1866 21.3446 55.4083 21.2245 55.6025C21.1044 55.7968 20.9367 55.9571 20.7372 56.0682C20.5377 56.1793 20.3131 56.2375 20.0847 56.2374Z" fill="#95573A"/>
<path d="M33.4746 73.644C33.4746 72.2235 32.9103 70.8612 31.9059 69.8568C30.9014 68.8524 29.5391 68.2881 28.1187 68.2881H22.7627C21.3422 68.2881 19.9799 68.8524 18.9755 69.8568C17.9711 70.8612 17.4068 72.2235 17.4068 73.644C15.9863 73.644 14.624 74.2083 13.6196 75.2127C12.6152 76.2172 12.0509 77.5795 12.0509 79H38.8305C38.8305 77.5795 38.2662 76.2172 37.2618 75.2127C36.2574 74.2083 34.8951 73.644 33.4746 73.644Z" fill="#FFB531"/>
<path d="M33.4745 73.644C33.4745 72.2235 32.9103 70.8612 31.9058 69.8568C30.9014 68.8524 29.5391 68.2881 28.1186 68.2881H22.7627C22.3101 68.2932 21.86 68.3568 21.4237 68.4772C22.5711 68.7717 23.5882 69.4389 24.3152 70.3741C25.0423 71.3093 25.4381 72.4595 25.4406 73.644C26.8611 73.644 28.2234 74.2083 29.2279 75.2127C30.2323 76.2172 30.7966 77.5795 30.7966 79H38.8305C38.8305 77.5795 38.2662 76.2172 37.2618 75.2127C36.2573 74.2083 34.895 73.644 33.4745 73.644Z" fill="#FFA912"/>
<path d="M0 54.8983H21.4237C21.4237 56.3188 20.8594 57.6811 19.855 58.6855C18.8506 59.69 17.4883 60.2543 16.0678 60.2543H5.35593C3.93545 60.2543 2.57315 59.69 1.56872 58.6855C0.564284 57.6811 0 56.3188 0 54.8983Z" fill="#FFB531"/>
<path d="M16.0678 54.8983C16.0678 57.8558 12.3304 60.2543 9.37289 60.2543H16.0678C17.4883 60.2543 18.8506 59.69 19.855 58.6855C20.8595 57.6811 21.4237 56.3188 21.4237 54.8983H16.0678Z" fill="#FFA912"/>
<path d="M25.4407 37.4915C24.2052 37.4941 22.9835 37.2328 21.8572 36.7249L18.8445 35.3491C18.0028 34.9735 17.0865 34.7948 16.1654 34.8267C15.2442 34.8586 14.3424 35.1002 13.5288 35.5332C12.5186 36.0793 11.4102 36.4197 10.2676 36.5346C9.12504 36.6495 7.97102 36.5367 6.87234 36.2027L6.31164 36.0354L7.0916 33.4712L7.65062 33.6386C8.40857 33.8697 9.20479 33.9485 9.99334 33.8704C10.7819 33.7922 11.5472 33.5587 12.245 33.1833C13.4218 32.5461 14.7302 32.1898 16.0676 32.1425C17.405 32.0952 18.7353 32.358 19.9542 32.9105L22.9669 34.2863C23.7446 34.6355 24.5874 34.816 25.4399 34.816C26.2923 34.816 27.1351 34.6355 27.9128 34.2863L30.9255 32.9105C32.1445 32.3572 33.4751 32.0939 34.813 32.1413C36.1508 32.1886 37.4595 32.5453 38.6364 33.1833C39.3352 33.5602 40.1018 33.7948 40.8918 33.8736C41.6819 33.9523 42.4797 33.8735 43.2391 33.6419L43.7965 33.4746L44.5764 36.0387L44.0157 36.2061C42.9171 36.5401 41.763 36.6529 40.6205 36.538C39.4779 36.4231 38.3695 36.0827 37.3593 35.5366C36.5456 35.1036 35.6439 34.8619 34.7227 34.83C33.8015 34.7981 32.8852 34.9768 32.0435 35.3525L29.0308 36.7283C27.9023 37.2359 26.6782 37.4961 25.4407 37.4915Z" fill="#F7A116"/>
<path d="M29.4576 32.1356C29.4609 31.4647 29.2961 30.8037 28.9783 30.2129C28.6605 29.6221 28.1998 29.1202 27.6382 28.7532C27.0766 28.3862 26.432 28.1657 25.7633 28.1118C25.0945 28.058 24.423 28.1725 23.8099 28.4448C23.1968 28.7172 22.6616 29.1388 22.2533 29.6711C21.845 30.2035 21.5766 30.8296 21.4724 31.4924C21.3683 32.1551 21.4318 32.8334 21.6572 33.4653C21.8826 34.0972 22.2627 34.6626 22.7627 35.1098V68.2882H28.1186V35.1098C28.539 34.7366 28.8756 34.2786 29.1063 33.766C29.3371 33.2534 29.4568 32.6978 29.4576 32.1356Z" fill="#FFB531"/>
<path d="M17.4068 72.3051H33.4746C33.8297 72.3051 34.1703 72.4461 34.4214 72.6972C34.6725 72.9483 34.8136 73.2889 34.8136 73.644C34.8136 73.9992 34.6725 74.3397 34.4214 74.5908C34.1703 74.842 33.8297 74.983 33.4746 74.983H17.4068C17.0517 74.983 16.7111 74.842 16.46 74.5908C16.2089 74.3397 16.0678 73.9992 16.0678 73.644C16.0678 73.2889 16.2089 72.9483 16.46 72.6972C16.7111 72.4461 17.0517 72.3051 17.4068 72.3051Z" fill="#F7A116"/>
<path d="M46.8644 40.1695V30.7966H60.2542V40.1695L64.2712 44.1865L53.5593 72.3051L42.8475 44.1865L46.8644 40.1695Z" fill="#FEC9A3"/>
<path d="M64.2712 44.1864L53.5593 72.305L42.8475 44.1864L46.8644 40.1694L53.5593 46.8643L60.2542 40.1694L64.2712 44.1864Z" fill="#BFBFBD"/>
<path d="M42.8475 44.1864L53.5593 72.305L64.2712 44.1864L60.2542 40.1694L53.5593 46.8643L46.8644 40.1694L42.8475 44.1864Z" fill="#BFBFBD"/>
<path d="M56.2373 44.1864V72.305H50.8813V44.1864L53.5593 46.8644L56.2373 44.1864Z" fill="#95573A"/>
<path d="M56.2373 60.1287V72.305H50.8813V64.8787C52.7074 63.3891 54.4932 61.8158 56.2373 60.1287Z" fill="#8F4D2E"/>
<path d="M53.5593 46.8644L46.8493 54.6924L42.8475 44.1864L46.8644 40.1694L53.5593 46.8644Z" fill="#E0E0DE"/>
<path d="M64.2712 44.1864L60.2693 54.6924L53.5593 46.8644L60.2542 40.1694L64.2712 44.1864Z" fill="#E0E0DE"/>
<path d="M60.2542 36.7986V33.4746H46.8644V36.7986C48.8461 38.1227 51.1759 38.8294 53.5593 38.8294C55.9427 38.8294 58.2725 38.1227 60.2542 36.7986Z" fill="#FEB784"/>
<path d="M65.6102 14.3254H66.9491C68.0145 14.3254 69.0362 14.7487 69.7896 15.502C70.5429 16.2553 70.9661 17.277 70.9661 18.3424C70.9661 19.4077 70.5429 20.4295 69.7896 21.1828C69.0362 21.9361 68.0145 22.3593 66.9491 22.3593H65.6102V14.3254Z" fill="#FEB784"/>
<path d="M41.5085 14.3254H40.1695C39.1041 14.3254 38.0824 14.7487 37.3291 15.502C36.5758 16.2553 36.1525 17.277 36.1525 18.3424C36.1525 19.4077 36.5758 20.4295 37.3291 21.1828C38.0824 21.9361 39.1041 22.3593 40.1695 22.3593H41.5888" fill="#FEB784"/>
<path d="M65.6101 13.3898V24.1017C65.6101 27.2978 64.3405 30.363 62.0805 32.6229C59.8206 34.8829 56.7554 36.1525 53.5593 36.1525C50.3632 36.1525 47.298 34.8829 45.0381 32.6229C42.7781 30.363 41.5084 27.2978 41.5084 24.1017V13.3898C41.5084 10.1938 42.7781 7.12857 45.0381 4.8686C47.298 2.60863 50.3632 1.33899 53.5593 1.33899H53.6597C56.8384 1.36548 59.8778 2.6468 62.1161 4.90391C64.3544 7.16102 65.6102 10.2111 65.6101 13.3898Z" fill="#FEC9A3"/>
<path d="M65.6102 13.3898V24.1017C65.6106 26.0255 65.1504 27.9214 64.2682 29.6309C63.3859 31.3405 62.1072 32.814 60.539 33.9282C58.9707 35.0424 57.1585 35.765 55.2538 36.0355C53.3491 36.306 51.4074 36.1166 49.5909 35.4831C52.5857 34.5456 55.2028 32.6761 57.0607 30.1471C58.9186 27.6181 59.9202 24.5618 59.9195 21.4237V13.3898C59.9196 11.0263 59.3508 8.69742 58.2613 6.59996C57.1718 4.50249 55.5935 2.69803 53.6597 1.33899C56.8384 1.36548 59.8778 2.6468 62.1161 4.90391C64.3544 7.16102 65.6103 10.2111 65.6102 13.3898Z" fill="#FEC093"/>
<path d="M47.5339 18.7457C48.6432 18.7457 49.5424 17.8465 49.5424 16.7372C49.5424 15.628 48.6432 14.7288 47.5339 14.7288C46.4247 14.7288 45.5254 15.628 45.5254 16.7372C45.5254 17.8465 46.4247 18.7457 47.5339 18.7457Z" fill="#7A432A"/>
<path d="M59.5847 18.7457C60.694 18.7457 61.5932 17.8465 61.5932 16.7372C61.5932 15.628 60.694 14.7288 59.5847 14.7288C58.4755 14.7288 57.5762 15.628 57.5762 16.7372C57.5762 17.8465 58.4755 18.7457 59.5847 18.7457Z" fill="#7A432A"/>
<path d="M65.6101 8.96954V14.3255C63.608 11.8968 61.9685 9.19069 60.7429 6.29157C59.9977 6.57041 59.2364 6.80459 58.4633 6.99287C56.8586 7.38788 55.2119 7.58738 53.5593 7.58704C51.1072 7.58709 48.6749 7.14836 46.3773 6.29157C45.1505 9.19043 43.5105 11.8964 41.5085 14.3255V8.96954C41.4987 7.41495 41.8846 5.88344 42.6299 4.51909C43.2927 3.28891 44.2987 2.27775 45.5254 1.60848C47.4468 0.806069 49.478 0.297145 51.5508 0.0987762C52.2182 0.0318938 52.8886 -0.00106523 53.5593 2.62405e-05C56.3173 -0.000506306 59.048 0.546201 61.5932 1.60848C63.9565 2.84537 65.6101 5.67564 65.6101 8.96954Z" fill="#7A432A"/>
<path d="M52.0346 26.7797H49.5424V24.1017H52.0346C53.8673 24.1017 55.6414 23.68 56.9018 22.9452L58.2458 25.2583C56.572 26.2391 54.361 26.7797 52.0346 26.7797Z" fill="#F7A468"/>
<path d="M79 53.4304V79H28.1187V53.4304C28.1189 51.9375 28.6181 50.4874 29.537 49.3108C30.4559 48.1341 31.7417 47.2984 33.1901 46.9363L38.8305 45.5254L42.8475 44.1864L53.5594 72.305L64.2712 44.1864L68.2882 45.5254L73.9286 46.9363C75.377 47.2984 76.6628 48.1341 77.5817 49.3108C78.5006 50.4874 78.9998 51.9375 79 53.4304Z" fill="#3D4D63"/>
<path d="M79 53.8639V78.9999H42.8291C55.0975 75.4433 69.9619 68.2697 79 53.8639Z" fill="#374559"/>
<path d="M52.2203 72.3051H54.8983V79H52.2203V72.3051Z" fill="#22303D"/>
<path d="M46.8644 73.644H49.5424V76.322H46.8644V73.644Z" fill="#22303D"/>
<path d="M36.1525 66.9491H38.8305V78.9999H36.1525V66.9491Z" fill="#22303D"/>
<path d="M68.2881 66.9491H70.9661V78.9999H68.2881V66.9491Z" fill="#22303D"/>
<path d="M38.8305 45.5254L37.4915 58.9152H42.8474L41.5085 64.2711L53.5593 72.305L42.8474 44.1864L38.8305 45.5254Z" fill="#4C5D72"/>
<path d="M68.2881 45.5254L69.6271 58.9152H64.2712L65.6102 64.2711L53.5593 72.305L64.2712 44.1864L68.2881 45.5254Z" fill="#4C5D72"/>
<path d="M65.6102 8.96954V14.3255C63.6081 11.8968 61.9686 9.19069 60.743 6.29157C59.9977 6.57041 59.2365 6.80459 58.4634 6.99287C57.0049 3.97941 54.5682 1.5492 51.5509 0.0987762C52.2183 0.0318938 52.8886 -0.00106523 53.5593 2.62405e-05C56.3173 -0.000506306 59.048 0.546201 61.5932 1.60848C63.9565 2.84537 65.6102 5.67564 65.6102 8.96954Z" fill="#743B20"/>
</g>
<defs>
<clipPath id="clip0">
<rect width="79" height="79" fill="white"/>
</clipPath>
</defs>
</svg>
