<svg width="224" height="70" viewBox="0 0 224 70" fill="none" xmlns="http://www.w3.org/2000/svg">
<path fill-rule="evenodd" clip-rule="evenodd" d="M51.8189 1.03584C51.9167 1.19773 52.0302 1.38553 51.9926 1.79084C51.6665 2.03783 51.269 2.0711 50.8601 2.10531C50.2743 2.15434 49.6651 2.20531 49.2096 2.88989C48.6155 3.76359 47.9456 5.50705 48.2686 6.57842C48.8347 8.21573 48.606 9.77485 48.376 11.3427C48.2367 12.2923 48.0969 13.2451 48.133 14.2204C48.112 15.6449 47.5412 17.0074 46.5381 18.0275C46.2447 18.3047 45.7403 18.5699 45.2314 18.8374C44.5717 19.1843 43.9044 19.5351 43.6793 19.9212C43.3212 20.5034 42.7844 20.9763 42.2518 21.4456C41.9128 21.7443 41.5755 22.0415 41.287 22.3644C41.0375 22.632 40.9197 23.043 40.808 23.4328C40.7447 23.6535 40.6834 23.8674 40.6012 24.0446C40.1682 24.829 39.6139 25.5414 38.9585 26.1557C39.3094 26.4804 39.7178 26.7265 40.118 26.9676C41.0091 27.5046 41.8596 28.0171 41.9449 29.3185C42 30.1206 42.4782 30.6036 42.8993 31.029C43.5449 31.6812 44.0563 32.1977 42.7025 33.5209C42.1283 34.1612 41.3979 34.6444 40.5813 34.9244C40.2007 35.0208 39.9109 35.214 39.6335 35.3989C39.3878 35.5628 39.1517 35.7201 38.8708 35.7981C38.4272 35.9183 38.083 35.9379 37.818 35.953C37.1851 35.9891 37.0048 35.9994 37.0048 37.2925C36.9124 38.4762 36.8937 39.6645 36.949 40.8506C37.2098 42.9062 37.6855 44.9293 38.3684 46.8874C38.4975 47.2118 38.5928 47.5579 38.6882 47.904C38.8079 48.3385 38.9276 48.7729 39.114 49.1646C39.2987 49.5792 39.554 49.9851 39.8116 50.3946C40.2491 51.0901 40.6931 51.796 40.8086 52.5724C40.9101 53.2773 40.5832 53.8588 40.2552 54.4423C40.068 54.7752 39.8805 55.1088 39.7719 55.4663C39.441 56.422 39.27 57.4249 39.2655 58.4353C39.3213 59.5621 39.3612 60.4753 38.1252 60.926C37.4186 60.7399 36.9566 60.1105 36.5195 59.5151C36.3253 59.2504 36.1359 58.9925 35.9322 58.7832C35.5136 60.9813 31.3151 59.0442 30.6412 57.7712C30.3086 57.0816 30.5472 56.4364 30.7935 55.7705C30.9694 55.2949 31.1493 54.8087 31.1277 54.2882C31.0479 52.2443 30.8047 50.6076 29.5328 48.9195C28.6928 47.8071 28.3607 48.3274 27.8966 49.0543C27.6976 49.3659 27.4743 49.7156 27.1764 49.9908C26.2841 50.9373 25.2329 51.5047 24.1514 52.0884C23.7105 52.3264 23.2646 52.5671 22.8224 52.8373C21.7498 53.351 20.9064 54.2394 20.454 55.3319C20.3167 55.7559 20.3547 56.1609 20.3931 56.5698C20.4227 56.8854 20.4525 57.2033 20.4021 57.534C20.2802 58.0778 20.1192 58.6127 19.9582 59.1476C19.7821 59.7324 19.6061 60.3174 19.4811 60.9141C19.1621 62.4678 19.1462 62.8552 19.836 64.2864C20.6348 65.9195 19.3123 65.9278 17.9796 65.9362C17.809 65.9373 17.6381 65.9384 17.4716 65.9429C17.3129 65.9474 17.1464 65.9527 16.9737 65.9582C15.1933 66.0148 12.7419 66.0926 11.1718 65.5989C9.87106 65.2639 8.86055 64.2482 8.54027 62.9541C8.40098 62.1638 8.99918 61.4265 9.56744 60.7261C9.87764 60.3438 10.1789 59.9725 10.3465 59.6095C10.8376 58.6452 10.8046 57.5003 10.2587 56.5654C9.85944 55.7861 9.62913 54.9638 9.40612 54.1677C8.92548 52.4518 8.47876 50.857 6.44699 50.0739C5.68337 49.7795 4.94412 49.9788 4.19981 50.1795C3.56447 50.3508 2.92545 50.523 2.26444 50.3901C1.00522 50.0718 0.11575 48.9585 0.0914191 47.6702C0.0881044 47.6244 0.0842272 47.5729 0.0799754 47.5165C0.0126284 46.6225 -0.148692 44.4811 0.342612 43.9382C1.44706 42.7087 1.73813 45.8912 1.69825 46.3972C1.4989 47.773 1.5587 49.8248 3.5523 48.8246C4.75063 48.1619 5.2053 47.0004 5.67544 45.7993C5.69336 45.7535 5.7113 45.7077 5.7293 45.6619C5.89605 45.2365 6.05678 44.8169 6.21538 44.4028C7.3348 41.4802 8.34804 38.8348 10.6216 36.4109C12.3144 34.3602 14.8667 33.6395 17.3759 32.9311C17.8513 32.7968 18.3252 32.663 18.7913 32.5207C20.4055 32.0928 21.9515 31.4435 23.3846 30.5914C24.6897 29.767 24.5982 29.4846 24.3701 28.7804C24.2603 28.4412 24.1187 28.0041 24.0863 27.3615C24.0654 26.9539 24.3503 26.3128 24.6375 25.6664C24.8433 25.2033 25.0504 24.7375 25.1469 24.353C25.454 23.1098 26.8522 22.8389 28.0139 22.6137C28.3153 22.5553 28.6007 22.5 28.847 22.4316C29.316 21.9508 29.6654 21.305 30.0124 20.6635C30.2732 20.1815 30.5327 19.7019 30.8406 19.2965C31.8494 17.9208 33.827 16.9522 35.4617 16.4975C36.4685 16.2181 37.5554 16.0705 38.6412 15.9229C41.5805 15.5236 44.5124 15.1253 45.8284 12.1172C46.366 10.8922 46.3591 9.26158 46.3521 7.60489C46.3384 4.35839 46.3243 1.01192 50.4057 0.422956C50.6554 0.395978 50.8473 0.290645 51.0272 0.191854C51.2955 0.0445384 51.5373 -0.0882289 51.9049 0.0750561C51.5861 0.650737 51.6886 0.820328 51.8189 1.03584ZM34.9713 53.7901C34.7478 54.7016 34.7657 55.6548 35.0232 56.5575C37.7903 55.1659 37.4872 51.9557 35.1149 50.319C35.145 50.6535 35.1846 50.9406 35.2207 51.202C35.3419 52.0806 35.423 52.6688 34.9713 53.7901Z" fill="#B44F45"/>
<path d="M82.2536 47.5999H76.9274V23.0879H66.6107V47.5999H61.3003V18.1799H82.2418L82.2536 47.5999Z" fill="#030608"/>
<path fill-rule="evenodd" clip-rule="evenodd" d="M103.464 41.292C103.801 39.8425 103.965 38.3572 103.954 36.868V36.452C103.969 34.9257 103.805 33.4029 103.464 31.916C103.19 30.6709 102.709 29.4819 102.041 28.4C101.457 27.4611 100.654 26.6821 99.7021 26.132C98.716 25.5858 97.6058 25.31 96.4819 25.332C95.5111 25.3063 94.5501 25.535 93.6923 25.996C92.8811 26.4662 92.179 27.1074 91.6337 27.876L91.4559 25.736H86.7145V56H91.8313V45.696C92.3716 46.4014 93.0564 46.98 93.8385 47.392C94.6714 47.8105 95.5918 48.0191 96.5214 48C97.6425 48.0212 98.7475 47.7277 99.714 47.152C100.659 46.5674 101.456 45.7675 102.041 44.816C102.705 43.7295 103.186 42.5385 103.464 41.292ZM98.6353 33.928C98.7744 34.7592 98.8418 35.601 98.8368 36.444L98.825 36.88C98.8291 37.7121 98.7643 38.543 98.6314 39.364C98.5222 40.0755 98.3105 40.7668 98.0031 41.416C97.7429 41.9645 97.3534 42.4398 96.8691 42.8C96.3672 43.1468 95.7695 43.3233 95.1622 43.304C94.4219 43.3376 93.6898 43.1362 93.068 42.728C92.5128 42.3228 92.0803 41.7687 91.8195 41.128V32.18C92.0794 31.5493 92.518 31.0107 93.0799 30.632C93.6994 30.2534 94.4155 30.0683 95.1385 30.1C95.7443 30.0799 96.3416 30.2489 96.8494 30.584C97.3325 30.93 97.7234 31.3918 97.9873 31.928C98.3015 32.5579 98.52 33.2321 98.6353 33.928Z" fill="#030608"/>
<path fill-rule="evenodd" clip-rule="evenodd" d="M107.071 32.0359C106.658 33.4742 106.454 34.966 106.467 36.4639L106.475 36.8879C106.46 38.3873 106.664 39.8806 107.079 41.3199C107.438 42.5947 108.035 43.7881 108.837 44.8359C109.601 45.8185 110.575 46.6131 111.686 47.1599C114.142 48.2799 116.955 48.2799 119.411 47.1599C120.519 46.6129 121.491 45.8183 122.252 44.8359C123.055 43.7884 123.653 42.595 124.014 41.3199C124.426 39.88 124.628 38.387 124.615 36.8879V36.4639C124.624 34.9659 124.419 33.4744 124.006 32.0359C123.645 30.7586 123.047 29.5625 122.244 28.5119C121.481 27.5289 120.511 26.732 119.403 26.1799C118.193 25.5963 116.866 25.306 115.527 25.3319C114.187 25.302 112.859 25.5925 111.651 26.1799C110.542 26.7303 109.571 27.5276 108.81 28.5119C108.016 29.5651 107.426 30.7608 107.071 32.0359ZM111.785 39.3919C111.642 38.5652 111.572 37.7272 111.576 36.8879L111.599 36.4639C111.597 35.6406 111.667 34.8186 111.809 34.0079C111.93 33.296 112.161 32.6076 112.492 31.9679C112.78 31.4083 113.199 30.9289 113.713 30.5719C114.252 30.2173 114.884 30.0373 115.527 30.0559C116.172 30.0375 116.807 30.2144 117.352 30.5639C117.871 30.9202 118.295 31.3994 118.589 31.9599C118.927 32.5977 119.16 33.2866 119.28 33.9999C119.424 34.8131 119.492 35.638 119.486 36.4639V36.8879C119.49 37.7274 119.419 38.5656 119.273 39.3919C119.155 40.1034 118.921 40.7901 118.581 41.4239C118.285 41.9716 117.864 42.4394 117.352 42.7879C116.811 43.1353 116.179 43.3109 115.539 43.2919C114.886 43.3139 114.243 43.1384 113.689 42.7879C113.179 42.4401 112.76 41.972 112.469 41.4239C112.134 40.7881 111.904 40.102 111.785 39.3919Z" fill="#030608"/>
<path d="M143.26 30.4198H137.12V47.5998H131.984V30.4198H125.954V25.7358H143.26V30.4198Z" fill="#030608"/>
<path fill-rule="evenodd" clip-rule="evenodd" d="M145.248 32.0359C144.836 33.4744 144.633 34.9662 144.647 36.4639V36.8879C144.632 38.3871 144.834 39.8804 145.248 41.3199C145.607 42.5955 146.205 43.7892 147.01 44.8359C147.772 45.8203 148.747 46.6152 149.859 47.1599C152.315 48.2799 155.128 48.2799 157.584 47.1599C158.69 46.6118 159.66 45.8173 160.421 44.8359C161.224 43.7884 161.822 42.5949 162.183 41.3199C162.595 39.8799 162.797 38.3869 162.783 36.8879V36.4639C162.795 34.9663 162.593 33.4748 162.183 32.0359C161.822 30.7585 161.224 29.5625 160.421 28.5119C159.655 27.5262 158.678 26.7289 157.564 26.1799C156.354 25.5963 155.027 25.306 153.688 25.3319C152.357 25.3064 151.039 25.5968 149.839 26.1799C148.731 26.7303 147.759 27.5276 146.998 28.5119C146.2 29.5641 145.606 30.7599 145.248 32.0359ZM149.974 39.3919C149.827 38.5656 149.756 37.7274 149.76 36.8879L149.764 36.4639C149.761 35.6404 149.832 34.8182 149.977 34.0079C150.096 33.2957 150.325 32.6071 150.657 31.9679C150.945 31.4083 151.364 30.9289 151.878 30.5719C152.417 30.2173 153.049 30.0373 153.692 30.0559C154.343 30.0362 154.985 30.216 155.533 30.5719C156.051 30.9281 156.476 31.4074 156.77 31.9679C157.107 32.6057 157.341 33.2946 157.461 34.0079C157.606 34.8182 157.678 35.6404 157.674 36.4639V36.8999C157.679 37.7394 157.607 38.5776 157.461 39.4039C157.344 40.1154 157.11 40.8021 156.77 41.4359C156.474 41.9836 156.052 42.4514 155.541 42.7999C154.999 43.1473 154.368 43.3228 153.727 43.3039C153.075 43.3259 152.431 43.1504 151.878 42.7999C151.365 42.4492 150.945 41.9768 150.653 41.4239C150.319 40.7886 150.089 40.1022 149.974 39.3919Z" fill="#030608"/>
<path d="M173.582 39.5318H171.531V47.5998H166.415V25.7358H171.531V33.9558H173.353L177.529 25.7358H183.99L177.723 36.1358L184.57 47.5998H177.759L173.582 39.5318Z" fill="#030608"/>
<path fill-rule="evenodd" clip-rule="evenodd" d="M185.463 32.0359C185.043 33.4732 184.833 34.965 184.839 36.4639L184.859 36.8879C184.845 38.3873 185.048 39.8806 185.463 41.3199C185.823 42.5947 186.42 43.7881 187.222 44.8359C187.986 45.8185 188.96 46.6131 190.071 47.1599C192.527 48.2799 195.339 48.2799 197.795 47.1599C198.904 46.6129 199.875 45.8183 200.636 44.8359C201.44 43.7884 202.038 42.5949 202.398 41.3199C202.81 39.8799 203.012 38.3869 202.999 36.8879V36.4639C203.011 34.9663 202.809 33.4748 202.398 32.0359C202.038 30.7585 201.439 29.5625 200.636 28.5119C199.869 27.527 198.893 26.7299 197.779 26.1799C196.57 25.5963 195.243 25.306 193.903 25.3319C192.573 25.3064 191.255 25.5968 190.055 26.1799C188.946 26.7303 187.975 27.5276 187.214 28.5119C186.416 29.5641 185.822 30.7599 185.463 32.0359ZM190.165 39.3919C190.023 38.5652 189.952 37.7272 189.956 36.8879V36.4559C189.953 35.6326 190.023 34.8106 190.165 33.9999C190.291 33.29 190.526 32.6044 190.861 31.9679C191.149 31.4083 191.568 30.9289 192.082 30.5719C192.62 30.2173 193.253 30.0373 193.895 30.0559C194.546 30.0367 195.188 30.2165 195.737 30.5719C196.252 30.9291 196.674 31.4083 196.965 31.9679C197.303 32.6057 197.537 33.2946 197.657 34.0079C197.802 34.8182 197.874 35.6404 197.87 36.4639V36.8999C197.875 37.7394 197.803 38.5776 197.657 39.4039C197.539 40.1154 197.306 40.8021 196.965 41.4359C196.67 41.9836 196.248 42.4514 195.737 42.7999C195.193 43.1439 194.56 43.3152 193.919 43.2919C193.267 43.3139 192.623 43.1384 192.07 42.7879C191.56 42.4401 191.141 41.972 190.849 41.4239C190.515 40.7881 190.284 40.102 190.165 39.3919Z" fill="#030608"/>
<path d="M222.644 25.736V47.6H217.508V30.464H213.071L212.893 35.048C212.834 36.8827 212.66 38.7118 212.371 40.524C212.169 41.8931 211.742 43.2182 211.107 44.444C210.582 45.4354 209.79 46.2553 208.823 46.808C207.722 47.3713 206.5 47.6463 205.267 47.608H204.429L204.374 42.808H204.923C205.443 42.8419 205.96 42.7013 206.393 42.408C206.794 42.047 207.074 41.5691 207.195 41.04C207.418 40.2582 207.551 39.4528 207.59 38.64C207.653 37.656 207.717 36.46 207.776 35.04L208.132 25.728L222.644 25.736Z" fill="#030608"/>
<path fill-rule="evenodd" clip-rule="evenodd" d="M70.1998 64.7427C70.3641 64.1755 70.4426 63.5882 70.4327 62.9992L70.4445 61.3704C70.4542 60.7826 70.3757 60.1966 70.2117 59.6307C70.0768 59.1715 69.8472 58.7435 69.5368 58.3727C69.2497 58.0391 68.8843 57.7769 68.4712 57.608C68.0271 57.4309 67.5503 57.3437 67.0701 57.3518C66.599 57.3451 66.1315 57.4323 65.6966 57.608C65.2847 57.777 64.9207 58.0393 64.635 58.3727C64.3235 58.744 64.0914 59.1716 63.9522 59.6307C63.78 60.1952 63.6974 60.7818 63.7075 61.3704V61.7871H62.5787V57.4895H61.3197V66.861H62.5787V62.7621H63.6956V62.9992C63.6853 63.589 63.7678 64.177 63.9403 64.7427C64.079 65.2001 64.3142 65.6245 64.631 65.9892C64.9204 66.3205 65.2852 66.5822 65.6966 66.7539C66.1337 66.9265 66.6021 67.0123 67.074 67.0062C67.5538 67.0133 68.0301 66.9275 68.4751 66.7539C68.8855 66.5861 69.2473 66.3235 69.5289 65.9892C69.8379 65.6224 70.0663 65.1982 70.1998 64.7427ZM69.0356 60.0283C69.1342 60.4652 69.1805 60.9117 69.1737 61.3589L69.1816 62.9992C69.1877 63.4474 69.1427 63.8949 69.0474 64.3336C68.9779 64.66 68.8439 64.9703 68.6527 65.2474C68.4873 65.4787 68.2592 65.6613 67.9936 65.7751C67.7061 65.8902 67.3969 65.9462 67.0859 65.9395C66.7839 65.9448 66.4841 65.8888 66.2058 65.7751C65.9387 65.6601 65.7084 65.4779 65.5388 65.2474C65.3351 64.9735 65.1902 64.6627 65.1125 64.3336C65.0019 63.8971 64.9502 63.4486 64.9586 62.9992V61.3589C64.9512 60.911 65.0016 60.4641 65.1086 60.0283C65.1857 59.6997 65.3292 59.3891 65.5309 59.1145C65.7013 58.8872 65.9298 58.7067 66.1939 58.5907C66.4706 58.4759 66.7691 58.4186 67.0701 58.4224C67.3827 58.4168 67.6932 58.4741 67.9818 58.5907C68.2461 58.7047 68.4738 58.8857 68.6409 59.1145C68.8329 59.3911 68.967 59.7016 69.0356 60.0283Z" fill="#585858"/>
<path fill-rule="evenodd" clip-rule="evenodd" d="M76.6646 66.1805C77.0882 65.6375 77.3 64.8155 77.3 63.7143V63.0566C77.3078 62.5589 77.2534 62.0621 77.1382 61.5769C77.0532 61.2074 76.8935 60.8579 76.6685 60.5484C76.4703 60.2878 76.2049 60.0821 75.8989 59.9519C75.5647 59.8195 75.2062 59.7544 74.8451 59.7608C74.4873 59.7514 74.1328 59.8303 73.815 59.9902C73.5195 60.1531 73.27 60.3843 73.0888 60.6631L73.0257 59.8984H71.9246V69.5413H73.1362V66.1996C73.3254 66.4485 73.5729 66.6504 73.8585 66.7884C74.1733 66.9302 74.5178 66.9995 74.8649 66.9911C75.5657 67.0231 76.2382 66.7202 76.6646 66.1805ZM75.6937 61.3361C75.9924 61.864 76.1293 62.4636 76.0884 63.0643L76.0963 63.7143C76.1367 64.3174 75.9999 64.9193 75.7016 65.4502C75.427 65.8369 74.9614 66.0537 74.4781 66.0199C74.186 66.0314 73.8975 65.9538 73.6532 65.7981C73.4391 65.6449 73.2626 65.4477 73.1362 65.2208V61.5961C73.2629 61.3626 73.444 61.161 73.6651 61.0072C73.8965 60.8517 74.1729 60.7714 74.4544 60.7778C74.9401 60.7398 75.4107 60.9518 75.6937 61.3361Z" fill="#585858"/>
<path d="M82.9518 59.8982H84.1634V66.8608H82.9518V61.7832L80.2522 66.8608H79.0366V59.8982H80.2522V64.9835L82.9518 59.8982Z" fill="#585858"/>
<path fill-rule="evenodd" clip-rule="evenodd" d="M86.5157 65.3735C86.4012 65.5494 86.2789 65.7214 86.1447 65.8897H85.6434V68.9103H86.8669V66.8608H91.0978V68.9103H92.3174V65.8897H91.4491V59.8982H87.2932L87.2063 62.5097C87.1823 62.9503 87.1336 63.3894 87.0603 63.825C87.0085 64.1339 86.9306 64.4383 86.8275 64.735C86.7464 64.9576 86.6419 65.1716 86.5157 65.3735ZM88.3075 63.6261C88.365 63.2561 88.4032 62.8834 88.4219 62.5097L88.4851 60.9955H90.2493V65.8897H87.4866C87.6171 65.7006 87.7306 65.501 87.826 65.2932C87.939 65.0524 88.0314 64.803 88.1022 64.5476C88.1903 64.2449 88.2589 63.9371 88.3075 63.6261Z" fill="#585858"/>
<path d="M97.7954 59.8982H99.0071V66.8608H97.7954V61.7832L95.0998 66.8608H93.8802V59.8982H95.0998V64.9835L97.7954 59.8982Z" fill="#585858"/>
<path d="M105.835 66.861H104.611V64.3642C104.402 64.4178 104.189 64.4637 103.972 64.4981C103.73 64.5302 103.486 64.5455 103.242 64.5439C102.903 64.5473 102.567 64.4943 102.247 64.3872C101.958 64.2847 101.696 64.12 101.482 63.9054C101.257 63.671 101.089 63.3916 100.988 63.0872C100.864 62.7169 100.804 62.3293 100.811 61.9401V59.906H102.046V61.9401C102.008 62.3795 102.121 62.8188 102.366 63.1904C102.583 63.4489 102.914 63.5911 103.258 63.5728C103.499 63.5747 103.741 63.5581 103.98 63.5231C104.198 63.4873 104.414 63.44 104.627 63.3816V59.906H105.851L105.835 66.861Z" fill="#585858"/>
<path d="M113.046 66.8608H111.834V63.8823H109.15V66.857H107.927V59.8982H109.15V62.915H111.83V59.8982H113.042L113.046 66.8608Z" fill="#585858"/>
<path d="M119.068 59.8982H120.28V66.8608H119.068V61.7832L116.373 66.8608H115.153V59.8982H116.373V64.9835L119.068 59.8982Z" fill="#585858"/>
<path fill-rule="evenodd" clip-rule="evenodd" d="M126.879 58.0553C126.972 57.8345 127.019 57.5979 127.017 57.3594H126.018C126.02 57.4888 126.002 57.6178 125.963 57.7417C125.926 57.8541 125.865 57.9581 125.786 58.0476C125.695 58.1403 125.585 58.2121 125.462 58.2579C125.312 58.3115 125.152 58.3374 124.992 58.3344C124.83 58.3381 124.668 58.3122 124.515 58.2579C124.394 58.212 124.286 58.1401 124.199 58.0476C124.116 57.9604 124.055 57.8556 124.021 57.7417C123.983 57.6178 123.964 57.4888 123.966 57.3594H122.928C122.925 57.5988 122.974 57.8361 123.074 58.0553C123.164 58.2618 123.298 58.447 123.469 58.5982C123.66 58.7579 123.881 58.88 124.12 58.9576C124.678 59.1258 125.275 59.1258 125.833 58.9576C126.072 58.8792 126.293 58.7572 126.484 58.5982C126.655 58.447 126.789 58.2618 126.879 58.0553ZM127.514 59.8982H126.303L123.607 64.9835V59.8982H122.387V66.8608H123.607L126.303 61.7832V66.8608H127.514V59.8982Z" fill="#585858"/>
<path fill-rule="evenodd" clip-rule="evenodd" d="M133 57.5583C132.885 57.6965 132.825 57.8702 132.83 58.0477C132.818 58.2201 132.87 58.3911 132.977 58.5295C133.274 58.7809 133.717 58.7809 134.015 58.5295C134.142 58.3981 134.213 58.2243 134.212 58.0439C134.214 57.8675 134.152 57.6959 134.038 57.5583C133.747 57.2908 133.291 57.2908 133 57.5583ZM132.898 66.8418H134.117V59.8983H132.898V66.8418Z" fill="#585858"/>
<path d="M141.308 66.8608H140.096V63.8823H137.413V66.857H136.189V59.8982H137.413V62.915H140.096V59.8982H141.308V66.8608Z" fill="#585858"/>
<path d="M148.01 60.8617H145.981V66.8608H144.769V60.8617H142.768V59.8982H148.01V60.8617Z" fill="#585858"/>
<path fill-rule="evenodd" clip-rule="evenodd" d="M150.255 66.8036C150.642 66.9341 151.05 66.9975 151.459 66.9909C151.757 66.9944 152.054 66.9623 152.343 66.8954C152.578 66.8427 152.806 66.7645 153.022 66.6621C153.206 66.5729 153.377 66.4611 153.531 66.3295C153.665 66.2144 153.787 66.0863 153.894 65.9471L153.263 65.2283C153.163 65.3416 153.055 65.4476 152.939 65.5457C152.701 65.7485 152.415 65.8916 152.106 65.9624C151.922 66.0026 151.734 66.0219 151.546 66.0198C151.057 66.0487 150.581 65.8618 150.251 65.5112C149.91 65.0357 149.751 64.4596 149.801 63.8824V63.7218H153.926V63.0565C153.931 62.5825 153.882 62.1093 153.78 61.6457C153.701 61.2754 153.544 60.9251 153.318 60.6171C153.11 60.3397 152.829 60.1207 152.505 59.9824C152.13 59.8323 151.727 59.7594 151.321 59.7683C150.971 59.7679 150.624 59.8262 150.295 59.9404C149.961 60.0617 149.661 60.2568 149.419 60.5101C149.144 60.8106 148.934 61.1617 148.803 61.5424C148.636 62.0435 148.557 62.5683 148.57 63.0948V63.8824C148.561 64.3509 148.628 64.8179 148.767 65.2665C148.884 65.6259 149.081 65.9561 149.344 66.2339C149.595 66.4926 149.908 66.6882 150.255 66.8036ZM150.737 60.8351C150.925 60.7756 151.123 60.7459 151.321 60.7471C151.553 60.7337 151.785 60.7757 151.996 60.8695C152.168 60.9579 152.313 61.09 152.414 61.2518C152.523 61.4329 152.599 61.6308 152.639 61.8368C152.693 62.081 152.724 62.3292 152.734 62.5786V62.7354H149.801C149.807 62.4087 149.853 62.0838 149.94 61.768C150.004 61.5452 150.114 61.3372 150.263 61.1562C150.39 61.0112 150.553 60.9005 150.737 60.8351Z" fill="#585858"/>
<path fill-rule="evenodd" clip-rule="evenodd" d="M160.217 66.1805C160.64 65.6375 160.852 64.8155 160.852 63.7143V63.0566C160.86 62.5589 160.806 62.0621 160.69 61.5769C160.606 61.2066 160.445 60.8567 160.217 60.5484C160.02 60.2879 159.756 60.0822 159.451 59.9519C159.116 59.8191 158.756 59.754 158.393 59.7608C158.037 59.7514 157.684 59.8303 157.367 59.9902C157.072 60.1531 156.822 60.3843 156.641 60.6631L156.578 59.8984H155.477V69.5413H156.688V66.1996C156.877 66.4475 157.123 66.6491 157.407 66.7884C157.723 66.9297 158.069 66.999 158.417 66.9911C159.118 67.0231 159.79 66.7202 160.217 66.1805ZM159.246 61.3361C159.545 61.8639 159.682 62.4635 159.641 63.0643L159.629 63.7066C159.669 64.3098 159.532 64.9117 159.234 65.4425C158.959 65.8293 158.494 66.0461 158.011 66.0122C157.718 66.0243 157.43 65.9467 157.186 65.7905C156.971 65.6383 156.794 65.4409 156.669 65.2131V61.5884C156.804 61.3559 156.993 61.157 157.221 61.0072C157.453 60.8524 157.729 60.7722 158.011 60.7778C158.495 60.7396 158.965 60.9518 159.246 61.3361Z" fill="#585858"/>
<path d="M167.688 66.8608H166.476V63.8823H163.793V66.857H162.569V59.8982H163.793V62.915H166.476V59.8982H167.688V66.8608Z" fill="#585858"/>
<path fill-rule="evenodd" clip-rule="evenodd" d="M171.141 66.8035C171.528 66.9334 171.936 66.9968 172.345 66.9908C172.642 66.9944 172.937 66.9623 173.225 66.8953C173.46 66.8439 173.688 66.7656 173.904 66.662C174.089 66.5746 174.26 66.4627 174.413 66.3294C174.549 66.2153 174.67 66.0871 174.776 65.947L174.145 65.2282C174.045 65.3415 173.937 65.4475 173.821 65.5456C173.7 65.6435 173.567 65.7281 173.427 65.7979C173.282 65.8687 173.13 65.9238 172.973 65.9623C172.79 66.0023 172.603 66.0216 172.416 66.0197C171.926 66.0487 171.449 65.8618 171.118 65.5111C170.776 65.0356 170.617 64.4595 170.668 63.8823V63.7217H174.812V63.0564C174.818 62.5825 174.77 62.1094 174.67 61.6456C174.588 61.2764 174.431 60.9268 174.208 60.617C173.999 60.3405 173.718 60.1217 173.395 59.9823C173.02 59.8329 172.617 59.76 172.211 59.7682C171.861 59.7672 171.514 59.8254 171.185 59.9403C170.849 60.0606 170.548 60.2557 170.305 60.51C170.03 60.8105 169.821 61.1616 169.689 61.5423C169.522 62.0434 169.443 62.5682 169.456 63.0947V63.8823C169.447 64.3511 169.515 64.8184 169.657 65.2664C169.771 65.6262 169.967 65.9567 170.23 66.2338C170.483 66.4909 170.795 66.6862 171.141 66.8035ZM171.623 60.835C171.813 60.7755 172.011 60.7458 172.211 60.747C172.438 60.7385 172.664 60.7831 172.87 60.877C173.041 60.9667 173.184 61.0987 173.285 61.2594C173.397 61.4394 173.474 61.6376 173.513 61.8444C173.564 62.0889 173.594 62.337 173.604 62.5861V62.7429H170.676C170.683 62.413 170.733 62.0854 170.826 61.7679C170.892 61.5448 171.003 61.3368 171.153 61.1561C171.277 61.0104 171.44 60.8995 171.623 60.835Z" fill="#585858"/>
<path d="M180.981 60.8617H178.952V66.8608H177.74V60.8617H175.739V59.8982H180.981V60.8617Z" fill="#585858"/>
<path fill-rule="evenodd" clip-rule="evenodd" d="M190.334 66.1803C190.758 65.6374 190.97 64.8153 190.97 63.7142V63.068C190.98 62.5702 190.925 62.0731 190.808 61.5883C190.724 61.2148 190.565 60.8612 190.338 60.5483C190.141 60.2868 189.875 60.0809 189.569 59.9518C189.234 59.8194 188.876 59.7543 188.515 59.7606C187.803 59.7263 187.129 60.0727 186.759 60.663L186.699 59.8983H185.598V69.5412H186.806V66.1995C186.995 66.4484 187.243 66.6502 187.528 66.7883C187.843 66.93 188.188 66.9994 188.535 66.9909C189.235 67.023 189.908 66.7201 190.334 66.1803ZM189.363 61.3359C189.662 61.8639 189.799 62.4634 189.758 63.0642L189.766 63.7142C189.808 64.3175 189.672 64.9199 189.371 65.4501C189.097 65.8368 188.631 66.0536 188.148 66.0198C187.856 66.0313 187.567 65.9537 187.323 65.798C187.109 65.6448 186.932 65.4476 186.806 65.2206V61.5959C186.934 61.3634 187.115 61.162 187.335 61.0071C187.566 60.8516 187.843 60.7713 188.124 60.7777C188.61 60.7397 189.08 60.9517 189.363 61.3359Z" fill="#585858"/>
<path fill-rule="evenodd" clip-rule="evenodd" d="M194.056 66.8035C194.443 66.934 194.85 66.9975 195.26 66.9909C195.551 66.9928 195.841 66.9607 196.124 66.8953C196.358 66.8433 196.584 66.765 196.799 66.6621C196.984 66.5747 197.155 66.4627 197.308 66.3294C197.444 66.2144 197.567 66.0863 197.675 65.9471L197.04 65.2283C196.941 65.3424 196.833 65.4485 196.716 65.5456C196.6 65.6417 196.475 65.7263 196.341 65.798C196.195 65.8687 196.042 65.9239 195.884 65.9624C195.701 66.0027 195.514 66.022 195.327 66.0197C194.838 66.0487 194.362 65.8617 194.033 65.5112C193.688 65.037 193.527 64.4601 193.579 63.8824V63.7218H197.723V63.0565C197.729 62.5826 197.681 62.1095 197.581 61.6456C197.499 61.2765 197.342 60.9268 197.119 60.6171C196.91 60.3397 196.63 60.1207 196.306 59.9824C195.931 59.8326 195.527 59.7597 195.122 59.7683C194.772 59.7676 194.425 59.8258 194.096 59.9403C193.761 60.0597 193.46 60.2551 193.219 60.51C192.942 60.8086 192.732 61.1603 192.604 61.5424C192.435 62.043 192.356 62.5682 192.371 63.0947V63.8824C192.36 64.351 192.427 64.8182 192.568 65.2665C192.683 65.6265 192.88 65.9571 193.144 66.2338C193.396 66.4926 193.709 66.6881 194.056 66.8035ZM194.538 60.835C194.726 60.7753 194.923 60.7456 195.122 60.7471C195.349 60.7385 195.575 60.7831 195.781 60.8771C195.954 60.9654 196.098 61.0976 196.199 61.2594C196.308 61.4405 196.384 61.6384 196.424 61.8444C196.476 62.0889 196.508 62.3369 196.519 62.5862V62.743H193.587C193.596 62.4131 193.648 62.0856 193.74 61.768C193.803 61.5445 193.914 61.3362 194.064 61.1562C194.19 61.0103 194.353 60.8995 194.538 60.835Z" fill="#585858"/>
<path d="M201.839 66.0197C202.012 66.0202 202.184 65.9931 202.348 65.9394C202.507 65.8913 202.653 65.809 202.774 65.6986C202.904 65.582 203.006 65.4399 203.074 65.2818C203.155 65.0855 203.2 64.8773 203.209 64.6662H204.357C204.347 64.9939 204.269 65.3164 204.128 65.6144C203.995 65.8915 203.807 66.1408 203.576 66.3486C203.347 66.5555 203.079 66.7167 202.786 66.8227C202.484 66.9353 202.163 66.9924 201.839 66.9909C201.41 67.0002 200.983 66.9261 200.584 66.773C200.242 66.6336 199.939 66.4173 199.7 66.1421C199.452 65.8445 199.273 65.499 199.175 65.1289C199.055 64.6859 198.998 64.2293 199.005 63.7715V62.9877C198.998 62.5299 199.055 62.0733 199.175 61.6303C199.274 61.2615 199.453 60.9174 199.7 60.6209C199.934 60.3413 200.236 60.123 200.58 59.9862C200.978 59.8321 201.403 59.758 201.831 59.7683C202.18 59.7643 202.526 59.8213 202.853 59.9365C203.151 60.0443 203.42 60.2139 203.643 60.4336C203.867 60.6628 204.041 60.9332 204.156 61.2289C204.283 61.5702 204.352 61.9291 204.361 62.2918H203.213C203.216 61.8776 203.077 61.4739 202.818 61.1447C202.566 60.8813 202.205 60.741 201.835 60.7624C201.562 60.7523 201.291 60.8075 201.046 60.923C200.84 61.0265 200.669 61.1843 200.552 61.378C200.423 61.5952 200.336 61.8337 200.296 62.0815C200.246 62.3863 200.222 62.6945 200.225 63.003V63.7868C200.222 64.0979 200.246 64.4086 200.296 64.7159C200.329 64.9666 200.414 65.2083 200.545 65.4271C200.663 65.6188 200.836 65.7739 201.042 65.8744C201.292 65.9845 201.565 66.0343 201.839 66.0197Z" fill="#585858"/>
<path d="M207.854 64.9682L209.208 59.8982H210.502L208.039 67.9276C207.977 68.1199 207.9 68.3077 207.811 68.4897C207.705 68.6931 207.573 68.8821 207.416 69.0517C207.261 69.2282 207.075 69.3771 206.867 69.4914C206.642 69.6121 206.387 69.6728 206.129 69.6673H205.971L205.79 69.6367L205.62 69.6061L205.494 69.5755V68.6082C205.538 68.6204 205.583 68.6281 205.628 68.6311H205.762C205.923 68.6336 206.084 68.6143 206.24 68.5738C206.374 68.5347 206.499 68.4697 206.607 68.3826C206.723 68.2853 206.818 68.1671 206.887 68.0347C206.979 67.8617 207.052 67.6797 207.104 67.4917L207.317 66.8035L205.131 59.8982H206.457L207.854 64.9682Z" fill="#585858"/>
<path fill-rule="evenodd" clip-rule="evenodd" d="M216.489 66.1803C216.913 65.6373 217.125 64.8153 217.125 63.7141L217.137 63.0641C217.144 62.5663 217.09 62.0695 216.975 61.5844C216.89 61.2141 216.729 60.8642 216.501 60.5559C216.307 60.2931 216.044 60.0847 215.739 59.9517C215.404 59.8189 215.044 59.7538 214.682 59.7606C214.325 59.7508 213.972 59.8298 213.656 59.99C213.36 60.1529 213.111 60.3841 212.929 60.6629L212.866 59.8982H211.765V69.5412H212.961V66.1994C213.15 66.4473 213.396 66.649 213.679 66.7882C213.996 66.9295 214.341 66.9988 214.69 66.9909C215.39 67.0229 216.063 66.72 216.489 66.1803ZM215.518 61.3359C215.817 61.8637 215.954 62.4633 215.913 63.0641L215.905 63.7064C215.948 64.3098 215.811 64.9122 215.511 65.4423C215.238 65.8297 214.773 66.0469 214.291 66.012C213.999 66.0241 213.71 65.9465 213.466 65.7903C213.251 65.6381 213.074 65.4407 212.949 65.2129V61.5882C213.081 61.357 213.266 61.1582 213.49 61.007C213.722 60.852 213.998 60.7717 214.279 60.7776C214.765 60.7388 215.236 60.951 215.518 61.3359Z" fill="#585858"/>
<path d="M221.336 66.0197C221.509 66.0207 221.681 65.9935 221.845 65.9394C222.004 65.8912 222.15 65.8089 222.271 65.6985C222.402 65.583 222.505 65.4406 222.571 65.2817C222.654 65.0859 222.699 64.8774 222.705 64.6661H223.854C223.837 65.3074 223.552 65.9145 223.065 66.3485C222.836 66.5554 222.568 66.7166 222.275 66.8226C221.972 66.9349 221.649 66.9919 221.324 66.9908C220.895 67.0001 220.468 66.926 220.069 66.7729C219.727 66.6335 219.424 66.4172 219.185 66.142C218.94 65.8428 218.761 65.4979 218.66 65.1288C218.54 64.6858 218.483 64.2292 218.49 63.7714V62.9876C218.483 62.5298 218.54 62.0732 218.66 61.6302C218.762 61.2626 218.941 60.919 219.185 60.6208C219.42 60.342 219.722 60.1239 220.065 59.9861C220.464 59.8326 220.891 59.7584 221.32 59.7682C221.667 59.7641 222.012 59.8211 222.338 59.9364C222.636 60.0433 222.906 60.2131 223.128 60.4335C223.353 60.6615 223.528 60.9323 223.641 61.2288C223.77 61.5696 223.839 61.9288 223.846 62.2917H222.698C222.703 61.8772 222.564 61.473 222.303 61.1447C222.052 60.8818 221.693 60.7415 221.324 60.7623C221.051 60.7524 220.78 60.8075 220.535 60.9229C220.33 61.0276 220.159 61.1851 220.041 61.3779C219.913 61.5953 219.828 61.8338 219.789 62.0814C219.739 62.3862 219.715 62.6944 219.718 63.0029V63.7867C219.714 64.0977 219.736 64.4084 219.785 64.7158C219.829 64.962 219.92 65.198 220.053 65.4117C220.172 65.6034 220.344 65.7585 220.551 65.8591C220.796 65.9721 221.065 66.0271 221.336 66.0197Z" fill="#585858"/>
</svg>
