<svg width="21" height="21" viewBox="0 0 21 21" fill="none" xmlns="http://www.w3.org/2000/svg">
<path d="M10.4998 1.68213L0.311768 8.01744V20.6882H20.688V8.01744L10.4998 1.68213Z" fill="#A5D498"/>
<path d="M20.688 8.01744L10.4998 14.3528L0.311768 8.01744L10.4998 1.68213L20.688 8.01744Z" fill="#7FBF69"/>
<path d="M18.1718 0.312012V9.58234L10.5 14.3528L2.82812 9.58234V0.312012L18.1718 0.312012Z" fill="#CBCBCB"/>
<path d="M18.1718 0.312012V8.02295L10.5 12.7934L2.82812 8.02295V0.312012L18.1718 0.312012Z" fill="#E6E6E6"/>
<path fill-rule="evenodd" clip-rule="evenodd" d="M20.8528 7.75259L18.4838 6.27924V0.311943C18.4838 0.139709 18.3441 0 18.1718 0H2.82816C2.65592 0 2.51621 0.139709 2.51621 0.311943V2.63686C2.51621 2.80909 2.65592 2.9488 2.82816 2.9488C3.00039 2.9488 3.1401 2.80909 3.1401 2.63686V0.623726H17.8599V9.40876L15.4695 10.8954C15.3232 10.9864 15.2783 11.1787 15.3693 11.325C15.4284 11.42 15.5303 11.4722 15.6345 11.4722C15.6907 11.4722 15.7476 11.457 15.7989 11.4251L20.3763 8.57867V20.3763H0.623726V8.57867L17.5613 19.1109C17.6125 19.1428 17.6694 19.158 17.7256 19.158C17.8299 19.158 17.9317 19.1058 17.9908 19.0107C18.0818 18.8645 18.0369 18.672 17.8907 18.5812L11.0906 14.3527L14.7823 12.0572C14.9286 11.9661 14.9734 11.7739 14.8826 11.6276C14.7916 11.4813 14.5993 11.4366 14.4529 11.5275L10.5 13.9855L3.1401 9.40876V3.88447C3.1401 3.71223 3.00039 3.57253 2.82816 3.57253C2.65592 3.57253 2.51621 3.71223 2.51621 3.88447V6.2794L0.14724 7.75259C0.0557556 7.80947 0 7.90961 0 8.01743V20.6881C0 20.8603 0.139709 21 0.311943 21H20.6881C20.8605 21 21 20.8603 21 20.6881V8.01743C21 7.90961 20.9444 7.80947 20.8528 7.75259ZM2.51621 9.02087L0.902504 8.01743L2.51621 7.01383V9.02087ZM20.0975 8.01743L18.4838 7.01383V9.02103L20.0975 8.01743Z" fill="black"/>
<path d="M5.32305 3.13569H15.6769C15.8493 3.13569 15.9889 2.99614 15.9889 2.82391C15.9889 2.65167 15.8493 2.51196 15.6769 2.51196H5.32305C5.15082 2.51196 5.01111 2.65167 5.01111 2.82391C5.01111 2.99614 5.15082 3.13569 5.32305 3.13569Z" fill="black"/>
<path d="M5.32305 5.50605H15.6769C15.8493 5.50605 15.9889 5.36634 15.9889 5.19411C15.9889 5.02187 15.8493 4.88232 15.6769 4.88232H5.32305C5.15082 4.88232 5.01111 5.02187 5.01111 5.19411C5.01111 5.36634 5.15082 5.50605 5.32305 5.50605Z" fill="black"/>
<path d="M5.32305 7.87617H15.6769C15.8493 7.87617 15.9889 7.73662 15.9889 7.56438C15.9889 7.39215 15.8493 7.25244 15.6769 7.25244H5.32305C5.15082 7.25244 5.01111 7.39215 5.01111 7.56438C5.01111 7.73662 5.15082 7.87617 5.32305 7.87617Z" fill="black"/>
<path d="M5.32305 10.2463H15.6769C15.8493 10.2463 15.9889 10.1066 15.9889 9.93434C15.9889 9.76211 15.8493 9.62256 15.6769 9.62256H5.32305C5.15082 9.62256 5.01111 9.76211 5.01111 9.93434C5.01111 10.1066 5.15082 10.2463 5.32305 10.2463Z" fill="black"/>
</svg>
