<svg width="365" height="405" viewBox="0 0 365 405" fill="none" xmlns="http://www.w3.org/2000/svg">
<path d="M138.13 182.256C133.886 186.413 132.264 192.881 136.4 197.78C140.416 202.541 147.339 203.389 152.35 199.734C163.866 190.679 151.863 173.999 139.455 177.467C138.477 177.755 137.854 178.728 137.99 179.755C138.125 180.782 138.978 181.553 139.996 181.568C143.692 181.324 147.361 182.362 150.403 184.513C153.421 187.309 153.708 192.04 151.052 195.193C144.267 203.67 132.535 191.202 139.644 183.605C140.032 183.202 140.026 182.555 139.631 182.16C139.235 181.765 138.6 181.771 138.211 182.174L138.13 182.256Z" fill="#8AA9FC"/>
<path d="M290.803 227.787C297.867 224.446 304.638 220.501 311.043 215.995C312.03 215.327 312.297 213.973 311.639 212.971C310.98 211.969 309.646 211.698 308.658 212.366C301.937 216.056 295.545 220.332 289.556 225.148C288.364 226.083 289.231 228.529 290.803 227.897V227.787Z" fill="#EDC483"/>
<path d="M34 248.595C32.6518 241 30.6655 233.536 28.0625 226.283C27.6207 225.265 26.4834 224.757 25.4424 225.113C24.4013 225.469 23.8013 226.57 24.06 227.651C25.828 235.001 28.2317 242.18 31.2433 249.104C31.8264 250.472 34.3181 250.258 33.894 248.568L34 248.595Z" fill="#E8947E"/>
<path d="M55.6312 181.039L55.2301 180.696C54.1088 179.331 52.3091 178.72 50.5879 179.121C48.8667 179.522 47.5228 180.865 47.1214 182.585C46.7201 184.304 47.331 186.103 48.6971 187.223L49.0696 187.652C50.8983 189.449 53.8313 189.449 55.6599 187.652C57.4467 185.809 57.4467 182.882 55.6599 181.039H55.6312Z" fill="#251A51"/>
<path d="M242.094 377.111C242.094 377.111 168.537 394.114 139 364.701L149.567 294.258C152.797 274.003 150.881 235.023 166.402 221.191C168.19 219.609 170.178 218.268 172.315 217.201C183.265 211.952 202.592 209 221.207 209C243.791 209 267.06 226.002 273 247.789L248.527 304.919L242.094 377.111Z" fill="#BD462B"/>
<path d="M234.909 256.793C234.909 256.793 267.624 320.29 251.43 323.659C197.833 334.781 166.726 343.903 166.726 343.903L164 364.831C164.791 367.981 272.422 365.242 285.181 350.724C294.177 340.451 306.146 316.756 280.683 265.449L272.94 248L234.909 256.793Z" fill="#F6AEA6"/>
<path d="M173 224.143L91.3992 255.981L88.8423 212.834L71.5701 206C71.5701 206 46.2739 275.276 77.935 288.177C109.596 301.077 145.256 277.198 145.256 277.198L173 224.143Z" fill="#F6AEA6"/>
<path d="M183 213C154.379 222.164 137.305 232.865 97 249.74L117.686 296L153.257 284.503L183 213Z" fill="#BD462B"/>
<path d="M229.313 247.663L250.098 296L297 287.438L265.385 233L228 247.663" fill="#BD462B"/>
<path d="M205.564 280.636C215.543 280.006 225.413 280.636 235.364 280.636C236.239 280.636 236.184 279.286 235.364 279.196C225.457 278.086 215.472 278.086 205.564 279.196C204.826 279.196 204.798 280.516 205.564 280.486V280.636Z" fill="#1A3066"/>
<path d="M249.577 225.002C216.222 228.028 239.026 277.61 247.602 292.629C247.804 292.983 248.252 293.105 248.603 292.902C248.954 292.698 249.075 292.247 248.873 291.893C240.379 276.711 217.629 230.563 249.685 225.82C250.145 225.82 250.064 224.948 249.685 225.002H249.577Z" fill="#1A3066"/>
<path d="M156.136 253.393C151.846 270.109 149.123 287.177 148 304.384C148 305.071 149.17 305.263 149.282 304.549C151.734 287.524 154.214 270.527 157 253.53C157 253.008 156.276 252.761 156.136 253.31V253.393Z" fill="#1A3066"/>
<path d="M235.487 162L237.013 140.454C239.724 139.439 241.913 137.361 243.083 134.693C244.253 132.024 244.305 128.991 243.228 126.283C240.621 120.86 234.821 117.782 228.918 118.688C232.543 116.184 232.27 110.24 229.299 106.993C226.022 103.978 221.711 102.37 217.279 102.508C212.904 102.692 208.521 102.545 204.168 102.068C200.352 101.352 196.618 99.5912 192.747 100.087C188.877 100.582 185.224 104.957 187.296 108.342C181.845 107.516 175.739 106.773 170.942 109.47C166.144 112.167 163.528 119.871 167.753 123.586C165.034 125.381 164.193 129.017 165.845 131.841C167.617 134.533 170.576 136.185 173.776 136.272C176.897 136.329 180.008 135.883 182.989 134.951" fill="#251A51"/>
<path d="M234.508 147.942L233.392 162.679C233.392 162.679 245.89 164.364 242.377 175.784C238.865 187.203 230.206 182.2 230.206 182.2C230.206 182.2 228.082 211.456 198.047 202.184C174.166 194.816 175.636 163.902 178.659 137.719C179.192 132.813 181.761 128.355 185.742 125.429C189.722 122.504 194.749 121.38 199.599 122.33L217.625 125.837C228.068 127.84 235.337 137.357 234.508 147.942Z" fill="#F6AEA6"/>
<path d="M233 175L224.73 217.964C223.843 222.597 221.064 226.67 217.042 229.233C213.021 231.796 208.107 232.624 203.447 231.526C194.432 229.399 188.658 220.735 190.269 211.753L194.735 187.124L233 175Z" fill="#F6AEA6"/>
<path d="M200 174.873C200 174.873 200 175.464 199.241 175.893C198.482 176.323 196.767 175.41 196.43 173.961C196.012 172.402 195.897 170.782 196.093 169.183L196.402 163.52C196.454 158.639 197.02 153.774 198.088 149C198.481 153.863 198.406 158.751 197.864 163.601L197.414 169.264C197.187 170.732 197.187 172.224 197.414 173.693C197.639 174.873 198.538 175.464 199.129 175.357C199.719 175.249 199.888 174.793 200 174.873Z" fill="#251A51"/>
<path d="M190 199C191.397 199.595 192.762 200.27 194.088 201.021C197.341 202.547 200.852 203.382 204.417 203.476C207.981 203.549 211.522 202.872 214.83 201.483C216.183 200.781 217.576 200.164 219 199.635C219 199.78 217.812 201.079 215.271 202.523C208.441 206.01 200.416 205.805 193.756 201.974C192.287 201.324 190.997 200.302 190 199H190Z" fill="#251A51"/>
<path d="M196.024 180.905C196.182 180.905 196.813 181.392 198.022 181.962C201.216 183.563 205.065 182.284 206.751 179.061C207.435 177.868 207.592 176.973 207.803 177.001C208.013 177.028 208.171 178.004 207.645 179.495C206.917 181.481 205.351 183.017 203.39 183.666C201.429 184.316 199.289 184.007 197.575 182.829C196.287 181.935 195.893 181.013 196.024 180.905Z" fill="#251A51"/>
<path d="M234 176.754C234 176.532 234.752 176.421 235.588 175.921C236.04 175.652 236.377 175.228 236.535 174.727C236.535 174.172 236.535 173.672 236.089 173.534C235.854 173.375 235.545 173.375 235.309 173.534L234.084 172.895C235.226 170.507 236.284 168.869 236.563 169.008C236.842 169.147 236.34 171.007 235.365 173.45L234.111 172.812C234.643 171.992 235.692 171.675 236.591 172.062C237.209 172.289 237.684 172.793 237.872 173.423C238.043 173.946 238.043 174.509 237.872 175.033C237.58 175.836 236.933 176.461 236.117 176.726C234.669 177.226 234 176.921 234 176.754Z" fill="#251A51"/>
<path d="M211 148.059C211 147.669 212.38 146.769 214.317 147.339C216.254 147.909 217.183 149.559 216.97 149.799C216.758 150.039 215.564 149.289 214.051 148.839C212.539 148.389 211.133 148.509 211 148.059Z" fill="#251A51"/>
<path d="M185.012 143.777C184.846 143.417 186.42 142.277 188.63 142.487C190.839 142.697 192.22 144.107 191.971 144.437C191.723 144.767 190.314 144.197 188.492 144.047C186.669 143.897 185.178 144.197 185.012 143.777Z" fill="#251A51"/>
<path d="M233.525 163.093C225.193 154.845 222.669 141.099 220.471 129.498C212.535 135.241 202.291 136.593 193.168 133.099C190.403 136.433 187.166 139.333 183.56 141.704C182.613 142.513 181.364 142.865 180.141 142.666C178.729 142.254 178.105 140.632 177.779 139.175C176.594 134.552 176.764 129.68 178.268 125.154C179.793 120.593 183.171 116.911 187.55 115.037C192.379 113.574 197.536 113.661 202.314 115.284C209.6 117.252 216.586 120.221 223.076 124.109C229.454 127.903 235.615 132.934 238.302 139.917C240.989 146.9 241.016 160.454 234.475 164" fill="#251A51"/>
<path d="M213.315 159.999C212.895 159.999 212.625 158.825 212.715 157.44C212.805 156.055 213.255 154.97 213.675 155.001C214.095 155.031 214.395 156.175 214.275 157.56C214.155 158.945 213.765 160.03 213.315 159.999Z" fill="#251A51"/>
<path d="M189.32 156.999C188.9 156.999 188.63 155.825 188.72 154.44C188.81 153.055 189.26 151.97 189.68 152.001C190.1 152.031 190.37 153.175 190.28 154.56C190.19 155.945 189.77 157.03 189.32 156.999Z" fill="#251A51"/>
<path d="M70 207.295C70 207.295 73.6733 184.967 78.0646 185.212C82.456 185.458 91.2387 185.212 91.2387 185.212C91.2387 185.212 91.9844 164.003 94.4149 167.36C96.8453 170.718 97.6186 199.297 88.2007 213L70 207.295Z" fill="#F6AEA6"/>
<path d="M166 344C166 344 127.304 350.824 128.01 355.873C128.666 359.402 129.836 362.815 131.483 366L165.946 365.208L166 344Z" fill="#F6AEA6"/>
<path d="M208 367.589L207.7 362.187L127.679 357.251L100.841 285L13 289.853L42.9707 368L208 367.589Z" fill="#383838"/>
<path opacity="0.41" d="M62.0101 323.863C62.2103 327.444 65.2742 330.187 68.8562 329.99C72.4381 329.793 75.1835 326.732 74.9904 323.15C74.7973 319.568 71.7388 316.82 68.1565 317.009C66.4317 317.101 64.8141 317.874 63.6609 319.16C62.5078 320.446 61.9138 322.138 62.0101 323.863Z" fill="white"/>
<path opacity="0.41" d="M59.0138 323.497C59.2883 328.457 63.5288 332.256 68.4886 331.986C73.4483 331.717 77.2519 327.48 76.987 322.52C76.7221 317.56 72.4889 313.752 67.5286 314.013C65.1405 314.138 62.9003 315.208 61.3028 316.988C59.7052 318.767 58.8816 321.11 59.0138 323.497Z" fill="white"/>
<path d="M0 368.334L344.792 364L365 374.575C365 374.575 100.301 447.02 0 368.334Z" fill="#CD8032"/>
<path d="M269.196 113.808C268.16 115.836 271.569 168.301 271.569 168.301L297.285 166.137L294.285 180L306.829 165.753L332 162.849L330.473 112L269.196 113.808Z" fill="#FFBB7D"/>
<path d="M204.171 32.0761C193.832 32.7442 185.836 41.4472 186.003 51.8515C186.003 51.8515 186.274 62.1893 191.869 66.0353C197.463 69.8813 197.3 74 197.3 74H211.802C211.499 71.1527 212.118 68.283 213.567 65.8171C215.93 62.8712 221.714 56.6522 220.927 47.5146C220.139 38.377 213.16 31.176 204.171 32.0761Z" fill="#FFBB7D"/>
<path d="M196.606 78.5454C201.827 78.2754 207.129 78.9054 212.323 78.5454C213.05 78.5454 213.319 77.1954 212.484 77.0154C207.222 76.1153 201.868 76.1153 196.606 77.0154C195.825 77.0154 195.771 78.4254 196.606 78.3954V78.5454Z" fill="#6338A1"/>
<path d="M198.619 83.5488C200.742 83.3988 202.838 83.3088 204.961 83.3388C207.083 83.3688 209.206 83.7588 211.302 83.5788C212.064 83.5788 212.309 82.2588 211.492 82.0488C207.185 81.1489 202.763 81.1489 198.456 82.0488C197.748 82.0488 197.912 83.4588 198.619 83.4288V83.5488Z" fill="#6338A1"/>
<path d="M200.532 86.9338C202.424 86.9338 204.371 87.6538 206.235 87.5938C206.624 87.5588 206.939 87.2372 206.992 86.8199C207.045 86.4026 206.823 86.0012 206.457 85.8538C204.512 85.3981 202.511 85.2866 200.532 85.5238C200.222 85.5931 200 85.8875 200 86.2288C200 86.5701 200.222 86.8645 200.532 86.9338Z" fill="#6338A1"/>
<path d="M200.965 74.2045C201.388 68.9474 199.555 63.1454 198.625 57.9972L197.019 58.6509C197.808 59.8495 199.076 63.3633 201.021 63.2544C202.966 63.1454 203.84 59.6315 204.093 58.2151H202.346C202.74 59.8222 202.797 63.6629 205.418 63.3633C208.04 63.0637 209.139 59.8495 209.843 58.1061L208.011 57.6158C206.484 63.1017 206.301 68.8561 207.476 74.4225C207.619 74.8079 208.02 75.0452 208.44 74.9928C208.861 74.9404 209.186 74.6124 209.223 74.2045C209.054 68.7567 208.265 63.445 209.956 58.1061C210.294 56.9621 208.575 56.5535 208.124 57.6158C207.87 58.2151 206.433 61.6745 205.08 61.2114C204.647 60.096 204.354 58.9347 204.206 57.752C204.104 57.3663 203.744 57.0966 203.332 57.0966C202.92 57.0966 202.561 57.3663 202.459 57.752C202.261 58.7871 201.81 61.6745 200.514 60.8028C199.781 60.3125 199.104 58.542 198.653 57.7793C198.446 57.3838 197.958 57.2106 197.535 57.3826C197.112 57.5546 196.899 58.0133 197.047 58.433C197.892 63.5812 198.118 69.6011 200.26 74.3952C200.457 74.831 201.049 74.5587 201.077 74.2045H200.965Z" fill="#6338A1"/>
<path d="M148.767 67.9668C156.705 65.3882 164.889 63.174 172.634 60.0628C173.266 59.8106 173.018 58.8296 172.359 59.0258C164.285 61.0718 156.347 64.0989 148.438 66.7056C147.669 66.9578 147.998 68.2191 148.767 67.9668Z" fill="#FFBB7D"/>
<path d="M158.691 43.4936C163.586 43.6089 168.483 43.4387 173.362 42.9836C173.714 42.9836 174 42.6613 174 42.2636C174 41.866 173.714 41.5436 173.362 41.5436C168.469 41.3737 163.572 41.5039 158.691 41.9336C158.309 41.9336 158 42.2828 158 42.7136C158 43.1444 158.309 43.4936 158.691 43.4936Z" fill="#FFBB7D"/>
<path d="M182.76 34.8301C177.33 29.9993 171.9 24.0349 165.575 20.2026C165.147 19.8746 164.534 19.9532 164.204 20.378C163.874 20.8028 163.953 21.413 164.38 21.7409C169.24 27.1385 176.054 31.2677 181.755 35.8287C182.461 36.3955 183.465 35.4239 182.76 34.8301Z" fill="#FFBB7D"/>
<path d="M195 27.647C194.781 25.9721 194.16 24.3964 193.202 23.0902C192.477 21.3674 191.567 19.751 190.492 18.277C189.935 17.5935 188.745 18.277 189.049 19.2169C189.716 20.9485 190.567 22.5836 191.581 24.087C192.341 25.4255 193.101 27.2767 194.418 27.9603C194.521 28.0165 194.642 28.0129 194.743 27.9506C194.843 27.8884 194.911 27.7753 194.924 27.647H195Z" fill="#FFBB7D"/>
<path d="M206.627 24.3409C207.103 16.5256 206.962 8.68849 206.207 0.892222C206.207 0.399461 205.778 0 205.247 0C204.717 0 204.287 0.399461 204.287 0.892222C203.897 8.71244 204.108 16.5485 204.917 24.3409C204.995 24.7231 205.354 25 205.772 25C206.191 25 206.55 24.7231 206.627 24.3409Z" fill="#FFBB7D"/>
<path d="M215.29 27.7271C217.384 25.082 219.251 22.2816 220.873 19.3529C221.135 18.9212 220.979 18.3695 220.524 18.1207C220.069 17.8719 219.488 18.0202 219.226 18.4519C217.275 21.1931 215.549 24.0725 214.062 27.0646C213.915 27.3742 214.038 27.7394 214.347 27.9102C214.657 28.0809 215.052 28.0019 215.262 27.7271H215.29Z" fill="#FFBB7D"/>
<path d="M222.734 34.8164C226.424 33.2709 229.899 31.2723 233.508 29.4869C237.128 27.7911 240.567 25.7378 243.77 23.3581C244.023 23.1013 244.073 22.7089 243.891 22.3984C243.709 22.0879 243.34 21.9355 242.989 22.0257C239.499 23.4587 236.169 25.2447 233.05 27.3552C229.342 29.3083 225.746 31.461 222.276 33.8038C221.737 34.1769 222.034 35.2428 222.761 34.9496L222.734 34.8164Z" fill="#FFBB7D"/>
<path d="M227.5 44.5703C230.68 45.5379 234.096 44.8513 236.739 42.7134C237.026 42.3904 237.082 41.9027 236.878 41.5136C236.673 41.1244 236.256 40.926 235.852 41.0254C234.442 41.3067 233.242 42.0945 231.728 42.4602C230.215 42.826 228.91 42.7978 227.5 43.1073C226.77 43.2761 226.9 44.3452 227.5 44.5703Z" fill="#FFBB7D"/>
<path d="M228.633 57.7495C239.244 60.8011 250.019 63.2188 260.903 64.9905C262.209 65.1582 262.399 63.0614 261.202 62.6979C250.637 59.825 239.916 57.5938 229.095 56.0161C228.007 55.8204 227.517 57.4699 228.633 57.7495Z" fill="#FFBB7D"/>
<path d="M283 137.101L288.529 156L296.215 154.519L295.468 150.706L297.625 149.417L301.744 153.422L314.738 150.926L316.424 145.988L312.72 145.165L317.502 143.602L316.452 138.308L312.333 138.665L318 137.129L316.756 130.573L303.569 133.124C303.569 133.124 304.398 123.99 300.5 121L297.542 121.576C298.069 123.079 298.377 124.649 298.454 126.239C297.708 129.594 296.785 132.909 295.69 136.168L291.653 138.061L290.686 135.318L283 137.101Z" fill="white"/>
<path d="M18 102L22.3845 154.507H118.679L124.022 173L129.64 152.718L148 151.645L139.532 104.614L18 102Z" fill="#FFBB7D"/>
<path d="M30.7707 121.439C63.883 119.906 97.0701 120.428 130.106 123C131.284 123 131.312 121.389 130.106 121.288C97.0652 118.779 63.8772 118.333 30.7707 119.953C29.7568 119.953 29.7294 121.489 30.7707 121.439Z" fill="white"/>
<path d="M32.781 131.439C65.893 129.894 99.0811 130.415 132.116 133C133.295 133 133.295 131.363 132.116 131.288C99.0755 128.779 65.8875 128.333 32.781 129.953C31.7397 129.953 31.7397 131.464 32.781 131.439Z" fill="white"/>
<path d="M32.6712 139.772C54.9022 140.581 76.8871 138.813 99.1181 141C100.294 141 100.294 139.053 99.1181 138.963C76.9145 137.315 54.9022 138.364 32.6712 138.004C32.2822 138.083 32 138.455 32 138.888C32 139.321 32.2822 139.693 32.6712 139.772Z" fill="white"/>
</svg>
