<svg width="371" height="280" viewBox="0 0 371 280" fill="none" xmlns="http://www.w3.org/2000/svg">
<path d="M22.8 124.69C16.4068 113.968 14.8933 101.028 18.64 89.12C18.9966 87.6633 19.7554 86.3362 20.83 85.29C21.9717 84.2515 23.708 84.2258 24.88 85.23C30.8173 79.1756 38.3536 74.934 46.61 73C48.2306 72.5214 49.93 72.3685 51.61 72.55C53.3169 72.7466 54.8153 73.7767 55.61 75.3C56.3468 76.8884 55.7147 78.7757 54.17 79.6C57.2365 78.2236 60.4558 77.2165 63.76 76.6C64.9557 76.2947 66.2249 76.5129 67.25 77.2C68.48 78.26 68.25 80.36 67.25 81.61C66.0734 82.7905 64.6081 83.6421 63 84.08C63.9667 83.7587 64.9816 83.6064 66 83.63C67.0598 83.6663 68.0216 84.2594 68.53 85.19C69.35 86.97 67.62 88.88 65.93 89.88C61.64 92.42 56.57 93.3 51.59 93.69C46.61 94.08 41.59 94.02 36.68 94.89C35.015 95.0605 33.4331 95.7023 32.12 96.74C30.05 98.64 30 101.84 30.12 104.65C30.35 108.65 30.69 112.65 29.85 116.53C29.01 120.41 26.77 124.23 23.14 125.87" fill="#A6613B"/>
<path d="M147 173.54C147 173.54 150.13 158.68 152.56 157.15C154.99 155.62 164.49 147.49 164.77 149.22C165.05 150.95 160.21 155.55 160.91 157.51C161.61 159.47 166.73 159.84 166.73 159.84C166.73 159.84 172.49 160.17 174.04 159.24C175.59 158.31 185.55 148.58 184.77 151.03C183.99 153.48 178.14 165.83 174.59 167.61C171.04 169.39 161.59 171.71 161.1 171.78C160.61 171.85 157.5 179.5 157.5 179.5L147 173.54Z" fill="#F0BFAC"/>
<path d="M0 217.15C2.2 227.38 3.82 235.84 3.63 237.73C3.31 240.73 1.52 253.44 0 264.07V279.52L83.5 274.52L78 161.73C77.1626 152.072 69.9965 144.154 60.47 142.36C51.47 140.7 38.05 139.64 19.11 141.07C11.8067 141.645 4.98592 144.943 0 150.31L0 217.15Z" fill="#2A2A59"/>
<path d="M66 197.14C66 197.14 103 244.34 122.3 236.94C141.6 229.54 160.4 176.1 160.4 176.1L145 165.86L113.15 201.79L72.59 149.16L66 197.14Z" fill="#2A2A59"/>
<path d="M16.08 141.48C14.81 142.09 42.56 202.58 42.56 202.58L54.73 141.48C54.73 141.48 24.55 137.37 16.08 141.48Z" fill="white"/>
<path d="M22 143.68L23.38 119.74C23.38 119.74 18.68 120.3 17.3 116.74C15.92 113.18 20.06 104.85 26.98 110.66L26.31 90.66H59.59C59.59 90.66 65.65 136.9 45.18 136.9V146.58C45.18 146.58 31.63 157.11 22 143.68Z" fill="#F0BFAC"/>
<path d="M44.42 117C44.5791 117.226 44.7834 117.417 45.02 117.56C45.6886 117.9 46.5014 117.762 47.02 117.22C47.3783 116.854 47.6306 116.398 47.75 115.9C47.8832 115.317 47.9237 114.716 47.87 114.12C47.79 112.81 47.69 111.39 47.59 109.89C47.4 106.89 47.25 104.17 47.16 102.2C47.16 101.2 47.09 100.41 47.08 99.86C47.0418 99.5746 47.0418 99.2854 47.08 99C47.1512 99.2784 47.1947 99.5631 47.21 99.85C47.27 100.4 47.34 101.2 47.43 102.18C47.59 104.18 47.79 106.86 47.98 109.87C48.07 111.36 48.15 112.79 48.23 114.1C48.2683 114.736 48.2076 115.373 48.05 115.99C47.9009 116.543 47.6035 117.044 47.19 117.44C46.8415 117.767 46.3875 117.959 45.91 117.98C45.5566 117.985 45.2093 117.888 44.91 117.7C44.44 117.32 44.4 117 44.42 117Z" fill="#1B1A51"/>
<path d="M46.65 122.29C46.2293 122.611 45.727 122.809 45.2 122.86C43.9254 123.079 42.6142 122.849 41.49 122.21C40.3806 121.548 39.5384 120.519 39.11 119.3C38.896 118.813 38.8199 118.277 38.89 117.75C38.96 117.75 39.01 118.34 39.38 119.19C40.3288 121.486 42.6945 122.865 45.16 122.56C46.08 122.47 46.63 122.22 46.65 122.29Z" fill="#1B1A51"/>
<path d="M39.83 117.42C39.83 117.53 39.12 117.42 38.43 117.79C37.74 118.16 37.5 118.79 37.43 118.79C37.36 118.79 37.36 118.59 37.43 118.3C37.5918 117.929 37.8735 117.622 38.23 117.43C38.5763 117.226 38.9817 117.145 39.38 117.2C39.69 117.25 39.84 117.37 39.83 117.42Z" fill="#1B1A51"/>
<path d="M23.36 117.19C23.7441 116.888 24.0381 116.487 24.21 116.03C24.3892 115.546 24.3892 115.014 24.21 114.53C24.0248 113.953 23.4632 113.583 22.86 113.64C22.6045 113.669 22.378 113.818 22.2497 114.041C22.1215 114.264 22.1067 114.534 22.21 114.77L21.86 114.9C21.618 113.822 21.4807 112.724 21.45 111.62C21.8119 112.663 22.0763 113.738 22.24 114.83L22.45 115.89L21.88 114.96C21.7054 114.611 21.7102 114.199 21.8927 113.853C22.0752 113.508 22.4131 113.272 22.8 113.22C23.2046 113.167 23.6139 113.275 23.94 113.52C24.2281 113.745 24.4466 114.046 24.57 114.39C24.7836 114.954 24.7836 115.576 24.57 116.14C24.418 116.506 24.1648 116.822 23.84 117.05C23.52 117.19 23.37 117.22 23.36 117.19Z" fill="#1B1A51"/>
<path d="M40 97.5199C40.11 98.0799 38.89 98.7899 37.27 99.0999C35.65 99.4099 34.27 99.2099 34.14 98.6499C34.01 98.0899 35.25 97.3699 36.87 97.0599C38.49 96.7499 39.87 96.9999 40 97.5199Z" fill="#A6613B"/>
<path d="M57.05 97.27C57.05 97.84 55.94 98.27 54.66 98.14C53.38 98.01 52.38 97.5 52.42 96.93C52.46 96.36 53.53 95.93 54.81 96.06C56.09 96.19 57.09 96.7 57.05 97.27Z" fill="#A6613B"/>
<path d="M48.17 136.69C47.0999 136.903 46.011 137.007 44.92 137C43.7343 137.004 42.5503 136.911 41.38 136.72C39.9482 136.469 38.5423 136.087 37.18 135.58C35.8253 135.057 34.5229 134.407 33.29 133.64C32.2855 133.007 31.3355 132.291 30.45 131.5C29.6299 130.779 28.8829 129.978 28.22 129.11C28.22 129.11 28.29 129.11 28.39 129.26L28.83 129.74C29.3711 130.323 29.9454 130.874 30.55 131.39C31.4401 132.16 32.3897 132.859 33.39 133.48C34.6166 134.231 35.9085 134.871 37.25 135.39C38.6021 135.886 39.9937 136.268 41.41 136.53C42.57 136.727 43.7435 136.834 44.92 136.85C45.7144 136.864 46.509 136.834 47.3 136.76L47.95 136.7L48.17 136.69Z" fill="#1B1A51"/>
<path d="M46 274.7C45.88 274.7 45 258.57 44.09 238.7C43.18 218.83 42.49 202.64 42.61 202.63C42.73 202.62 43.61 218.77 44.52 238.63C45.43 258.49 46.07 274.69 46 274.7Z" fill="#1B1A51"/>
<path d="M41.58 202.58C40.7426 202.172 39.934 201.708 39.16 201.19C37.0319 199.775 35.1218 198.057 33.49 196.09C31.0297 193.177 29.1645 189.81 28 186.18C26.5478 181.714 26.2451 176.954 27.12 172.34L27.27 172.59L26.4 172.32C21.8248 170.765 17.882 167.759 15.17 163.76C12.9777 160.495 11.7254 156.689 11.55 152.76C11.4116 150.131 11.7504 147.498 12.55 144.99C12.8375 144.074 13.2091 143.187 13.66 142.34C13.6018 142.582 13.518 142.816 13.41 143.04C13.1392 143.693 12.9055 144.361 12.71 145.04C11.9735 147.533 11.6757 150.135 11.83 152.73C12.0503 156.587 13.3117 160.312 15.48 163.51C18.1507 167.413 22.0079 170.352 26.48 171.89L27.34 172.16L27.53 172.22V172.41C26.6643 176.952 26.9531 181.639 28.37 186.04C29.491 189.633 31.2976 192.974 33.69 195.88C35.2886 197.845 37.1493 199.581 39.22 201.04C39.93 201.58 40.56 201.89 40.95 202.16C41.1709 202.283 41.3815 202.423 41.58 202.58Z" fill="#1B1A51"/>
<path d="M42.56 202.58C42.7205 202.413 42.8944 202.259 43.08 202.12C43.42 201.83 43.96 201.43 44.58 200.83C46.3873 199.217 47.9682 197.367 49.28 195.33C51.2116 192.302 52.533 188.925 53.17 185.39C53.5603 183.308 53.7777 181.198 53.82 179.08V177.42C53.7686 176.876 53.6337 176.343 53.42 175.84C52.9612 174.783 52.3913 173.777 51.72 172.84C51.0324 171.876 50.2913 170.951 49.5 170.07L49.37 169.92L49.51 169.77C51.01 168.25 52.42 166.72 53.72 165.2C54.9823 163.798 56.0826 162.258 57 160.61C58.1267 157.612 58.5708 154.401 58.3 151.21C58.1322 149.086 57.6677 146.995 56.92 145C56.64 144.3 56.42 143.76 56.24 143.4C56.1488 143.22 56.0719 143.032 56.01 142.84C56.4183 143.511 56.7728 144.213 57.07 144.94C57.8923 146.942 58.4146 149.055 58.62 151.21C58.9452 154.459 58.521 157.74 57.38 160.8C56.4388 162.495 55.3046 164.076 54 165.51C52.7 167.04 51.29 168.58 49.78 170.11V169.82C50.5813 170.714 51.3324 171.653 52.03 172.63C52.7219 173.58 53.3086 174.603 53.78 175.68C54.011 176.227 54.1528 176.808 54.2 177.4V179.09C54.1535 181.229 53.926 183.36 53.52 185.46C52.8586 189.024 51.4992 192.423 49.52 195.46C48.1819 197.527 46.5555 199.393 44.69 201C44.0184 201.577 43.3066 202.105 42.56 202.58Z" fill="#1B1A51"/>
<path d="M49.41 230.08C49.29 230.08 49.13 229.49 49.04 228.73C48.95 227.97 48.98 227.35 49.1 227.34C49.22 227.33 49.39 227.93 49.47 228.68C49.55 229.43 49.53 230.07 49.41 230.08Z" fill="#1B1A51"/>
<path d="M51.9 256.6C51.78 256.6 51.62 256.01 51.54 255.25C51.46 254.49 51.48 253.87 51.6 253.85C51.72 253.83 51.88 254.44 51.96 255.2C52.04 255.96 52 256.58 51.9 256.6Z" fill="#1B1A51"/>
<path d="M81.72 221C81.6 221 80.72 211.46 79.72 199.68C78.72 187.9 78.04 178.33 78.16 178.32C78.28 178.31 79.16 187.86 80.16 199.65C81.16 211.44 81.84 221 81.72 221Z" fill="#1B1A51"/>
<path d="M159.63 182.38C159.33 182.311 159.038 182.211 158.76 182.08L156.45 181.14C154.5 180.34 151.81 179.24 148.81 178.14C145.81 177.04 143.07 175.99 141.09 175.28L138.74 174.43C138.447 174.343 138.165 174.222 137.9 174.07C138.204 174.095 138.504 174.163 138.79 174.27L141.19 174.99C143.19 175.63 145.96 176.58 148.96 177.73C151.96 178.88 154.65 180.04 156.57 180.91L158.83 181.98C159.114 182.074 159.384 182.209 159.63 182.38Z" fill="#1B1A51"/>
<path d="M144.2 169.91C144.29 169.99 143.91 170.58 143.35 171.23C142.79 171.88 142.27 172.34 142.18 172.23C142.09 172.12 142.47 171.56 143.02 170.91C143.57 170.26 144.11 169.84 144.2 169.91Z" fill="#1B1A51"/>
<path d="M112.62 210.23C112.402 208.727 112.328 207.207 112.4 205.69C112.328 204.176 112.402 202.659 112.62 201.16C112.832 202.66 112.902 204.177 112.83 205.69C112.902 207.207 112.832 208.727 112.62 210.23Z" fill="#1B1A51"/>
<path d="M118 211.57C117.88 211.57 117.06 209.47 115.76 206.98C114.46 204.49 113.2 202.57 113.3 202.5C115.512 205.142 117.117 208.239 118 211.57Z" fill="#1B1A51"/>
<path d="M21.39 142.81C21.17 141.97 21.39 135.73 21.39 135.73C21.39 135.73 37.16 137 38.86 150.5C38.86 150.5 41.74 139.27 45.95 138.6L46.65 146.01L44.41 153.93L35.41 155.79L25.74 152.59L21.39 142.81Z" fill="white"/>
<path d="M38.71 153.11L36.91 158.64L39.73 162.71L40.89 157.17L38.71 153.11Z" fill="#1B1A51"/>
<path d="M38.96 161.6L35.86 187.87L42.94 203.42L48.17 178.2L40.13 160.81L38.96 161.6Z" fill="#1B1A51"/>
<path d="M38 106.41C38.5523 106.41 39 105.515 39 104.41C39 103.305 38.5523 102.41 38 102.41C37.4477 102.41 37 103.305 37 104.41C37 105.515 37.4477 106.41 38 106.41Z" fill="#0D224C"/>
<path d="M54 106.41C54.5523 106.41 55 105.515 55 104.41C55 103.305 54.5523 102.41 54 102.41C53.4477 102.41 53 103.305 53 104.41C53 105.515 53.4477 106.41 54 106.41Z" fill="#0D224C"/>
<path d="M369.75 188.13L359 211.85L354.79 257C354.79 257 306.22 267.64 286.71 249.23L293.71 205.15C295.84 192.47 294.58 168.07 304.83 159.41C306.016 158.414 307.327 157.577 308.73 156.92C315.96 153.63 328.73 151.78 341.01 151.78C352.01 151.78 363.33 157.61 370.01 166.16L369.75 188.13Z" fill="#BD462B"/>
<path d="M370 177.41L350 181.6C350 181.6 371.69 221.26 360.95 223.36C325.39 230.31 304.77 236 304.77 236L303 249.07C303.41 250.61 346.9 249.91 370 245.22V177.41Z" fill="#F6AEA6"/>
<path d="M309.13 161.17L254.9 181L253.2 154.1L241.72 149.84C241.72 149.84 224.91 193.03 245.95 201.07C266.99 209.11 290.69 194.22 290.69 194.22L309.13 161.17Z" fill="#F6AEA6"/>
<path d="M315.83 154.57C296.92 160.28 285.64 167 259 177.48L272.66 206.32L296.16 199.15L315.83 154.57Z" fill="#BD462B"/>
<path d="M346.72 176.09L360.46 206.32L370 204.67V167.41L345.86 176.09" fill="#BD462B"/>
<path d="M330.51 196.71C337.11 196.35 343.63 196.71 350.21 196.71C350.436 196.71 350.62 196.526 350.62 196.3C350.62 196.074 350.436 195.89 350.21 195.89C343.659 195.25 337.061 195.25 330.51 195.89C330.365 195.866 330.22 195.93 330.14 196.053C330.059 196.176 330.059 196.334 330.14 196.457C330.22 196.58 330.365 196.644 330.51 196.62V196.71Z" fill="#1A3066"/>
<path d="M360.06 161.6C337.78 163.5 353.01 194.6 358.74 204.05C358.888 204.268 359.176 204.341 359.41 204.22C359.523 204.163 359.607 204.061 359.641 203.94C359.675 203.818 359.657 203.687 359.59 203.58C353.92 194.05 338.72 165.09 360.14 162.11C360.44 162.11 360.39 161.57 360.14 161.6H360.06Z" fill="#1A3066"/>
<path d="M298.26 179.44C295.489 189.836 293.728 200.475 293 211.21C293 211.64 293.76 211.76 293.84 211.32C295.43 200.71 297.03 190.12 298.84 179.53C298.84 179.2 298.37 179.05 298.28 179.39L298.26 179.44Z" fill="#1A3066"/>
<path d="M350.46 122L351.46 108.6C353.188 108.047 354.615 106.811 355.406 105.178C356.198 103.545 356.286 101.659 355.65 99.96C355.65 99.96 355.6 99.85 355.58 99.79C353.76 96.3456 349.963 94.4254 346.11 95C348.51 93.45 348.33 89.75 346.36 87.73C344.134 85.8366 341.281 84.8418 338.36 84.94C335.461 85.0602 332.556 84.97 329.67 84.67C327.14 84.22 324.67 83.13 322.09 83.44C319.51 83.75 317.09 86.44 318.48 88.57C314.86 88.06 310.81 87.57 307.63 89.27C304.45 90.97 302.71 95.74 305.52 98.05C304.661 98.5529 304.042 99.3813 303.803 100.347C303.564 101.313 303.725 102.335 304.25 103.18C305.472 104.874 307.421 105.893 309.51 105.93C311.576 105.969 313.637 105.692 315.62 105.11" fill="#251A51"/>
<path d="M349.85 113.29L349.11 122.56C349.11 122.56 357.41 123.62 355.11 130.81C352.81 138 347.03 134.81 347.03 134.81C347.03 134.81 345.62 153.22 325.69 147.39C309.83 142.75 310.81 123.3 312.82 106.82C313.51 100.74 319.29 96.34 325.72 97C326.06 97 326.39 97.08 326.72 97.14L338.72 99.35C345.58 100.64 350.4 106.63 349.85 113.29Z" fill="#F6AEA6"/>
<path d="M349.11 130.24L343.69 157.34C342.51 163.24 336.51 167.12 330.28 166.01C330.1 166.01 329.91 165.94 329.73 165.89C323.955 164.748 320.13 159.228 321.09 153.42L324 137.89L349.11 130.24Z" fill="#F6AEA6"/>
<path d="M327.07 130.55C327.035 130.836 326.853 131.083 326.59 131.2C326.1 131.47 325 130.89 324.78 129.97C324.519 128.993 324.444 127.975 324.56 126.97L324.76 123.36C324.793 120.247 325.158 117.146 325.85 114.11C326.1 117.208 326.05 120.322 325.7 123.41L325.41 127.02C325.27 127.958 325.27 128.912 325.41 129.85C325.56 130.6 326.13 130.98 326.51 130.91C326.89 130.84 327 130.5 327.07 130.55Z" fill="#251A51"/>
<path d="M320.6 145.52C321.515 145.869 322.41 146.269 323.28 146.72C325.423 147.621 327.716 148.113 330.04 148.17C332.364 148.212 334.675 147.812 336.85 146.99C337.737 146.573 338.649 146.209 339.58 145.9C338.891 146.629 338.061 147.211 337.14 147.61C332.646 149.67 327.453 149.549 323.06 147.28C322.109 146.902 321.265 146.298 320.6 145.52Z" fill="#251A51"/>
<path d="M324.51 134.35C324.62 134.35 325.05 134.66 325.88 135.01C328.053 136.029 330.645 135.238 331.88 133.18C332.35 132.43 332.46 131.87 332.61 131.88C332.76 131.89 332.86 132.52 332.5 133.46C331.499 135.773 328.862 136.897 326.5 136.02C326.171 135.901 325.856 135.747 325.56 135.56C324.69 135 324.42 134.42 324.51 134.35Z" fill="#251A51"/>
<path d="M349.74 131.7C349.74 131.56 350.23 131.49 350.74 131.18C351.03 131.021 351.25 130.761 351.36 130.45C351.36 130.1 351.36 129.8 351.07 129.71C350.915 129.61 350.715 129.61 350.56 129.71L349.77 129.32C350.51 127.85 351.19 126.84 351.37 126.92C351.55 127 351.23 128.15 350.6 129.66L349.78 129.27C350.145 128.762 350.809 128.568 351.39 128.8C351.784 128.932 352.092 129.244 352.22 129.64C352.332 129.964 352.332 130.316 352.22 130.64C352.021 131.143 351.606 131.529 351.09 131.69C350.18 132 349.74 131.8 349.74 131.7Z" fill="#251A51"/>
<path d="M334.4 113.44C334.4 113.22 335.34 112.71 336.65 113.03C337.96 113.35 338.65 114.3 338.46 114.43C338.27 114.56 337.46 114.14 336.46 113.89C335.46 113.64 334.49 113.7 334.4 113.44Z" fill="#251A51"/>
<path d="M317.17 110.86C317.06 110.65 318.09 110 319.54 110.12C320.99 110.24 321.89 111.05 321.72 111.23C321.55 111.41 320.64 111.1 319.45 111.01C318.26 110.92 317.28 111.1 317.17 110.86Z" fill="#251A51"/>
<path d="M349.11 122.56C343.56 117.43 341.88 108.87 340.41 101.65C335.049 105.241 328.302 106.072 322.23 103.89C320.371 105.981 318.215 107.787 315.83 109.25C315.184 109.753 314.36 109.969 313.55 109.85C312.61 109.59 312.2 108.58 311.98 107.68C311.187 104.806 311.303 101.756 312.31 98.9499C313.37 96.0601 315.621 93.7653 318.49 92.6499C321.712 91.7422 325.129 91.7979 328.32 92.8099C333.152 94.0228 337.802 95.8688 342.15 98.2999C346.4 100.66 350.5 103.79 352.29 108.14C354.08 112.49 354.1 120.92 349.74 123.14" fill="#251A51"/>
<path d="M335.9 121C335.64 121 335.48 120.33 335.53 119.54C335.58 118.75 335.86 118.14 336.11 118.16C336.36 118.18 336.55 118.82 336.47 119.61C336.39 120.4 336.17 121 335.9 121Z" fill="#251A51"/>
<path d="M319.9 119.05C319.65 119.05 319.48 118.39 319.54 117.6C319.6 116.81 319.86 116.2 320.12 116.21C320.38 116.22 320.53 116.88 320.48 117.67C320.43 118.46 320.17 119.07 319.9 119.05Z" fill="#251A51"/>
<path d="M241.07 150.77C241.07 150.77 243.47 136.77 246.35 136.93C249.23 137.09 254.97 136.93 254.97 136.93C254.97 136.93 255.46 123.64 257.05 125.74C258.64 127.84 259.15 145.74 252.98 154.35L241.07 150.77Z" fill="#F6AEA6"/>
<path d="M304.77 236C304.77 236 278.99 240.28 279.46 243.45C279.902 245.67 280.685 247.809 281.78 249.79L304.78 249.3L304.77 236Z" fill="#F6AEA6"/>
<path d="M332.75 250.56L332.55 247.19L279.46 244.11L261.66 199.03L203.38 202.06L223.26 250.82L332.75 250.56Z" fill="#383838"/>
<path opacity="0.41" d="M235.5 223.53C235.707 225.848 237.739 227.569 240.06 227.39C241.172 227.361 242.227 226.89 242.991 226.081C243.755 225.272 244.165 224.192 244.13 223.08C243.928 220.767 241.905 219.047 239.59 219.22C238.477 219.246 237.42 219.714 236.652 220.521C235.885 221.328 235.47 222.407 235.5 223.52V223.53Z" fill="white"/>
<path opacity="0.41" d="M233.79 223.62C234.071 226.858 236.91 229.264 240.15 229.01C241.702 228.973 243.175 228.32 244.243 227.193C245.311 226.067 245.886 224.561 245.84 223.01C245.564 219.778 242.734 217.372 239.5 217.62C237.944 217.651 236.465 218.303 235.391 219.429C234.317 220.556 233.737 222.064 233.78 223.62H233.79Z" fill="white"/>
<path d="M370 268.36C313.25 276.7 234.47 281.18 194.72 251.57L370 249.48V268.36Z" fill="#CD8032"/>
<path d="M175.68 50.47L164.91 36.62C164.91 36.62 165.16 34.11 172.11 34.35C179.06 34.59 189.11 32.72 195.65 32.57C200.677 32.5254 205.698 32.9404 210.65 33.81L199.39 50.47H175.68Z" fill="#BBBDBF"/>
<path d="M210.46 16.33C203.66 28.03 197.05 39.86 193.34 52.33C187.34 50.54 181.29 48.75 175.21 46.96C178.33 34.33 179.29 21.53 181.98 8.08997C191.767 9.69708 201.327 12.4632 210.46 16.33Z" fill="#8BC543" stroke="#006738" stroke-width="9.57"/>
<path d="M192.28 23.39C197.67 24.94 200.41 29.54 198.56 33.39C196.514 37.3536 191.965 39.3338 187.67 38.13C183.41 36.88 180.38 32.58 181.03 28.44C181.68 24.3 186.88 21.88 192.28 23.39Z" fill="#006738"/>
<path d="M175.21 47L180.05 48.43C180.39 47.1052 180.188 45.6997 179.49 44.5235C178.793 43.3473 177.656 42.497 176.33 42.16C176 43.78 175.62 45.39 175.21 47Z" fill="#006738"/>
<path d="M188 28.58C187.31 28.44 186.83 28.87 186.57 29.87C186.31 30.87 186.48 31.45 187.1 31.62C187.455 31.7555 187.856 31.6511 188.1 31.36C188.542 30.814 188.928 30.2243 189.25 29.6C189.625 28.8227 190.238 28.1852 191 27.78C191.736 27.479 192.557 27.4541 193.31 27.71C194.212 27.9095 194.937 28.5776 195.21 29.46C195.461 30.3458 195.404 31.2903 195.05 32.14C194.18 34.34 192.74 35.3 190.72 35.05C190.87 34.42 191.01 33.79 191.16 33.15C192.199 33.3467 193.204 32.6751 193.42 31.64C193.83 30.54 193.58 29.85 192.66 29.58C192.323 29.4684 191.953 29.5202 191.66 29.72C191.154 30.2286 190.729 30.8121 190.4 31.45C190.012 32.2148 189.425 32.8608 188.7 33.32C188.116 33.628 187.434 33.6962 186.8 33.51C186.075 33.3063 185.474 32.7996 185.15 32.12C184.762 31.2616 184.698 30.2918 184.97 29.39C185.49 27.2 186.68 26.27 188.51 26.65L188 28.58Z" fill="#8BC543"/>
<path d="M185.37 28.47C185.22 29.07 185.07 29.67 184.93 30.26L183 29.75C183.13 29.15 183.26 28.55 183.38 27.95L185.37 28.47Z" fill="#8BC543"/>
<path d="M196.92 31.7699L196.2 33.4999L194.32 32.9299C194.54 32.3499 194.76 31.7699 194.99 31.1899L196.92 31.7699Z" fill="#8BC543"/>
<path d="M193.06 52.28C193.553 50.6866 194.077 49.1 194.63 47.52C191.946 46.6852 189.093 48.1789 188.25 50.86L193.06 52.28Z" fill="#006738"/>
<path d="M210 16.15C207.55 15.15 205.09 14.21 202.62 13.35C201.43 16.06 203.62 19.23 207.45 20.67C208.32 19.16 209.18 17.66 210 16.15Z" fill="#006738"/>
<path d="M182 8.13C181.673 9.85 181.363 11.56 181.07 13.26C185.17 14 188.96 12.5 189.81 9.65C187.22 9.06 184.61 8.55 182 8.13Z" fill="#006738"/>
<path d="M186.74 41.2799C187.646 41.5561 188.156 42.5142 187.88 43.4199C187.604 44.3257 186.646 44.8361 185.74 44.5599C184.815 44.3018 184.267 43.3494 184.51 42.4199C184.645 41.9663 184.96 41.5877 185.381 41.3724C185.802 41.157 186.293 41.1236 186.74 41.2799Z" fill="#006738"/>
<path d="M194.56 16.7499C195.88 17.1299 196.64 18.2099 196.29 19.1299C195.688 20.1279 194.457 20.5496 193.37 20.1299C192.12 19.7699 191.37 18.7399 191.62 17.7899C191.87 16.8399 193.23 16.3699 194.56 16.7499Z" fill="#006738"/>
<path d="M206.11 9.87998C201.06 22.43 196.21 35.09 194.33 48C188.11 47.09 181.89 46.18 175.62 45.28C176.9 32.28 176.01 19.53 176.75 5.84998C186.662 6.01671 196.519 7.36968 206.11 9.87998Z" fill="#8BC543" stroke="#006738" stroke-width="9.57"/>
<path d="M189.13 19.47C194.69 20.23 198.06 24.39 196.78 28.47C195.323 32.6858 191.103 35.2969 186.68 34.72C182.28 34.09 178.68 30.27 178.68 26.08C178.68 21.89 183.57 18.75 189.13 19.47Z" fill="#006738"/>
<path d="M175.62 45.28L180.62 46C180.765 44.6342 180.359 43.2671 179.491 42.2024C178.624 41.1377 177.367 40.4636 176 40.33C175.93 42 175.8 43.63 175.62 45.28Z" fill="#006738"/>
<path d="M185.64 25.22C184.93 25.22 184.52 25.68 184.41 26.7C184.3 27.72 184.55 28.27 185.18 28.35C185.534 28.4135 185.892 28.2601 186.09 27.96C186.452 27.3572 186.747 26.7168 186.97 26.05C187.245 25.2273 187.769 24.5107 188.47 24C189.157 23.5966 189.967 23.4546 190.75 23.6C191.671 23.6667 192.485 24.2246 192.88 25.06C193.258 25.8982 193.336 26.8412 193.1 27.73C192.56 30.03 191.28 31.19 189.24 31.24C189.24 30.59 189.35 29.94 189.4 29.29C190.449 29.3244 191.336 28.5179 191.4 27.47C191.64 26.32 191.3 25.67 190.35 25.54C189.989 25.4682 189.616 25.5764 189.35 25.83C188.916 26.4012 188.578 27.0396 188.35 27.72C188.072 28.5337 187.582 29.2586 186.93 29.82C186.397 30.2091 185.732 30.371 185.08 30.27C184.335 30.1764 183.667 29.7641 183.25 29.14C182.742 28.345 182.54 27.3929 182.68 26.46C182.88 24.22 183.93 23.13 185.79 23.24C185.75 23.9 185.69 24.56 185.64 25.22Z" fill="#8BC543"/>
<path d="M183 25.48L182.82 27.32L180.82 27.1L180.94 25.26L183 25.48Z" fill="#8BC543"/>
<path d="M194.93 27.0999C194.77 27.6999 194.61 28.3099 194.46 28.9099L192.46 28.6199L192.88 26.7999L194.93 27.0999Z" fill="#8BC543"/>
<path d="M194 47.9999C194.26 46.3499 194.55 44.7099 194.88 43.0699C192.106 42.6252 189.495 44.5076 189.04 47.2799L194 47.9999Z" fill="#006738"/>
<path d="M205.65 9.76993C203.08 9.11993 200.52 8.54993 197.95 8.04993C197.15 10.9099 199.73 13.7299 203.78 14.5999C204.4 12.9999 205 11.3699 205.65 9.76993Z" fill="#006738"/>
<path d="M176.75 5.84998C176.67 7.59998 176.61 9.32998 176.56 11.05C180.73 11.2 184.27 9.17998 184.7 6.21998C182.07 5.99998 179.42 5.87998 176.75 5.84998Z" fill="#006738"/>
<path d="M186.22 38C186.68 38.0523 187.099 38.2875 187.383 38.6525C187.667 39.0176 187.792 39.4817 187.73 39.94C187.592 40.9093 186.694 41.5831 185.725 41.445C184.756 41.307 184.082 40.4093 184.22 39.44C184.291 38.9823 184.543 38.5722 184.919 38.3015C185.295 38.0309 185.763 37.9223 186.22 38Z" fill="#006738"/>
<path d="M190.43 12.57C191.8 12.76 192.71 13.71 192.49 14.68C192.049 15.7616 190.888 16.3632 189.75 16.1C188.46 15.93 187.53 15.02 187.67 14.04C187.81 13.06 189.07 12.39 190.43 12.57Z" fill="#006738"/>
<path opacity="0.3" d="M219 106.2C219 108.36 203.34 110.1 186.07 110.1C168.8 110.1 156.46 108.36 156.46 106.2C156.46 104.04 168.8 102.31 186.07 102.31C203.34 102.31 219 104.05 219 106.2Z" fill="#221F1F"/>
<path d="M219.47 76.0599C219.05 76.0599 218.63 76.0599 218.22 76.0599C217.195 70.1333 213.158 65.1683 207.565 62.9567C201.972 60.7452 195.631 61.6066 190.83 65.2299C186.758 58.0382 178.347 54.498 170.358 56.6128C162.368 58.7277 156.811 65.9653 156.83 74.2299C156.83 74.8599 156.83 75.4899 156.93 76.1099C156.52 76.1099 156.1 76.1099 155.68 76.1099C145.808 76.3415 137.926 84.4105 137.926 94.2849C137.926 104.159 145.808 112.228 155.68 112.46H219.48C226.075 112.615 232.236 109.185 235.579 103.498C238.922 97.8108 238.922 90.7591 235.579 85.0721C232.236 79.3851 226.075 75.9552 219.48 76.1099L219.47 76.0599Z" fill="#AAD0E2"/>
<path d="M164.46 112.41H219.46C225.37 112.413 230.912 109.541 234.318 104.711C237.724 99.8806 238.567 93.6959 236.58 88.13C224.64 111.67 184.21 109.58 164.46 112.41Z" fill="#A5C7DD"/>
<path d="M208 124.85V109.58C195.36 120.27 177.14 124.29 166.82 125.76C167.108 126.17 167.579 126.413 168.08 126.41H206.44C207.302 126.41 208 125.712 208 124.85Z" fill="#EAB531"/>
<path d="M175.68 50.47L164.91 36.62C164.91 36.62 165.16 32.34 172.11 32.62C179.06 32.9 186.48 35.85 192.99 36.16C198.963 36.3475 204.926 35.5674 210.65 33.85L199.39 50.47H175.68Z" fill="#E6E6E7"/>
<path d="M213.08 75.93C209.62 67.42 204.3 58.52 199.39 50.47H175.68C170.691 58.7017 166.157 67.2012 162.1 75.93C153.92 93.85 158.59 99.75 168.18 103.98C175.3 107.12 199.88 107.12 207 103.98C216.6 99.75 219 90.53 213.08 75.93Z" fill="#E6E6E7"/>
<path d="M191.87 74C191.72 72.29 190.15 71.44 187.14 71.43C184.13 71.42 182.61 72.22 182.6 73.83C182.562 74.791 183.148 75.6671 184.05 76C185.95 76.7089 187.917 77.2248 189.92 77.54C192.301 77.8538 194.543 78.8427 196.38 80.39C197.77 81.7377 198.516 83.616 198.43 85.55C198.479 87.9271 197.193 90.1316 195.1 91.26C192.807 92.6245 190.177 93.3175 187.51 93.26C180.623 93.26 176.707 90.5933 175.76 85.26L181.47 84.82C181.877 87.5866 183.907 88.9766 187.56 88.99C190.98 88.99 192.693 87.8366 192.7 85.53C192.754 84.5906 192.275 83.7007 191.46 83.23C189.603 82.4061 187.641 81.8441 185.63 81.56C182.57 80.95 180.35 80.03 179 78.79C177.688 77.6302 176.956 75.9502 177 74.2C177.018 72.204 178.002 70.3405 179.64 69.2C181.4 67.84 183.94 67.2 187.28 67.2C193.9 67.2 197.36 69.4 197.66 73.8L191.87 74Z" fill="#E2A540"/>
<rect x="184.78" y="67.7678" width="4.94" height="5.43" transform="rotate(-89.78 184.78 67.7678)" fill="#E2A540"/>
<rect x="184.689" y="97.241" width="4.94" height="5.43" transform="rotate(-89.78 184.689 97.241)" fill="#E2A540"/>
<path d="M201.58 51C201.508 51.5166 201.051 51.891 200.53 51.86H174.21C173.686 51.8965 173.222 51.5207 173.15 51V50.3C173.222 49.7792 173.686 49.4034 174.21 49.44H200.53C201.051 49.4089 201.508 49.7833 201.58 50.3V51Z" fill="#744C29"/>
<path d="M194.28 102.54C198.66 105.7 206.47 103.02 209.37 100.96C213.37 98.11 215.24 92.42 214.78 88.35C214.443 84.6812 213.504 81.0931 212 77.73C212.885 81.5717 212.485 85.5979 210.86 89.19C208.52 94.68 201.75 96.08 197.26 96.58C194.15 96.94 189.92 99.41 194.28 102.54Z" fill="#D0D2D3"/>
<path d="M191.61 48.6899C191.61 48.6899 199.9 45.6899 204 41.4699C208.62 36.7099 199.45 48.6899 199.45 48.6899H191.61Z" fill="#D0D2D3"/>
<path d="M168.09 37.63C168.09 37.63 168.25 37.75 168.5 37.98C168.75 38.21 169.11 38.53 169.5 38.98C170.477 39.9905 171.392 41.0591 172.24 42.18C173.092 43.2936 173.873 44.4592 174.58 45.67C174.87 46.17 175.09 46.6 175.24 46.91C175.39 47.22 175.46 47.4 175.46 47.4L175.05 47.05C174.8 46.83 174.44 46.5 174.05 46.05C173.067 45.0454 172.151 43.9763 171.31 42.85C170.469 41.7352 169.698 40.5697 169 39.36C168.72 38.86 168.49 38.43 168.34 38.12C168.19 37.81 168.09 37.63 168.09 37.63Z" fill="#F7F7F7"/>
<path d="M176.37 53.5699C176.37 53.5699 176.24 53.9799 175.98 54.6699C175.72 55.3599 175.34 56.3399 174.85 57.5099C173.85 59.8399 172.48 62.8899 170.97 65.8799C169.46 68.8699 167.83 71.8199 166.52 73.9699C165.87 75.0499 165.3 75.9699 164.9 76.5599C164.5 77.1499 164.24 77.5599 164.24 77.5599C164.24 77.5599 164.37 77.1599 164.63 76.4699C164.89 75.7799 165.27 74.7899 165.76 73.6299C166.76 71.2899 168.13 68.2499 169.65 65.2499C171.17 62.2499 172.79 59.3199 174.1 57.1599C174.75 56.0799 175.32 55.1599 175.72 54.5799L176.37 53.5699Z" fill="#F7F7F7"/>
<path d="M175.21 98.34C173.904 102.75 170.07 105.938 165.496 106.419C160.922 106.899 156.509 104.577 154.315 100.535C152.121 96.4933 152.578 91.5277 155.473 87.9541C158.368 84.3805 163.131 82.9028 167.54 84.21C173.559 85.9946 176.993 92.3202 175.21 98.34Z" fill="#E8AF2E"/>
<path d="M173.24 97.7499C172.165 101.362 169.019 103.969 165.271 104.356C161.523 104.742 157.911 102.831 156.122 99.5142C154.334 96.1976 154.721 92.1298 157.103 89.2099C159.484 86.29 163.392 85.0939 167 86.1799C171.913 87.6586 174.703 92.8328 173.24 97.7499Z" fill="#F9CA35"/>
<path d="M167 93.23C167.147 92.5166 166.607 91.9766 165.38 91.61C164.15 91.24 163.44 91.39 163.24 92.04C163.135 92.4094 163.266 92.8053 163.57 93.04C164.26 93.5602 165 94.0091 165.78 94.38C166.715 94.7957 167.513 95.4685 168.08 96.32C168.482 97.0412 168.558 97.8991 168.29 98.68C168.02 99.653 167.229 100.394 166.24 100.6C165.139 100.881 163.982 100.846 162.9 100.5C160.09 99.66 158.82 98.1 159.07 95.84L161.45 96.34C161.28 97.52 161.94 98.34 163.45 98.78C164.96 99.22 165.68 98.94 165.97 97.99C166.053 97.6356 165.951 97.2634 165.7 97C165.037 96.4458 164.304 95.9818 163.52 95.62C162.575 95.1952 161.757 94.5297 161.15 93.69C160.75 93.0583 160.651 92.2817 160.88 91.57C161.128 90.7584 161.754 90.1173 162.56 89.85C163.661 89.5156 164.841 89.5508 165.92 89.95C168.62 90.76 169.76 92.08 169.36 93.9L167 93.23Z" fill="#C38728"/>
<rect x="165.458" y="89.675" width="2.10598" height="2.31657" transform="rotate(-73.1913 165.458 89.675)" fill="#C38728"/>
<rect x="161.234" y="101.819" width="2.1" height="2.31" transform="rotate(-73.29 161.234 101.819)" fill="#C38728"/>
<path d="M155.53 92.68C155.536 91.7847 155.774 90.9062 156.22 90.13C156.994 89.6868 157.868 89.4492 158.76 89.44C157.866 89.4475 156.987 89.2087 156.22 88.75C155.755 87.9852 155.516 87.1047 155.53 86.21C155.541 87.1269 155.284 88.0271 154.79 88.8C154.038 89.2555 153.168 89.4782 152.29 89.44C153.186 89.4372 154.067 89.6755 154.84 90.13C155.299 90.901 155.537 91.7829 155.53 92.68Z" fill="white"/>
<path d="M157.69 93.18C157.696 92.8619 157.779 92.5499 157.93 92.27C158.209 92.1158 158.521 92.0333 158.84 92.03C158.52 92.0311 158.205 91.9446 157.93 91.78C157.767 91.5084 157.684 91.1966 157.69 90.88C157.692 91.2065 157.598 91.5263 157.42 91.8C157.152 91.9621 156.843 92.042 156.53 92.03C156.855 91.9393 157.204 92.0302 157.444 92.2679C157.684 92.5057 157.778 92.8539 157.69 93.18Z" fill="white"/>
<path d="M153.47 95.61C153.476 95.1713 153.593 94.7413 153.81 94.36C154.192 94.1349 154.627 94.0142 155.07 94.01C154.627 94.0137 154.191 93.8961 153.81 93.67C153.584 93.2926 153.466 92.86 153.47 92.42C153.475 92.8723 153.35 93.3164 153.11 93.7C152.735 93.9205 152.305 94.0281 151.87 94.01C152.32 93.898 152.795 94.0298 153.123 94.3574C153.45 94.685 153.582 95.1604 153.47 95.61Z" fill="white"/>
<path d="M208 106.54H202.35V87.85C202.35 79.6817 195.728 73.06 187.56 73.06C179.392 73.06 172.77 79.6817 172.77 87.85V106.54H167.12V87.85C167.12 76.5613 176.271 67.41 187.56 67.41C198.849 67.41 208 76.5613 208 87.85V106.54Z" fill="#72716F"/>
<rect x="158.48" y="97.67" width="58.18" height="39.34" rx="2.19" fill="#F2CB30"/>
<path d="M192.38 112.82C192.383 110.553 190.804 108.591 188.588 108.112C186.373 107.632 184.123 108.764 183.188 110.829C182.253 112.895 182.887 115.332 184.71 116.68L183.18 127.55H192L190.47 116.68C191.679 115.766 192.387 114.336 192.38 112.82Z" fill="#72716F"/>
<path d="M183.18 127.55C183.18 127.55 190.04 124.92 190.54 117.49L192 127.55H183.18Z" fill="#5C5A5A"/>
</svg>
