<svg width="32" height="19" viewBox="0 0 32 19" fill="none" xmlns="http://www.w3.org/2000/svg">
<path d="M30.5381 18.1185H1.462C0.913436 18.1185 0.468811 17.6738 0.468811 17.1253V1.49978C0.468811 0.951279 0.913499 0.506592 1.462 0.506592H30.5381C31.0866 0.506592 31.5312 0.951279 31.5312 1.49978V17.1253C31.5312 17.6738 31.0866 18.1185 30.5381 18.1185Z" fill="#5EA570"/>
<path d="M30.5381 0.506592H29.2241C29.7727 0.506592 30.2173 0.951279 30.2173 1.49978V17.1253C30.2173 17.6738 29.7726 18.1185 29.2241 18.1185H30.5381C31.0866 18.1185 31.5312 17.6738 31.5312 17.1253V1.49984C31.5312 0.951279 31.0866 0.506592 30.5381 0.506592Z" fill="#528E61"/>
<path d="M28.217 13.0516V5.57361C27.2246 5.57361 26.42 4.76905 26.42 3.77661H5.58002C5.58002 4.76905 4.77546 5.57361 3.78302 5.57361V13.0517C4.77546 13.0517 5.58002 13.8562 5.58002 14.8487H26.42C26.42 13.8562 27.2246 13.0516 28.217 13.0516Z" fill="#8BC852"/>
<path d="M26.42 3.77661H24.8174C24.8174 4.33486 25.0719 4.83367 25.4713 5.16324C26.2121 5.77455 26.6144 6.70517 26.6144 7.66561V10.9595C26.6144 11.92 26.2121 12.8506 25.4713 13.4619C25.0719 13.7915 24.8174 14.2903 24.8174 14.8485H26.42C26.42 13.8561 27.2246 13.0515 28.217 13.0515V5.57361C27.2246 5.57361 26.42 4.76905 26.42 3.77661Z" fill="#7DBE3B"/>
<path d="M16 16.3481C19.8856 16.3481 23.0355 13.1982 23.0355 9.3126C23.0355 5.427 19.8856 2.2771 16 2.2771C12.1144 2.2771 8.96448 5.427 8.96448 9.3126C8.96448 13.1982 12.1144 16.3481 16 16.3481Z" fill="#CBE7AF"/>
<path d="M16 2.2771C15.741 2.2771 15.4853 2.29154 15.2336 2.31879C18.7586 2.70079 21.5026 5.68604 21.5026 9.3126C21.5026 12.9392 18.7586 15.9244 15.2336 16.3064C15.4854 16.3337 15.741 16.3481 16 16.3481C19.8856 16.3481 23.0355 13.1982 23.0355 9.3126C23.0355 5.42704 19.8856 2.2771 16 2.2771Z" fill="#AAD880"/>
<path fill-rule="evenodd" clip-rule="evenodd" d="M3.78302 13.5202C3.52408 13.5202 3.31427 13.3104 3.31427 13.0515V5.57336C3.31427 5.31448 3.52408 5.10461 3.78302 5.10461C4.51546 5.10461 5.11127 4.50879 5.11127 3.77642C5.11127 3.51754 5.32108 3.30767 5.58002 3.30767H11.5042C12.7581 2.36642 14.3151 1.80811 16.0001 1.80811C17.6851 1.80811 19.242 2.36642 20.496 3.30767H26.4201C26.679 3.30767 26.8888 3.51754 26.8888 3.77642C26.8888 4.50879 27.4846 5.10461 28.217 5.10461C28.476 5.10461 28.6858 5.31448 28.6858 5.57336V7.92404C28.6858 8.18292 28.476 8.39279 28.217 8.39279C27.9581 8.39279 27.7483 8.18292 27.7483 7.92404V5.99336C26.8744 5.80886 26.1846 5.11904 26.0001 4.24517H21.53C22.7553 5.58129 23.5043 7.36092 23.5043 9.31242C23.5043 11.2639 22.7553 13.0435 21.53 14.3797H26C26.1846 13.5058 26.8744 12.816 27.7482 12.6315V9.79829C27.7482 9.53936 27.958 9.32954 28.217 9.32954C28.4759 9.32954 28.6857 9.53936 28.6857 9.79829V13.0515C28.6857 13.3104 28.4759 13.5202 28.217 13.5202C27.4846 13.5202 26.8888 14.116 26.8888 14.8484C26.8888 15.1074 26.679 15.3172 26.42 15.3172H20.4959C19.242 16.2584 17.685 16.8167 16 16.8167C14.3586 16.8167 12.7858 16.273 11.5061 15.3172H5.58002C5.32108 15.3172 5.11127 15.1074 5.11127 14.8484C5.11127 14.116 4.51546 13.5202 3.78302 13.5202ZM6.00002 4.24523C5.81546 5.11911 5.12565 5.80886 4.25177 5.99342V12.6315C5.12571 12.8161 5.81546 13.5059 6.00002 14.3797H10.468C10.1021 13.9817 9.77621 13.5422 9.49996 13.0645C9.37027 12.8405 9.4469 12.5537 9.67102 12.4241C9.8949 12.2945 10.1818 12.371 10.3115 12.5952C11.4831 14.6209 13.6628 15.8793 16 15.8793C19.621 15.8793 22.5668 12.9334 22.5668 9.31248C22.5668 5.69154 19.6209 2.74573 16 2.74573C12.3791 2.74573 9.43327 5.69154 9.43327 9.31248C9.43327 9.87123 9.50358 10.4264 9.64233 10.9624C9.70721 11.213 9.55658 11.4689 9.30596 11.5337C9.05533 11.5985 8.79952 11.4479 8.73471 11.1973C8.57614 10.5845 8.49577 9.95042 8.49577 9.31248C8.49577 7.36098 9.24471 5.58136 10.47 4.24523H6.00002Z" fill="black"/>
<path fill-rule="evenodd" clip-rule="evenodd" d="M13.7912 12.7747C14.4506 13.2061 14.8974 13.328 15.4855 13.3567V13.9495C15.4855 14.2084 15.6953 14.4182 15.9543 14.4182C16.2132 14.4182 16.423 14.2084 16.423 13.9495V13.321C17.5703 13.1118 18.2403 12.1732 18.3877 11.2966C18.575 10.1828 17.992 9.21422 16.9025 8.82916C16.745 8.77347 16.5837 8.71497 16.423 8.65384V6.15622C16.8464 6.24403 17.0995 6.46022 17.1201 6.47841C17.3105 6.65116 17.6049 6.63834 17.7796 6.44903C17.9552 6.25878 17.9432 5.96216 17.7528 5.78666C17.7238 5.75991 17.2302 5.31566 16.423 5.20591V4.67578C16.423 4.41691 16.2132 4.20703 15.9543 4.20703C15.6953 4.20703 15.4855 4.41691 15.4855 4.67578V5.24197C15.4002 5.25978 15.3132 5.28153 15.2242 5.30834C14.5085 5.52391 13.9736 6.13684 13.8283 6.90803C13.6961 7.60978 13.92 8.28566 14.4126 8.67203C14.6824 8.88366 15.0198 9.07741 15.4855 9.28303V12.4188C15.0588 12.3937 14.7778 12.2998 14.3045 11.9902C14.0878 11.8485 13.7973 11.9091 13.6556 12.1258C13.5138 12.3425 13.5746 12.633 13.7912 12.7747ZM14.9912 7.93422C14.775 7.76472 14.6825 7.43797 14.7497 7.08147C14.8121 6.75003 15.0384 6.34828 15.4855 6.20903V8.24397C15.2981 8.14578 15.1293 8.04253 14.9912 7.93422ZM17.4632 11.1412C17.5048 10.8932 17.5651 10.0576 16.5901 9.71297C16.5329 9.69278 16.4778 9.67297 16.423 9.65316V12.3553C17.0258 12.1672 17.3797 11.638 17.4632 11.1412Z" fill="black"/>
<path d="M30.5381 0.0378418H4.72013C4.46119 0.0378418 4.25138 0.247717 4.25138 0.506592C4.25138 0.765467 4.46119 0.975342 4.72013 0.975342H30.5381C30.8273 0.975342 31.0625 1.21065 31.0625 1.49984V17.1253C31.0625 17.4145 30.8273 17.6498 30.5381 17.6498H1.462C1.17281 17.6498 0.9375 17.4145 0.9375 17.1253V1.49984C0.9375 1.21065 1.17281 0.975342 1.462 0.975342H2.846C3.10494 0.975342 3.31475 0.765467 3.31475 0.506592C3.31475 0.247717 3.10494 0.0378418 2.846 0.0378418H1.462C0.655813 0.0378418 0 0.693717 0 1.49984V17.1253C0 17.9315 0.655813 18.5873 1.462 18.5873H30.5381C31.3442 18.5873 32.0001 17.9315 32.0001 17.1253V1.49984C32 0.693717 31.3442 0.0378418 30.5381 0.0378418Z" fill="black"/>
</svg>
