<svg width="56" height="58" viewBox="0 0 56 58" fill="none" xmlns="http://www.w3.org/2000/svg">
<path d="M5.005 58C2.255 58 0.00500488 55.75 0.00500488 53V30H10.005V53C10.005 55.75 7.755 58 5.005 58Z" fill="#CEC9AE"/>
<rect x="10.005" width="45.99" height="11" fill="#CEC9AE"/>
<path d="M10.005 35V42V53C10.005 55.75 7.755 58 5.005 58H10.005H16.005H51.005C53.761 58 55.995 55.766 55.995 53.01V13H10.005V35Z" fill="#EDEADA"/>
<rect x="10.005" y="11" width="45.99" height="2" fill="#F4F3ED"/>
<rect x="16.005" y="16" width="12" height="12" fill="#61B872"/>
<path d="M50.005 17H34.005C33.452 17 33.005 16.553 33.005 16C33.005 15.447 33.452 15 34.005 15H50.005C50.558 15 51.005 15.447 51.005 16C51.005 16.553 50.558 17 50.005 17Z" fill="#CEC9AE"/>
<path d="M50.005 23H34.005C33.452 23 33.005 22.553 33.005 22C33.005 21.447 33.452 21 34.005 21H50.005C50.558 21 51.005 21.447 51.005 22C51.005 22.553 50.558 23 50.005 23Z" fill="#CEC9AE"/>
<path d="M50.005 29H34.005C33.452 29 33.005 28.553 33.005 28C33.005 27.447 33.452 27 34.005 27H50.005C50.558 27 51.005 27.447 51.005 28C51.005 28.553 50.558 29 50.005 29Z" fill="#CEC9AE"/>
<path d="M50.005 35H17.005C16.452 35 16.005 34.553 16.005 34C16.005 33.447 16.452 33 17.005 33H50.005C50.558 33 51.005 33.447 51.005 34C51.005 34.553 50.558 35 50.005 35Z" fill="#CEC9AE"/>
<path d="M32.005 41H17.005C16.452 41 16.005 40.553 16.005 40C16.005 39.447 16.452 39 17.005 39H32.005C32.558 39 33.005 39.447 33.005 40C33.005 40.553 32.558 41 32.005 41Z" fill="#CEC9AE"/>
<path d="M32.005 47H17.005C16.452 47 16.005 46.553 16.005 46C16.005 45.447 16.452 45 17.005 45H32.005C32.558 45 33.005 45.447 33.005 46C33.005 46.553 32.558 47 32.005 47Z" fill="#CEC9AE"/>
<path d="M32.005 53H17.005C16.452 53 16.005 52.553 16.005 52C16.005 51.447 16.452 51 17.005 51H32.005C32.558 51 33.005 51.447 33.005 52C33.005 52.553 32.558 53 32.005 53Z" fill="#CEC9AE"/>
<rect x="38.005" y="40" width="12" height="12" fill="#F7B563"/>
<rect x="22.005" y="4" width="22" height="4" fill="#8E8872"/>
</svg>
