<svg width="698" height="319" viewBox="0 0 698 319" fill="none" xmlns="http://www.w3.org/2000/svg">
<path fill-rule="evenodd" clip-rule="evenodd" d="M0.0449219 319H693.603C732.163 55.9901 431.547 36.6619 431.547 36.6619C431.547 36.6619 232.542 25.2443 126.539 92.2651C23.3577 157.502 1.15399 310.88 0.0449219 319Z" fill="url(#paint0_linear)"/>
<rect x="212" y="244" width="58" height="4" fill="#BFACB2"/>
<path d="M243 317L238.354 244.388L236 243L241.356 317H243Z" fill="#BFACB2"/>
<path d="M211.092 242.731L205 210.62L207.358 210L213 243L211.092 242.731Z" fill="#BFACB2"/>
<path d="M207 317L211.646 244.388L214 243L208.644 317H207Z" fill="#BFACB2"/>
<path d="M237 317L241.646 244.388L244 243L238.644 317H237Z" fill="#BFACB2"/>
<path d="M274 317L269.354 244.388L267 243L272.356 317H274Z" fill="#BFACB2"/>
<path d="M246.092 240.731L240 208.62L242.358 208L248 241L246.092 240.731Z" fill="#BFACB2"/>
<path d="M199.242 211.649C200.282 216.027 204.194 219.084 208.646 218.998H235.515C238.038 219.016 240.445 217.925 242.111 216.01C243.713 214.147 244.346 211.627 243.817 209.218L230.383 148.769C229.498 145.177 226.572 142.469 222.954 141.896C210.782 139.777 201.808 139.301 192.216 141.149C190.246 141.466 188.487 142.577 187.34 144.228C186.193 145.879 185.757 147.929 186.131 149.911L199.242 211.649Z" fill="#473C3C"/>
<path d="M211.538 244.774C209.875 244.399 208.798 242.999 209.032 241.516C209.344 240.031 210.85 238.965 212.582 239.001H270.682C272.211 238.972 273.561 239.868 273.934 241.162C274.244 242.451 273.443 243.747 272.037 244.231C270.521 244.76 268.9 245.021 267.267 244.999H213.3C212.703 245.004 212.109 244.928 211.538 244.774Z" fill="#514747"/>
<path d="M203.292 211.651C204.33 216.028 208.238 219.084 212.685 218.998H239.522C242.045 219.014 244.45 217.919 246.111 215.997C247.715 214.137 248.347 211.616 247.815 209.207L234.329 148.773C233.457 145.179 230.535 142.469 226.922 141.901C214.751 139.783 205.801 139.294 196.22 141.154C194.251 141.472 192.493 142.582 191.345 144.231C190.198 145.881 189.759 147.931 190.128 149.914L203.292 211.651Z" fill="#605555"/>
<path d="M247.822 209.272L234.213 149.321C233.701 147.139 232.368 145.235 230.489 144C230.229 153.084 228.823 162.1 226.305 170.836C221.186 189.185 212.262 204.274 203 212.263C204.257 216.318 208.052 219.062 212.316 218.999H239.399C241.945 219.015 244.372 217.928 246.048 216.022C247.69 214.183 248.349 211.675 247.822 209.272Z" fill="#514747"/>
<path d="M272.937 241.161C272.561 239.866 271.216 238.97 269.694 239.001H238.391C239.911 238.972 241.251 239.868 241.621 241.161C241.929 242.451 241.134 243.747 239.737 244.231C238.231 244.759 236.621 245.019 235 244.999H266.302C267.924 245.021 269.534 244.76 271.04 244.231C272.438 243.748 273.238 242.453 272.937 241.161Z" fill="#473C3C"/>
<path d="M426.708 64.4202C421.341 72.5877 413.103 85.7238 401.511 93.5238C391.824 100.031 399.794 106.469 406.261 103.053C412.727 99.6359 429.149 92.3804 434.731 70.7636C436.3 64.6788 430.665 58.4443 426.708 64.4202Z" fill="#8668A0"/>
<path d="M431.249 62C422.774 64.8289 421.631 91.5458 403 99.4174C401.131 100.329 399.005 100.538 397 100.005C397.309 103.367 402.071 105.253 406.241 103.053C412.577 99.6497 429.137 92.3384 434.733 70.6369C435.728 66.7421 433.805 62.8063 431.249 62Z" fill="#694A89"/>
<path d="M409 96.8097L403.756 90L402 90.8177L404.538 100L409 96.8097Z" fill="#694A89"/>
<path d="M397.489 93.3615C390.865 95.1428 367.193 96.9623 362.924 96.4788C362.924 96.4788 360.845 99.7489 362.924 100.092C365.004 100.436 396.346 103.757 400.546 102.841C407.293 101.39 406.453 90.944 397.489 93.3615Z" fill="#FFDEB3"/>
<path d="M403.017 93C403.822 95.7681 403.645 94.7301 400.039 95.5882C396.229 96.5017 371.51 99.4912 365.542 98.7023C365.214 99.6988 362.141 99.6296 363.234 99.8372C365.241 100.211 396.379 103.823 400.545 102.827C405.475 101.706 406.335 95.3944 403.017 93Z" fill="#F9AD8F"/>
<path d="M354.139 99.4777C356.815 97.9299 362.717 95.44 366.545 96.1129L367 98.4817C363.28 100.272 358.903 104 357.444 104C356.963 104 353.242 99.9622 354.139 99.4777Z" fill="#FFDEB3"/>
<path d="M359.999 103.408C358.645 104.251 355.685 107.468 355.165 106.942C354.332 106.13 356.86 103.935 358.259 102.596C360.103 100.882 359.999 103.408 359.999 103.408Z" fill="#FFDEB3"/>
<path d="M355.505 100.652C354.226 101.228 350.388 103.535 350.068 102.886C349.416 101.877 353.612 99.643 354.929 99.153C356.937 98.4035 355.505 100.652 355.505 100.652Z" fill="#FFDEB3"/>
<path d="M358.799 98C359.762 95.2383 353.165 96.5885 353.005 95.1002C352.777 93.0443 360.82 94.2717 362.639 95.5298C364.459 96.7879 358.799 98 358.799 98Z" fill="#FFDEB3"/>
<path d="M356.855 102.712C355.627 103.5 351.564 106.46 351.091 105.939C350.335 105.106 354.493 102.295 355.721 101.388C357.598 100.02 356.855 102.712 356.855 102.712Z" fill="#FFDEB3"/>
<path d="M399.019 92.7752C398.685 92.1431 402.779 90.659 403.529 91.0712C404.278 91.4835 409.336 102.889 407.663 103.92C405.99 104.95 400.331 105.294 399.555 104.731C398.779 104.167 401.869 98.162 399.019 92.7752Z" fill="#FFEBE3"/>
<path d="M415.032 36.6263C409.008 26.6144 412.026 8.49262 423.505 3.01804C434.984 -2.45654 455.086 -0.364516 458.146 8.32961C461.205 17.0237 459.499 42.6171 460.244 51.5965C461.381 65.181 463.33 72.3672 464.887 80.518C466.443 88.6687 451.445 114.371 450.903 121C450.903 121 427.634 98.5175 429.448 80.3414C431.262 62.1652 415.032 36.6263 415.032 36.6263Z" fill="#964B39"/>
<path d="M464.887 80.7413C463.331 72.6464 461.383 65.5094 460.246 52.0179C459.488 43.1 461.207 17.6955 458.149 9.04745C457.531 7.41635 456.438 6.00682 455.01 5C454.631 12.9735 448.718 21.1898 439.342 25.615C429.289 30.3236 418.33 29.1363 412.093 23.3485C411.67 28.1585 412.702 32.9846 415.056 37.2042C415.056 37.2042 431.292 62.5413 429.465 80.6199C427.639 98.6985 450.91 121 450.91 121C451.451 114.362 466.443 88.8227 464.887 80.7413Z" fill="#843A2C"/>
<path d="M429.985 86.4935C432.146 90.3514 434.821 93.0002 437.752 93.7745C445.317 95.7442 451.694 84.5918 451.991 68.8344C452.288 53.077 445.371 34.1545 437.82 32.1577C431.174 30.4189 426.499 43.3644 425 56.0926C428.08 63.917 430.525 72.896 429.755 80.5437C429.578 82.5287 429.655 84.5283 429.985 86.4935Z" fill="#6D2A21"/>
<path d="M420.204 232.648L421.036 147.919L449.407 120L472.543 157.266L481.568 230.544L494.097 260.433L500 317H496.414L470.143 235.171L446.299 176.729L444.594 175.974L433.742 232.23L436.046 263.481L423.081 317H420L420.204 232.648Z" fill="#5E3F3D"/>
<path d="M421.19 236L421 317H424.072L437 263.063L435.083 236.707C430.442 236.789 425.8 236.553 421.19 236Z" fill="#563837"/>
<path d="M481.271 229.813L480.675 225C476.584 227.099 472.349 228.916 468 230.438L469.662 234.517L496.357 317H500L494.002 259.981L481.271 229.813Z" fill="#563837"/>
<path d="M446 175L443.11 175.769L441.43 175.013L430.745 231.254L433.003 262.496L421.013 312.696L421 316H424.038L436.82 262.496L434.548 231.254L446 175Z" fill="#4F302F"/>
<path d="M494.096 260.433L481.565 230.544L472.539 157.266L449.4 120L447 122.36L468.666 157.266L477.706 230.544L490.224 260.433L496.005 315.692L496.414 317H500L494.096 260.433Z" fill="#4F302F"/>
<path d="M436 173.398C438.201 173.77 447.467 173.146 451 171C451 171 448.519 177.199 444.397 176.995C440.276 176.791 436 173.398 436 173.398Z" fill="#4F302F"/>
<path d="M421 150.272C421 150.272 446.253 159.517 465 148.889L456.357 135L421.189 146.167L421 150.272Z" fill="#4F302F"/>
<path d="M418.499 147.531C429.865 150.801 452.96 153.341 467 147.531C467 147.531 454.532 120.302 451.644 101.654C449.709 89.195 460.833 71.7228 456.615 65.4257C451.751 58.1287 433.614 59.6287 429.744 61.7097C423.242 65.223 416 94.2489 416 94.2489C416 94.2489 420.031 97.6406 420.944 98.4784C433.546 110.262 418.499 147.531 418.499 147.531Z" fill="#8668A0"/>
<path d="M425.726 107.478C437.081 105.757 456.52 127.702 455.081 150C459.227 149.995 463.313 148.996 467 147.086C467 147.086 456.063 119.691 453.17 100.999C451.233 88.5011 460.825 71.0423 456.601 64.7256C456.287 64.2279 455.912 63.7725 455.484 63.3701C448.408 59.3037 442.946 90.0328 441.48 92.4456C440.013 94.8584 424.717 94.4382 416 93.6249C416.323 93.8824 420.036 97.0272 420.924 97.8405C423.527 100.438 425.214 103.823 425.726 107.478Z" fill="#694A89"/>
<path d="M446.222 60.1748L433.923 60C432.083 61.5599 424.775 84.865 429.647 84.9994C434.519 85.1339 450.71 61.1027 446.222 60.1748Z" fill="#FFF3E1"/>
<path d="M446 61.7524L444.108 33L433 48.9234L433.858 61.9441C433.858 61.9441 437.125 66.6951 446 61.7524Z" fill="#FFDEB3"/>
<path d="M423.997 318H410C410 318 419.209 313.238 421.692 313.007C424.175 312.777 423.997 318 423.997 318Z" fill="#E8D6DF"/>
<path d="M504 318H493C493 318 494.606 312.285 497.015 312.009C499.423 311.732 504 318 504 318Z" fill="#E8D6DF"/>
<path d="M439 151.378L442 164L440.848 151L439 151.378Z" fill="#4F302F"/>
<g style="mix-blend-mode:multiply" opacity="0.5">
<path d="M434.088 74.7224C443.069 72.9578 449.078 66.3506 456 63.943C453.596 61.8363 449.811 60.7146 445.818 60.2632L443.994 33L433.342 48.0474L432.776 49.8394L433.494 60.5094C433.47 60.5479 433.437 60.5806 433.398 60.6052C432.315 60.792 431.254 61.09 430.234 61.4944L427.595 62.2467C424.929 69.4285 424.708 76.5007 434.088 74.7224Z" fill="#D3A59F"/>
</g>
<path d="M430.145 58C424.771 55.3783 420.704 50.6974 418.878 45.0346C417.828 41.5527 419.383 38.5993 418.878 35.551C418.646 34.1962 416.314 28.0183 417.2 23.1681C418.087 18.3179 422.342 12.9665 428.849 14.1722C435.355 15.378 445.571 23.3849 445.967 33.4917C446.84 55.751 430.145 58 430.145 58Z" fill="#FFDEB3"/>
<path d="M441.15 45C445.187 38.7635 443.842 32.7435 449.13 31.6748C454.419 30.6061 447.273 10.1786 442.698 8.96112C438.122 7.74359 427.895 5.06502 425.203 9.29932C422.512 13.5336 424.046 21.7993 432.766 25.5331C441.487 29.2668 441.15 45 441.15 45Z" fill="#964B39"/>
<path d="M448.589 18C446.091 20.8236 442.957 22.9444 439.474 24.1676C437.073 25.0712 434.55 25.5686 432 25.6413C432.443 25.8869 432.898 26.1189 433.367 26.3236C441.818 30.0487 441.505 46 441.505 46C445.412 39.7096 444.774 33.9786 449.852 32.9006C452.834 32.2593 452.977 23.1852 448.589 18Z" fill="#843A2C"/>
<path d="M444.129 43.9695C449.096 42.8889 452.45 38.4044 451.951 34.6222C451.452 30.8401 446.523 31.529 445.32 34.2845C444.116 37.0401 441.505 44.5368 444.129 43.9695Z" fill="#FFDEB3"/>
<path d="M444.753 41.9817C448.072 41.3606 450.303 38.7399 449.967 36.529C449.631 34.3181 446.352 34.728 445.545 36.3427C444.739 37.9574 443.006 42.317 444.753 41.9817Z" fill="#EF8F6F"/>
<path d="M444.489 42.9863C446.484 42.7276 447.981 41.0659 448 39.0889C447.765 37.5155 445.561 37.8042 445.062 38.959C444.562 40.1138 443.314 43.2317 444.489 42.9863Z" fill="#FFDEB3"/>
<path d="M427 30.9733C429.715 30.0207 432.515 28.7462 433.696 25C433.696 25 434.913 26.8924 432.478 29.1453C430.948 30.4882 428.982 31.1443 427 30.9733Z" fill="#964B39"/>
<path d="M435 34C433.176 32.6772 430.89 32.5952 429 33.7846C429 33.7846 429.341 31.9847 431.555 32.0001C432.897 32.0441 434.155 32.7747 435 34Z" fill="#543732"/>
<path d="M424 31.3458C421.857 32.0824 419.483 32.6066 417 30C417.148 31.5827 418.241 32.8198 419.605 32.9465C421.201 33.1882 422.807 32.603 424 31.3458Z" fill="#964B39"/>
<path d="M426.658 40L426.788 40.3475C426.024 41.3571 425.461 42.3666 425.605 42.9127C425.865 43.9222 427.192 43.8064 428 43.6575V43.7568C428 43.7568 425.374 44.6008 425.014 43.1444C424.884 42.5817 425.692 41.2247 426.658 40Z" fill="#EF8F6F"/>
<path d="M430 34.4781C430.014 33.1276 431.095 32.0316 432.443 32.0007C433.791 31.9698 434.92 33.0152 434.996 34.3636C435.072 35.7121 434.066 36.8776 432.723 36.9981C431.277 37.0521 430.06 35.9257 430 34.4781Z" fill="#543732"/>
<path d="M426 35C424.222 33.697 421.936 33.5139 420 34.5194C420 34.5194 420.419 32.8798 422.62 33.007C423.962 33.1076 425.197 33.8355 426 35Z" fill="#543732"/>
<path d="M420 36.4771C420.015 35.1286 421.093 34.034 422.438 34.0008C423.784 33.9676 424.914 35.0078 424.995 36.3539C425.076 37.7 424.079 38.8686 422.739 38.9975C422.042 39.0278 421.361 38.7791 420.848 38.3063C420.334 37.8335 420.029 37.1754 420 36.4771H420Z" fill="#543732"/>
<path d="M456.694 64.8267C462.551 71.9098 475.184 89.1115 486.38 93.9685C495.591 98.016 489.185 106.529 483.109 104.762C477.032 102.994 459.253 93.2535 451.739 72.5169C449.59 66.6076 452.396 59.619 456.694 64.8267Z" fill="#8668A0"/>
<path d="M452.655 73.0768C452.303 72.0837 452.083 71.0494 452 70C459.65 89.2565 476.209 98.4073 481.987 100.092C485.152 100.914 488.422 99.18 489.49 96.1129C493.663 100.344 488.393 106.232 483.311 104.773C477.372 103.102 459.998 93.4605 452.655 73.0768Z" fill="#694A89"/>
<path d="M486 94.5965L484.333 94L477 100.899L481.207 103L486 94.5965Z" fill="#694A89"/>
<path d="M487.419 94.7643C494.175 91.823 516.153 78.4361 519.358 75C519.358 75 521.173 75.6735 520.986 76.9792C519.531 78.6972 495.924 103.286 491.798 105.334C485.122 108.646 478.272 98.7364 487.419 94.7643Z" fill="#FFDEB3"/>
<path d="M483.704 97.7773C484.199 101.197 487.65 102.031 491.596 100.171C495.301 98.4339 514.75 82.5126 518.896 78.163C519.311 78.4913 521.09 76.4943 520.996 77.1235C519.538 78.8332 495.889 103.303 491.756 105.341C486.473 107.954 481.029 102.25 483.704 97.7773Z" fill="#F9AD8F"/>
<path d="M487.979 94.5324C488.298 93.8647 484.921 92.6361 484.295 93.1035C483.669 93.5709 478.88 105.296 480.243 106.231C481.606 107.165 486.382 107.219 487.021 106.551C487.66 105.883 485.351 100.114 487.979 94.5324Z" fill="#FFEBE3"/>
<path d="M527.383 72.0011C524.956 72.2528 520.01 73.6092 518 76.0563L519.005 78C522.215 77.3428 526.913 77.7203 527.774 76.9652C528.062 76.7275 528.205 71.9172 527.383 72.0011Z" fill="#FFDEB3"/>
<path d="M528.826 76.3954C528.744 76.2274 528.598 76.0988 528.421 76.0381C528.244 75.9774 528.051 75.9896 527.883 76.072C527.081 76.4517 525.871 76.7892 526.011 77.3516C526.293 78.4766 527.714 77.8579 528.544 77.5626C529.149 77.3516 529.051 76.8313 528.826 76.3954Z" fill="#FFDEB3"/>
<path d="M526.872 72.4696C524.753 73.0359 527.163 74 527.163 74C528.531 73.7398 532.976 73.4032 533 72.6839C532.988 71.5208 528.204 72.1176 526.872 72.4696Z" fill="#FFDEB3"/>
<path d="M523.052 76.4561C525.761 73.5131 525.08 77.4217 526.363 76.9619C528.153 76.3181 525.935 71.3825 522.656 73.5438C520.977 74.6474 523.052 76.4561 523.052 76.4561Z" fill="#FFDEB3"/>
<path d="M528.705 75.323C529.198 75.1097 528.985 74.6565 528.705 74.3099C528.465 74.0003 528.037 73.9101 527.693 74.0966C526.948 74.4965 525.856 75.0964 526.016 75.5763C526.349 76.5495 528.173 75.5763 528.705 75.323Z" fill="#FFDEB3"/>
<path d="M438 151.452L439.206 146L442 152L438 151.452Z" fill="#4F302F"/>
<path d="M429.903 51.9921C429.032 52.2212 425.98 47.4094 427.347 46.2485C428.715 45.0875 430.621 48.3259 430.897 49.1508C431.173 49.9757 430.911 51.7171 429.903 51.9921Z" fill="#543732"/>
<path d="M396 9.74669L337 8L342.889 48.2279L384.114 45.3574L392.137 56L388.895 45.0189L392.907 44.7346L396 9.74669Z" fill="#BD462B"/>
<path d="M294.198 192.841C295.469 192.841 295.831 193.336 295.982 192.531C296.134 191.726 295.283 191.308 294.28 191.122C293.277 190.936 292.787 189.698 291.166 190.069L290 192.159C291.313 192.956 292.779 193.194 294.198 192.841Z" fill="#F9AD8F"/>
<path d="M292.421 193.312C294.507 192.014 295.658 191.292 295.956 190.569C296.254 189.846 295.008 188.534 292.99 189.168C290.972 189.802 283.508 192.397 281.639 191.07L280 191.985C281.761 194.02 290.335 194.609 292.421 193.312Z" fill="#FFDEB3"/>
<path d="M295.757 193.845C296.487 195 296.946 196.183 297.739 195.976C298.532 195.77 297.295 193.776 296.978 192.772C296.661 191.768 294.061 190.668 292 191.094V192.47C293.464 192.174 294.98 192.729 295.757 193.845Z" fill="#FFDEB3"/>
<path d="M296.712 191.348C297.634 192.316 298.351 193.389 298.888 192.86C299.426 192.331 297.877 190.728 297.314 189.836C296.751 188.944 294.446 188.581 293 189.685L293.397 191.197C294.412 190.391 295.752 190.453 296.712 191.348Z" fill="#FFDEB3"/>
<path d="M292.728 194.836C293.563 196.038 294.12 197.304 294.815 196.935C295.511 196.566 294.05 194.499 293.591 193.41C293.132 192.32 290.711 191.503 289 192.352L289.181 193.955C290.403 193.322 291.841 193.679 292.728 194.836Z" fill="#FFDEB3"/>
<path d="M334.647 130.109C333.541 127.508 332.932 126.208 332.22 125.713C331.509 125.219 328.612 124.062 329.044 126.481C329.476 128.9 332.538 132.034 330.962 133.984L331.775 136C334.024 134.192 335.778 132.671 334.647 130.109Z" fill="#FFDEB3"/>
<path d="M327.546 127.17C325.832 126.377 325.479 125.572 325.084 126.261C324.69 126.949 325.737 127.936 327.029 128.858C328.321 129.78 328.702 131.273 330.973 132L333 130.701C331.528 129.098 329.65 127.882 327.546 127.17Z" fill="#FFDEB3"/>
<path d="M333.9 124.464C334.56 123.002 335.372 121.731 334.814 121.102C334.256 120.473 333.114 122.92 332.391 123.836C331.668 124.751 331.934 128.141 333.304 130L334.573 129.18C333.597 127.844 333.342 126.055 333.9 124.464Z" fill="#FFDEB3"/>
<path d="M330.872 123.532C331.11 121.936 331.6 120.528 330.802 120.054C330.004 119.581 329.556 122.328 329.094 123.465C328.632 124.602 329.92 127.687 331.894 129L333 127.836C331.55 126.869 330.74 125.231 330.872 123.532Z" fill="#FFDEB3"/>
<path d="M328.036 124.24C327.673 122.658 327.641 121.197 326.615 121.009C325.588 120.822 326.172 123.516 326.109 124.737C326.046 125.957 328.636 128.41 331.274 129L332 127.565C330.074 127.137 328.563 125.87 328.036 124.24Z" fill="#FFDEB3"/>
<path d="M254.532 121.946C244.389 111.922 229.384 100.466 232.391 90.4016C237.645 72.5828 264.499 69.5567 270.62 76.3249C280.33 87.1324 257.187 122 257.187 122L254.532 121.946Z" fill="#965145"/>
<path d="M266.232 101.226C255.769 102.313 242.847 95.3522 241.783 85.0391C241.464 82.0484 245.492 78.642 246.503 76C240.148 78.6822 234.537 83.4163 232.384 90.6181C229.432 100.676 244.163 112.076 254.12 122H256.779C261.073 115.282 264.825 108.228 268 100.904C267.322 101.065 266.75 101.159 266.232 101.226Z" fill="#823F36"/>
<path d="M301.79 181.746C306.205 183.451 312.689 176.101 314.306 173.558C315.924 171.015 333 137.729 333 137.729L329.937 135C329.937 135 303.593 158.34 299.749 164.464C295.904 170.589 299.232 180.774 301.79 181.746Z" fill="#CDE2E8"/>
<path d="M333.475 136.065C333.435 136.345 333.385 136.635 333.325 136.935C333.555 136.495 333.675 136.245 333.675 136.245L333.475 136.065Z" fill="#B0CFD6"/>
<path d="M305.516 174.556C302.961 172.829 305.079 161.825 309.026 154C305.836 156.937 302.907 160.147 300.27 163.593C296.323 169.896 298.194 181.805 300.817 182.778C305.366 184.519 313.589 175.529 315.255 172.911C315.938 171.856 319.285 165.484 323 158.344C316.361 167.019 308.466 176.557 305.516 174.556Z" fill="#B0CFD6"/>
<path d="M274.388 137.557C281.318 141.171 307.214 165.873 308.619 166.686C310.024 167.498 307.39 181.696 303.216 182.928C299.041 184.16 275.523 169.203 272.699 165.413C266.499 156.967 265.823 133.064 274.388 137.557Z" fill="#CDE2E8"/>
<path d="M270.283 138.101C270.633 137.629 271.099 137.25 271.637 137C266.071 138.605 267.263 157.499 272.707 164.756C275.496 168.471 299.153 183.172 303.324 181.925C306.466 180.996 309.675 176.512 310 172.226C300.209 182.018 263.295 147.614 270.283 138.101Z" fill="#B0CFD6"/>
<path d="M220.27 227.125C219.037 223.063 222.267 200.733 225.161 192.338C228.056 183.942 228.016 139.526 239.567 134.34C251.119 129.154 278.845 132.62 280.681 144.428C283.965 165.444 260.714 193.773 264.279 220.544C265.257 227.965 222.91 235.941 220.27 227.125Z" fill="#CDE2E8"/>
<path d="M249 132.265L262.014 146L266.541 138.735L269.838 142.507L270 137.212L266.622 137.295L250.905 132L249 132.265Z" fill="#B0CFD6"/>
<path d="M274.834 136.986C275.296 137.287 275.694 137.691 276 138.17C276 138.306 275.734 138.946 275.442 139C273.508 138.5 271.599 137.891 269.724 137.177C268.934 136.685 268.325 135.916 268 135C268 135 273.984 136.551 274.834 136.986Z" fill="#B0CFD6"/>
<path d="M263.166 208.938C261.655 213.997 253.459 211.542 249.879 211.542C235.053 211.542 248.517 160.767 240.431 148.141C237.313 143.23 236.074 140.047 236.972 136C227.143 144.876 227.007 184.562 224.243 192.494C221.303 200.858 218.022 223.048 219.274 227.149C221.997 235.917 264.977 227.972 263.983 220.593C263.67 218.354 263.112 211.231 263.166 208.938Z" fill="#9BBFC4"/>
<path d="M257.799 209L262.329 203.043C262.329 203.043 270.129 170.024 265.571 142.23L263.908 142C263.908 142 267.884 163.661 255 202.326L257.799 209Z" fill="#B0CFD6"/>
<path d="M274.837 135.986C275.298 136.291 275.694 136.694 276 137.17C276 137.32 275.744 137.959 275.45 138C273.514 137.498 271.603 136.89 269.725 136.177C268.931 135.685 268.322 134.916 268 134C268 134 273.968 135.551 274.837 135.986Z" fill="#EBFBFF"/>
<path d="M262.204 216L266.329 209.271C266.329 209.271 272.338 172.343 266.329 141.256L264.652 141C264.652 141 269.753 165.224 259 208.477L262.204 216Z" fill="#4D525E"/>
<path d="M307.715 240.299L255.531 243C241.861 243 229.928 226.484 232.303 221.056C234.204 216.707 266.459 217.004 267.369 217.004C280.537 217.598 311 229.158 311 229.158L307.715 240.299Z" fill="#4D525E"/>
<path d="M304.62 226.523C292.483 232.02 259.699 218.141 249.043 217C241.02 217.508 233.214 218.553 232.305 220.669C229.929 226.166 241.807 243 255.532 243H309.48L311 228.873C311 228.873 308.502 227.911 304.62 226.523Z" fill="#3A404C"/>
<path d="M319.582 240.523C318.245 237.465 311.372 226.849 309.567 228.102C307.762 229.355 304.553 249.913 306.732 257.741C308.912 265.568 337.486 314 337.486 314L340 313.38C340 313.38 321.842 245.858 319.582 240.523Z" fill="#3A404C"/>
<path d="M337.627 318H354C354 318 342.133 310.459 338.861 312.285C335.589 314.112 337.627 318 337.627 318Z" fill="#D9DEE8"/>
<path d="M279.844 241.287L232.664 242C219.993 241.575 216.419 228.746 218.598 223.304C221.78 215.491 241.613 217.081 243.494 217.232C255.679 218.233 284 228.581 284 228.581L279.844 241.287Z" fill="#4D525E"/>
<path d="M254.016 232.336C236.282 229.951 222.245 224.496 222.422 220C220.749 220.736 219.397 222.056 218.616 223.714C216.392 229.197 219.98 241.985 232.79 242.41L281.599 244L284 231.664C278.352 233.679 266.934 234.049 254.016 232.336Z" fill="#3A404C"/>
<path d="M288.992 240.523C288.847 237.465 285.901 226.849 283.708 228.102C281.515 229.355 270.763 249.913 270.036 257.741C269.31 265.568 279.772 314 279.772 314L282.413 313.367C282.413 313.367 289.269 245.858 288.992 240.523Z" fill="#3A404C"/>
<path d="M278.611 318H295C295 318 283.141 310.459 279.871 312.285C276.602 314.112 278.611 318 278.611 318Z" fill="#D9DEE8"/>
<path d="M245.733 136.666C248.241 145.592 250.189 187.214 248.145 190.915C247.123 192.765 238.171 198.766 234.179 196.493C230.186 194.221 225.867 168.233 226.003 162.586C226.208 140.98 242.613 125.645 245.733 136.666Z" fill="#CDE2E8"/>
<path d="M243.874 140C242.586 139.898 241.342 139.428 240.256 138.636C240.054 138.191 239.757 135.815 240.351 135.247C240.945 134.68 248.896 133.929 249.652 134.005C250.746 134.128 253 136.489 253 136.489C250.019 137.854 246.972 139.026 243.874 140Z" fill="#B0CFD6"/>
<path d="M245.739 143C247.079 157.387 246.838 188.537 244.976 191.645C244.052 193.178 237.34 197.454 233 197.155C233.126 197.289 233.27 197.403 233.429 197.495C237.354 199.761 246.155 193.776 247.159 191.93C248.901 188.727 247.695 157.184 245.739 143Z" fill="#B0CFD6"/>
<path d="M232.331 164.932C231.248 150.847 233.668 138.627 237.866 134C231.796 137.157 224.188 148.738 224.001 162.918C223.921 168.579 228.6 196.326 232.518 198.612C234.938 199.973 239.564 197.51 243 194.965C237.906 191.454 233.454 179.465 232.331 164.932Z" fill="#B0CFD6"/>
<path d="M231.019 191.953C231.856 197.513 234.742 198.236 237.763 198.764C247.056 200.376 283.245 193.204 283.245 193.204L284 188.728C284 188.728 254.084 182.098 246.463 182.001C238.842 181.904 230.547 188.756 231.019 191.953Z" fill="#CDE2E8"/>
<path d="M276 194L278.875 188L281 188.36L279.834 193.169L276 194Z" fill="#B0CFD6"/>
<path d="M243.737 192.64C240.682 191.867 237.219 188.572 236.404 183C232.249 185.535 229.737 191.325 230.022 193.155C230.85 198.579 233.756 199.27 236.812 199.799C246.181 201.372 283.525 193.209 283.525 193.209L284 190.498C273.164 191.894 250.676 194.416 243.737 192.64Z" fill="#B0CFD6"/>
<path d="M252 133.122L255.187 115L271 122.463L269.022 136.49C269.022 136.49 259.446 138.934 252 133.122Z" fill="#FFDEB3"/>
<path d="M266.941 144L263 139.157L264.78 136.294L267.5 136L269 138.274L266.941 144Z" fill="#4D525E"/>
<path d="M262.438 143L266 135.915L252.169 130L250 131.367L262.438 143Z" fill="#EBFBFF"/>
<path d="M270.582 141L266 136.69L269.617 134L271 135.339L270.582 141Z" fill="#EBFBFF"/>
<path d="M243.996 139C242.666 138.924 241.376 138.452 240.256 137.632C240.054 137.186 239.757 134.804 240.351 134.235C240.945 133.666 248.883 132.929 249.639 133.006C250.732 133.113 253 135.48 253 135.48C250.059 136.844 247.052 138.019 243.996 139Z" fill="#EBFBFF"/>
<path d="M236.653 157L227 159.456C227 159.456 227.559 171.288 232.47 174C232.47 174 238.485 170.101 236.653 157Z" fill="#4D525E"/>
<path d="M235.678 158L227 160.143C227 160.143 227.509 170.605 231.937 173C231.937 173.028 237.355 169.597 235.678 158Z" fill="#8F98AA"/>
<path d="M233.827 162L229 163.009C229 163.009 229.279 167.884 231.732 169C231.732 169 234.742 167.393 233.827 162Z" fill="#C0CAD8"/>
<path d="M235.777 158L236 160.698L229 163L229.066 159.935L235.777 158Z" fill="#C0CAD8"/>
<path d="M283 129.106C273.554 131.427 257.36 128.824 256.01 125.913C254.661 123.003 243.379 90.3787 246.564 85.9117C249.749 81.4447 265.092 78.185 268.372 81.1227C280.112 91.586 283 129.106 283 129.106Z" fill="#FFDEB3"/>
<path d="M259 118.46C256.48 106.483 258.066 68.555 241.575 83.3917C241.575 83.3917 237.017 106.659 253.564 119L259 118.46Z" fill="#965145"/>
<path d="M256.479 91.3925C255.357 93.3506 253.323 94.668 251.016 94.9311C246.876 95.3514 243.13 92.0161 242.637 87.5013C242.557 85.9836 242.733 84.4636 243.158 83C238.736 86.4573 240.44 109.343 254.592 120L260 119.471C258.747 113.384 258.507 100.639 256.479 91.3925Z" fill="#823F36"/>
<path d="M254.016 108.779C250.904 106.178 245.79 110.716 245.049 113.219C244.309 115.723 252.124 122.031 255.168 120.855C258.212 119.68 257.211 111.449 254.016 108.779Z" fill="#FFDEB3"/>
<path d="M253.076 112.347C251.2 111.07 248.426 113.624 248.024 115.003C247.622 116.382 252.339 119.613 254.054 118.898C255.769 118.183 254.978 113.701 253.076 112.347Z" fill="#EF8F6F"/>
<path d="M254.611 116.26C253.289 115.321 251.299 117.157 251.017 118.138C250.735 119.12 254.091 121.391 255.323 120.942C256.556 120.493 255.977 117.227 254.611 116.26Z" fill="#FFDEB3"/>
<path d="M284 189.113L283.171 194.728L278 196L279.576 188L284 189.113Z" fill="#CDE2E8"/>
<path d="M283 192C282.996 191.731 282.887 191.474 282.697 191.287C282.507 191.099 282.251 190.996 281.986 191C281.441 191 281 191.448 281 192C281 192.552 281.441 193 281.986 193C282.251 193.004 282.507 192.901 282.697 192.713C282.887 192.526 282.996 192.269 283 192Z" fill="#B0CFD6"/>
<path d="M329.995 143L332 139.456L327.414 136L326 137.365L329.995 143Z" fill="#B0CFD6"/>
<path d="M329.556 133L334 136.501L332.101 142L326 136.628L329.556 133Z" fill="#CDE2E8"/>
<path d="M332.497 135.135C332.026 134.861 331.423 135.017 331.143 135.485C330.862 135.952 331.008 136.559 331.469 136.848C331.931 137.137 332.538 137.001 332.834 136.543C332.987 136.315 333.037 136.033 332.973 135.765C332.909 135.498 332.736 135.269 332.497 135.135Z" fill="#B0CFD6"/>
<path d="M270.398 97C266.392 97.7778 262.296 98.5873 262.296 98.5873C259.851 100.603 261.348 102.984 262.846 103C263.589 103 267.339 102.476 271 101.825L270.398 97Z" fill="#965145"/>
<path d="M278.108 96C276.057 96.1351 274.016 96.4209 272 96.8556L272.574 101C275.677 100.479 278.462 99.9171 278.743 99.5561C279.403 98.7273 278.645 96.2941 278.108 96Z" fill="#965145"/>
<path d="M273 102C274.948 105.963 279.618 115.028 278.932 116.097C278.245 117.167 273.3 116.989 273.3 116.989L273 102Z" fill="#FFDEB3"/>
<path d="M273 102V103.605C275.207 108.021 278.447 114.577 277.867 115.482C277.287 116.387 274.753 116.374 273.252 116.387V116.991C273.252 116.991 278.296 117.155 278.939 116.099C279.582 115.043 274.967 105.964 273 102Z" fill="#EF8F6F"/>
<path d="M266 103.571L269.975 103C269.975 103 270.311 107.955 268.514 108C266.716 108.045 266 103.571 266 103.571Z" fill="#5E413B"/>
<path d="M274 102.527L277.965 102C277.965 102 278.352 106.97 276.547 107C274.741 107.03 274 102.527 274 102.527Z" fill="#5E413B"/>
<path d="M278 119.442C275.959 118.391 269.335 119.286 269.014 121.375C268.995 121.583 268.995 121.792 269.014 122C270.105 120.11 275.432 118.945 278 119.442Z" fill="#EF8F6F"/>
<path d="M351 200.736L350.676 197L281 199L281.162 200.236L321.678 202L351 200.736Z" fill="#7E9A9B"/>
<path d="M313 198.831C313 198.831 326.254 164.937 328.057 163.487C329.859 162.036 367.047 164.137 368.876 165.751C370.706 167.364 351.638 201 351.638 201L313 198.831Z" fill="#CFFAFF"/>
<path d="M339.399 172.421C351.082 167.674 361.404 167.823 366.929 172C368.465 168.569 369.328 166.142 368.883 165.735C367.064 164.121 330.007 162.06 328.295 163.47C327.217 164.365 321.975 177.032 318 187C324.022 180.665 331.317 175.695 339.399 172.421Z" fill="#B3EFF2"/>
<path d="M368.877 165.741C367.032 164.124 329.446 162.057 327.711 163.471C327.424 163.794 327.184 164.155 327 164.545C332.139 163.566 365.815 165.496 367.551 167.019C369.287 168.541 354.417 194.815 350.918 201H351.492C351.492 201 370.708 167.345 368.877 165.741Z" fill="#E3FFFE"/>
<path d="M316 195L282 198.305L282.531 200L315.031 198.761L316 195Z" fill="#A3D0D3"/>
<path d="M330.437 163.916C331.883 162.721 358.633 164.011 368 165.41C362.282 163.875 329.68 162.151 328.085 163.468C326.49 164.785 313 198.864 313 198.864L315.474 199C316.758 195.674 328.666 165.315 330.437 163.916Z" fill="#A3D0D3"/>
<path d="M349.995 177.798C350.104 175.909 348.402 174.689 346.197 175.069C344.013 175.416 342.315 177.089 342.005 179.202C341.896 181.091 343.598 182.311 345.803 181.931C347.985 181.581 349.681 179.909 349.995 177.798Z" fill="#A3D0D3"/>
<path d="M348.995 177.814C349.104 175.92 347.402 174.697 345.197 175.065C343.023 175.413 341.33 177.076 341.005 179.182C340.896 181.076 342.598 182.312 344.803 181.931C346.977 181.583 348.67 179.92 348.995 177.814Z" fill="#E3FFFE"/>
<path d="M407.415 177.287C393.938 173.771 348.206 203.82 375.569 198.327L404.417 190.208C410.413 186.52 414.133 179.038 407.415 177.287Z" fill="#404651"/>
<path d="M407.596 184.96C409.404 183.392 409.473 181.684 407.762 181.158C406.05 180.631 403.193 181.462 401.399 183.041C399.605 184.621 399.522 186.317 401.233 186.843C402.945 187.37 405.802 186.527 407.596 184.96Z" fill="#373E47"/>
<path d="M389.035 194.289C386.813 191.072 390.199 184.732 396.574 180.122C397.665 179.332 398.81 178.622 400 178C383.083 181.447 352.105 204.238 375.319 199.304L389.762 195.046C389.494 194.821 389.25 194.567 389.035 194.289Z" fill="#31373F"/>
<path d="M406.551 178.344C411.493 179.736 410.795 184.262 407.701 188.091C411.493 184.039 412.78 178.776 407.4 177.3C398.132 174.779 373.681 188.773 368 196C374.955 188.606 397.694 175.921 406.551 178.344Z" fill="#747E8C"/>
<path d="M405.098 195.599C389.51 199.288 383.802 198.399 371.148 201L371 198.001C371 198.001 388.352 187.464 406 188.021L405.098 195.599Z" fill="#4D525E"/>
<path d="M389.469 190.799C389.628 190.533 389.814 190.266 390 190C383.351 191.837 376.966 194.523 371 197.99L371.146 201C376.272 199.972 381.447 199.211 386.652 198.723C386.988 195.904 387.951 193.196 389.469 190.799Z" fill="#414651"/>
<path d="M380 199.319C380 199.319 401.219 201.097 410.899 198.908C415.261 197.923 405.253 194 405.253 194C403.421 195.043 393.659 195.954 380 199.319Z" fill="#826E6E"/>
<path d="M404.763 195.535C406.959 196.429 409.052 197.592 410.999 199C411.104 197.592 404.513 195 404.513 195C404.347 195.087 404.176 195.163 404 195.225L404.763 195.535Z" fill="#352E2E"/>
<path d="M396.268 196C392.048 196.747 386.478 197.78 380 199.374C387.653 199.987 395.331 200.15 403 199.862C400.608 198.898 398.345 197.6 396.268 196Z" fill="#352E2E"/>
<path d="M410.288 196C411.423 196.937 411.819 197.825 410.178 198.235C402.343 200.224 386.933 199.287 381.367 198.86L380 199.238C380 199.238 401.222 201.227 410.903 198.778C412.859 198.285 411.915 197.134 410.288 196Z" fill="#352E2E"/>
<path d="M371.727 198.89C371.727 198.89 388.567 188.672 405.892 188.91L406 188.021C388.406 187.464 371 198.001 371 198.001L371.148 201L371.767 200.881L371.727 198.89Z" fill="#31373F"/>
<path d="M406.909 184.972C408.319 183.402 408.369 181.712 407.02 181.167C405.672 180.621 403.434 181.459 402.073 183.029C400.712 184.599 400.613 186.289 401.962 186.835C403.31 187.38 405.499 186.529 406.909 184.972Z" fill="#9DA8B2"/>
<path d="M402.462 183.265C404.479 182.94 406.131 183.414 406.659 184.336C406.771 184.54 406.832 184.768 406.835 185C408.351 183.428 408.392 181.707 406.93 181.164C405.468 180.622 403.004 181.463 401.514 183.062C401.327 183.252 401.155 183.455 401 183.672C401.476 183.5 401.965 183.364 402.462 183.265Z" fill="#B0BDC6"/>
<path d="M440.426 204H447L435.506 318H431L440.426 204Z" fill="#A3704A"/>
<path d="M388.85 204H395L384.23 318H380L388.85 204Z" fill="#A3704A"/>
<rect x="389" y="238" width="51" height="4" fill="#A3704A"/>
<path d="M445 203H223L224.486 214H445V203Z" fill="#845D3D"/>
<path d="M447 203H279L280.11 214H445.565L447 203Z" fill="#A3704A"/>
<path d="M229.574 204H223L234.494 318H239L229.574 204Z" fill="#845D3D"/>
<path d="M279.158 204H273L283.774 318H288L279.158 204Z" fill="#845D3D"/>
<rect x="230" y="238" width="51" height="4" fill="#845D3D"/>
<path d="M451 200H217L217.973 203.834L220.782 206H447.65L449.419 204.22L451 200Z" fill="#DDC4AB"/>
<path d="M275 200L276.66 206H447.653L449.421 204.22L451 200H275Z" fill="#C49A78"/>
<defs>
<linearGradient id="paint0_linear" x1="1.99887" y1="35" x2="1.99887" y2="448.617" gradientUnits="userSpaceOnUse">
<stop stop-color="#FFFEF8"/>
<stop offset="1" stop-color="#FFF6E3"/>
</linearGradient>
</defs>
</svg>
