<svg width="538" height="441" viewBox="0 0 538 441" fill="none" xmlns="http://www.w3.org/2000/svg">
<path d="M487.585 35.9859C486.665 32.424 485.248 29.0088 483.376 25.8403L487.669 19.3981L481.707 13.4441L475.745 7.49012L469.294 11.777C466.121 9.90784 462.701 8.49285 459.134 7.57347L457.62 0H440.783L439.257 7.58538C435.69 8.50476 432.271 9.91975 429.098 11.7889L422.647 7.50203L416.685 13.456L410.723 19.41L415.016 25.8522C413.144 29.0207 411.727 32.4359 410.806 35.9978L403.211 37.522V54.3242L410.806 55.8484C411.727 59.4104 413.144 62.8256 415.016 65.994L410.723 72.4362L416.685 78.3902L422.647 84.3442L429.098 80.0573C432.271 81.9265 435.69 83.3415 439.257 84.2608L440.783 91.8462H457.62L459.146 84.2608C462.713 83.3415 466.133 81.9265 469.306 80.0573L475.757 84.3442L481.719 78.3902L487.681 72.4362L483.388 65.994C485.26 62.8256 486.676 59.4104 487.597 55.8484L495.193 54.3242V37.5101L487.585 35.9859ZM449.202 75.3775C443.367 75.3775 437.664 73.6497 432.812 70.4125C427.961 67.1754 424.18 62.5743 421.947 57.1911C419.715 51.808 419.13 45.8845 420.269 40.1697C421.407 34.455 424.216 29.2057 428.342 25.0856C432.468 20.9655 437.724 18.1596 443.447 17.0229C449.169 15.8862 455.101 16.4696 460.491 18.6994C465.881 20.9291 470.489 24.7051 473.73 29.5499C476.972 34.3946 478.702 40.0905 478.702 45.9172C478.702 53.7305 475.594 61.2239 470.061 66.7488C464.529 72.2736 457.026 75.3775 449.202 75.3775Z" fill="url(#paint0_linear)"/>
<path d="M499.08 107.481C498.656 105.845 498.002 104.278 497.136 102.825L499.116 99.8722L496.385 97.1453L493.655 94.4183L490.697 96.3832C489.24 95.5275 487.671 94.8783 486.035 94.4541L485.308 90.9769H477.593L476.961 94.4541C475.328 94.8761 473.762 95.5255 472.311 96.3832L469.353 94.4183L466.623 97.1453L463.845 99.8722L465.812 102.825C464.943 104.279 464.281 105.846 463.845 107.481L460.363 108.172V115.888L463.845 116.579C464.269 118.213 464.919 119.78 465.776 121.235L463.845 124.188L466.575 126.915L469.306 129.642L472.263 127.677C473.715 128.535 475.28 129.184 476.913 129.606L477.617 133.084H485.308L486.011 129.606C487.647 129.182 489.216 128.533 490.674 127.677L493.631 129.642L496.361 126.915L499.092 124.188L497.113 121.235C497.978 119.783 498.632 118.215 499.056 116.579L502.526 115.888V108.172L499.08 107.481ZM481.48 125.534C478.806 125.534 476.191 124.742 473.968 123.258C471.744 121.774 470.011 119.665 468.988 117.198C467.964 114.73 467.696 112.015 468.218 109.396C468.74 106.776 470.028 104.37 471.919 102.482C473.81 100.593 476.219 99.3071 478.842 98.7861C481.465 98.265 484.184 98.5324 486.655 99.5545C489.126 100.577 491.237 102.307 492.723 104.528C494.209 106.749 495.002 109.359 495.002 112.03C495.002 115.612 493.577 119.046 491.042 121.579C488.506 124.111 485.066 125.534 481.48 125.534Z" fill="url(#paint1_linear)"/>
<path d="M254.471 375.304H295.883V249.686H254.471V375.304Z" fill="#AEBECC"/>
<path d="M114.566 310.203L435.787 310.203C445.83 310.203 453.971 302.072 453.971 292.043L453.971 76.4373C453.971 66.408 445.83 58.2777 435.787 58.2777L114.566 58.2777C104.523 58.2777 96.3819 66.408 96.3819 76.4373L96.3819 292.043C96.3819 302.072 104.523 310.203 114.566 310.203Z" fill="#F0F0F0"/>
<path d="M110.393 270.716L439.973 270.716L439.973 31.4609L110.393 31.4609L110.393 270.716Z" fill="white"/>
<path d="M110.393 60.3615L439.973 60.3615V31.4609L110.393 31.4609V60.3615Z" fill="url(#paint2_linear)"/>
<path d="M263.64 288.792C263.64 291.073 264.317 293.302 265.586 295.198C266.855 297.093 268.658 298.571 270.768 299.443C272.878 300.315 275.199 300.543 277.439 300.097C279.678 299.651 281.735 298.552 283.349 296.939C284.962 295.326 286.061 293.271 286.505 291.034C286.949 288.797 286.718 286.479 285.843 284.373C284.968 282.267 283.486 280.467 281.587 279.202C279.687 277.937 277.454 277.263 275.171 277.265C273.655 277.265 272.155 277.564 270.755 278.143C269.356 278.722 268.084 279.572 267.013 280.642C265.942 281.713 265.093 282.984 264.514 284.382C263.936 285.78 263.639 287.279 263.64 288.792Z" fill="#757575"/>
<path d="M212.415 89.4884L319.898 89.4884C322.203 89.4884 324.071 87.6225 324.071 85.3207V85.0944C324.071 82.7926 322.203 80.9266 319.898 80.9266L212.415 80.9266C210.11 80.9266 208.241 82.7926 208.241 85.0944V85.3207C208.241 87.6225 210.11 89.4884 212.415 89.4884Z" fill="#DFE1E8"/>
<path d="M212.415 104.933L319.898 104.933C322.203 104.933 324.071 103.067 324.071 100.765V100.539C324.071 98.2372 322.203 96.3713 319.898 96.3713L212.415 96.3713C210.11 96.3713 208.241 98.2372 208.241 100.539V100.765C208.241 103.067 210.11 104.933 212.415 104.933Z" fill="#DFE1E8"/>
<path d="M212.415 120.378L319.898 120.378C322.203 120.378 324.071 118.512 324.071 116.21V115.984C324.071 113.682 322.203 111.816 319.898 111.816L212.415 111.816C210.11 111.816 208.241 113.682 208.241 115.984V116.21C208.241 118.512 210.11 120.378 212.415 120.378Z" fill="#DFE1E8"/>
<path d="M267.873 253.89H144.281C139.327 253.884 134.578 251.916 131.075 248.418C127.573 244.92 125.602 240.177 125.596 235.23V160.21C125.596 155.259 127.564 150.51 131.067 147.007C134.57 143.504 139.323 141.533 144.281 141.526H267.873C272.826 141.533 277.573 143.501 281.074 146.999C284.575 150.498 286.543 155.24 286.546 160.186V235.206C286.549 240.156 284.584 244.905 281.083 248.409C277.581 251.912 272.83 253.884 267.873 253.89ZM144.281 143.86C139.947 143.867 135.792 145.589 132.728 148.649C129.664 151.709 127.939 155.858 127.933 160.186V235.206C127.933 239.538 129.654 243.693 132.72 246.759C135.785 249.824 139.943 251.55 144.281 251.556H267.873C272.206 251.55 276.359 249.827 279.422 246.767C282.484 243.706 284.206 239.557 284.209 235.23V160.21C284.206 155.883 282.484 151.734 279.422 148.673C276.359 145.613 272.206 143.89 267.873 143.884L144.281 143.86Z" fill="#DFE1E8"/>
<path d="M154.094 169.808H258.096C262.653 169.808 266.347 166.118 266.347 161.567V159.996C266.347 155.445 262.653 151.755 258.096 151.755H154.094C149.537 151.755 145.843 155.445 145.843 159.996V161.567C145.843 166.118 149.537 169.808 154.094 169.808Z" fill="#DFE1E8"/>
<path d="M368.321 370.564H182.02V380.043H368.321V370.564Z" fill="#F0F0F0"/>
<path d="M402.901 166.188C402.907 170.869 401.684 175.471 399.353 179.533C397.022 183.595 393.665 186.975 389.618 189.337C388.007 190.273 386.305 191.043 384.538 191.635L384.049 191.79C378.655 193.465 372.87 193.397 367.517 191.595C362.164 189.793 357.518 186.349 354.241 181.755C350.964 177.16 349.223 171.65 349.267 166.009C349.311 160.368 351.138 154.885 354.486 150.342C357.834 145.799 362.534 142.428 367.914 140.709C373.294 138.991 379.08 139.013 384.447 140.772C389.814 142.531 394.487 145.938 397.801 150.506C401.115 155.074 402.9 160.571 402.901 166.212V166.188Z" fill="#EEF0F7"/>
<path d="M369.645 163.354C369.645 163.354 367.808 151.517 377.622 151.743C387.435 151.97 387.304 157.804 387.161 163.651C387.018 169.498 383.226 169.022 387.459 177.107C391.692 185.193 383.787 185.181 383.787 185.181L377.646 176.75L369.645 163.354Z" fill="#3C4145"/>
<path d="M376.585 152.875C376.585 152.875 369.943 153.922 369.681 163.354C369.418 172.785 371.469 174.797 377.288 172.88C383.107 170.963 384.943 161.043 385.074 159.519C385.206 157.995 385.551 151.743 376.585 152.875Z" fill="#EEA886"/>
<path d="M388.258 185.681C388.282 186.927 387.944 188.153 387.283 189.21C386.623 190.267 385.669 191.109 384.538 191.635L384.049 191.79C377.461 193.828 370.341 193.261 364.16 190.206C363.349 188.599 364.529 186.312 366.902 182.799C368.536 180.418 370.134 177.917 372.864 176.726C376.907 176.083 381.211 176.048 384.204 177.75C386.613 179.084 388.222 181.537 388.258 185.681Z" fill="#E55353"/>
<path d="M368.202 182.633L365.149 187.396C365.386 186.45 365.573 185.492 365.71 184.526C365.769 184.133 365.841 183.681 365.913 183.18C365.937 183.027 365.973 182.876 366.02 182.728C367.32 179.715 371.398 177.476 371.553 177.405L368.202 182.633Z" fill="#E55353"/>
<path d="M389.617 189.337C388.007 190.273 386.305 191.043 384.538 191.635L384.049 191.79C383.369 190.039 382.785 188.527 382.654 188.134C382.654 188.027 382.535 187.813 382.415 187.527C381.442 185.43 380.833 183.183 380.615 180.882C380.615 179.382 381.104 178.155 382.606 177.81C383.132 177.673 383.681 177.653 384.216 177.75C384.975 177.963 385.668 178.364 386.231 178.916C386.794 179.467 387.208 180.152 387.435 180.906C387.441 180.93 387.441 180.954 387.435 180.977C387.715 181.664 387.919 182.378 388.043 183.109L388.115 183.407L388.628 185.431C388.926 186.467 389.26 187.825 389.617 189.337Z" fill="#EEA886"/>
<path d="M381.02 168.581C380.448 169.665 379.828 176.417 379.828 176.417C379.828 176.417 371.696 179.489 372.53 177.75C372.883 176.898 373.053 175.981 373.031 175.059C373.029 174.51 372.997 173.962 372.936 173.416V173.142C372.936 173.142 381.569 167.498 381.02 168.581Z" fill="#EEA886"/>
<path d="M373.878 159.65C373.878 159.65 377.288 165.187 380.388 167.379C383.489 169.57 381.915 171.308 381.915 171.308C381.915 171.308 390.023 154.268 382.32 153.089C374.617 151.91 369.895 151.827 369.681 163.354C369.645 163.354 373.222 159.567 373.878 159.65Z" fill="#3C4145"/>
<path d="M377.586 172.725C376.334 174.559 373.043 175.107 373.043 175.107C373.041 174.558 373.009 174.009 372.948 173.463C374.532 173.616 376.128 173.362 377.586 172.725Z" fill="#A77860"/>
<path d="M366.068 182.74C365.876 183.333 365.767 183.95 365.746 184.574L366.938 182.776C366.938 182.776 369.072 179.715 369.812 178.917C370.354 178.356 370.953 177.853 371.6 177.417C371.6 177.417 367.26 179.441 366.068 182.74Z" fill="#BD4444"/>
<path d="M382.201 187.312C384.395 186.417 386.655 185.693 388.962 185.145C388.962 185.145 387.912 176.81 382.785 177.667C377.658 178.524 382.201 187.312 382.201 187.312Z" fill="#E55353"/>
<path d="M372.876 176.702C372.876 176.702 369.049 182.585 370.348 183.097C371.648 183.609 378.695 182.418 381.64 176.822C380.274 176.172 378.784 175.825 377.271 175.804C375.759 175.784 374.259 176.09 372.876 176.702Z" fill="#EEA886"/>
<path d="M412.81 88.0476C412.812 94.9417 410.767 101.682 406.933 107.415C403.1 113.148 397.65 117.618 391.273 120.258C384.895 122.897 377.877 123.589 371.106 122.246C364.335 120.902 358.115 117.584 353.233 112.71C348.351 107.836 345.026 101.625 343.678 94.8637C342.33 88.1022 343.021 81.0935 345.662 74.7239C348.303 68.3544 352.777 62.9101 358.517 59.0797C364.256 55.2493 371.005 53.2048 377.908 53.2048C387.162 53.2048 396.038 56.8754 402.583 63.4093C409.128 69.9433 412.807 78.8056 412.81 88.0476Z" fill="#EEF0F7"/>
<path d="M400.647 107.279L398.072 116.496C393.373 119.827 387.919 121.942 382.201 122.652C381.163 122.771 380.114 122.855 379.065 122.89H377.872C376.751 122.89 375.631 122.89 374.534 122.724C373.313 122.606 372.099 122.427 370.897 122.188C365.692 121.141 360.797 118.917 356.588 115.686C356.099 112.638 355.562 109.268 355.097 106.16C357.661 105.195 365.829 102.432 370.98 100.694C371.05 100.665 371.122 100.641 371.195 100.622L371.529 100.503L372.399 100.206L373.198 99.9317L375.273 99.2411H375.38H375.44L382.368 99.765L383.56 99.8484H383.918H384.085C384.502 99.9556 385.718 100.265 387.316 100.765C391.478 102.016 398.131 104.397 400.647 107.279Z" fill="#D9C7C1"/>
<path d="M379.732 70.7453C379.732 70.7453 388.079 72.1504 386.625 85.1301C385.17 98.1098 377.884 97.0381 377.395 96.9547C376.906 96.8714 370.014 97.1215 369.657 81.2362C369.645 81.2362 369.549 69.4949 379.732 70.7453Z" fill="#EEA987"/>
<path d="M383.369 93.1918C383.369 93.1918 383.083 98.5385 383.584 99.7055C384.085 100.872 376.918 104.552 372.459 100.349C372.896 97.74 373.104 95.0982 373.079 92.4535C372.805 90.3815 383.369 93.1918 383.369 93.1918Z" fill="#EEA987"/>
<path d="M386.791 81.4625C386.791 81.4625 387.722 80.4979 388.043 81.4625C388.365 82.427 386.565 86.833 386.684 87.0235C386.684 87.0235 386.505 87.4045 386.291 87.2021C386.343 85.2806 386.51 83.364 386.791 81.4625Z" fill="#EEA987"/>
<path d="M369.752 81.1171C369.752 81.1171 368.87 80.1169 368.56 81.1171C368.25 82.1174 369.525 86.4519 369.692 86.7258C369.692 86.7258 369.979 87.1783 370.205 86.9759C370.175 85.0155 370.024 83.0589 369.752 81.1171Z" fill="#EEA987"/>
<path d="M387.328 80.355C387.042 82.1412 386.768 83.463 386.768 83.463L385.575 85.0349C385.623 83.6881 385.584 82.3396 385.456 80.998C385.396 80.7956 385.313 80.4265 385.229 80.0216C385.086 79.3667 384.943 78.6284 384.848 78.3783C384.752 78.1282 377.693 75.9967 371.517 78.807C371.517 78.807 371.576 79.3428 371.576 79.9382C371.576 80.5336 371.493 81.4148 371.171 81.5339C370.575 81.7483 370.825 85.6183 370.825 85.6183L369.859 84.499C369.859 84.499 369.585 82.4865 369.311 80.1645C369.251 79.6286 369.192 79.069 369.132 78.5212C368.989 76.1396 369.215 71.948 372.256 69.4592C374.319 68.5899 377.598 67.8397 383.059 69.4592C383.618 69.4781 384.164 69.6247 384.657 69.8879C388.043 73.6508 387.328 80.355 387.328 80.355Z" fill="#E8734D"/>
<path d="M373.651 95.2638C374.196 95.8796 374.878 96.3596 375.642 96.6656C376.406 96.9716 377.231 97.0951 378.051 97.0262C378.863 97.0643 379.675 96.936 380.436 96.6493C381.196 96.3626 381.89 95.9235 382.475 95.3591C382.475 95.3591 381.02 98.3956 378.039 98.3718C375.058 98.348 373.651 95.2638 373.651 95.2638Z" fill="#C78D71"/>
<path d="M371.612 100.468C372.309 101.605 373.248 102.574 374.364 103.307C375.479 104.039 376.742 104.518 378.063 104.707C380.746 104.933 383.059 101.539 384.144 99.8722C382.12 99.1359 379.97 98.8093 377.818 98.9116C375.667 99.0138 373.557 99.5427 371.612 100.468Z" fill="#EEA987"/>
<path d="M383.381 98.6576C381.851 100.449 380.058 101.998 378.063 103.254L380.376 106.719L384.204 99.8722L383.381 98.6576Z" fill="#EDDAD3"/>
<path d="M372.626 99.1696C374.113 100.916 375.97 102.312 378.063 103.254L375.595 106.826L371.278 100.587L372.626 99.1696Z" fill="#EDDAD3"/>
<path d="M378.063 103.254L379.995 106.183C379.39 106.504 378.714 106.666 378.03 106.653C377.346 106.641 376.676 106.455 376.084 106.112L378.063 103.254Z" fill="#5073AB"/>
<path d="M402.865 106.731C402.543 107.922 402.042 109.661 400.731 114.412C400.325 114.757 399.92 115.103 399.538 115.424C399.157 115.746 398.596 116.15 398.107 116.496C393.398 119.833 387.932 121.948 382.201 122.652C382.713 110.589 384.144 99.8841 384.144 99.8841C385.281 100.186 386.354 100.483 387.364 100.777C392.508 102.107 397.493 103.987 402.233 106.386C402.686 106.612 402.865 106.731 402.865 106.731Z" fill="#323657"/>
<path d="M370.933 122.2C364.187 120.824 358.001 117.484 353.154 112.602L352.51 111.947C351.902 109.351 351.496 107.66 351.473 107.553C351.473 107.553 355.789 104.719 371.064 100.646C371.064 101.003 371.076 110.744 370.933 122.2Z" fill="#323657"/>
<path d="M379.184 106.505C379.041 109.684 379.017 115.841 379.077 122.878H377.884C376.763 122.878 375.642 122.878 374.545 122.712C374.899 117.246 375.673 111.816 376.859 106.469C377.026 105.767 377.133 105.421 377.133 105.421L379.184 105.755C379.184 105.981 379.184 106.243 379.184 106.505Z" fill="#5073AB"/>
<path d="M404.63 110.47C403.44 111.888 402.136 113.207 400.731 114.412C400.325 114.757 399.92 115.103 399.538 115.424L402.901 106.731C403.688 107.422 404.356 109.792 404.63 110.47Z" fill="#323657"/>
<path d="M353.154 112.602L352.51 111.947C351.735 111.113 350.996 110.256 350.304 109.351C350.526 108.653 350.939 108.03 351.496 107.553L353.154 112.602Z" fill="#323657"/>
<path d="M167.223 40.4514H128.088C125.915 40.4514 124.153 42.2108 124.153 44.381V47.4414C124.153 49.6117 125.915 51.371 128.088 51.371H167.223C169.396 51.371 171.157 49.6117 171.157 47.4414V44.381C171.157 42.2108 169.396 40.4514 167.223 40.4514Z" fill="#F5F7FF"/>
<path d="M376.424 256.811C391.234 256.617 403.082 244.471 402.888 229.682C402.694 214.892 390.532 203.06 375.722 203.254C360.913 203.447 349.065 215.593 349.258 230.383C349.452 245.172 361.615 257.005 376.424 256.811Z" fill="#EEF0F7"/>
<path d="M376.084 240.684C375.726 240.684 375.384 240.542 375.131 240.29C374.878 240.038 374.736 239.695 374.736 239.338V220.679C374.736 220.322 374.878 219.979 375.131 219.727C375.384 219.475 375.726 219.333 376.084 219.333C376.441 219.333 376.784 219.475 377.036 219.727C377.289 219.979 377.431 220.322 377.431 220.679V239.35C377.428 239.705 377.285 240.044 377.032 240.294C376.78 240.544 376.439 240.684 376.084 240.684Z" fill="#949494"/>
<path d="M385.42 231.348H366.747C366.39 231.348 366.047 231.206 365.794 230.954C365.542 230.702 365.4 230.359 365.4 230.003C365.4 229.646 365.542 229.303 365.794 229.051C366.047 228.799 366.39 228.657 366.747 228.657H385.42C385.778 228.657 386.12 228.799 386.373 229.051C386.626 229.303 386.768 229.646 386.768 230.003C386.768 230.359 386.626 230.702 386.373 230.954C386.12 231.206 385.778 231.348 385.42 231.348Z" fill="#949494"/>
<path d="M318.801 142.693H304.17C301.266 142.693 298.911 145.044 298.911 147.945V162.556C298.911 165.456 301.266 167.807 304.17 167.807H318.801C321.705 167.807 324.059 165.456 324.059 162.556V147.945C324.059 145.044 321.705 142.693 318.801 142.693Z" fill="#FFBF55"/>
<path d="M310.692 160.758L304.337 155.22C304.213 155.113 304.112 154.981 304.039 154.834C303.966 154.687 303.923 154.528 303.912 154.364C303.901 154.2 303.922 154.036 303.974 153.881C304.027 153.725 304.11 153.582 304.218 153.458C304.326 153.335 304.457 153.233 304.604 153.161C304.751 153.088 304.911 153.045 305.075 153.034C305.239 153.023 305.404 153.044 305.559 153.096C305.715 153.149 305.859 153.231 305.982 153.339L310.478 157.257L316.893 150.112C317.114 149.866 317.424 149.717 317.755 149.699C318.086 149.681 318.411 149.796 318.658 150.017C318.904 150.238 319.053 150.548 319.071 150.878C319.089 151.209 318.974 151.533 318.753 151.779L310.692 160.758Z" fill="#F3F3F3"/>
<path d="M318.801 174.881H304.17C301.266 174.881 298.911 177.232 298.911 180.132V194.743C298.911 197.643 301.266 199.994 304.17 199.994H318.801C321.705 199.994 324.059 197.643 324.059 194.743V180.132C324.059 177.232 321.705 174.881 318.801 174.881Z" fill="#FFBF55"/>
<path d="M310.692 192.969L304.337 187.432C304.087 187.214 303.934 186.906 303.912 186.575C303.889 186.245 303.999 185.919 304.218 185.669C304.436 185.42 304.744 185.267 305.075 185.245C305.406 185.222 305.732 185.332 305.982 185.55L310.478 189.468L316.893 182.323C317.114 182.077 317.424 181.928 317.755 181.91C318.086 181.893 318.411 182.007 318.658 182.228C318.904 182.449 319.053 182.759 319.071 183.089C319.089 183.42 318.974 183.744 318.753 183.99L310.692 192.969Z" fill="#F3F3F3"/>
<path d="M318.801 207.068H304.17C301.266 207.068 298.911 209.419 298.911 212.319V226.93C298.911 229.831 301.266 232.182 304.17 232.182H318.801C321.705 232.182 324.059 229.831 324.059 226.93V212.319C324.059 209.419 321.705 207.068 318.801 207.068Z" fill="#FFBF55"/>
<path d="M197.712 387.795C197.084 389.225 196.283 390.573 195.327 391.808C194.254 392.999 190.129 394.976 190.105 398.358C190.105 402.025 197.068 401.013 199.799 400.87C202.53 400.727 202.732 398.786 203.889 396.702C205.045 394.618 206.19 394.988 206.405 393.309C206.363 391.471 206.07 389.648 205.534 387.89L197.712 387.795Z" fill="#131C24"/>
<path d="M197.593 386.735L197.39 388.474C200.103 389.303 202.995 389.357 205.737 388.629L205.511 386.247L197.593 386.735Z" fill="#4F4946"/>
<path d="M248.079 387.795C248.713 389.222 249.513 390.569 250.464 391.808C251.537 392.999 255.675 394.976 255.699 398.358C255.699 402.025 248.735 401.013 246.005 400.87C243.274 400.727 243.059 398.786 241.915 396.702C240.77 394.618 239.601 394.988 239.387 393.309C239.431 391.471 239.728 389.647 240.269 387.89L248.079 387.795Z" fill="#131C24"/>
<path d="M248.199 386.735L248.401 388.474C245.688 389.304 242.797 389.357 240.054 388.629L240.281 386.247L248.199 386.735Z" fill="#4F4946"/>
<path d="M245.945 340.473C245.945 344.998 250.166 386.247 250.166 386.247C249.677 387.759 239.315 387.569 237.693 386.819C236.072 386.069 231.374 345.141 231.076 340.628C230.778 336.115 224.029 296.437 222.61 296.568C221.191 296.699 214.465 339.187 213.333 342.652C212.2 346.117 207.073 387.188 207.073 387.188C203.495 389.153 195.053 386.7 195.053 386.7C195.053 386.7 196.818 344.522 197.021 343.247C197.331 341.366 197.021 336.293 197.831 325.016C198.571 314.93 201.23 292.984 202.911 281.1C202.983 280.671 203.03 280.266 203.09 279.909C203.424 277.599 203.674 275.896 203.793 275.086L203.865 274.538C204.318 274.348 204.795 274.169 205.296 274.003C217.136 270.025 239.673 270.311 239.673 270.311C239.673 270.311 239.983 274.36 240.007 274.562C240.031 274.765 240.078 275.17 240.138 275.658C240.269 276.706 240.472 278.266 240.698 280.076V280.23C241.497 286.685 242.618 296.128 242.511 297.104C242.403 298.628 245.945 335.96 245.945 340.473Z" fill="#293E4F"/>
<path d="M247.626 206.83L241.807 227.68C241.605 228.359 241.366 229.193 241.116 230.157V230.217C239.763 235.35 238.916 240.602 238.588 245.9C238.337 250.187 239.136 267.441 239.136 267.441C239.136 267.441 230.324 270.728 217.148 269.894C217.148 269.894 202.971 269.561 204.127 260.88C207.192 237.909 204.199 228.431 203.794 226.132C203.794 226.132 202.124 215.546 200.741 206.199L221.525 198.411L230.348 199.078C230.348 199.078 243.751 202.436 247.626 206.83Z" fill="#D9C7C1"/>
<path d="M225.936 168.938C225.936 168.938 234.557 170.391 233.091 183.859C231.624 197.327 224.029 196.136 223.552 196.124C223.075 196.112 215.908 196.279 215.527 179.81C215.491 179.81 215.384 167.64 225.936 168.938Z" fill="#EEA987"/>
<path d="M229.716 192.219C229.716 192.219 229.418 197.768 229.943 198.97C230.467 200.173 223.027 203.996 218.4 199.649C218.4 199.649 219.33 193.588 219.044 191.445C218.758 189.301 229.716 192.219 229.716 192.219Z" fill="#EEA987"/>
<path d="M233.27 180.049C233.27 180.049 234.224 179.048 234.557 180.049C234.891 181.049 233.031 185.622 233.15 185.824C233.15 185.824 232.972 186.217 232.745 186.003C232.798 184.009 232.974 182.021 233.27 180.049Z" fill="#EEA987"/>
<path d="M215.586 179.691C215.586 179.691 214.68 178.655 214.299 179.691C213.917 180.727 215.3 185.24 215.491 185.526C215.491 185.526 215.789 185.991 216.028 185.776C216.002 183.741 215.855 181.709 215.586 179.691Z" fill="#EEA987"/>
<path d="M233.818 178.905C233.52 180.751 233.246 182.121 233.246 182.121L231.994 183.752C232.042 182.358 232.002 180.962 231.875 179.572C231.803 179.358 231.72 178.977 231.624 178.56C231.524 177.986 231.393 177.417 231.231 176.857C231.076 176.44 223.85 174.333 217.411 177.298C217.411 177.298 217.411 177.858 217.411 178.489C217.411 179.12 217.327 180.013 216.993 180.132C216.373 180.358 216.636 184.371 216.636 184.371L215.634 183.18C215.634 183.18 215.336 181.085 215.062 178.679C215.002 178.108 214.931 177.488 214.871 176.964C214.728 174.583 214.966 170.153 218.126 167.569C220.249 166.652 226.068 165.735 229.323 167.569C230.046 168.01 230.747 168.487 231.421 168.998C234.999 172.94 233.818 178.905 233.818 178.905Z" fill="#E8734D"/>
<path d="M219.641 194.326C220.205 194.967 220.913 195.466 221.706 195.785C222.499 196.103 223.356 196.232 224.207 196.16C225.049 196.196 225.889 196.06 226.676 195.762C227.463 195.463 228.181 195.007 228.786 194.422C228.786 194.422 227.272 197.577 224.195 197.541C221.119 197.506 219.641 194.326 219.641 194.326Z" fill="#C78D71"/>
<path d="M217.518 199.756C218.241 200.935 219.215 201.94 220.371 202.699C221.528 203.459 222.837 203.954 224.207 204.15C226.986 204.389 229.37 200.864 230.503 199.137C228.406 198.376 226.178 198.039 223.948 198.146C221.719 198.252 219.534 198.799 217.518 199.756Z" fill="#EEA987"/>
<path d="M229.728 197.875C228.143 199.736 226.281 201.342 224.207 202.638L226.592 206.21L230.575 199.066L229.728 197.875Z" fill="#EDDAD3"/>
<path d="M218.579 198.411C220.117 200.223 222.04 201.671 224.207 202.65L221.644 206.353L217.196 200.054L218.579 198.411Z" fill="#EDDAD3"/>
<path d="M224.172 202.65L226.175 205.686C225.549 206.021 224.848 206.19 224.139 206.177C223.429 206.165 222.734 205.971 222.121 205.615L224.172 202.65Z" fill="#5073AB"/>
<path d="M203.638 271.502C203.638 271.502 214.442 275.491 238.898 271.74L238.576 267.31C238.576 267.31 224.398 271.49 204.068 267.918L203.638 271.502Z" fill="#1A2833"/>
<path d="M230.527 199.125C229.034 210.783 228.305 222.525 228.345 234.278C228.691 250.544 233.973 281.04 233.973 281.04C233.973 281.04 243.405 280.123 245.742 277.182C245.742 277.182 240.341 247.817 240.496 243.471C240.651 239.124 247.424 206.401 247.424 206.401C247.424 206.401 244.776 202.864 230.527 199.125Z" fill="#385369"/>
<path d="M217.017 200.114C217.017 200.114 217.017 217.976 216.648 234.278C216.278 250.58 214.155 280.826 214.155 280.826C214.155 280.826 203.09 279.254 200.753 276.313C200.753 276.313 204.652 247.817 204.497 243.47C204.342 239.124 199.501 206.722 199.501 206.722C199.501 206.722 201.146 204.329 217.017 200.114Z" fill="#385369"/>
<path d="M225.018 268.632H218.377V273.562H225.018V268.632Z" fill="#3E5E78"/>
<path d="M223.277 204.924C223.277 204.924 220.308 215.034 220.046 235.111C219.784 255.188 220.416 260.963 220.416 260.963L222.729 265.536L225.817 260.773C225.817 260.773 224.827 214.558 225.4 205.282L223.277 204.924Z" fill="#5073AB"/>
<path d="M235.654 233.182C235.654 233.182 240.054 230.979 240.663 230.586C243.575 229.885 246.537 229.403 249.522 229.145C250.452 229.145 250.488 229.907 250.226 230.169C249.963 230.431 242.642 231.634 242.511 231.813C242.38 231.991 243.131 231.92 243.131 231.92C243.131 231.92 251.036 231.801 251.585 232.325C252.133 232.849 251.501 233.361 251.18 233.515C251.18 233.515 251.907 234.337 251.072 234.706C250.435 234.942 249.782 235.129 249.117 235.266C249.117 235.266 250.154 235.802 249.474 236.278C248.795 236.754 240.412 239.35 240.412 239.35C240.412 239.35 237.288 233.396 235.654 233.182Z" fill="#EEA886"/>
<path d="M250.75 248.305C245.039 249.663 231.851 247.448 226.819 246.34C225.758 246.114 224.553 245.864 223.313 245.626C221.262 245.221 219.116 244.828 217.351 244.518L213.667 243.875C213.667 243.875 241.354 237.671 242.38 237.671C243.405 237.671 239.84 221.488 239.84 221.488C239.84 221.488 236.263 207.961 238.135 202.638C238.135 202.638 245.158 204.77 247.423 206.389C248.699 207.294 249.629 213.165 250.488 217.106C251.585 222.167 254.137 233.682 254.423 236.159C254.685 238.398 256.45 246.936 250.75 248.305Z" fill="#385369"/>
<path d="M208.384 202.709C208.384 202.709 199.882 205.615 199.477 206.722C198.224 210.593 197.196 214.534 196.401 218.523C195.721 221.024 194.183 228.49 193.789 230.931C193.276 234.027 192.311 245.03 192.74 246.733C193.265 248.877 198.32 248.722 201.087 248.293C203.853 247.865 241.628 238.66 241.628 238.66C241.628 238.66 239.47 231.622 239.363 231.003C239.363 231.003 210.161 234.337 206.441 235.135C204.318 235.587 203.853 235.754 203.853 235.754C203.853 235.754 210.316 209.366 208.384 202.709Z" fill="#385369"/>
<path d="M213.44 234.218C213.44 234.218 209.624 231.122 209.112 230.646C206.422 229.319 203.631 228.208 200.765 227.323C200.634 227.277 200.493 227.268 200.357 227.296C200.221 227.325 200.095 227.389 199.993 227.484C199.891 227.578 199.817 227.698 199.779 227.832C199.74 227.965 199.739 228.106 199.775 228.24C199.894 228.871 206.929 231.241 207.049 231.432C207.168 231.622 206.417 231.432 206.417 231.432C206.417 231.432 198.726 229.622 198.07 230.014C197.414 230.407 197.927 231.039 198.213 231.205C198.213 231.205 197.331 231.86 198.07 232.396C198.638 232.766 199.237 233.089 199.859 233.361C199.859 233.361 198.666 233.658 199.298 234.278C199.93 234.897 203.901 235.778 203.901 235.778C203.901 235.778 211.771 234.027 213.44 234.218Z" fill="#EEA886"/>
<path d="M236.155 239.993L223.313 245.626C221.262 245.221 219.116 244.828 217.351 244.518L236.155 239.993Z" fill="#263947"/>
<path d="M229.967 168.843C229.967 168.843 232.101 167.76 233.258 169.177C234.414 170.594 234.546 178.251 233.127 181.192C231.708 184.133 233.353 170.748 229.967 168.843Z" fill="#E8734D"/>
<path d="M148.597 244.84H144.77V418.399H148.597V244.84Z" fill="#706865"/>
<path d="M153.963 172.344H51.1063C44.7711 172.344 39.6354 177.473 39.6354 183.8V378.305C39.6354 384.631 44.7711 389.76 51.1063 389.76H153.963C160.298 389.76 165.434 384.631 165.434 378.305V183.8C165.434 177.473 160.298 172.344 153.963 172.344Z" fill="#BDAFAA"/>
<path d="M150.648 175.845H54.4332C48.1704 175.845 43.0934 180.915 43.0934 187.17V369.933C43.0934 376.188 48.1704 381.258 54.4332 381.258H150.648C156.911 381.258 161.988 376.188 161.988 369.933V187.17C161.988 180.915 156.911 175.845 150.648 175.845Z" fill="white"/>
<path d="M121.291 170.689H83.802V179.144H121.291V170.689Z" fill="#706865"/>
<path d="M139.106 373.041H62.9946C60.0303 373.041 57.1872 371.866 55.09 369.774C52.9928 367.682 51.813 364.844 51.8099 361.883V318.61C51.813 315.65 52.9928 312.812 55.09 310.719C57.1872 308.627 60.0303 307.452 62.9946 307.452H139.106C142.068 307.455 144.908 308.632 147.003 310.724C149.097 312.815 150.275 315.652 150.278 318.61V361.883C150.275 364.842 149.097 367.678 147.003 369.77C144.908 371.861 142.068 373.038 139.106 373.041ZM62.9946 308.881C60.4128 308.887 57.9386 309.914 56.113 311.737C54.2874 313.561 53.259 316.032 53.2527 318.61V361.883C53.259 364.462 54.2874 366.933 56.113 368.756C57.9386 370.579 60.4128 371.606 62.9946 371.612H139.106C141.687 371.606 144.162 370.579 145.987 368.756C147.813 366.933 148.841 364.462 148.848 361.883V318.61C148.841 316.032 147.813 313.561 145.987 311.737C144.162 309.914 141.687 308.887 139.106 308.881H62.9946Z" fill="#B5DEFF"/>
<path d="M70.8168 268.394C70.876 268.429 70.8878 268.429 70.8168 268.394V268.394Z" fill="#323657"/>
<path d="M136.912 263.714C134.459 263.714 132.061 262.988 130.022 261.627C127.983 260.266 126.393 258.332 125.455 256.069C124.516 253.806 124.27 251.316 124.749 248.914C125.227 246.511 126.408 244.305 128.143 242.573C129.877 240.841 132.087 239.661 134.492 239.183C136.898 238.706 139.391 238.951 141.657 239.888C143.923 240.826 145.86 242.413 147.223 244.449C148.585 246.486 149.313 248.88 149.313 251.33C149.313 254.614 148.006 257.764 145.68 260.087C143.355 262.409 140.201 263.714 136.912 263.714ZM136.912 240.386C134.741 240.384 132.618 241.025 130.812 242.228C129.007 243.431 127.599 245.141 126.767 247.144C125.935 249.146 125.717 251.35 126.14 253.476C126.563 255.602 127.608 257.555 129.143 259.088C130.678 260.621 132.633 261.665 134.762 262.087C136.892 262.509 139.098 262.291 141.103 261.461C143.108 260.63 144.821 259.224 146.026 257.421C147.23 255.617 147.872 253.498 147.87 251.33C147.867 248.428 146.711 245.647 144.657 243.595C142.602 241.543 139.817 240.389 136.912 240.386Z" fill="#B5DEFF"/>
<path d="M136.912 292.257C134.459 292.257 132.061 291.531 130.022 290.17C127.983 288.81 126.393 286.875 125.455 284.612C124.516 282.349 124.27 279.859 124.749 277.457C125.227 275.055 126.408 272.848 128.143 271.116C129.877 269.384 132.087 268.205 134.492 267.727C136.898 267.249 139.391 267.494 141.657 268.432C143.923 269.369 145.86 270.956 147.223 272.993C148.585 275.029 149.313 277.424 149.313 279.873C149.313 283.158 148.006 286.308 145.68 288.63C143.355 290.953 140.201 292.257 136.912 292.257ZM136.912 268.93C134.742 268.927 132.621 269.568 130.817 270.771C129.012 271.973 127.606 273.684 126.776 275.685C125.946 277.687 125.729 279.889 126.153 282.014C126.578 284.139 127.624 286.09 129.16 287.62C130.695 289.15 132.651 290.191 134.779 290.61C136.908 291.029 139.113 290.808 141.115 289.974C143.118 289.141 144.827 287.733 146.028 285.928C147.228 284.124 147.865 282.004 147.858 279.837C147.845 276.944 146.687 274.174 144.636 272.13C142.586 270.086 139.809 268.936 136.912 268.93Z" fill="#B5DEFF"/>
<path d="M81.0118 251.889C79.9863 251.889 78.9489 251.83 77.9354 251.735C76.9219 251.639 75.6818 251.461 74.5847 251.246C69.8194 250.274 65.3356 248.238 61.4683 245.292C60.3214 244.417 59.2376 243.462 58.225 242.434C58.0104 242.232 57.8196 242.03 57.6407 241.839C56.9253 241.077 56.2337 240.279 55.6017 239.457C51.2222 233.84 48.8581 226.917 48.8885 219.797C48.9074 211.295 52.2979 203.146 58.3181 197.134C64.3382 191.122 72.498 187.736 81.0118 187.717V189.158C72.8757 189.165 65.0744 192.394 59.3201 198.138C53.5659 203.883 50.3288 211.672 50.3194 219.797C50.2973 226.584 52.5515 233.183 56.7226 238.541C57.3426 239.327 57.9984 240.089 58.6781 240.815C58.845 240.994 59.0358 241.196 59.2385 241.387C60.2051 242.364 61.2369 243.275 62.3268 244.114C66.0224 246.94 70.311 248.894 74.8709 249.829C75.9273 250.042 76.9939 250.201 78.0666 250.306C79.0443 250.401 80.034 250.449 81.0118 250.449H82.0134C82.9386 250.425 83.862 250.354 84.7798 250.234C89.806 249.619 94.6001 247.765 98.7309 244.84C99.1721 244.53 99.5894 244.221 99.9948 243.899C100.4 243.578 100.71 243.328 101.08 243.006C102.312 241.945 103.456 240.786 104.502 239.541C109.131 234.01 111.664 227.029 111.657 219.821C111.657 218.319 111.549 216.819 111.335 215.332L112.754 215.118C112.991 216.694 113.107 218.287 113.099 219.881C113.097 227.432 110.434 234.742 105.575 240.529C104.477 241.829 103.281 243.043 101.998 244.161C101.617 244.483 101.235 244.804 100.806 245.09C100.376 245.376 99.9352 245.757 99.4821 246.078C95.1578 249.142 90.1379 251.081 84.8752 251.723C83.9332 251.842 82.9554 251.913 81.9776 251.949L81.0118 251.889Z" fill="#B5DEFF"/>
<path d="M103.429 236.79C103.337 236.662 103.229 236.546 103.107 236.445C103.067 236.386 103.014 236.337 102.952 236.302C96.99 232.991 86.151 230.348 86.151 230.348C85.871 228.797 85.7909 227.216 85.9126 225.644C87.3697 223.741 88.2918 221.485 88.5835 219.107C88.7624 219.238 88.9055 218.928 88.9055 218.928C88.7982 218.75 90.4198 214.808 90.0979 213.915C89.9429 213.415 89.609 213.474 89.3467 213.617C89.3467 213.391 89.4182 213.153 89.4659 212.903C89.4659 212.903 90.0979 206.865 87.0811 203.495C86.7711 203.186 85.6383 203.114 85.6383 203.114C80.7256 201.614 77.7804 202.281 75.9322 203.114C73.1896 205.353 72.9869 209.164 73.1062 211.259C73.1658 211.76 73.2135 212.26 73.2731 212.748L73.3446 213.319C73.0942 213.165 72.7484 213.081 72.5696 213.581C72.2357 214.463 73.44 218.345 73.5831 218.63C73.5831 218.63 73.8454 219.035 74.0482 218.857C74.3185 221.345 75.2306 223.721 76.6953 225.751C76.588 227.692 76.2422 230.122 76.1468 230.765C73.6427 231.551 61.051 234.897 57.2353 237.397C56.7416 237.834 56.3785 238.399 56.186 239.029C56.8075 239.838 57.4723 240.613 58.1773 241.351L58.7496 241.946C59.7416 242.947 60.8013 243.878 61.9214 244.733C65.696 247.633 70.0846 249.633 74.7517 250.58C75.8308 250.803 76.9215 250.966 78.0189 251.068C79.0086 251.163 80.0221 251.211 81.0356 251.211H82.0611C83.015 251.211 83.9689 251.104 84.8871 250.984C90.0413 250.363 94.9591 248.468 99.1959 245.471L100.496 244.495C100.865 244.209 101.235 243.899 101.593 243.59C102.878 242.495 104.074 241.301 105.17 240.017C104.719 238.877 104.134 237.794 103.429 236.79Z" fill="#B5DEFF"/>
<path d="M440.342 308.964H477.557V306.761H440.342V308.964Z" fill="#E2D2CA"/>
<path d="M472.561 314.704H469.306V415.029H472.561V314.704Z" fill="#706865"/>
<path d="M420.31 309.286H446.173V306.13H420.31V309.286Z" fill="#CCBDB7"/>
<path d="M428.347 308.964H438.136V279.254H428.347V308.964Z" fill="#4667A8"/>
<path d="M347.585 314.704H490.912V309H347.585V314.704Z" fill="#B59074"/>
<path d="M518.421 274.479C518.421 274.479 519.983 296.425 515.69 299.057C512.995 300.7 502.264 306.202 502.574 307.297C502.884 308.393 508.631 316.55 508.631 316.55C508.631 316.55 529.236 302.998 529.904 298.688C530.571 294.377 528.89 266.536 526.052 265.25C523.942 264.286 522.821 265.083 520.09 267.072C516.406 269.894 518.421 274.479 518.421 274.479Z" fill="#323657"/>
<path d="M480.86 280.742L479.048 280.076C479.048 280.076 481.301 274.765 482.291 274.896C483.155 275.021 484.011 275.196 484.855 275.42L480.86 280.742Z" fill="#EAD8CF"/>
<path d="M480.443 281.659C480.681 281.481 484.306 274.515 484.306 274.515L492.057 275.562L487.871 283.791L480.443 281.659Z" fill="#DA9B5B"/>
<path d="M493.058 401.299C493.058 401.299 493.702 405.74 493.786 406.407C493.869 407.074 500.94 406.014 500.94 406.014L501.512 400.727C501.512 400.727 493.941 400.715 493.058 401.299Z" fill="#424773"/>
<path d="M493.655 405.883C492.399 407.384 490.919 408.681 489.267 409.73C487.108 410.92 483.71 411.349 482.434 412.564C481.516 413.433 479.071 417.184 488.05 417.113C497.029 417.041 501.345 417.637 502.359 416.208C503.373 414.779 500.976 405.586 500.976 405.586C500.976 405.586 498.841 406.348 493.655 405.883Z" fill="#292C47"/>
<path d="M447.902 401.382C447.902 401.382 448.546 405.824 448.629 406.491C448.713 407.158 455.784 406.098 455.784 406.098L456.356 400.811C456.356 400.811 448.784 400.751 447.902 401.382Z" fill="#424773"/>
<path d="M448.546 405.931C447.289 407.426 445.809 408.719 444.158 409.765C442 410.956 434.046 411.897 432.771 413.1C431.852 413.969 430.314 417.482 442.942 417.148C451.909 416.922 456.237 417.684 457.191 416.243C458.145 414.802 455.808 405.621 455.808 405.621C455.808 405.621 453.804 406.443 448.546 405.931Z" fill="#292C47"/>
<path d="M515.797 324.611C515.797 324.611 490.173 328.934 484.378 329.851C478.583 330.768 447.21 338.556 443.287 340.925C440.163 342.819 444.921 388.248 446.042 405.586H458.395L459.301 353.595C474.123 353.965 484.712 350.13 495.515 351.762C506.318 353.393 515.32 355.727 522.189 346.534C522.189 346.522 522.439 326.612 515.797 324.611Z" fill="#292C47"/>
<path d="M490.542 405.621L502.586 404.883L503.778 353.595C508.37 353.733 512.966 353.438 517.503 352.714L527.221 330.149C518.695 331.851 491.449 338.722 487.752 340.925C484.628 342.819 489.422 388.295 490.542 405.621Z" fill="#292C47"/>
<path d="M503.993 228.633C503.993 228.633 494.609 226.049 491.019 233.325C487.43 240.601 489.064 254.414 493.798 255.712C498.531 257.01 505.34 255.521 507.308 250.949C509.275 246.376 510.885 239.981 510.372 235.802C509.859 231.622 506.497 229.681 503.993 228.633Z" fill="#EEA886"/>
<path d="M496.254 254.307C496.254 254.307 496.349 259.844 495.741 261.023C495.133 262.202 508.858 261.916 508.858 261.916C508.858 261.916 506.699 255.259 507.928 249.591C509.156 243.923 496.254 254.307 496.254 254.307Z" fill="#EEA886"/>
<path d="M508.631 247.495C508.631 247.495 507.892 248.984 504.35 248.686C500.809 248.388 496.135 244.173 494.632 243.792C493.13 243.411 493.035 242.601 493.035 242.601L492.236 244.018L490.697 244.256C490.697 244.256 491.747 239.97 489.505 238.469C487.263 236.969 490.542 224.823 502.097 227.752C502.097 227.752 510.909 229.36 511.028 234.278C511.147 239.196 510.348 244.899 508.631 247.495Z" fill="#3A3F47"/>
<path d="M495.026 260.892C495.026 260.892 495.026 258.629 496.087 258.415C497.148 258.201 506.819 256.855 508.107 257.355L508.643 260.332C508.643 260.332 506.223 261.821 495.026 260.892Z" fill="#E2D2CA"/>
<path d="M492.2 241.613C492.462 239.755 494.585 237.636 495.777 240.517C496.969 243.399 494.966 247.591 493.607 247.364C492.248 247.138 491.854 244.114 492.2 241.613Z" fill="#EEA886"/>
<path d="M454.233 287.542C454.174 287.566 454.162 287.577 454.233 287.542V287.542Z" fill="#323657"/>
<path d="M506.771 230.003C506.771 230.003 518.23 229.467 508.774 247.329L506.771 230.003Z" fill="#3A3F47"/>
<path d="M532.264 411.706L531.406 414.1L495.407 402.966L497.136 398.119L532.264 411.706Z" fill="#918783"/>
<path d="M494.179 401.251H498.269V362.169H494.179V401.251Z" fill="#918783"/>
<path d="M484.151 362.395H508.285V360.097H484.151V362.395Z" fill="#5E5854"/>
<path d="M459.862 411.706L460.708 414.1L496.707 402.966L495.133 397.81L459.862 411.706Z" fill="#918783"/>
<path d="M485.224 413.85V416.624L496.707 402.966L495.133 397.81L485.224 413.85Z" fill="#918783"/>
<path d="M456.499 415.041C456.499 415.705 456.696 416.354 457.066 416.906C457.435 417.458 457.961 417.889 458.575 418.143C459.189 418.397 459.866 418.464 460.518 418.334C461.17 418.205 461.769 417.885 462.24 417.415C462.71 416.945 463.03 416.347 463.16 415.696C463.29 415.044 463.223 414.369 462.968 413.756C462.714 413.142 462.283 412.617 461.73 412.248C461.177 411.879 460.527 411.683 459.862 411.683C458.97 411.683 458.115 412.036 457.484 412.666C456.854 413.296 456.499 414.15 456.499 415.041Z" fill="#BFB2AC"/>
<path d="M484.938 415.041C484.938 415.705 485.135 416.354 485.505 416.906C485.874 417.458 486.399 417.889 487.014 418.143C487.628 418.397 488.304 418.464 488.957 418.334C489.609 418.205 490.208 417.885 490.678 417.415C491.149 416.945 491.469 416.347 491.599 415.696C491.728 415.044 491.662 414.369 491.407 413.756C491.153 413.142 490.722 412.617 490.169 412.248C489.616 411.879 488.966 411.683 488.301 411.683C487.409 411.683 486.554 412.036 485.923 412.666C485.292 413.296 484.938 414.15 484.938 415.041Z" fill="#BFB2AC"/>
<path d="M528.89 415.041C528.888 415.708 529.084 416.361 529.454 416.917C529.824 417.473 530.351 417.907 530.968 418.164C531.585 418.42 532.264 418.488 532.92 418.358C533.576 418.229 534.178 417.907 534.651 417.435C535.123 416.963 535.445 416.362 535.575 415.707C535.705 415.052 535.637 414.374 535.38 413.757C535.123 413.141 534.689 412.615 534.132 412.246C533.575 411.876 532.921 411.68 532.253 411.683C531.361 411.683 530.506 412.036 529.875 412.666C529.244 413.296 528.89 414.15 528.89 415.041Z" fill="#BFB2AC"/>
<path d="M471.786 360.097H520.329C522.712 360.097 524.645 358.167 524.645 355.787V355.679C524.645 353.299 522.712 351.369 520.329 351.369H471.786C469.402 351.369 467.469 353.299 467.469 355.679V355.787C467.469 358.167 469.402 360.097 471.786 360.097Z" fill="#E2D2CA"/>
<path d="M365.913 415.041H369.18V314.716H365.913V415.041Z" fill="#706865"/>
<path d="M395.246 293.567H471.225C473.603 293.567 475.53 291.643 475.53 289.269V238.279C475.53 235.904 473.603 233.98 471.225 233.98H395.246C392.868 233.98 390.941 235.904 390.941 238.279V289.269C390.941 291.643 392.868 293.567 395.246 293.567Z" fill="#5F8BE3"/>
<path d="M394.256 284.232H472.215V237.207H394.256V284.232Z" fill="#F5F7FF"/>
<path d="M394.256 240.946H472.215V237.207H394.256V240.946Z" fill="#CECFD6"/>
<path d="M399.801 281.338H403.879C405.347 281.338 406.538 280.149 406.538 278.682V246.412C406.538 244.945 405.347 243.756 403.879 243.756H399.801C398.332 243.756 397.141 244.945 397.141 246.412V278.682C397.141 280.149 398.332 281.338 399.801 281.338Z" fill="#CECFD6"/>
<path d="M454.305 247.233H468.566C469.363 247.233 470.009 246.588 470.009 245.793V245.197C470.009 244.401 469.363 243.756 468.566 243.756H454.305C453.508 243.756 452.862 244.401 452.862 245.197V245.793C452.862 246.588 453.508 247.233 454.305 247.233Z" fill="#CECFD6"/>
<path d="M455.832 282.29H467.04C468.68 282.29 470.009 280.963 470.009 279.325V252.532C470.009 250.895 468.68 249.567 467.04 249.567H455.832C454.192 249.567 452.862 250.895 452.862 252.532V279.325C452.862 280.963 454.192 282.29 455.832 282.29Z" fill="#CECFD6"/>
<path d="M430.457 288.745C430.457 289.284 430.617 289.811 430.917 290.26C431.217 290.708 431.644 291.058 432.143 291.264C432.642 291.47 433.191 291.524 433.721 291.419C434.25 291.314 434.737 291.054 435.119 290.673C435.501 290.291 435.761 289.806 435.866 289.277C435.971 288.748 435.917 288.199 435.711 287.701C435.504 287.203 435.154 286.777 434.705 286.477C434.256 286.178 433.728 286.018 433.188 286.018C432.464 286.018 431.769 286.305 431.257 286.816C430.745 287.328 430.457 288.021 430.457 288.745Z" fill="#59524F"/>
<path d="M415.719 309.083V308.024C415.719 308.024 417.222 301.427 427.774 301.427C438.327 301.427 438.124 309.083 438.124 309.083H415.719Z" fill="#314875"/>
<path d="M438.256 302.463C437.18 302.398 436.122 302.165 435.12 301.772C434.273 301.272 429.253 297.89 428.061 298.438C426.868 298.985 419.022 301.379 419.296 302.534C419.571 303.689 420.298 303.57 420.858 303.368C423.073 302.774 425.335 302.375 427.619 302.177C427.619 302.177 422.015 304.213 421.991 305.749C421.967 307.285 423.184 307.595 423.696 308.131C424.209 308.667 424.889 310.096 426.308 310.203C427.727 310.31 434.798 307.821 436.252 307.75C437.707 307.678 440.39 307.845 440.569 307.607C440.748 307.369 438.256 302.463 438.256 302.463Z" fill="#EEA886"/>
<path d="M480.013 264.012C487.323 262.726 495.026 260.892 495.026 260.892L508.643 260.332C508.643 260.332 521.151 263.083 526.064 265.298C526.541 265.512 526.541 276.444 527.817 279.302L523.739 287.899C523.739 287.899 521.354 304.939 520.889 312.513C520.662 315.99 521.521 346.129 521.521 346.129C521.521 346.129 520.329 346.736 511.004 347.761C501.679 348.785 478.487 347.391 478.332 346.296C478.177 345.2 482.828 305.463 483.102 303.427C483.412 300.272 482.184 285.672 482.184 285.672C480.431 288.054 475.971 298.64 471.309 303.689C468.578 306.654 455.021 308.452 452.469 308.559C446.9 308.75 436.753 309.846 436.455 309.31C436.216 308.988 435.573 300.319 436.205 300.105C436.837 299.89 455.605 298.831 460.434 296.282C462.199 295.342 467.481 283.839 467.481 283.839C467.481 283.839 475.971 265.822 480.013 264.012Z" fill="#323657"/>
<path d="M529.725 345.26H506.854C504.66 345.26 502.555 344.389 501.003 342.839C499.451 341.29 498.579 339.188 498.579 336.996V298.985C498.579 296.794 499.451 294.692 501.003 293.142C502.555 291.592 504.66 290.721 506.854 290.721H529.725C531.919 290.721 534.024 291.592 535.576 293.142C537.128 294.692 538 296.794 538 298.985V336.984C538 339.177 537.129 341.28 535.577 342.832C534.025 344.383 531.921 345.257 529.725 345.26Z" fill="#E2D2CA"/>
<path d="M505.579 357.918C508.194 358.025 510.802 357.563 513.221 356.563C515.641 355.564 517.813 354.052 519.589 352.131C527.471 343.438 526.052 328.16 525.992 327.517C525.974 327.223 525.897 326.936 525.765 326.673C525.633 326.41 525.449 326.176 525.225 325.985C525 325.794 524.74 325.651 524.459 325.563C524.177 325.475 523.881 325.444 523.588 325.473C523.295 325.502 523.01 325.589 522.752 325.73C522.493 325.871 522.265 326.063 522.082 326.294C521.899 326.525 521.765 326.79 521.687 327.074C521.609 327.357 521.589 327.654 521.628 327.946C521.628 328.124 522.892 341.961 516.322 349.189C513.675 352.119 510.157 353.536 505.591 353.536C505.009 353.536 504.451 353.767 504.039 354.178C503.628 354.589 503.396 355.146 503.396 355.727C503.396 356.308 503.628 356.865 504.039 357.276C504.451 357.687 505.009 357.918 505.591 357.918H505.579Z" fill="#E2D2CA"/>
<path d="M434.368 256.426C434.368 258.601 433.723 260.726 432.515 262.534C431.306 264.343 429.588 265.753 427.578 266.587C425.567 267.421 423.354 267.642 421.219 267.221C419.083 266.801 417.119 265.757 415.577 264.223C414.034 262.689 412.981 260.733 412.55 258.602C412.12 256.471 412.331 254.26 413.158 252.249C413.984 250.237 415.389 248.516 417.195 247.301C419 246.086 421.126 245.433 423.303 245.423C424.754 245.417 426.192 245.697 427.534 246.247C428.876 246.797 430.096 247.607 431.124 248.629C432.153 249.652 432.968 250.867 433.525 252.205C434.082 253.543 434.368 254.977 434.368 256.426Z" fill="#EEF0F7"/>
<path d="M430.529 262.488L429.718 265.393C428.237 266.448 426.515 267.115 424.71 267.334C424.381 267.376 424.051 267.399 423.72 267.406H423.303C422.953 267.423 422.603 267.423 422.253 267.406C421.853 267.371 421.455 267.315 421.061 267.239C419.422 266.902 417.881 266.197 416.554 265.179C416.399 264.214 416.232 263.154 416.089 262.154C416.9 261.856 419.475 260.963 421.097 260.439H421.168H421.276L421.55 260.344L421.8 260.261L422.456 260.034L424.638 260.201H425.008H425.175L426.2 260.487C427.772 260.83 429.25 261.513 430.529 262.488Z" fill="#D9C7C1"/>
<path d="M423.923 250.961C423.923 250.961 426.546 251.401 426.105 255.498C425.664 259.594 423.351 259.237 423.196 259.237C423.041 259.237 420.811 259.237 420.751 254.271C420.751 254.271 420.715 250.568 423.923 250.961Z" fill="#EEA987"/>
<path d="M425.079 258.046C425.026 258.729 425.046 259.415 425.139 260.094C425.306 260.463 423.04 261.63 421.633 260.308C421.772 259.482 421.836 258.645 421.824 257.808C421.741 257.212 425.079 258.046 425.079 258.046Z" fill="#EEA987"/>
<path d="M426.153 254.342C426.153 254.342 426.451 254.045 426.546 254.342C426.642 254.64 426.081 256.033 426.117 256.093C426.153 256.152 426.117 256.212 425.998 256.152C426.011 255.547 426.063 254.942 426.153 254.342Z" fill="#EEA987"/>
<path d="M420.775 254.235C420.775 254.235 420.501 253.914 420.381 254.235C420.403 254.842 420.524 255.442 420.739 256.01C420.739 256.01 420.835 256.152 420.906 256.081C420.901 255.464 420.857 254.847 420.775 254.235Z" fill="#EEA987"/>
<path d="M426.332 253.997C426.236 254.557 426.153 254.974 426.153 254.974L425.771 255.474C425.799 255.049 425.799 254.624 425.771 254.2C425.742 254.098 425.718 253.994 425.7 253.89C425.7 253.688 425.604 253.449 425.568 253.366C424.203 252.87 422.699 252.921 421.371 253.509C421.371 253.509 421.371 253.676 421.371 253.866C421.371 254.057 421.371 254.331 421.252 254.366C421.133 254.402 421.133 255.652 421.133 255.652L420.834 255.295C420.834 255.295 420.739 254.664 420.656 253.938C420.656 253.771 420.656 253.592 420.596 253.414C420.535 252.894 420.592 252.366 420.763 251.872C420.935 251.377 421.216 250.927 421.586 250.556C422.684 250.136 423.898 250.136 424.996 250.556C424.996 250.556 425.389 250.556 425.497 250.687C426.164 251.654 426.46 252.829 426.332 253.997Z" fill="#E8734D"/>
<path d="M422.003 258.689C422.178 258.881 422.395 259.031 422.637 259.128C422.878 259.225 423.138 259.266 423.398 259.249C423.655 259.26 423.912 259.218 424.152 259.126C424.392 259.034 424.61 258.893 424.793 258.713C424.666 258.98 424.469 259.209 424.224 259.377C423.979 259.544 423.694 259.644 423.398 259.665C423.101 259.637 422.816 259.532 422.572 259.361C422.327 259.19 422.131 258.958 422.003 258.689Z" fill="#C78D71"/>
<path d="M421.371 260.344C421.589 260.702 421.884 261.008 422.235 261.238C422.585 261.469 422.983 261.619 423.398 261.678C424.245 261.749 424.984 260.678 425.318 260.154C424.681 259.92 424.003 259.817 423.325 259.85C422.647 259.883 421.983 260.051 421.371 260.344Z" fill="#EEA987"/>
<path d="M425.08 259.761C424.597 260.328 424.03 260.818 423.398 261.213L424.114 262.309L425.306 260.154L425.08 259.761Z" fill="#EDDAD3"/>
<path d="M421.681 259.927C422.152 260.477 422.738 260.916 423.398 261.213L422.623 262.345L421.264 260.38L421.681 259.927Z" fill="#EDDAD3"/>
<path d="M423.398 261.213L424.006 262.142C423.823 262.24 423.618 262.291 423.41 262.291C423.202 262.291 422.997 262.24 422.814 262.142L423.398 261.213Z" fill="#5073AB"/>
<path d="M431.232 262.321V262.38C431.173 262.619 430.91 263.571 430.576 264.762L430.195 265.083L429.742 265.417C428.261 266.472 426.539 267.139 424.734 267.358C424.889 263.547 425.342 260.213 425.342 260.213L426.367 260.487C427.987 260.913 429.558 261.508 431.053 262.261L431.232 262.321Z" fill="#323657"/>
<path d="M421.156 267.203C419.517 266.866 417.976 266.162 416.649 265.143C416.255 264.847 415.884 264.52 415.54 264.167L415.338 263.964C415.147 263.142 415.016 262.607 415.016 262.571C416.969 261.576 419.046 260.843 421.192 260.392C421.192 260.511 421.192 263.595 421.156 267.203Z" fill="#323657"/>
<path d="M423.744 262.249C423.744 263.25 423.744 265.191 423.744 267.406H423.303C422.953 267.423 422.603 267.423 422.254 267.406C422.364 265.679 422.608 263.963 422.981 262.273C423.041 262.059 423.064 261.94 423.064 261.94L423.72 262.047C423.756 262.083 423.756 262.166 423.744 262.249Z" fill="#5073AB"/>
<path d="M431.781 263.5C431.415 263.927 431.016 264.325 430.588 264.691L430.207 265.012C430.207 265.012 430.839 263.166 431.268 262.273C431.518 262.511 431.65 263.166 431.781 263.5Z" fill="#323657"/>
<path d="M415.54 264.167L415.338 263.964C415.099 263.702 414.861 263.428 414.646 263.142C414.711 262.92 414.839 262.721 415.016 262.571L415.54 264.167Z" fill="#323657"/>
<path d="M341.552 396.19C340.709 394.84 339.54 393.723 338.153 392.939C336.186 392.023 332.191 395.214 331.798 396.988L327.124 403.8L328.006 404.395L330.498 400.763C328.805 404.847 326.372 409.73 328.113 412.195C330.403 415.493 335.602 418.827 336.973 418.244C338.344 417.66 338.07 408.074 338.07 408.074C336.556 399.62 341.552 396.19 341.552 396.19Z" fill="#1D3B54"/>
<path d="M341.552 396.19C340.576 398.073 339.716 400.014 338.976 402.001C338.094 404.538 337.939 411.528 337.378 412.064C336.818 412.599 332.478 410.361 331.905 407.729C331.333 405.097 333.098 399.846 334.767 397.083C335.673 395.534 336.815 394.136 338.153 392.939C338.972 393.1 339.727 393.492 340.329 394.068C340.931 394.644 341.356 395.381 341.552 396.19Z" fill="#DE9673"/>
<path d="M358.341 334.614C358.341 334.614 355.67 348.725 355.67 352.107C355.6 356.608 354.555 361.04 352.605 365.099C350.447 369.147 341.027 397.107 340.192 400.358C339.358 403.609 338.666 406.693 338.666 406.693C338.666 406.693 333.956 404.538 333.956 401.466C333.956 398.393 338.058 373.029 338.726 368.016C339.393 363.003 345.379 337.329 345.379 337.329L358.341 334.614Z" fill="#DE9673"/>
<path d="M343.281 333.65C343.281 333.65 344.199 345.403 344.103 348.475C344.008 351.547 342.565 358.502 342.565 360.383C342.565 362.264 342.565 400.382 344.092 404.978C345.618 409.575 339.799 406.419 339.799 406.419C339.799 406.419 329.652 381.317 329.652 370.85C329.652 360.383 330.844 355.167 330.164 348.511C329.371 343.264 328.065 338.107 326.265 333.114L343.281 333.65Z" fill="#EEA886"/>
<path d="M327.911 277.015C324.422 281.594 322.065 286.931 321.031 292.591C319.6 301.486 322.724 318.265 323.845 323.123C324.822 327.386 326.683 340.985 326.79 342.462C326.79 342.462 345.117 344.534 359.056 340.08C359.056 340.08 360.332 321.027 361.143 312.954C361.954 304.88 357.971 277.575 357.971 277.575L327.911 277.015Z" fill="#EB4747"/>
<path d="M348.897 416.553C342.327 410.825 344.127 404.943 344.127 404.943C342.595 404.416 340.956 404.281 339.358 404.55C337.223 405.074 336.079 410.158 336.973 411.778L337.641 420.113L338.714 420.03L338.368 415.576C339.632 419.875 340.836 425.27 343.746 426.115C347.657 427.306 353.869 426.579 354.585 425.258C355.3 423.936 348.897 416.553 348.897 416.553Z" fill="#1D3B54"/>
<path d="M352.748 214.677C352.748 214.677 351.127 224.334 352.534 227.573C353.941 230.812 345.069 223.787 345.069 223.787C345.069 223.787 348.754 213.153 352.748 214.677Z" fill="#754836"/>
<path d="M349.481 187.848C349.481 187.848 335.256 184.597 333.479 199.756C331.703 214.915 338.106 216.832 333.777 227.145C329.449 237.457 344.354 223.799 344.354 223.799L349.481 187.848Z" fill="#754836"/>
<path d="M348.253 187.622C351.468 187.54 354.588 188.713 356.951 190.892C359.313 193.071 360.732 196.085 360.904 199.292C360.68 200.858 360.329 202.403 359.855 203.912C359.164 205.937 360.833 212.022 360.344 212.248C359.539 212.53 358.708 212.734 357.864 212.855C357.864 212.855 355.551 219.381 353.237 219.262C350.924 219.143 342.219 217.082 338.32 208.783C334.421 200.483 333.515 187.92 348.253 187.622Z" fill="#EEA886"/>
<path d="M308.474 307.774C308.474 307.774 308.82 301.927 310.37 301.022C311.921 300.117 311.014 301.927 311.014 301.927C311.014 301.927 310.144 306.166 309.953 307.881C309.458 307.887 308.963 307.851 308.474 307.774Z" fill="#1D3B54"/>
<path d="M315.641 294.627C315.93 296.365 316.328 298.083 316.833 299.771C317.632 302.284 318.36 303.094 318.026 304.535C317.787 305.63 316.547 306.452 316.237 306.106C315.927 305.761 315.772 301.51 314.019 301.522C312.266 301.534 314.544 306.785 313.494 306.404C312.445 306.023 308.415 303.808 308.665 301.641C308.916 299.474 310.525 297.961 310.43 294.758C310.266 293.338 310.549 291.902 311.241 290.65L315.641 294.627Z" fill="#EEA886"/>
<path d="M314.234 301.343C314.234 301.343 316.619 301.951 316.44 309.869L313.781 309.429C313.822 307.152 313.574 304.879 313.041 302.665C313.041 302.665 313.173 301.117 314.234 301.343Z" fill="#1D3B54"/>
<path d="M323.976 311.656L303.288 305.797L303.359 331.232L323.928 343.545L323.976 311.656Z" fill="#EDDAD3"/>
<path d="M323.928 343.545L321.34 344.021L301.332 331.59L301.57 305.916L303.288 305.797L323.928 343.545Z" fill="#EDDAD3"/>
<path d="M350.221 223.298C350.221 223.298 355.729 225.561 356.719 226.252C357.709 226.942 359.664 234.897 360.153 235.587C360.642 236.278 365.4 242.173 364.744 246.96C364.275 249.758 362.856 252.31 360.726 254.188C359.342 255.664 358.067 263.595 357.637 264.774C357.208 265.953 358.579 281.445 358.579 281.445C358.579 281.445 342.41 287.732 327.935 277.015C327.935 277.015 330.832 266.643 330.832 264.774C330.832 262.904 328.96 249.746 323.94 241.97C318.92 234.194 324.822 225.954 328.71 224.977C332.597 224.001 339.93 221.238 339.93 221.238L350.221 223.298Z" fill="#EB4747"/>
<path d="M332.573 223.799C332.573 223.799 324.477 223.298 320.422 228.014C316.368 232.729 316.583 238.338 315.545 240.767C314.508 243.197 312.147 253.676 311.634 255.367C311.122 257.057 310.609 266.596 309.882 274.265C309.154 281.933 309.285 296.247 309.285 296.247L317.036 294.842C317.036 294.842 317.346 281.195 317.537 273.276C317.728 265.357 324.178 251.389 326.623 245.269C329.067 239.148 338.75 227.633 332.573 223.799Z" fill="#EB4747"/>
<path d="M355.908 225.799C357.032 225.93 358.104 226.344 359.024 227.002C359.944 227.66 360.681 228.541 361.167 229.562C362.86 233.134 363.552 236.052 363.957 236.933C364.362 237.814 370.539 249.472 370.909 252.056C371.278 254.64 370.694 259.344 367.439 260.606C364.184 261.868 352.534 261.999 352.534 261.999C352.534 261.999 355.479 256.045 352.748 252.914C352.748 252.914 361.214 251.389 363.218 251.187C365.221 250.984 353.225 228.455 355.908 225.799Z" fill="#EB4747"/>
<path d="M336.52 235.802L352.295 272.586L371.958 263.345L357.411 228.014L336.52 235.802Z" fill="#1D3B54"/>
<path d="M345.57 253.878C345.57 253.878 343.436 254.45 342.756 254.545C342.076 254.64 342.911 255.891 343.746 255.926C344.58 255.962 345.57 253.878 345.57 253.878Z" fill="#EEA886"/>
<path d="M346.989 264.357C347.474 264.34 347.954 264.243 348.408 264.071C348.408 264.071 349.135 263.595 349.684 263.285L350.113 263.059C350.969 262.797 351.775 262.395 352.498 261.868C353.428 261.154 356.445 258.296 356.445 258.296L354.454 255.295L352.903 252.914C352.903 252.914 346.429 253.092 345.487 253.664L345.224 253.842C344.689 254.333 344.21 254.88 343.793 255.474C343.662 255.593 342.434 256.927 342.518 257.462C342.537 257.762 342.633 258.051 342.795 258.303C342.958 258.556 343.183 258.762 343.448 258.903C343.586 259.68 343.942 260.403 344.473 260.987C344.543 261.381 344.702 261.754 344.937 262.078C345.173 262.402 345.479 262.668 345.832 262.857C345.832 262.857 346.19 264.19 346.989 264.357Z" fill="#EEA886"/>
<path d="M352.748 252.914C352.748 252.914 362.359 251.199 365.006 250.925C365.1 248.848 365 246.767 364.708 244.709C364.103 242.353 363.147 240.1 361.87 238.029L366.783 242.518C366.783 242.518 370.825 250.246 370.909 252.044C370.992 253.842 371.481 256.629 369.096 259.463C366.711 262.297 355.431 260.999 355.431 260.999C355.431 260.999 356.373 257.534 352.748 252.914Z" fill="#EB4747"/>
<path d="M349.803 217.773C349.803 217.773 349.481 218.69 349.123 220.047C348.945 220.738 348.742 221.548 348.563 222.429C347.962 224.74 347.88 227.156 348.325 229.502C348.325 229.502 343.161 231.134 339.322 223.799C339.322 223.799 341.277 216.058 339.155 211.283C337.032 206.508 349.803 217.773 349.803 217.773Z" fill="#EEA886"/>
<path d="M360.904 199.292C360.904 199.292 354.883 203.162 348.98 203.805C343.078 204.448 339.799 213.331 339.799 213.331C339.799 213.331 330.534 198.923 337.998 190.063C345.463 181.204 362.49 188.146 360.904 199.292Z" fill="#754836"/>
<path d="M346.548 203.472C346.576 203.099 346.488 202.726 346.296 202.405C346.104 202.084 345.817 201.83 345.474 201.679C345.132 201.527 344.751 201.486 344.384 201.559C344.016 201.633 343.681 201.818 343.424 202.09C341.516 203.591 343.865 209.056 345.415 208.568C346.965 208.08 346.548 204.639 346.548 203.472Z" fill="#EEA886"/>
<path d="M350.566 223.429C350.566 223.429 352.951 230.574 347.311 230.574C341.671 230.574 339.155 226.073 337.533 222.108C338.763 221.501 340.049 221.014 341.373 220.655C342.565 220.464 350.566 223.429 350.566 223.429Z" fill="#EEA886"/>
<path d="M316.44 309.524L313.781 309.869V308.631L316.44 309.524Z" fill="#1D3B54"/>
<path d="M310.025 307.69L308.558 307.869C308.558 307.869 308.558 307.428 308.558 307.273C308.558 307.119 309.929 307.595 310.025 307.69Z" fill="#1D3B54"/>
<path d="M344.092 404.943C344.52 407.047 345.078 409.123 345.761 411.159C346.691 413.719 351.055 419.363 350.924 420.102C350.793 420.84 345.987 421.876 343.853 420.173C341.719 418.47 339.751 413.207 339.31 409.968C339.042 408.199 338.974 406.405 339.107 404.621C339.107 404.621 342.041 403.109 344.092 404.943Z" fill="#EEA886"/>
<path d="M349.589 218.511C349.398 219.202 349.123 220.048 348.909 220.893C346.173 219.082 343.83 216.742 342.017 214.01C344.294 215.891 346.848 217.409 349.589 218.511Z" fill="#A77860"/>
<path d="M133.346 80.6646H188.34C190.49 80.6646 192.553 81.5177 194.073 83.0363C195.594 84.5549 196.448 86.6145 196.448 88.7621V110.97C196.448 113.118 195.594 115.178 194.073 116.696C192.553 118.215 190.49 119.068 188.34 119.068H133.346C131.196 119.068 129.134 118.215 127.613 116.696C126.092 115.178 125.238 113.118 125.238 110.97V88.7621C125.241 86.6155 126.096 84.5577 127.616 83.0398C129.136 81.5219 131.197 80.6678 133.346 80.6646Z" fill="#DFE1E8"/>
<path d="M88.5836 273.514C88.6421 273.538 88.6421 273.538 88.5836 273.514V273.514Z" fill="#323657"/>
<path d="M54.7074 267.382H107.328C108.79 267.382 109.975 266.198 109.975 264.738V263.119C109.975 261.659 108.79 260.475 107.328 260.475H54.7074C53.2455 260.475 52.0603 261.659 52.0603 263.119V264.738C52.0603 266.198 53.2455 267.382 54.7074 267.382Z" fill="#B5DEFF"/>
<path d="M54.7074 279.849H107.328C108.79 279.849 109.975 278.666 109.975 277.206V275.586C109.975 274.126 108.79 272.943 107.328 272.943H54.7074C53.2455 272.943 52.0603 274.126 52.0603 275.586V277.206C52.0603 278.666 53.2455 279.849 54.7074 279.849Z" fill="#B5DEFF"/>
<path d="M54.7074 292.317H107.328C108.79 292.317 109.975 291.133 109.975 289.673V288.054C109.975 286.594 108.79 285.41 107.328 285.41H54.7074C53.2455 285.41 52.0603 286.594 52.0603 288.054V289.673C52.0603 291.133 53.2455 292.317 54.7074 292.317Z" fill="#B5DEFF"/>
<path d="M143.208 185.157H130.628C127.901 185.157 125.691 187.364 125.691 190.087V228.895C125.691 231.618 127.901 233.825 130.628 233.825H143.208C145.934 233.825 148.144 231.618 148.144 228.895V190.087C148.144 187.364 145.934 185.157 143.208 185.157Z" fill="#B5DEFF"/>
<path d="M8.08446 320.92C8.55986 321.708 8.88718 322.575 9.05031 323.48C9.3165 324.539 9.71722 325.559 10.2427 326.517C10.8778 328.148 11.3608 329.834 11.6855 331.554C11.3728 332.662 11.1455 333.793 11.0058 334.936C11.1132 335.662 11.5305 337.115 10.8747 337.21C10.2189 337.305 9.53919 336.115 9.53919 336.115C9.55505 336.301 9.51614 336.488 9.42721 336.653C9.33827 336.818 9.20316 336.954 9.03838 337.043C8.79502 337.2 8.51443 337.289 8.2253 337.301C7.93618 337.314 7.6489 337.25 7.39287 337.115C7.39287 337.115 6.98745 337.853 6.48664 337.948C6.20112 338.037 5.89967 338.063 5.60319 338.024C5.3067 337.985 5.02226 337.882 4.76958 337.722C4.43553 338.006 4.01556 338.17 3.57718 338.187C3.29169 338.177 3.01373 338.093 2.77102 337.942C2.52832 337.792 2.32936 337.58 2.19399 337.329C2.19399 337.329 1.00159 337.579 0.596176 336.996C0.356609 336.456 0.207556 335.881 0.154987 335.293C0.0264214 332.335 0.560057 329.386 1.71703 326.66C2.16219 325.586 2.35703 324.426 2.28679 323.267C2.21655 322.107 1.88308 320.979 1.31162 319.967L8.08446 320.92Z" fill="#EEA886"/>
<path d="M9.64653 335.674C9.64653 335.674 9.76577 331.447 8.64492 330.553C7.52406 329.66 7.45251 331.173 7.45251 331.173C7.45251 331.173 7.60753 329.672 6.39127 329.47C5.17502 329.267 5.06771 331.042 5.06771 331.042C5.03595 330.881 4.97118 330.728 4.87747 330.593C4.78376 330.458 4.66313 330.344 4.52316 330.258C4.38319 330.172 4.2269 330.116 4.06411 330.093C3.90132 330.07 3.73555 330.081 3.57721 330.125C2.30134 330.375 2.61136 331.851 2.61136 331.851C2.61136 331.851 1.41896 330.399 0.5962 331.792C0.229296 332.6 0.0394897 333.477 0.0394897 334.364C0.0394897 335.251 0.229296 336.128 0.5962 336.936C0.5962 336.936 0.977769 337.579 2.19402 337.27C2.3124 337.498 2.48227 337.697 2.6903 337.849C2.89833 338.001 3.13885 338.103 3.39301 338.147C3.64716 338.191 3.90803 338.175 4.15515 338.102C4.40227 338.028 4.62891 337.898 4.8173 337.722C4.8173 337.722 6.68938 338.746 7.36904 337.115C7.61035 337.248 7.88294 337.313 8.15831 337.305C8.43369 337.296 8.70175 337.214 8.93448 337.067C9.16722 336.92 9.35608 336.713 9.48134 336.468C9.60659 336.223 9.66365 335.949 9.64653 335.674Z" fill="#DB9C7C"/>
<path d="M22.441 260.046C22.441 260.046 15.1912 284.16 12.7468 293.055C11.9836 295.842 10.1235 322.48 9.80155 323.552C9.4796 324.623 0.262329 326.1 0.262329 326.1C0.262329 326.1 1.38319 292.758 1.45473 290.948C1.52628 289.138 11.6021 251.913 14.5712 250.591C16.7533 249.591 17.9099 250.425 20.6643 252.461C24.5158 255.331 22.441 260.046 22.441 260.046Z" fill="#323657"/>
<path d="M110.596 215.825L93.9494 226.71L94.7561 227.94L111.403 217.055L110.596 215.825Z" fill="#4DA8F2"/>
<path d="M112.241 221.655C112.171 222.115 112.03 222.56 111.824 222.977C111.824 222.977 111.275 223.62 110.917 224.096L110.655 224.489C110.319 225.267 109.856 225.983 109.284 226.609C108.497 227.419 105.42 229.955 105.42 229.955L102.785 227.728L100.055 226.537C100.055 226.537 101.581 219.881 102.237 219.047L102.427 218.821C102.957 218.366 103.533 217.967 104.144 217.63C104.276 217.511 105.683 216.499 106.183 216.63C106.468 216.684 106.735 216.81 106.958 216.996C107.181 217.181 107.354 217.42 107.459 217.69C108.184 217.901 108.833 218.314 109.331 218.881C109.701 218.99 110.04 219.183 110.321 219.445C110.602 219.708 110.819 220.032 110.953 220.393C110.953 220.393 112.193 220.881 112.241 221.655Z" fill="#EFAA88"/>
<path d="M16.5625 424.674C16.5625 424.674 15.9066 429.259 15.8232 429.949C15.7397 430.64 8.47798 429.545 8.47798 429.545L7.88177 424.091C7.88177 424.091 15.6562 424.031 16.5625 424.674Z" fill="#424773"/>
<path d="M15.8947 429.366C17.1926 430.908 18.721 432.242 20.4258 433.319C22.6556 434.51 26.1494 434.998 27.461 436.249C28.4149 437.142 30.9309 441.012 21.6779 440.929C12.4248 440.845 7.97717 441.476 6.98748 440C5.99778 438.523 8.41836 429.056 8.41836 429.056C8.41836 429.056 10.6124 429.878 15.8947 429.366Z" fill="#292C47"/>
<path d="M68.6108 424.674C68.6108 424.674 67.9431 429.259 67.8596 429.949C67.7761 430.64 60.5144 429.545 60.5144 429.545L59.9301 424.091C59.9301 424.091 67.7046 424.031 68.6108 424.674Z" fill="#424773"/>
<path d="M67.9669 429.366C69.2649 430.908 70.7932 432.242 72.4981 433.319C74.7159 434.51 82.9077 435.51 84.2313 436.761C85.1733 437.654 86.7592 441.274 73.7501 440.929C64.509 440.69 60.0494 441.476 59.0597 440C58.07 438.523 60.4906 429.056 60.4906 429.056C60.4906 429.056 62.5296 429.878 67.9669 429.366Z" fill="#292C47"/>
<path d="M22.5841 307.059C22.5841 307.059 15.7517 317.883 16.2644 327.672C16.7771 337.46 13.7842 348.153 12.7587 358.43C11.5663 369.826 6.9398 396.809 6.79671 402.906C6.65362 409.003 7.52408 428.485 7.52408 428.485L16.8844 428.687C16.8844 428.687 24.7543 381.508 26.7814 376.697C28.8085 371.886 38.92 337.567 39.2658 333.709C39.6116 329.851 22.5841 307.059 22.5841 307.059Z" fill="#292C47"/>
<path d="M58.5112 308.524C58.5112 308.524 63.6504 335.352 64.3301 341.342C65.0097 347.332 65.4629 370.338 65.7967 374.077C66.1306 377.816 68.9685 422.971 69.8747 428.687H57.9507C57.9507 428.687 48.7573 395.797 48.7573 380.234C48.7573 364.67 41.6029 346.391 37.0837 336.174C32.5645 325.957 22.0117 325.671 19.1976 306.607C19.138 306.499 54.6955 302.463 58.5112 308.524Z" fill="#292C47"/>
<path d="M33.9716 216.011C33.9716 216.011 43.1292 212.605 47.3503 219.583C51.5714 226.561 51.166 240.493 46.5514 242.208C41.9368 243.923 34.997 243.018 32.6361 238.636C30.2751 234.254 28.1288 227.978 28.2361 223.763C28.3434 219.547 31.5629 217.237 33.9716 216.011Z" fill="#EEA886"/>
<path d="M45.5617 242.506C45.3519 243.734 45.4336 244.994 45.8002 246.186C46.4321 247.376 33.9358 247.376 33.9358 247.376C33.2681 243.259 32.2875 239.199 31.0025 235.23C29.0708 229.633 45.5617 242.506 45.5617 242.506Z" fill="#EEA886"/>
<path d="M31.0025 235.23C31.0025 235.23 31.861 236.647 35.3786 236.099C38.8962 235.552 43.2008 230.872 44.6674 230.348C46.1341 229.824 46.1579 228.978 46.1579 228.978L47.0761 230.324L48.6381 230.419C48.6381 230.419 47.2072 226.228 49.3655 224.525C51.5237 222.822 47.1357 210.986 35.8436 214.927C35.8436 214.927 27.1629 217.309 27.4968 222.239C27.8307 227.168 29.0589 232.777 31.0025 235.23Z" fill="#D88A51"/>
<path d="M46.5037 246.043C46.5037 246.043 46.5037 243.661 45.4066 243.494C44.3096 243.328 33.7569 242.304 32.4572 242.768V245.471C32.4572 245.471 35.0089 247.007 46.5037 246.043Z" fill="#E2D2CA"/>
<path d="M45.9194 227.18C45.7286 226.359 43.6181 224.001 42.8191 226.525C42.0202 229.05 44.0115 232.479 45.2039 232.158C46.3963 231.836 46.4202 229.276 45.9194 227.18Z" fill="#EEA886"/>
<path d="M64.0678 249.567C56.806 248.603 46.5514 245.995 46.5514 245.995L32.5049 245.423C32.5049 245.423 19.6269 248.258 14.6188 250.544C14.13 250.758 14.13 262.023 12.8064 264.976L16.956 273.883C16.956 273.883 19.3408 291.436 19.8893 299.247C20.1277 302.82 14.8812 332.852 14.8812 332.852C19.8645 334.159 24.9444 335.067 30.0724 335.567C39.6116 336.615 63.5908 335.186 63.7458 334.054C63.9008 332.923 59.1074 291.972 58.8927 289.852C58.5708 286.601 60.0851 269.311 60.0851 269.311C62.2911 267.596 81.7153 258.594 87.0096 253.902C88.4286 252.64 94.4144 246.817 96.1195 244.816C102.082 237.671 107.078 231.598 107.674 230.276C108.366 229.538 101.128 225.609 100.52 225.394C99.9114 225.18 91.6957 235.778 88.5716 239.124C86.2865 241.158 83.8986 243.074 81.4172 244.864C81.4172 244.864 68.6108 249.817 64.0678 249.567Z" fill="#323657"/>
<path d="M31.3602 216.832C31.3602 216.832 19.6746 217.749 31.0025 235.23L31.3602 216.832Z" fill="#D88A51"/>
<path d="M110.476 216.654L111.43 215.201L109.677 215.427L110.476 216.654Z" fill="#DFE1E8"/>
<defs>
<linearGradient id="paint0_linear" x1="403.223" y1="45.9172" x2="495.181" y2="45.9172" gradientUnits="userSpaceOnUse">
<stop stop-color="#FFDE98"/>
<stop offset="1" stop-color="#FFD255"/>
</linearGradient>
<linearGradient id="paint1_linear" x1="16740.1" y1="4052.37" x2="18230.5" y2="4052.37" gradientUnits="userSpaceOnUse">
<stop stop-color="#BD462B"/>
<stop offset="1" stop-color="#FFD255"/>
</linearGradient>
<linearGradient id="paint2_linear" x1="30619.6" y1="1145.88" x2="121716" y2="1145.88" gradientUnits="userSpaceOnUse">
<stop stop-color="#F2C25B"/>
<stop offset="1" stop-color="#FFD255"/>
</linearGradient>
</defs>
</svg>
