<svg width="79" height="79" viewBox="0 0 79 79" fill="none" xmlns="http://www.w3.org/2000/svg">
<g clip-path="url(#clip0)">
<path d="M62.3858 27.5447H73.5241C76.5492 27.5447 79 30.0236 79 33.0792V54.6992V60.8574V68.6139C79 70.2122 76.9897 70.8928 76.0389 69.616L69.5015 60.8574H35.7472C32.7221 60.8574 30.2712 58.3804 30.2712 55.3249V51.3672" fill="#FECE85"/>
<path d="M55.3761 8.71777H7.00971C3.1384 8.71777 0 11.8897 0 15.8023V43.4813V51.3664V61.296C0 63.342 2.57398 64.2134 3.79215 62.5797L12.1617 51.3664H55.3761C59.2474 51.3664 62.3856 48.1945 62.3856 44.2818V15.8023C62.3856 11.8897 59.2474 8.71777 55.3761 8.71777Z" fill="#FEC165"/>
<path d="M33.4878 21.9556H11.2547C10.5961 21.9556 10.0626 21.4214 10.0626 20.7624C10.0626 20.1034 10.5963 19.5692 11.2547 19.5692H33.4879C34.1465 19.5692 34.68 20.1034 34.68 20.7624C34.68 21.4214 34.1463 21.9556 33.4878 21.9556Z" fill="#FFF2E2"/>
<path d="M55.3761 8.71777H53.2155C50.3201 29.253 33.1146 45.0295 12.3189 45.0295C8.02853 45.0295 3.8909 44.3577 0 43.1115V43.4813V51.3664V61.296C0 63.342 2.57398 64.2134 3.79215 62.5797L12.1617 51.3664H55.3759C59.2472 51.3664 62.3855 48.1945 62.3855 44.2818V15.8023C62.3856 11.8897 59.2474 8.71777 55.3761 8.71777Z" fill="#FEA613"/>
<path d="M45.1154 31.3691H11.2547C10.5961 31.3691 10.0626 30.835 10.0626 30.176C10.0626 29.517 10.5963 28.9828 11.2547 28.9828H45.1156C45.7741 28.9828 46.3077 29.517 46.3077 30.176C46.3077 30.835 45.774 31.3691 45.1154 31.3691Z" fill="#FFF2E2"/>
<path d="M40.5157 40.783H11.2547C10.5961 40.783 10.0626 40.2488 10.0626 39.5898C10.0626 38.9308 10.5963 38.3966 11.2547 38.3966H40.5157C41.1742 38.3966 41.7078 38.9308 41.7078 39.5898C41.7078 40.2488 41.1741 40.783 40.5157 40.783Z" fill="#FFF2E2"/>
</g>
<defs>
<clipPath id="clip0">
<rect width="79" height="79" fill="white"/>
</clipPath>
</defs>
</svg>
