<svg width="371" height="230" viewBox="0 0 371 230" fill="none" xmlns="http://www.w3.org/2000/svg">
<path d="M156.64 38.94C156.861 38.94 157.04 38.7609 157.04 38.54C157.04 38.3191 156.861 38.14 156.64 38.14C156.419 38.14 156.24 38.3191 156.24 38.54C156.24 38.7609 156.419 38.94 156.64 38.94Z" fill="#D1D1E8"/>
<path d="M67.73 20.9999C67.73 20.9999 76.47 15.2999 78.4 15.7399C80.33 16.1799 88.89 16.8399 88.18 17.8199C87.47 18.7999 82.89 18.6799 82.28 19.9699C81.67 21.2599 84 23.9999 84 23.9999C84 23.9999 86.63 26.9499 87.84 27.2499C89.05 27.5499 98.61 27.6599 97.04 28.4799C95.47 29.2999 86.63 32.4799 84.04 31.5899C81.0561 30.2906 78.1803 28.7558 75.44 26.9999C75.18 26.7999 69.93 28.9999 69.93 28.9999L67.73 20.9999Z" fill="#F0BFAC"/>
<path d="M0.200001 10.72C9.2 17.41 19.37 24.72 21 24.72C24 24.72 68.24 15.72 68.24 15.72C68.24 15.72 76.91 29.77 72.13 33.36C72.13 33.36 18.6 48.01 16.21 46.22C15.34 45.57 8.53 43.71 0.210001 41.61L0.200001 10.72Z" fill="url(#paint0_linear)"/>
<rect x="90.3101" y="0.0880127" width="59" height="42" rx="6.18" transform="rotate(20.28 90.3101 0.0880127)" fill="#E8E8E8"/>
<path d="M82.2 21.9999C81.8672 21.3669 81.8977 20.6044 82.28 19.9999C82.89 18.7099 87.48 18.8299 88.18 17.8499C88.88 16.8699 82.27 16.3799 79.37 15.9399C79.79 18.4499 80.43 20.3899 82.2 21.9999Z" fill="#F0BFAC"/>
<path d="M101.19 22.68L98.66 23.1L98.78 21.72L101.95 21.22L103.36 21.71L99.08 33.93L97.48 33.37L101.19 22.68Z" fill="black"/>
<path fill-rule="evenodd" clip-rule="evenodd" d="M107.35 36.9999C110.07 37.9199 112.4 36.1599 113.85 31.9999C115.2 28.1399 114.4 25.2799 111.94 24.4199C109.48 23.5599 106.84 25.2499 105.48 29.3099C104.12 33.3699 104.96 36.1699 107.35 36.9999ZM107.89 35.7399C106.38 35.2099 106.03 33.0699 107.13 29.8799V29.9199C108.29 26.5899 110 25.1899 111.41 25.6499C113.16 26.2399 113.24 28.3799 112.16 31.4999C111.08 34.6199 109.59 36.3199 107.89 35.7399Z" fill="black"/>
<path fill-rule="evenodd" clip-rule="evenodd" d="M117.01 40.3799C119.72 41.3099 122.06 39.5399 123.51 35.3799C124.86 31.4799 124.06 28.6499 121.6 27.7899C119.14 26.9299 116.5 28.6299 115.14 32.6899C113.78 36.7499 114.62 39.5499 117.01 40.3799ZM117.55 39.1199C116.04 38.5999 115.69 36.4499 116.79 33.2699C118 29.9399 119.61 28.5299 121.06 29.0299C122.82 29.6299 122.9 31.7499 121.82 34.8799C120.74 38.0099 119.25 39.7099 117.55 39.1199Z" fill="black"/>
<path d="M37.93 133.26C37.93 133.26 41.59 123.48 43.39 122.7C45.19 121.92 52.49 117.36 52.51 118.56C52.53 119.76 48.76 122.39 49.03 123.8C49.3 125.21 52.75 126 52.75 126C52.75 126 56.62 126.82 57.75 126.34C58.88 125.86 66.67 120.28 65.89 121.87C65.11 123.46 59.89 131.24 57.27 132.09C54.1172 132.827 50.9102 133.308 47.68 133.53C47.35 133.53 44.43 138.41 44.43 138.41L37.93 133.26Z" fill="#F0BFAC"/>
<path d="M0 164.55C0.869804 164.522 1.72723 164.336 2.53 164C4.94 162.23 35.24 128.75 35.24 128.75C35.24 128.75 50.56 134.91 48.84 140.64C48.84 140.64 14.45 184.2 11.46 184.17C10.58 184.17 6.1 185.83 0.2 188.17L0 164.55Z" fill="url(#paint1_linear)"/>
<rect x="43.6832" y="103.029" width="59" height="42" rx="6.18" transform="rotate(-16.12 43.6832 103.029)" fill="#E8E8E8"/>
<path d="M50.2 125C49.36 124.63 49.15 124.45 49.03 123.79C48.76 122.38 52.52 119.79 52.51 118.55C52.5 117.31 46.87 120.88 44.28 122.25C45.8437 123.87 47.9538 124.85 50.2 125Z" fill="#F0BFAC"/>
<path d="M65.58 126.69L65.26 125.69L66.18 124C68.4 120 69.33 118 68.77 116.1C68.6309 115.412 68.1863 114.824 67.5618 114.503C66.9373 114.182 66.2006 114.162 65.56 114.45C64.6025 114.787 63.7903 115.444 63.26 116.31L62.36 115.31C63.0883 114.185 64.1894 113.353 65.47 112.96C66.4387 112.562 67.5317 112.599 68.4711 113.062C69.4104 113.525 70.1057 114.369 70.38 115.38C71.09 117.66 70.01 120.02 68.18 123.38L67.48 124.6L73 122.84L73.44 124.23L65.58 126.69Z" fill="black"/>
<path fill-rule="evenodd" clip-rule="evenodd" d="M79.33 122.63C82.07 121.77 82.9 118.97 81.59 114.77C80.37 110.83 78.06 109.01 75.55 109.78C73.04 110.55 71.95 113.47 73.26 117.55C74.57 121.63 76.91 123.39 79.33 122.63ZM79.02 121.31C77.49 121.78 75.94 120.27 74.94 117.05C73.89 113.68 74.4 111.56 75.86 111.11C77.59 110.57 78.95 112.21 79.94 115.37C80.93 118.53 80.73 120.78 79.02 121.31Z" fill="black"/>
<path fill-rule="evenodd" clip-rule="evenodd" d="M89.08 119.6C91.82 118.73 92.66 115.93 91.35 111.73C90.13 107.79 87.82 105.97 85.31 106.74C82.8 107.51 81.71 110.42 83.02 114.51C84.33 118.6 86.67 120.35 89.08 119.6ZM88.78 118.26C87.25 118.74 85.69 117.22 84.69 114C83.65 110.64 84.15 108.52 85.62 108.06C87.35 107.52 88.71 109.16 89.7 112.32C90.69 115.48 90.49 117.73 88.78 118.26Z" fill="black"/>
<path d="M337.27 128.26C337.27 128.26 333.62 118.48 331.81 117.7C330 116.92 322.71 112.36 322.69 113.56C322.67 114.76 326.45 117.39 326.17 118.8C325.89 120.21 322.45 120.98 322.45 120.98C322.45 120.98 318.58 121.8 317.45 121.32C316.32 120.84 308.53 115.26 309.31 116.85C310.09 118.44 315.31 126.22 317.93 127.07C321.086 127.807 324.297 128.289 327.53 128.51C327.85 128.51 330.77 133.39 330.77 133.39L337.27 128.26Z" fill="#F0BFAC"/>
<path d="M370.2 156.59C362.41 148.59 339.96 123.75 339.96 123.75C339.96 123.75 324.64 129.91 326.37 135.64C326.37 135.64 360.75 179.2 363.74 179.17C365.954 179.684 368.117 180.4 370.2 181.31V156.59Z" fill="url(#paint2_linear)"/>
<rect x="319.857" y="138.362" width="59" height="42" rx="6.18" transform="rotate(-163.88 319.857 138.362)" fill="#E8E8E8"/>
<path d="M325.2 121C326.04 120.63 326.05 119.45 326.2 118.79C326.48 117.38 322.71 114.79 322.72 113.55C322.73 112.31 328.36 115.88 330.95 117.25C329.08 119 327.58 120.76 325.2 121Z" fill="#F0BFAC"/>
<path d="M282.56 111.8C283.291 112.497 284.19 112.993 285.17 113.24C287.36 113.74 288.36 112.5 288.59 111.45C288.97 109.67 287.59 108.55 285.9 108.17L285 108L285.3 106.72L286.25 106.94C287.49 107.23 289.25 106.94 289.55 105.45C289.79 104.45 289.35 103.4 287.78 103.04C286.868 102.859 285.924 102.946 285.06 103.29L284.9 101.95C286.026 101.529 287.252 101.456 288.42 101.74C290.91 102.31 291.7 104.04 291.35 105.58C291.003 106.968 289.78 107.959 288.35 108.01C289.911 108.613 290.795 110.267 290.43 111.9C289.96 113.9 287.98 115.33 284.95 114.63C283.796 114.385 282.73 113.828 281.87 113.02L282.56 111.8Z" fill="black"/>
<path fill-rule="evenodd" clip-rule="evenodd" d="M295.61 117.09C298.41 117.73 300.53 115.72 301.53 111.43C302.45 107.41 301.38 104.67 298.82 104.08C296.26 103.49 293.85 105.46 292.93 109.64C292.01 113.82 293.15 116.52 295.61 117.09ZM296.01 115.79C294.46 115.43 293.88 113.33 294.63 110.05C295.42 106.61 296.93 105 298.42 105.38C300.19 105.79 300.54 107.9 299.8 111.12C299.06 114.34 297.76 116.19 296.01 115.79Z" fill="black"/>
<path fill-rule="evenodd" clip-rule="evenodd" d="M305.58 119.37C308.37 120.01 310.49 118.01 311.49 113.72C312.42 109.7 311.34 106.96 308.78 106.37C306.22 105.78 303.81 107.75 302.89 111.93C301.97 116.11 303.11 118.81 305.58 119.37ZM305.98 118.07C304.42 117.72 303.84 115.62 304.59 112.34C305.38 108.9 306.89 107.32 308.38 107.67C310.15 108.07 310.56 110.17 309.77 113.4C308.98 116.63 307.72 118.47 305.98 118.07Z" fill="black"/>
<path d="M323.55 27.3199C323.55 27.3199 315.93 20.2099 313.96 20.3199C311.99 20.4299 303.43 19.5999 303.96 20.6899C304.49 21.7799 309.03 22.4399 309.42 23.8199C309.81 25.1999 307.06 27.4299 307.06 27.4299C307.06 27.4299 304 29.8799 302.71 29.9999C301.42 30.1199 292.02 28.5499 293.42 29.6299C294.82 30.7099 303 35.3299 305.7 34.9199C308.852 34.1691 311.939 33.1659 314.93 31.9199C315.22 31.7699 320.01 34.8299 320.01 34.8299L323.55 27.3199Z" fill="#F0BFAC"/>
<path d="M370.2 38.83C369.813 38.9566 369.407 39.0142 369 39C366.06 38.49 324 22 324 22C324 22 313 34.44 317.09 38.79C317.09 38.79 367.21 61.05 370.2 61.01V38.83Z" fill="url(#paint3_linear)"/>
<rect x="312.489" y="44.1476" width="59" height="42" rx="6.18" transform="rotate(169.62 312.489 44.1476)" fill="#E8E8E8"/>
<path d="M309.2 26C309.644 25.3519 309.724 24.5205 309.41 23.8C309.02 22.42 304.48 21.8 303.95 20.67C303.42 19.54 310.04 20.23 312.95 20.3C312.12 22.72 311.22 24.72 309.2 26Z" fill="#F0BFAC"/>
<path d="M272.13 26.09L267.33 27.25L267.63 30.6C267.955 30.4666 268.289 30.3563 268.63 30.27C269.57 30.0145 270.56 30.0145 271.5 30.27C272.814 30.6513 273.807 31.7297 274.08 33.07C274.68 35.53 273.16 37.84 270.43 38.5C269.343 38.7939 268.197 38.7939 267.11 38.5L267.22 37.1C268.158 37.3391 269.142 37.3391 270.08 37.1C270.856 36.9704 271.545 36.5277 271.986 35.8754C272.427 35.2231 272.58 34.4185 272.41 33.65C271.99 32.02 270.63 31.12 268.11 31.73C267.529 31.8806 266.958 32.0677 266.4 32.29L265.75 26.05L271.75 24.59L272.13 26.09Z" fill="black"/>
<path fill-rule="evenodd" clip-rule="evenodd" d="M281.29 35.9099C284.06 35.2099 285.06 32.4899 284.06 28.2099C283.1 24.1999 280.92 22.2299 278.36 22.8399C275.8 23.4499 274.51 26.2999 275.56 30.4499C276.61 34.5999 278.83 36.4999 281.29 35.9099ZM281.07 34.5699C279.52 34.9399 278.06 33.3299 277.27 30.0499C276.44 26.6299 277.09 24.5399 278.58 24.1799C280.38 23.7599 281.61 25.4899 282.38 28.6999C283.15 31.9099 282.81 34.1499 281.07 34.5699Z" fill="black"/>
<path fill-rule="evenodd" clip-rule="evenodd" d="M291.23 33.51C294 32.81 295 30.09 294 25.81C293 21.8 290.86 19.83 288.3 20.44C285.74 21.05 284.46 23.9 285.5 28.05C286.54 32.2 288.77 34.1 291.23 33.51ZM291.01 32.17C289.46 32.54 288 30.93 287.21 27.65C286.38 24.23 287 22.14 288.52 21.78C290.31 21.36 291.53 23.09 292.31 26.3C293.09 29.51 292.75 31.75 291.01 32.17Z" fill="black"/>
<path opacity="0.59" d="M159.2 109C157.52 109.81 195.09 189.06 195.09 189.06L214.2 111C214.2 111 209.2 107 204.2 105.66C191.91 102.39 167.3 105.08 159.2 109Z" fill="white"/>
<path d="M168.73 87.8499C161.373 77.2542 158.895 64.0196 161.92 51.4799C162.184 49.9511 162.878 48.529 163.92 47.3799C165 46.3299 167 45.9999 168.08 46.9999C173.764 40.3354 181.229 35.4273 189.6 32.8499C191.233 32.2424 192.969 31.9637 194.71 32.0299C196.478 32.1207 198.087 33.0788 199.01 34.5899C199.868 36.1754 199.353 38.1547 197.83 39.1199C200.893 37.493 204.139 36.2375 207.5 35.3799C208.707 34.9761 210.029 35.1109 211.13 35.7499C212.48 36.7499 212.4 38.9299 211.42 40.2999C210.317 41.5861 208.901 42.5674 207.31 43.1499C208.302 42.7422 209.358 42.512 210.43 42.4699C211.522 42.4377 212.55 42.9805 213.14 43.8999C214.14 45.6799 212.47 47.7599 210.8 48.8999C206.55 51.8299 201.39 53.0899 196.29 53.8999C191.19 54.7099 186 54.9099 181 56.1499C179.3 56.4429 177.719 57.2128 176.44 58.3699C174.44 60.4899 174.61 63.7799 174.98 66.6699C175.49 70.7399 176.13 74.8699 175.55 78.9399C174.97 83.0099 172.91 87.0899 169.29 89.0399" fill="#A6613B"/>
<path d="M169.2 107.49L168.93 82.7199C168.93 82.7199 164.12 83.6199 162.44 80.0099C160.76 76.3999 164.44 67.5599 171.99 73.0099L169.88 52.4799L204.24 50.1199C204.24 50.1199 213.76 97.3399 192.66 98.7899L193.35 108.79C193.35 108.79 180.13 120.64 169.2 107.49Z" fill="#F0BFAC"/>
<path d="M195.73 98.4299C194.641 98.7206 193.525 98.9015 192.4 98.9699C191.179 99.0736 189.951 99.0736 188.73 98.9699C187.237 98.8099 185.762 98.5187 184.32 98.0999C182.885 97.6565 181.495 97.0772 180.17 96.3699C179.091 95.7929 178.064 95.1238 177.1 94.3699C176.199 93.6656 175.371 92.8715 174.63 91.9999L174.81 92.1499L175.3 92.6099C175.899 93.173 176.53 93.7006 177.19 94.1899C178.158 94.9377 179.185 95.6065 180.26 96.1899C181.581 96.8752 182.96 97.444 184.38 97.8899C185.809 98.3068 187.271 98.6012 188.75 98.7699C189.959 98.8933 191.176 98.9201 192.39 98.8499C193.211 98.8087 194.029 98.7219 194.84 98.5899L195.5 98.4799C195.574 98.452 195.651 98.4352 195.73 98.4299Z" fill="#1B1A51"/>
<path d="M183 58.48C183.1 59 182 59.66 180.47 59.95C178.94 60.24 177.67 60.05 177.57 59.53C177.47 59.01 178.57 58.35 180.1 58.06C181.63 57.77 182.9 58 183 58.48Z" fill="#A6613B"/>
<path d="M201.81 57.25C201.81 57.78 200.81 58.14 199.6 58.06C198.39 57.98 197.49 57.47 197.52 56.94C197.55 56.41 198.52 56.05 199.74 56.13C200.96 56.21 201.85 56.72 201.81 57.25Z" fill="#A6613B"/>
<path d="M167.61 79.2199C167.97 78.9456 168.244 78.5744 168.4 78.1499C168.566 77.7015 168.566 77.2084 168.4 76.7599C168.228 76.2208 167.703 75.8749 167.14 75.9299C166.918 75.9641 166.722 76.0963 166.608 76.2901C166.494 76.4839 166.472 76.7188 166.55 76.9299L166.21 77.0599C165.994 76.0735 165.87 75.0692 165.84 74.0599C166.175 75.0354 166.419 76.0396 166.57 77.0599L166.77 78.0599L166.24 77.1999C166.074 76.876 166.077 76.4919 166.246 76.1698C166.415 75.8477 166.729 75.6278 167.09 75.5799C167.466 75.5362 167.845 75.6362 168.15 75.8599C168.418 76.068 168.619 76.3494 168.73 76.6699C168.933 77.1873 168.933 77.7625 168.73 78.2799C168.596 78.6236 168.358 78.9172 168.05 79.1199C167.77 79.2199 167.62 79.2399 167.61 79.2199Z" fill="#1B1A51"/>
<path d="M190.08 78.3799C190.306 78.5041 190.548 78.595 190.8 78.6499C191.481 78.7459 192.172 78.5659 192.72 78.1499C193.221 77.5695 193.381 76.7682 193.14 76.0399L192.73 73.2299C192.46 71.2299 192.24 69.4399 192.12 68.1299C191.997 67.4301 191.973 66.7164 192.05 66.0099C192.325 66.6803 192.497 67.3883 192.56 68.1099C192.8 69.4099 193.08 71.2099 193.35 73.1999C193.47 74.1399 193.59 75.0499 193.71 75.9999C193.941 76.8334 193.699 77.7264 193.08 78.3299C192.396 78.8063 191.545 78.9766 190.73 78.7999C190.14 78.6399 190.05 78.3799 190.08 78.3799Z" fill="#251A51"/>
<path d="M200.28 66.8499C199.81 66.9599 199.23 66.1699 198.99 65.0999C198.75 64.0299 198.93 63.0999 199.41 62.9599C199.89 62.8199 200.46 63.6399 200.7 64.7099C200.94 65.7799 200.76 66.7399 200.28 66.8499Z" fill="#251A51"/>
<path d="M182.74 68.7899C182.28 68.9299 181.65 68.1599 181.36 67.0899C181.07 66.0199 181.2 65.0899 181.66 64.9099C182.12 64.7299 182.75 65.5399 183.05 66.6199C183.35 67.6999 183.21 68.6699 182.74 68.7899Z" fill="#251A51"/>
<path d="M166.2 107C165.78 106.06 165.2 98.9999 165.2 98.9999C165.2 98.9999 180.48 95.6399 185.2 111C185.2 111 191.45 101.64 196.2 99.9999L196.26 106.24L195.26 115.88L185.17 119.88L173.32 118.13L166.2 107Z" fill="white"/>
<path d="M185.2 111.01L183.2 118.01L186.92 122.65L188.2 116.01L185.2 111.01Z" fill="#1B1A51"/>
<path d="M185.99 121.31L179.2 146.01L190.81 172.05L196.2 148.01L187.4 120.35L185.99 121.31Z" fill="#1B1A51"/>
<path d="M159.2 109C161.44 108.06 163.69 107.17 165.95 106.27L165.89 106.37C165.61 103.92 165.33 101.47 165.1 99.01V98.9H165.21C166.742 98.82 168.278 98.82 169.81 98.9C170.575 98.9366 171.337 99.0235 172.09 99.16C172.856 99.2561 173.587 99.5376 174.22 99.98C173.578 99.5639 172.843 99.3131 172.08 99.25C171.32 99.14 170.56 99.08 169.8 99.04C168.28 98.97 166.75 99.04 165.22 99.04L165.32 98.93C165.62 101.38 165.86 103.84 166.1 106.29V106.36H166.03C163.75 107.32 161.48 108.19 159.2 109Z" fill="#D8D8D8"/>
<path d="M166.04 106.56L178.2 122.01L166.04 106.56Z" fill="white"/>
<path d="M166 106.56C168.11 109.07 170.12 111.66 172.18 114.21C174.24 116.76 176.18 119.37 178.18 122.01C176.07 119.5 174.06 116.91 172 114.36C169.94 111.81 168 109.2 166 106.56Z" fill="#D8D8D8"/>
<path d="M183.2 118.01L178.2 122.01L183.2 118.01Z" fill="white"/>
<path d="M183.2 118C182.43 118.75 181.6 119.42 180.78 120.1C179.96 120.78 179.1 121.41 178.2 122C178.97 121.25 179.8 120.58 180.62 119.9C181.44 119.22 182.3 118.6 183.2 118Z" fill="#D8D8D8"/>
<path d="M187.2 83.9999C187.2 83.9999 197.2 83.9999 198.2 82.9999L187.2 83.9999Z" fill="#1B1A51"/>
<path d="M187.4 83.28C187.46 83.28 187.28 83.69 187.4 84.15C187.52 84.61 187.88 84.84 187.84 84.91C187.8 84.98 187.71 84.91 187.56 84.81C187.361 84.6653 187.216 84.4573 187.15 84.22C187.072 83.9897 187.072 83.7403 187.15 83.51C187.28 83.33 187.37 83.26 187.4 83.28Z" fill="#1B1A51"/>
<path d="M240.2 135C239.98 124.08 236.78 113.23 226.2 110.7L202.2 105L189.2 160L159.2 109L141.31 117H141.2C141.2 117 140.77 117.21 140.07 117.61L139.2 118V118.1C136.07 119.94 130.06 123.95 127.2 129C123.2 136 132.2 182 133.2 188C134.13 193.61 139.44 212.32 144.2 218.82L142.2 230H232.2L231.2 215L230.2 190L237.2 176L240.2 135Z" fill="#BD462B"/>
<path d="M189.2 161C188.436 160.715 187.691 160.381 186.97 160C184.975 158.939 183.145 157.591 181.54 156C179.091 153.611 177.119 150.777 175.73 147.65C173.973 143.773 173.174 139.53 173.4 135.28L173.56 135.49L172.78 135.33C168.635 134.391 164.915 132.11 162.2 128.84C159.943 126.105 158.443 122.826 157.85 119.33C157.438 116.978 157.438 114.572 157.85 112.22C157.989 111.365 158.206 110.525 158.5 109.71C158.465 109.932 158.419 110.153 158.36 110.37C158.206 110.99 158.086 111.617 158 112.25C157.652 114.574 157.692 116.939 158.12 119.25C158.733 122.683 160.232 125.896 162.47 128.57C165.128 131.797 168.777 134.057 172.85 135L173.61 135.15H173.78V135.32C173.559 139.509 174.337 143.691 176.05 147.52C177.406 150.615 179.333 153.428 181.73 155.81C183.306 157.383 185.093 158.729 187.04 159.81C187.71 160.23 188.29 160.44 188.65 160.64C188.843 160.745 189.026 160.866 189.2 161Z" fill="#1B1A51"/>
<path d="M188.62 160.76L189.2 160.47C189.59 160.28 190.2 160.05 190.88 159.65C192.928 158.612 194.826 157.3 196.52 155.75C199.06 153.421 201.13 150.627 202.62 147.52C203.522 145.691 204.275 143.791 204.87 141.84C205.01 141.33 205.16 140.84 205.31 140.3C205.406 139.786 205.426 139.26 205.37 138.74C205.239 137.656 204.991 136.59 204.63 135.56C204.277 134.495 203.866 133.45 203.4 132.43L203.32 132.25L203.48 132.15C205.22 131.15 206.88 130.06 208.48 128.99C209.996 128.001 211.395 126.844 212.65 125.54C214.458 123.044 215.704 120.184 216.3 117.16C216.705 115.14 216.84 113.075 216.7 111.02C216.63 110.3 216.58 109.74 216.51 109.36C216.476 109.168 216.456 108.975 216.45 108.78C216.64 109.508 216.77 110.251 216.84 111C217.046 113.073 216.952 115.164 216.56 117.21C215.997 120.301 214.754 123.229 212.92 125.78C211.65 127.115 210.23 128.299 208.69 129.31C207.123 130.397 205.457 131.463 203.69 132.51L203.77 132.24C204.255 133.273 204.676 134.335 205.03 135.42C205.397 136.48 205.652 137.576 205.79 138.69C205.848 139.257 205.821 139.83 205.71 140.39L205.26 141.95C204.651 143.921 203.886 145.841 202.97 147.69C201.444 150.827 199.325 153.639 196.73 155.97C195.008 157.508 193.079 158.797 191 159.8C190.23 160.174 189.434 160.495 188.62 160.76Z" fill="#1B1A51"/>
<path d="M204.2 208.51C204.834 208.247 205.514 208.118 206.2 208.13C206.885 208.121 207.566 208.25 208.2 208.51C207.566 208.771 206.885 208.897 206.2 208.88C205.515 208.895 204.834 208.769 204.2 208.51H204.2Z" fill="#1B1A51"/>
<path d="M159.09 193.88C159.09 194.88 159.04 195.88 159.09 196.82C159.109 197.298 159.17 197.773 159.27 198.24C159.372 198.713 159.573 199.16 159.86 199.55C159.398 199.282 159.044 198.861 158.86 198.36C158.664 197.88 158.558 197.368 158.55 196.85C158.52 196.342 158.55 195.831 158.64 195.33C158.729 194.83 158.88 194.343 159.09 193.88Z" fill="#1B1A51"/>
<path d="M224.2 211C224.2 211 222.2 211 223.2 212C224.2 213 231.28 210.67 231.28 210.67L229.2 208L224.2 211Z" fill="#CC9989"/>
<path d="M206.7 195.51C206.7 195.51 212.7 195.51 214.7 194.51C216.7 193.51 227.7 191.51 229.7 192.51C231.7 193.51 233.7 209.51 231.7 210.51C229.7 211.51 229.7 209.51 228.7 209.51C227.7 209.51 220.7 214.51 207.7 211.51C194.7 208.51 206.7 195.51 206.7 195.51Z" fill="#F0BFAC"/>
<path d="M154.08 194H207.74C208.959 196.162 209.75 198.539 210.07 201C210.45 203.3 210.07 210.33 207.74 211.89C205.41 213.45 200.74 211.11 196.85 214.22C192.96 217.33 179.74 218.11 179.74 218.11C179.74 218.11 152.86 219.86 143.17 217.79" fill="#BD462B"/>
<path d="M154.08 194C163.02 193.94 171.96 193.86 180.91 193.85L207.74 193.79H207.86V193.88C208.747 195.443 209.401 197.128 209.8 198.88C210.031 199.744 210.202 200.622 210.31 201.51C210.37 202.399 210.37 203.291 210.31 204.18C210.254 205.967 209.965 207.738 209.45 209.45C209.203 210.345 208.736 211.163 208.09 211.83C207.355 212.424 206.435 212.743 205.49 212.73C203.741 212.658 201.99 212.719 200.25 212.91C199.402 213.051 198.586 213.342 197.84 213.77C197.45 213.97 197.14 214.25 196.76 214.49C196.393 214.755 196.005 214.989 195.6 215.19C193.978 215.931 192.277 216.484 190.53 216.84C188.8 217.22 187.06 217.51 185.31 217.74C181.8 218.22 178.31 218.39 174.75 218.55C171.19 218.71 167.75 218.83 164.17 218.89C160.59 218.95 157.12 218.95 153.59 218.82C150.063 218.762 146.545 218.428 143.07 217.82C146.552 218.38 150.073 218.671 153.6 218.69C157.12 218.76 160.6 218.69 164.17 218.69C167.74 218.69 171.17 218.47 174.73 218.29C178.29 218.11 181.73 217.93 185.26 217.43C187 217.19 188.74 216.9 190.45 216.51C192.175 216.162 193.854 215.611 195.45 214.87C196.22 214.51 196.86 213.87 197.66 213.46C198.446 213.004 199.305 212.689 200.2 212.53C201.962 212.323 203.737 212.25 205.51 212.31C206.339 212.322 207.147 212.051 207.8 211.54C208.371 210.92 208.786 210.173 209.01 209.36C209.522 207.692 209.811 205.964 209.87 204.22C209.935 203.351 209.935 202.479 209.87 201.61C209.763 200.748 209.603 199.893 209.39 199.05C209.006 197.352 208.38 195.719 207.53 194.2L207.71 194.29L180.88 194.23C172 194.15 163 194.07 154.08 194Z" fill="#1B1A51"/>
<path d="M201.48 194C202.693 196.883 203.435 199.942 203.68 203.06C203.823 204.633 203.746 206.218 203.45 207.77C203.186 209.337 202.494 210.801 201.45 212C202.221 210.674 202.699 209.197 202.85 207.67C203.025 206.156 203.045 204.628 202.91 203.11C202.81 201.59 202.6 200.11 202.35 198.55C202.1 196.99 201.82 195.53 201.48 194Z" fill="#1B1A51"/>
<path d="M155.7 147.51C156.45 151.33 157.19 155.15 157.89 158.98L159.94 170.47V170.52L159.58 182.2C159.44 186.093 159.273 189.987 159.08 193.88C159.08 189.98 159.08 186.08 159.19 182.19L159.44 170.5V170.55L157.51 159C156.883 155.187 156.28 151.357 155.7 147.51Z" fill="#1B1A51"/>
<path opacity="0.52" d="M210 119.79C211.232 118.79 211.532 117.031 210.7 115.68C209.328 113.567 208.156 111.331 207.2 109C206.364 106.04 205.696 103.035 205.2 99.9999C205.2 99.9999 204.2 93.9999 202.2 92.9999C200.59 92.1899 194.2 89.9999 192.2 89.9999C190.496 90.5686 188.826 91.2364 187.2 91.9999C184.37 92.9999 182.2 94.9999 179.2 97.9999C177.617 99.8219 176.273 101.838 175.2 104C174.59 105 174.35 105.13 175.2 106C175.83 106.63 178.45 105.27 180.3 104.18C181.466 103.499 182.935 103.632 183.96 104.51L187.77 107.78C188.693 108.56 189.35 109.609 189.65 110.78L190.1 112.58C190.168 112.832 190.262 113.077 190.38 113.31L196.94 125.55C197.379 126.395 198.175 126.998 199.108 127.192C200.04 127.386 201.01 127.15 201.75 126.55L210 119.79Z" fill="#CC9989"/>
<path d="M210 120.79C211.232 119.79 211.532 118.031 210.7 116.68C209.328 114.567 208.156 112.331 207.2 110C206.364 107.04 205.696 104.035 205.2 101C205.2 101 204.2 93.9999 202.2 92.9999C200.59 92.1899 194.2 90.9999 192.2 90.9999C190.496 91.5686 188.826 92.2364 187.2 92.9999C184.37 93.9999 182.2 95.9999 179.2 98.9999C177.621 100.477 176.176 102.09 174.88 103.82C174.242 104.812 174.362 106.111 175.17 106.97C175.8 107.6 178.42 106.24 180.27 105.15C181.436 104.469 182.905 104.602 183.93 105.48L187.74 108.75C188.663 109.53 189.32 110.579 189.62 111.75L190.07 113.55C190.138 113.802 190.232 114.047 190.35 114.28L196.91 126.52C197.349 127.365 198.145 127.968 199.078 128.162C200.01 128.356 200.98 128.12 201.72 127.52L210 120.79Z" fill="#F0BFAC"/>
<path d="M197.44 113.1C196.4 114.409 194.726 115.043 193.08 114.75C191.27 114.43 189.2 113.69 189.2 112.01C189.2 109.01 194.84 105.01 196.73 106.01C198.62 107.01 199.55 109.01 199.08 110.51C198.668 111.451 198.115 112.325 197.44 113.1Z" fill="#CC9989"/>
<path d="M196.2 96C196.2 96 191.2 95.63 189.2 97C187.2 98.37 177.97 104.73 178.73 107C179.114 108.257 180.332 109.069 181.64 108.94L191.64 102.1L198.09 101.26" fill="#F0BFAC"/>
<path d="M196.2 95.9999C195.128 95.925 194.052 95.925 192.98 95.9999C191.915 96.0597 190.865 96.2858 189.87 96.6699C189.389 96.8983 188.933 97.1765 188.51 97.4999L187.2 98.4399C186.33 99.0599 185.47 99.6999 184.63 100.36C182.914 101.644 181.321 103.083 179.87 104.66C179.522 105.066 179.229 105.516 179 106C178.885 106.219 178.823 106.462 178.82 106.71C178.862 106.958 178.95 107.195 179.08 107.41C179.572 108.343 180.58 108.885 181.63 108.78L191.7 101.98L198.16 101.2L191.72 102.1L181.72 108.98C180.576 109.097 179.473 108.518 178.92 107.51C178.779 107.258 178.681 106.984 178.63 106.7C178.634 106.412 178.702 106.128 178.83 105.87C179.087 105.387 179.403 104.937 179.77 104.53C181.236 102.95 182.85 101.513 184.59 100.24C185.44 99.5899 186.31 98.9499 187.18 98.3299L188.5 97.4099C188.933 97.0823 189.399 96.8008 189.89 96.5699C190.891 96.2219 191.94 96.0297 193 95.9999C194.065 95.9259 195.135 95.9259 196.2 95.9999Z" fill="#BC8271"/>
<path d="M197.2 99.9999C197.2 99.9999 192.98 99.9999 191.2 101C189.42 102 183.39 105.8 183.77 107.9C183.872 109.038 184.79 109.93 185.93 110L194.85 105H198.2" fill="#F0BFAC"/>
<path d="M197.2 100C195.547 100.03 193.903 100.248 192.3 100.65C191.517 100.9 190.778 101.272 190.11 101.75C189.41 102.18 188.73 102.64 188.05 103.12C186.684 104.036 185.458 105.144 184.41 106.41C183.18 107.65 184.32 109.86 185.93 109.89H185.88L194.82 104.89L198.17 104.95L194.82 105.01L185.93 110.01C185.053 109.947 184.284 109.404 183.93 108.6C183.729 108.209 183.646 107.768 183.69 107.33C183.798 106.908 183.992 106.513 184.26 106.17C185.333 104.892 186.586 103.777 187.98 102.86C188.66 102.39 189.35 101.93 190.06 101.5C190.743 101.018 191.5 100.65 192.3 100.41C193.909 100.063 195.556 99.9252 197.2 100Z" fill="#BC8271"/>
<path d="M212.69 118.42C212.69 118.42 236.34 167.3 236.69 176.51C236.69 176.51 232.59 204.38 218.37 198.74C204.15 193.1 203.8 172.74 203.8 172.74L190.31 118.44C190.31 118.44 201.5 118.44 209.01 110.67L212.69 118.42Z" fill="#BD462B"/>
<path fill-rule="evenodd" clip-rule="evenodd" d="M225.99 146.97C221.69 137.42 217.26 127.87 212.69 118.42L209.02 110.61C206.576 113.062 203.642 114.97 200.41 116.21C198.803 116.835 197.148 117.327 195.46 117.68C193.776 118.041 192.062 118.249 190.34 118.3H190.21V118.43L203.51 172.77V172.71C203.629 175.406 204.004 178.085 204.63 180.71C205.239 183.355 206.141 185.925 207.32 188.37C208.496 190.84 210.097 193.084 212.05 195C214.019 196.922 216.389 198.383 218.99 199.28C220.315 199.722 221.722 199.869 223.11 199.71C224.496 199.517 225.816 198.996 226.96 198.19C229.145 196.532 230.907 194.38 232.1 191.91C233.342 189.503 234.346 186.981 235.1 184.38C235.882 181.797 236.49 179.164 236.92 176.5C236.798 175.176 236.537 173.869 236.14 172.6C235.78 171.33 235.37 170.08 234.94 168.84C234.08 166.35 233.16 163.9 232.16 161.46C230.2 156.59 228.12 151.77 225.99 146.97ZM190.371 118.504L204.01 172.63V172.69C204.147 175.354 204.535 177.999 205.17 180.59C205.782 183.183 206.685 185.699 207.86 188.09C209.028 190.469 210.583 192.639 212.46 194.51C214.341 196.367 216.608 197.788 219.1 198.67C220.326 199.096 221.631 199.243 222.92 199.1C224.209 198.93 225.439 198.457 226.51 197.72C228.621 196.137 230.333 194.082 231.51 191.72C232.746 189.356 233.75 186.877 234.51 184.32C235.303 181.764 235.924 179.158 236.37 176.52C236.255 175.228 236.007 173.951 235.63 172.71C235.28 171.45 234.88 170.2 234.46 168.96C233.62 166.48 232.7 164.03 231.74 161.59C229.931 156.983 227.981 152.43 226.038 147.896C225.919 147.618 225.799 147.339 225.68 147.06C221.547 137.44 217.217 127.893 212.69 118.42L208.99 110.65C206.561 113.135 203.629 115.072 200.39 116.33C198.769 116.977 197.097 117.486 195.39 117.85C193.739 118.215 192.06 118.434 190.371 118.504ZM190.371 118.504L190.34 118.38L190.23 118.51C190.277 118.508 190.324 118.506 190.371 118.504Z" fill="#191951"/>
<path d="M199.2 108L198.2 107.63C197.273 107.249 196.23 107.271 195.32 107.69C194.919 107.893 194.54 108.138 194.19 108.42L188.57 113.05C187.602 113.202 186.667 112.631 186.36 111.7C185.69 110.04 191.01 105.06 192.36 103.93C193.71 102.8 200.2 102 200.2 102" fill="#F0BFAC"/>
<path d="M199.2 108C198.7 107.83 198.2 107.61 197.71 107.49C197.2 107.375 196.67 107.375 196.16 107.49C195.161 107.807 194.255 108.363 193.52 109.11L188.67 113.11C187.725 113.26 186.797 112.755 186.41 111.88C186.205 111.45 186.205 110.95 186.41 110.52C186.588 110.111 186.81 109.722 187.07 109.36C188.11 107.949 189.282 106.64 190.57 105.45C191.199 104.828 191.867 104.247 192.57 103.71C193.348 103.295 194.184 102.998 195.05 102.83C196.755 102.44 198.481 102.149 200.22 101.96C198.49 102.21 196.77 102.54 195.08 102.96C194.234 103.143 193.417 103.439 192.65 103.84C191.974 104.382 191.329 104.963 190.72 105.58C189.453 106.776 188.301 108.089 187.28 109.5C187.041 109.854 186.833 110.229 186.66 110.62C186.462 110.977 186.44 111.405 186.6 111.78C186.935 112.565 187.755 113.028 188.6 112.91L193.49 108.91C194.239 108.15 195.173 107.599 196.2 107.31C196.725 107.22 197.263 107.24 197.78 107.37C198.264 107.556 198.737 107.766 199.2 108Z" fill="#BC8271"/>
<defs>
<linearGradient id="paint0_linear" x1="-41.3558" y1="-64.27" x2="-69.5826" y2="76.6493" gradientUnits="userSpaceOnUse">
<stop offset="0.01" stop-color="#DD85C5"/>
<stop offset="1" stop-color="#6F75D5"/>
</linearGradient>
<linearGradient id="paint1_linear" x1="-35.6787" y1="69.5721" x2="-51.5823" y2="227.665" gradientUnits="userSpaceOnUse">
<stop offset="0.01" stop-color="#EEFF3F"/>
<stop offset="1" stop-color="#15A6FF"/>
</linearGradient>
<linearGradient id="paint2_linear" x1="284.409" y1="80.238" x2="302.303" y2="232.482" gradientUnits="userSpaceOnUse">
<stop offset="0.01" stop-color="#EEFF3F"/>
<stop offset="1" stop-color="#FFB900"/>
</linearGradient>
<linearGradient id="paint3_linear" x1="218.111" y1="4.80521" x2="260.343" y2="141.856" gradientUnits="userSpaceOnUse">
<stop offset="0.01" stop-color="#D42300"/>
<stop offset="1" stop-color="#15A6FF"/>
</linearGradient>
</defs>
</svg>
