<svg width="40" height="40" viewBox="0 0 40 40" fill="none" xmlns="http://www.w3.org/2000/svg">
<circle cx="20" cy="20" r="20" fill="#BD462B"/>
<g clip-path="url(#clip0)">
<path d="M30.1902 22.3141C30.8764 16.5382 29.8606 12.8918 28.0282 11.2425L28.0292 11.2415C25.0718 8.42496 15.084 8.00809 11.5458 11.368C9.95693 13.0115 9.39727 15.4237 9.33593 18.4098C9.2746 21.397 9.20176 26.9927 14.4161 28.5107H14.4208L14.4161 30.8289C14.4161 30.8289 14.3806 31.7681 14.9805 31.9568C15.6667 32.1792 15.9772 31.7431 18.1114 29.194C21.6802 29.5035 24.4211 28.7943 24.7325 28.6908C25.4532 28.4493 29.5309 27.9098 30.1902 22.3141ZM18.4631 27.5629C18.4631 27.5629 16.2043 30.3794 15.5018 31.1106C15.2718 31.3483 15.0198 31.3263 15.0236 30.8548C15.0236 30.5452 15.0409 27.0061 15.0409 27.0061C10.6201 25.7392 10.8808 20.9743 10.9287 18.4817C10.9766 15.9881 11.4328 13.9459 12.7783 12.5707C15.8823 9.66025 24.6386 10.311 26.8696 12.4078C29.597 14.8257 28.6262 21.6567 28.632 21.8895C28.0714 26.5605 24.767 26.8566 24.1594 27.0588C23.8997 27.1451 21.4895 27.7651 18.4631 27.5629Z" fill="white"/>
<path d="M19.7128 13.1179C19.3438 13.1179 19.3438 13.6929 19.7128 13.6977C22.5753 13.7198 24.9328 15.715 24.9587 19.3749C24.9587 19.7611 25.5241 19.7563 25.5193 19.3701H25.5183C25.4877 15.4265 22.9136 13.14 19.7128 13.1179Z" fill="white"/>
<path d="M23.4781 18.7683C23.4694 19.1497 24.0339 19.168 24.0387 18.7817C24.0856 16.6073 22.7449 14.8162 20.2255 14.6274C19.8565 14.6005 19.8182 15.1803 20.1862 15.2072C22.3712 15.373 23.5221 16.8641 23.4781 18.7683Z" fill="white"/>
<path d="M22.8743 21.2418C22.4009 20.9677 21.9188 21.1383 21.7195 21.4076L21.3026 21.9471C21.0908 22.2212 20.695 22.1848 20.695 22.1848C17.8066 21.421 17.0342 18.3984 17.0342 18.3984C17.0342 18.3984 16.9988 17.9892 17.2633 17.7697L17.7846 17.3385C18.0453 17.1315 18.2101 16.6331 17.9446 16.1434C17.2355 14.8621 16.7592 14.4204 16.5167 14.0811C16.2618 13.762 15.8785 13.6901 15.4798 13.9057H15.4712C14.6422 14.3906 13.7347 15.2982 14.025 16.2326C14.5205 17.2177 15.4309 20.3582 18.3328 22.731C19.6965 23.8532 21.8546 25.0032 22.7708 25.2687L22.7794 25.2821C23.6822 25.583 24.56 24.64 25.0286 23.7861V23.7794C25.2366 23.3664 25.1676 22.9754 24.8638 22.7195C24.3252 22.1944 23.5125 21.6146 22.8743 21.2418Z" fill="white"/>
<path d="M20.6203 16.7664C21.5412 16.8201 21.9878 17.3012 22.0357 18.2892C22.053 18.6754 22.6136 18.6486 22.5964 18.2624C22.535 16.9725 21.8623 16.2537 20.651 16.1866C20.282 16.1646 20.2475 16.7444 20.6203 16.7664Z" fill="white"/>
</g>
<defs>
<clipPath id="clip0">
<rect x="8" y="9" width="23" height="23" fill="white"/>
</clipPath>
</defs>
</svg>
