<svg width="326" height="350" viewBox="0 0 326 350" fill="none" xmlns="http://www.w3.org/2000/svg">
<path d="M145.89 275.92C82.32 279.31 60.37 260.92 50.32 228.14C37.8 187.34 2.56003 203.28 1.00003 170.62C-0.559973 137.96 41.6 121.99 80.29 113.71C130.07 103.05 220.02 93.8 237.72 106.8C255.42 119.8 245.92 140.24 258.02 152.09C270.12 163.94 317.78 159.66 324.92 190.09C332 220.09 214.65 272.28 145.89 275.92Z" fill="#FFF1D3"/>
<g style="mix-blend-mode:multiply" opacity="0.6">
<path d="M269.1 202.67C263.77 189.8 192.23 149.67 149.41 148.2C118.72 147.2 86.05 149.76 64.29 179.87C48.78 201.28 61.14 222.48 66.78 231.95C77.5 249.95 105.78 267.61 166.66 264C222.65 260.68 282 233.75 269.1 202.67Z" fill="#E4BCE8"/>
</g>
<path d="M4.49001 179.61C4.63412 179.793 4.75816 179.991 4.86001 180.2C4.96128 180.42 5.04488 180.647 5.11001 180.88C5.17001 181.18 5.11001 181.4 4.92001 181.37C4.83536 181.345 4.76151 181.292 4.71001 181.22C4.56602 181.028 4.43888 180.824 4.33001 180.61C4.22112 180.382 4.13406 180.144 4.07001 179.9C4.07001 179.59 4.12001 179.39 4.29001 179.44C4.37431 179.472 4.44499 179.532 4.49001 179.61Z" fill="white"/>
<path d="M5.73003 181.98C5.89378 182.138 6.03209 182.32 6.14003 182.52C6.27633 182.711 6.39356 182.916 6.49003 183.13C6.59003 183.4 6.49003 183.63 6.37003 183.63C6.2817 183.63 6.19628 183.598 6.13003 183.54C5.9538 183.388 5.79904 183.213 5.67003 183.02C5.53958 182.809 5.43229 182.584 5.35003 182.35C5.26003 182.06 5.35003 181.84 5.51003 181.86C5.59566 181.872 5.67402 181.914 5.73003 181.98Z" fill="white"/>
<path d="M10.87 187.64C11.0636 187.718 11.2454 187.822 11.41 187.95C11.5914 188.079 11.7531 188.234 11.89 188.41C12.06 188.62 12.07 188.85 11.89 188.93C11.8104 188.965 11.7197 188.965 11.64 188.93C11.439 188.851 11.2504 188.743 11.08 188.61C10.8987 188.481 10.737 188.326 10.6 188.15C10.43 187.93 10.43 187.69 10.6 187.63C10.6879 187.598 10.7847 187.602 10.87 187.64Z" fill="white"/>
<path d="M12.92 189.09C13.1167 189.157 13.3047 189.248 13.48 189.36C13.6673 189.466 13.839 189.597 13.99 189.75C14.17 189.95 14.19 190.19 13.99 190.28C13.913 190.311 13.827 190.311 13.75 190.28C13.5457 190.23 13.3502 190.149 13.17 190.04C12.9818 189.92 12.8103 189.775 12.66 189.61C12.48 189.4 12.47 189.17 12.66 189.08C12.7456 189.056 12.8366 189.059 12.92 189.09Z" fill="white"/>
<path d="M14.8401 190.28C15.0421 190.328 15.2371 190.402 15.4201 190.5C15.6079 190.601 15.7826 190.726 15.9401 190.87C16.1301 191.07 16.1601 191.3 16.0001 191.4C15.9223 191.427 15.8378 191.427 15.7601 191.4C15.558 191.352 15.363 191.278 15.1801 191.18C14.9851 191.081 14.8064 190.953 14.6501 190.8C14.4601 190.61 14.4401 190.36 14.6001 190.27C14.6789 190.247 14.7634 190.25 14.8401 190.28Z" fill="white"/>
<path d="M17.49 191.62C17.6189 191.619 17.746 191.65 17.86 191.71C17.9798 191.762 18.0859 191.84 18.17 191.94C18.35 192.17 18.32 192.42 18.09 192.5H18.01C17.8824 192.5 17.7564 192.472 17.64 192.42C17.5173 192.364 17.4106 192.278 17.33 192.17C17.15 191.94 17.18 191.69 17.41 191.62H17.49Z" fill="white"/>
<path d="M19.77 192.69C19.8973 192.682 20.0244 192.706 20.14 192.76C20.2636 192.81 20.3734 192.889 20.46 192.99C20.64 193.21 20.61 193.46 20.39 193.54H20.3C20.1758 193.552 20.0508 193.527 19.94 193.47C19.8172 193.419 19.7077 193.34 19.62 193.24C19.43 193.02 19.46 192.77 19.69 192.69H19.77Z" fill="white"/>
<path d="M3.23003 177.52C3.13131 177.331 3.05094 177.134 2.99003 176.93C2.93091 176.718 2.89734 176.5 2.89003 176.28C2.89003 175.96 3.05003 175.81 3.20003 175.93C3.25966 175.981 3.31035 176.042 3.35003 176.11C3.44465 176.292 3.52166 176.483 3.58003 176.68C3.62956 176.884 3.663 177.091 3.68003 177.3C3.68003 177.61 3.55003 177.79 3.38003 177.68C3.31812 177.639 3.26672 177.584 3.23003 177.52Z" fill="white"/>
<path d="M2.67005 175.14C2.58266 174.941 2.51889 174.733 2.48005 174.52C2.44492 174.301 2.44492 174.079 2.48005 173.86C2.53005 173.54 2.68005 173.42 2.83005 173.56C2.88364 173.617 2.92453 173.686 2.95005 173.76C3.01732 173.956 3.07078 174.156 3.11005 174.36C3.13523 174.573 3.13523 174.787 3.11005 175C3.11005 175.3 2.94005 175.46 2.78005 175.33C2.73142 175.274 2.69406 175.21 2.67005 175.14Z" fill="white"/>
<path d="M2.33005 172.69C2.26089 172.483 2.21723 172.268 2.20005 172.05C2.17033 171.834 2.17033 171.616 2.20005 171.4C2.27005 171.09 2.44005 170.98 2.58005 171.15C2.62912 171.211 2.66334 171.283 2.68005 171.36C2.73279 171.563 2.76627 171.771 2.78005 171.98C2.80505 172.193 2.80505 172.407 2.78005 172.62C2.78005 172.92 2.58005 173.05 2.43005 172.9C2.38158 172.838 2.34743 172.767 2.33005 172.69Z" fill="white"/>
<path d="M3.42004 160.73C3.42571 160.512 3.46276 160.297 3.53004 160.09C3.58484 159.887 3.6655 159.692 3.77004 159.51C3.92004 159.26 4.10004 159.25 4.18004 159.51C4.20078 159.592 4.20078 159.678 4.18004 159.76C4.17039 159.974 4.13342 160.186 4.07004 160.39C4.0143 160.588 3.93718 160.779 3.84004 160.96C3.70004 161.21 3.52004 161.24 3.43004 161.03C3.41163 160.931 3.40826 160.83 3.42004 160.73Z" fill="white"/>
<path d="M4.06003 158.56C4.08055 158.342 4.12756 158.127 4.20003 157.92C4.25994 157.722 4.34747 157.534 4.46003 157.36C4.63003 157.13 4.82003 157.13 4.88003 157.36C4.89572 157.443 4.89572 157.527 4.88003 157.61C4.85466 157.821 4.80775 158.029 4.74003 158.23C4.67815 158.427 4.59074 158.615 4.48003 158.79C4.32003 159.02 4.13003 159.03 4.06003 158.79C4.05118 158.714 4.05118 158.636 4.06003 158.56Z" fill="white"/>
<path d="M5.09001 155.72C5.09633 155.587 5.12332 155.455 5.17001 155.33C5.21521 155.215 5.28719 155.112 5.38001 155.03C5.60001 154.85 5.79001 155.03 5.80001 155.31C5.79249 155.441 5.76203 155.57 5.71001 155.69C5.66873 155.805 5.60008 155.908 5.51001 155.99C5.30001 156.18 5.10001 156.07 5.09001 155.74V155.72Z" fill="white"/>
<path d="M6.10001 153.42C6.1125 153.288 6.14982 153.159 6.21001 153.04C6.26357 152.927 6.34224 152.828 6.44001 152.75C6.68001 152.59 6.85001 152.75 6.84001 153.08C6.83104 153.207 6.79343 153.33 6.73001 153.44C6.6834 153.549 6.61139 153.645 6.52001 153.72C6.29001 153.88 6.10001 153.72 6.11001 153.42H6.10001Z" fill="white"/>
<path d="M304.68 216.98C304.884 216.756 305.108 216.552 305.35 216.37C305.578 216.185 305.823 216.021 306.08 215.88C306.39 215.74 306.58 215.82 306.52 216.07C306.481 216.19 306.42 216.302 306.34 216.4C306.134 216.631 305.91 216.845 305.67 217.04C305.438 217.216 305.19 217.37 304.93 217.5C304.62 217.64 304.42 217.56 304.49 217.31C304.532 217.189 304.596 217.077 304.68 216.98Z" fill="white"/>
<path d="M307.33 214.87C307.542 214.661 307.766 214.464 308 214.28C308.222 214.084 308.464 213.909 308.72 213.76C309.02 213.61 309.22 213.68 309.16 213.94C309.124 214.06 309.067 214.172 308.99 214.27C308.793 214.512 308.572 214.733 308.33 214.93C308.108 215.129 307.863 215.3 307.6 215.44C307.3 215.58 307.1 215.5 307.16 215.25C307.189 215.113 307.247 214.983 307.33 214.87Z" fill="white"/>
<path d="M309.94 212.66C310.129 212.415 310.34 212.187 310.57 211.98C310.786 211.774 311.024 211.593 311.28 211.44C311.57 211.27 311.78 211.34 311.72 211.59C311.689 211.712 311.634 211.828 311.56 211.93C311.365 212.176 311.151 212.407 310.92 212.62C310.699 212.82 310.461 213 310.21 213.16C309.91 213.33 309.71 213.25 309.76 213C309.798 212.876 309.859 212.761 309.94 212.66Z" fill="white"/>
<path d="M314.37 208.41C314.545 208.147 314.742 207.899 314.96 207.67C315.161 207.444 315.386 207.239 315.63 207.06C315.92 206.86 316.12 206.9 316.09 207.16C316.067 207.288 316.02 207.41 315.95 207.52C315.772 207.783 315.571 208.031 315.35 208.26C315.147 208.487 314.922 208.695 314.68 208.88C314.39 209.08 314.19 209.03 314.22 208.77C314.246 208.641 314.297 208.519 314.37 208.41Z" fill="white"/>
<path d="M317.33 205.08C317.416 204.903 317.519 204.735 317.64 204.58C317.749 204.431 317.881 204.299 318.03 204.19C318.33 203.99 318.5 204.12 318.41 204.48C318.41 204.48 318.41 204.57 318.41 204.62C318.33 204.804 318.23 204.979 318.11 205.14C317.999 205.292 317.86 205.421 317.7 205.52C317.39 205.7 317.22 205.52 317.32 205.21C317.321 205.166 317.324 205.123 317.33 205.08Z" fill="white"/>
<path d="M319.62 202.01C319.69 201.824 319.78 201.646 319.89 201.48C319.991 201.319 320.116 201.174 320.26 201.05C320.55 200.83 320.74 200.93 320.67 201.3V201.43C320.601 201.625 320.507 201.81 320.39 201.98C320.286 202.139 320.162 202.284 320.02 202.41C319.73 202.63 319.55 202.51 319.62 202.15V202.01Z" fill="white"/>
<path d="M278.1 233.67C280.23 232.51 282.36 231.35 284.46 230.14C286.56 228.93 288.68 227.71 290.76 226.43C292.84 225.15 294.93 223.87 296.97 222.5C299.01 221.13 301.05 219.74 303.07 218.29C303.34 218.09 303.62 218.04 303.68 218.19C303.74 218.34 303.57 218.62 303.31 218.82C301.31 220.32 299.31 221.82 297.24 223.16C295.17 224.5 293.11 225.85 291.03 227.16C288.95 228.47 286.82 229.66 284.7 230.84C282.58 232.02 280.43 233.15 278.29 234.26C277.99 234.41 277.71 234.4 277.67 234.26C277.63 234.12 277.82 233.83 278.1 233.67Z" fill="white"/>
<path d="M276.77 234.95C276.579 235.109 276.371 235.247 276.15 235.36C275.937 235.477 275.708 235.561 275.47 235.61C275.15 235.67 274.98 235.52 275.11 235.28C275.158 235.192 275.223 235.114 275.3 235.05C275.489 234.888 275.697 234.75 275.92 234.64C276.133 234.529 276.358 234.441 276.59 234.38C276.91 234.32 277.08 234.47 276.95 234.71C276.903 234.799 276.843 234.88 276.77 234.95Z" fill="white"/>
<path d="M274.31 236.2C274.12 236.365 273.908 236.503 273.68 236.61C273.468 236.718 273.243 236.799 273.01 236.85C272.68 236.91 272.52 236.76 272.65 236.51C272.698 236.427 272.758 236.353 272.83 236.29C273.023 236.128 273.234 235.991 273.46 235.88C273.674 235.775 273.898 235.694 274.13 235.64C274.46 235.58 274.62 235.73 274.49 235.97C274.445 236.058 274.384 236.136 274.31 236.2Z" fill="white"/>
<path d="M271.84 237.43C270.98 237.93 270.1 238.37 269.22 238.79C268.34 239.21 267.44 239.62 266.54 239.96C266.23 240.08 265.98 240.03 265.98 239.85C265.98 239.67 266.14 239.52 266.37 239.39C267.24 238.91 268.12 238.49 269 238.06C269.88 237.63 270.76 237.22 271.67 236.87C271.97 236.74 272.22 236.78 272.23 236.96C272.24 237.14 272.07 237.28 271.84 237.43Z" fill="white"/>
<path d="M264.28 240.99C264.17 241.102 264.042 241.193 263.9 241.26C263.768 241.32 263.625 241.351 263.48 241.35C263.14 241.35 263.06 241.08 263.31 240.79C263.415 240.68 263.541 240.591 263.68 240.53C263.811 240.466 263.954 240.432 264.1 240.43C264.44 240.43 264.52 240.7 264.27 240.99H264.28Z" fill="white"/>
<path d="M261.6 242.2C261.492 242.305 261.367 242.389 261.23 242.45C261.095 242.512 260.948 242.542 260.8 242.54C260.46 242.54 260.39 242.26 260.64 241.97C260.75 241.864 260.879 241.779 261.02 241.72C261.152 241.66 261.295 241.629 261.44 241.63C261.79 241.63 261.86 241.9 261.61 242.19L261.6 242.2Z" fill="white"/>
<path fill-rule="evenodd" clip-rule="evenodd" d="M101.66 269.86C75.36 264.66 60.86 251.76 53.18 226.72C46.3 204.28 32.83 197.68 22 192.37C11 186.95 4.70004 183.28 4.10004 170.39C3.50004 157.39 11.17 146 26.91 136.55C39.71 128.87 57.85 122.48 80.84 117.55C121.35 108.88 194.23 100.18 225.71 106.4C231.79 107.6 234.78 109.12 236.22 110.18C244.8 116.48 246.07 124.61 247.41 133.18C248.61 140.93 249.86 148.94 256.19 155.18C261.09 159.99 270.19 162.18 280.64 164.78C298.14 169.06 317.97 173.92 322.02 191.16C322.51 193.28 321.92 195.86 320.26 198.83C312.83 212.11 285.85 229.78 249.86 244.93C213.17 260.37 174.26 270.49 145.76 272.01C128.19 272.95 113.76 272.28 101.66 269.86Z" stroke="white" stroke-width="0.61"/>
<path opacity="0.2" d="M45.54 334.79C51.97 338.58 78.34 338.4 113.54 338.18C170.84 337.82 228 317.93 228 317.93L117.42 312.33C117.42 312.33 26.28 323.44 45.54 334.79Z" fill="#552F5E"/>
<path d="M228 234.52V323.06L193.75 339.43V334.95L224.24 320.31V235.99L228 234.52Z" fill="#7C4284"/>
<rect x="189.6" y="334.95" width="4.15" height="4.47" fill="#3E2344"/>
<path fill-rule="evenodd" clip-rule="evenodd" d="M189.6 334.95L221.07 320.31H224.24L193.75 334.95H189.6Z" fill="#E4BCE8"/>
<path fill-rule="evenodd" clip-rule="evenodd" d="M221.07 320.31V236.52L224.24 235.99V320.31H221.07Z" fill="#E4BCE8"/>
<path d="M117.42 230.93V312.33L72.76 327.38V323.26L113.66 309.8V232.28L117.42 230.93Z" fill="#7C4284"/>
<rect x="68.61" y="323.26" width="4.15" height="4.11" fill="#3E2344"/>
<path fill-rule="evenodd" clip-rule="evenodd" d="M68.61 323.26L110.49 309.8H113.66L72.76 323.26H68.61Z" fill="#E4BCE8"/>
<path fill-rule="evenodd" clip-rule="evenodd" d="M110.49 309.8V232.77L113.66 232.28V309.8H110.49Z" fill="#E4BCE8"/>
<path d="M217.77 226.87L217.55 230.26L217.45 231.87L217.11 236.87C216.95 239.11 199.51 239.35 199.32 237.09L198.91 232.09L198.77 230.47L198.47 226.86L217.77 226.87Z" fill="#CC584E"/>
<path d="M208.13 228.06C213.46 228.06 217.78 227.527 217.78 226.87C217.78 226.213 213.46 225.68 208.13 225.68C202.8 225.68 198.48 226.213 198.48 226.87C198.48 227.527 202.8 228.06 208.13 228.06Z" fill="#E57873"/>
<path d="M215.54 226.87C215.54 227.28 212.22 227.61 208.13 227.61C204.04 227.61 200.71 227.28 200.71 226.87C200.71 226.46 204.03 226.14 208.13 226.14C212.23 226.14 215.54 226.47 215.54 226.87Z" fill="#3E2B13"/>
<path d="M217.55 230.28L217.45 231.89C214.346 232.83 211.112 233.269 207.87 233.19C204.833 233.29 201.799 232.929 198.87 232.12L198.73 230.5C199.9 230.95 202.62 231.71 207.83 231.71C211.13 231.824 214.423 231.339 217.55 230.28V230.28Z" fill="#E4BCE8"/>
<path d="M205.72 227.57C205.72 227.57 198.9 212.01 208.12 212.01C217.34 212.01 210.54 227.57 210.54 227.57C210.54 227.57 207.47 227.64 205.72 227.57Z" fill="#71BF9D"/>
<path d="M75.3101 238.8L204.65 245.18L245.1 233.15L123.3 227.6L75.3101 238.8Z" fill="#E4BCE8"/>
<path d="M245.1 233.15V236.85L204.8 249.04L204.65 245.18L245.1 233.15Z" fill="#7C4284"/>
<path d="M204.65 245.18L76.01 238.84V241.92L204.8 249.04L204.65 245.18Z" fill="#552F5E"/>
<path d="M186.7 231.72L158.09 238.9L105.4 236.35L132.94 228.88L186.7 231.72Z" fill="#EFE9DA"/>
<path opacity="0.3" d="M177.91 232.31L157.14 237.53L114.95 235.68L134.96 230.25L177.91 232.31Z" fill="#7C4284"/>
<path d="M105.4 236.35C105.399 237.36 106.192 238.192 107.2 238.24L158.2 240.77L185.29 233.77C186.125 233.555 186.71 232.803 186.71 231.94V231.72L158.1 238.9L105.4 236.35Z" fill="#9D68AA"/>
<path d="M186.7 231.72L132.94 228.89L142.76 189.89C142.875 189.462 143.257 189.161 143.7 189.15L198.07 188.8L186.7 231.72Z" fill="#3E2344"/>
<path d="M169.66 191.1C169.531 191.744 168.977 192.216 168.32 192.24C168.033 192.248 167.758 192.122 167.577 191.898C167.397 191.674 167.331 191.379 167.4 191.1C167.541 190.46 168.095 189.996 168.75 189.97C169.035 189.962 169.307 190.087 169.486 190.309C169.665 190.531 169.729 190.824 169.66 191.1Z" fill="white"/>
<path d="M185.35 228.26L135.85 226.23L143.94 193.81L194.55 193.48L185.35 228.26Z" fill="white"/>
<path d="M173.8 198.69L169.45 216.92L168.19 222.28C168.03 222.935 167.434 223.389 166.76 223.37L157.76 223.08L152.34 222.92C151.911 222.911 151.51 222.708 151.249 222.368C150.988 222.027 150.897 221.586 151 221.17L156.74 198.17C156.892 197.542 157.454 197.1 158.1 197.1L172.4 196.99C172.827 196.988 173.233 197.178 173.504 197.507C173.776 197.837 173.884 198.271 173.8 198.69Z" fill="#FFD25A"/>
<path d="M169.45 216.92L168.19 222.28C168.03 222.935 167.434 223.389 166.76 223.37L157.76 223.08L153.63 222.44L160.82 209.79L165.26 204.47L169.45 216.92Z" fill="#71BF9D"/>
<path d="M166.76 223.28L157.76 222.99L152.34 222.83C151.911 222.821 151.51 222.618 151.249 222.278C150.988 221.937 150.897 221.496 151 221.08L160.2 208.27L160.82 209.7L166.76 223.28Z" fill="#FF8976"/>
<path d="M167.44 203.66C167.44 204.853 166.473 205.82 165.28 205.82C164.087 205.82 163.12 204.853 163.12 203.66C163.12 202.467 164.087 201.5 165.28 201.5C165.853 201.5 166.402 201.728 166.807 202.133C167.212 202.538 167.44 203.087 167.44 203.66Z" fill="#FFB072"/>
<path d="M162.36 208.4C162.364 209.275 161.839 210.067 161.031 210.404C160.223 210.741 159.292 210.556 158.673 209.937C158.054 209.318 157.869 208.387 158.206 207.579C158.543 206.771 159.335 206.246 160.21 206.25C161.395 206.255 162.355 207.215 162.36 208.4Z" fill="#FFB072"/>
<path d="M186.7 231.72C187.327 231.726 187.884 231.319 188.07 230.72L198.68 190.28C198.798 189.849 198.693 189.388 198.4 189.05L198.07 188.73L186.7 231.72Z" fill="#E4BCE8"/>
<path d="M92.51 337.19C92.51 338.51 85.95 338.51 85.95 337.19V298.11H92.51V337.19Z" fill="#7C4284"/>
<path d="M72.1 294.02C72.1 294.02 74.15 301.22 88.84 301.22C103.53 301.22 105.84 294.02 105.84 294.02H72.1Z" fill="#3E2344"/>
<path d="M67 293.05C67 293.05 59.78 290.81 57.5 284.7C55.22 278.59 49.72 248.07 49.72 248.07L54.66 245.18C54.66 245.18 60.35 282.18 64.15 285.12C67.95 288.06 70 287.65 70 287.65L67 293.05Z" fill="#7C4284"/>
<path d="M42 209.73C42 209.73 37 213.27 40.29 233.1C44.09 255.95 47.29 258.32 51.14 257.68C54.99 257.04 42 209.73 42 209.73Z" fill="#7C4284"/>
<path d="M58.73 282.28C58.73 282.28 58.19 289.91 61.21 293.53C65.79 299.04 115.98 295.74 118.67 294.28C124.13 291.28 121.67 279.16 121.67 279.16L58.73 282.28Z" fill="#552F5E"/>
<path d="M64.91 272.52C64.1502 272.54 63.4421 272.909 62.99 273.52C61.7479 275.142 60.6598 276.876 59.74 278.7C57.74 283.19 57.91 283.2 62.23 283.29C76.77 283.63 120.4 282.4 120.4 282.4C121.207 282.306 121.919 281.83 122.315 281.121C122.711 280.412 122.743 279.556 122.4 278.82L121 271.4L64.91 272.52Z" fill="#E4BCE8"/>
<g style="mix-blend-mode:multiply" opacity="0.2">
<path d="M122.17 277.68C122.17 279.78 109.09 281.48 92.96 281.48C76.83 281.48 63.75 279.78 63.75 277.68C63.75 275.58 76.83 273.87 92.96 273.87C109.09 273.87 122.17 275.58 122.17 277.68Z" fill="#552F5E"/>
</g>
<path d="M40 211.61C41.94 222.61 48.22 255.51 48.22 255.51C48.91 259.17 52.22 260.51 55.56 259.58C68.56 255.95 55.33 209.99 54.44 206.98C51.88 198.4 37.61 198.28 40 211.61Z" fill="#E4BCE8"/>
<path d="M141.68 331.93C141.147 333.606 140.713 335.313 140.38 337.04C140.38 338.04 142.38 344.17 142.38 344.17C143.185 344.756 144.26 344.811 145.12 344.31L146.12 340.06C146.12 340.06 148.79 343.63 150.97 344.55C153.59 345.66 162.24 345.98 163.5 345.02C163.5 345.02 164.7 340.96 161.32 340.02C152.87 337.56 151.13 332.25 151.13 332.25C150.387 330.33 148.569 329.038 146.511 328.969C144.453 328.899 142.552 330.064 141.68 331.93Z" fill="#3E2344"/>
<path d="M164.35 344.47C164.17 344.47 154.53 345.42 151.91 344.04C149.29 342.66 146.46 338.73 145.63 338.6C144.8 338.47 140.38 337.04 140.38 337.04L140.7 346.6L163.9 349.99L164.35 344.47Z" fill="#7C4284"/>
<path d="M156.82 338.28L155.62 339.43C154.614 339.022 153.752 338.326 153.14 337.43L154.2 336.12C154.388 335.883 154.732 335.843 154.97 336.03L156.77 337.44C156.894 337.541 156.971 337.689 156.98 337.849C156.99 338.009 156.932 338.165 156.82 338.28Z" fill="#FFBE57"/>
<path d="M139.53 323.78L141.68 331.93C141.68 331.93 149.61 337.93 150.68 331.4L148.3 322.08C147.57 319.06 139.45 320.07 139.53 323.78Z" fill="#FFB072"/>
<path d="M164.46 312.33C164.514 313.984 164.664 315.634 164.91 317.27C165.18 318.14 169 322.96 169 322.96C169.818 323.244 170.726 322.97 171.25 322.28L170.95 318.15C170.95 318.15 174.45 320.48 176.67 320.61C179.35 320.77 187.13 318.32 187.95 317.07C187.95 317.07 187.73 313.07 184.42 313.28C176.14 313.77 172.92 309.6 172.92 309.6C171.643 308.155 169.632 307.604 167.797 308.196C165.962 308.788 164.652 310.411 164.46 312.33H164.46Z" fill="#3E2344"/>
<path d="M188.55 316.28C188.39 316.35 180.13 320.22 177.36 319.83C174.59 319.44 170.84 316.83 170.07 316.97C169.3 317.11 164.91 317.24 164.91 317.24L168.22 325.64L189.89 321.32L188.55 316.28Z" fill="#7C4284"/>
<path d="M179.9 313.19L179.2 314.59C178.177 314.539 177.19 314.191 176.36 313.59L176.89 312.09C176.989 311.824 177.28 311.683 177.55 311.77L179.55 312.45C179.704 312.489 179.832 312.594 179.9 312.737C179.968 312.881 179.968 313.047 179.9 313.19Z" fill="#FFBE57"/>
<path d="M158.45 304.28L164.5 313.18C164.5 313.18 169.42 314.29 171.69 313.18C173.96 312.07 172.92 309.62 172.92 309.62L168 299.82L158.45 304.28Z" fill="#FFB072"/>
<path d="M70.85 188.82C70.85 188.82 63.23 190.48 65.67 205.53C68.11 220.58 79 245.11 92.73 246.59C106.46 248.07 126.94 239.39 126.94 239.39C131.36 236.07 128.27 228.18 122.86 229.39C113.44 231.39 107.63 232.79 95.61 231.67C90.95 231.23 86.61 208.67 84.79 201.58C82.97 194.49 76.66 187.95 70.85 188.82Z" fill="#3C8460"/>
<path d="M91.53 277.39C91.53 277.39 118.53 277.65 125.05 275C131.57 272.35 137.94 260.48 132.73 260.24C127.52 260 91.53 277.39 91.53 277.39Z" fill="#F99441"/>
<path d="M148.75 254.99C144.86 247.22 138.75 246.99 134.83 247.38C121.37 248.66 89.92 253.96 89.92 253.96L59.2 250.02C59.2 250.02 52.4 265.34 64.69 276.12C75.37 285.49 111.69 278.12 132.85 266.82C134.85 281.25 150.14 293.7 159.3 307.94C167.83 307.08 169.69 302.54 169.69 302.54C169.69 302.54 154.61 266.72 148.75 254.99Z" fill="#FFCC5A"/>
<path d="M131.52 225.2C132.936 225.047 134.364 225.047 135.78 225.2C136.62 225.5 138.38 227.87 138.38 227.87C138.38 227.87 135.48 228.43 134.56 228.13C133.64 227.83 131.52 225.2 131.52 225.2Z" fill="#F29B5F"/>
<path d="M120.24 227.81C120.24 227.81 126.43 224.67 128.66 224.13C130.89 223.59 131.18 225.04 132.12 225.21C133.113 225.354 134.04 225.793 134.78 226.47C135.71 227.13 137.72 226.73 138.9 227.28C139.974 228.191 140.837 229.323 141.43 230.6C141.69 231.33 140.67 231.47 140.02 231.27C139.37 231.07 138.36 229.43 137.75 229.27C137.14 229.11 134.75 230.12 134.75 230.12C134.75 230.12 132.63 235.51 124.05 234.86C114.59 234.11 120.24 227.81 120.24 227.81Z" fill="#FFB072"/>
<path d="M71.4 189.62C71.4 189.62 63.4 190.22 65.78 203.72C68.16 217.22 78.46 239.28 91.36 240.6C104.26 241.92 123.46 234.3 123.46 234.3C127.6 231.3 125.3 224.86 120.23 225.88C111.701 227.805 102.973 228.712 94.23 228.58C89.83 228.58 85.43 206.53 83.74 200.22C82.05 193.91 76.86 188.87 71.4 189.62Z" fill="#CC321D"/>
<path d="M126.48 265.41C126.48 265.41 132.7 261.87 136.3 257.7C140.13 253.25 140.5 258.01 129.95 263.83C129.95 263.83 136.39 261.15 138.83 259.93C141.27 258.71 140.59 261.39 126.48 265.41Z" fill="#F99441"/>
<path d="M120.23 276.11C120.23 276.11 120.23 281.95 125.3 293.59C130.37 305.23 138.92 327.8 138.92 327.8C138.92 327.8 143.01 328.8 149.41 324.35C149.41 324.35 140.98 269 136.9 264C131.85 257.82 120.23 269.45 120.23 276.11Z" fill="#F99441"/>
<path d="M91.6 165.94C91.41 165.94 88.93 164.8 88.04 167.16C87.6821 167.976 87.7223 168.912 88.1488 169.695C88.5753 170.477 89.3401 171.018 90.22 171.16C93 171.53 91.6 165.94 91.6 165.94Z" fill="#E57E55"/>
<path d="M83.23 166.89C81.97 170.77 78.9 176.89 77.06 180.74C75.22 184.59 69.33 190.39 69.33 190.39C69.33 190.39 83.06 203.74 88.6 203.99C89.49 202.08 86.91 198.17 86.35 193.51C85.4 185.51 92.68 171.87 92.68 171.87C92.68 171.87 86.47 167.87 83.23 166.89Z" fill="#FFB072"/>
<path d="M92 225.07C92 225.68 94.48 251.87 93 253.73C89.8 257.73 82.71 257.5 81.05 253.73C79.39 249.96 92 225.07 92 225.07Z" fill="#EFE9DA"/>
<path d="M73.61 185.28C75.4 187.17 84.61 194.52 88.52 199.28C92 203.6 99.13 211.87 97 219.8C91.38 240.6 90.6 249.04 89.75 267.69C85.09 270.04 61.75 266.38 55.75 253.98C55.75 253.98 59.32 243.74 62.75 234.3C65 228.38 60 212.51 60.37 205.97C61 194.46 70.85 186.75 72.92 185.28C73.1169 185.105 73.4131 185.105 73.61 185.28Z" fill="#DD4026"/>
<path d="M70.59 194.49C61.22 202.62 67.13 224.27 71.51 234.27C74.97 242.51 81.42 250.55 90.59 253.73C91.45 248.28 93.68 242.66 94.59 236.8C83.92 228.28 75.82 206.68 70.59 194.49Z" fill="#CC321D"/>
<path fill-rule="evenodd" clip-rule="evenodd" d="M95.47 182.87C98.95 182.67 101.27 175.73 101.27 175.73C101.27 175.73 103.19 175.91 103.41 175.05C103.63 174.19 102.07 170.52 102.6 169.95C103.86 168.56 105.4 167.48 105.4 160.95C105.4 156.21 100.59 154.95 95.51 155.12C93.77 156.06 87.99 166.9 87.51 174.27C87.14 179.43 90.16 183.18 95.47 182.87Z" fill="#FFB072"/>
<path fill-rule="evenodd" clip-rule="evenodd" d="M93.05 169.28L95.21 165.43C95.21 165.43 102.26 164.21 105.63 161.29C107.32 159.82 108.77 158.23 106.17 155.04C101.17 148.97 86.71 143.23 77.91 154.32C70.44 163.73 79.74 175.14 79.74 175.14C81.7 173.11 88.94 173.45 93.05 169.28Z" fill="#3E2344"/>
<path d="M93.4501 168.73C93.4501 168.73 93.8101 164.58 91.7401 164.35C89.6701 164.12 88.6701 166.24 88.4701 167.57C88.2701 168.9 88.5901 172.29 91.0401 172.76C92.1701 172.98 93.0701 172.18 93.4501 168.73Z" fill="#FFB072"/>
<path d="M99.72 167.87C100.362 167.771 101.01 167.715 101.66 167.7C102.89 167.79 103.55 168.22 104.19 168C104.48 167.91 104.56 167.64 104.69 167.33C103.771 167.12 102.839 166.973 101.9 166.89C101.051 166.806 100.221 167.179 99.72 167.87Z" fill="#3E2344"/>
<path d="M90.89 171.22C90.89 170.55 90.89 170.28 90.97 169.57C91.32 169.49 91.9 169.4 92.25 169.28C92.44 168.04 92.51 165.1 90.94 165.91C89.64 166.58 89 171.04 90.89 171.22Z" fill="#E57E55"/>
<path fill-rule="evenodd" clip-rule="evenodd" d="M101.48 169.85C101.825 169.531 102.25 169.313 102.71 169.22C103.28 169.22 103.96 169.3 104.24 169.09C104.52 168.88 103.98 169.85 102.94 169.76L101.48 169.85Z" fill="#552F5E"/>
<path fill-rule="evenodd" clip-rule="evenodd" d="M92.82 165.05C93.2439 166.863 93.305 168.743 93 170.58C92.5 173.12 86.81 176.64 88.65 182C90.49 187.36 94.22 185.14 94.53 184.17C94.53 184.17 91.02 186.17 89.67 181.89C88.26 177.4 93.61 173.89 94.45 171.02C94.9713 169.02 95.207 166.956 95.15 164.89L92.82 165.05Z" fill="#3E2344"/>
<path d="M92.25 172.79C92.957 172.79 93.53 172.217 93.53 171.51C93.53 170.803 92.957 170.23 92.25 170.23C91.5431 170.23 90.97 170.803 90.97 171.51C90.97 172.217 91.5431 172.79 92.25 172.79Z" fill="white"/>
<path fill-rule="evenodd" clip-rule="evenodd" d="M68.3501 149.81C68.7739 151.623 68.8351 153.503 68.5301 155.34C68.0301 157.89 62.3401 161.4 64.1801 166.77C66.0201 172.14 69.7501 169.91 70.0601 168.93C70.0601 168.93 66.5501 170.93 65.2001 166.65C63.7901 162.17 69.1401 158.65 69.9801 155.79C70.5014 153.79 70.737 151.726 70.6801 149.66L68.3501 149.81Z" fill="#3E2344"/>
<path d="M140.33 226.9C141.746 226.752 143.174 226.752 144.59 226.9C145.44 227.2 147.19 229.57 147.19 229.57C147.19 229.57 144.3 230.14 143.37 229.84C142.44 229.54 140.33 226.9 140.33 226.9Z" fill="#F29B5F"/>
<path d="M129.05 229.51C129.05 229.51 135.24 226.38 137.47 225.83C139.7 225.28 139.99 226.74 140.94 226.91C141.931 227.058 142.854 227.501 143.59 228.18C144.52 228.84 146.53 228.43 147.71 228.98C148.787 229.891 149.651 231.028 150.24 232.31C150.51 233.03 149.48 233.17 148.84 232.98C148.2 232.79 147.17 231.14 146.56 230.98C145.95 230.82 143.56 231.84 143.56 231.84C143.56 231.84 141.45 237.22 132.86 236.58C123.4 235.81 129.05 229.51 129.05 229.51Z" fill="#FFB072"/>
<path d="M73 192.55C68.56 193.82 65.14 195.72 67.59 210.77C70.04 225.82 79.09 246.65 92.82 248.13C106.55 249.61 131.08 238.83 131.08 238.83C135.5 235.5 132.41 227.62 127 228.83C117.58 230.83 107.38 234.91 95.35 233.83C90.69 233.39 87.25 211.61 85.48 204.57C83.71 197.53 78.67 190.95 73 192.55Z" fill="#FD6141"/>
<path d="M88.13 153.18C87.64 158.45 82.48 162.27 76.61 161.72C70.74 161.17 66.37 156.46 66.86 151.2C67.35 145.94 72.51 142.1 78.39 142.65C84.27 143.2 88.63 147.91 88.13 153.18Z" fill="#3E2344"/>
<path d="M197.83 208.57C197.834 208.866 197.659 209.135 197.386 209.251C197.114 209.368 196.798 209.308 196.587 209.1C196.377 208.892 196.312 208.577 196.425 208.303C196.537 208.029 196.804 207.85 197.1 207.85C197.499 207.85 197.825 208.171 197.83 208.57Z" fill="white"/>
<path d="M200.74 208.57C200.744 208.866 200.569 209.135 200.296 209.251C200.024 209.368 199.708 209.308 199.497 209.1C199.287 208.892 199.222 208.577 199.335 208.303C199.447 208.029 199.714 207.85 200.01 207.85C200.409 207.85 200.735 208.171 200.74 208.57Z" fill="white"/>
<path d="M203.65 208.57C203.654 208.866 203.479 209.135 203.206 209.252C202.934 209.368 202.618 209.308 202.407 209.1C202.197 208.892 202.132 208.577 202.245 208.303C202.357 208.029 202.624 207.85 202.92 207.85C203.113 207.847 203.298 207.922 203.436 208.057C203.573 208.193 203.65 208.377 203.65 208.57Z" fill="white"/>
<path d="M206.57 208.57C206.574 208.866 206.399 209.135 206.126 209.251C205.854 209.368 205.538 209.308 205.328 209.1C205.117 208.892 205.052 208.577 205.165 208.303C205.277 208.029 205.544 207.85 205.84 207.85C206.239 207.85 206.565 208.171 206.57 208.57Z" fill="white"/>
<path d="M209.48 208.57C209.484 208.866 209.309 209.135 209.036 209.251C208.764 209.368 208.448 209.308 208.237 209.1C208.027 208.892 207.962 208.577 208.075 208.303C208.187 208.029 208.454 207.85 208.75 207.85C209.149 207.85 209.475 208.171 209.48 208.57Z" fill="white"/>
<path d="M212.39 208.57C212.39 208.973 212.063 209.3 211.66 209.3C211.257 209.3 210.93 208.973 210.93 208.57C210.93 208.167 211.257 207.84 211.66 207.84C212.063 207.84 212.39 208.167 212.39 208.57Z" fill="white"/>
<path d="M215.3 208.57C215.257 208.938 214.945 209.215 214.575 209.215C214.205 209.215 213.893 208.938 213.85 208.57C213.893 208.202 214.205 207.925 214.575 207.925C214.945 207.925 215.257 208.202 215.3 208.57Z" fill="white"/>
<path d="M218.22 208.57C218.224 208.866 218.049 209.135 217.776 209.251C217.504 209.368 217.188 209.308 216.977 209.1C216.767 208.892 216.702 208.577 216.815 208.303C216.927 208.029 217.194 207.85 217.49 207.85C217.889 207.85 218.215 208.171 218.22 208.57Z" fill="white"/>
<path d="M221.13 208.57C221.134 208.866 220.959 209.135 220.686 209.251C220.414 209.368 220.098 209.308 219.887 209.1C219.677 208.892 219.612 208.577 219.725 208.303C219.837 208.029 220.104 207.85 220.4 207.85C220.799 207.85 221.125 208.171 221.13 208.57Z" fill="white"/>
<path d="M224 208.57C224.004 208.866 223.829 209.135 223.556 209.252C223.284 209.368 222.968 209.308 222.757 209.1C222.547 208.892 222.482 208.577 222.595 208.303C222.707 208.029 222.974 207.85 223.27 207.85C223.463 207.847 223.648 207.922 223.786 208.057C223.923 208.193 224 208.377 224 208.57Z" fill="white"/>
<path d="M226.75 207.71C226.913 207.939 226.931 208.241 226.795 208.487C226.659 208.733 226.394 208.879 226.113 208.863C225.833 208.846 225.586 208.67 225.48 208.41C225.377 208.067 225.511 207.697 225.81 207.5C226.135 207.352 226.519 207.438 226.75 207.71Z" fill="white"/>
<path d="M228 205.17C228.284 205.202 228.523 205.396 228.612 205.667C228.702 205.938 228.625 206.236 228.416 206.43C228.207 206.625 227.904 206.679 227.64 206.57C227.304 206.431 227.122 206.066 227.212 205.714C227.303 205.362 227.639 205.13 228 205.17Z" fill="white"/>
<path d="M228 202.28C228.297 202.276 228.567 202.452 228.682 202.726C228.798 203 228.736 203.316 228.526 203.526C228.316 203.736 228 203.798 227.726 203.682C227.452 203.567 227.276 203.297 227.28 203C227.277 202.808 227.352 202.623 227.488 202.488C227.624 202.352 227.808 202.277 228 202.28Z" fill="white"/>
<path d="M228 199.34C228.296 199.336 228.565 199.511 228.682 199.784C228.798 200.056 228.738 200.372 228.53 200.583C228.322 200.793 228.007 200.858 227.733 200.745C227.459 200.633 227.28 200.366 227.28 200.07C227.277 199.877 227.352 199.692 227.487 199.554C227.623 199.417 227.807 199.34 228 199.34Z" fill="white"/>
<path d="M228 196.43C228.296 196.426 228.565 196.601 228.682 196.874C228.798 197.146 228.738 197.462 228.53 197.673C228.322 197.883 228.007 197.948 227.733 197.835C227.459 197.723 227.28 197.456 227.28 197.16C227.277 196.967 227.352 196.782 227.487 196.644C227.623 196.507 227.807 196.43 228 196.43Z" fill="white"/>
<path d="M228 194.98C228.398 194.98 228.72 194.653 228.72 194.25C228.72 193.847 228.398 193.52 228 193.52C227.602 193.52 227.28 193.847 227.28 194.25C227.28 194.653 227.602 194.98 228 194.98Z" fill="white"/>
<path d="M228 192.06C228.398 192.06 228.72 191.733 228.72 191.33C228.72 190.927 228.398 190.6 228 190.6C227.602 190.6 227.28 190.927 227.28 191.33C227.28 191.733 227.602 192.06 228 192.06Z" fill="white"/>
<path d="M228 187.69C228.296 187.686 228.565 187.861 228.682 188.134C228.798 188.406 228.738 188.722 228.53 188.933C228.322 189.143 228.007 189.208 227.733 189.095C227.459 188.983 227.28 188.716 227.28 188.42C227.277 188.227 227.352 188.042 227.487 187.904C227.623 187.767 227.807 187.69 228 187.69Z" fill="white"/>
<path d="M228 184.78C228.296 184.776 228.565 184.951 228.682 185.224C228.798 185.496 228.738 185.812 228.53 186.023C228.322 186.233 228.007 186.298 227.733 186.185C227.459 186.073 227.28 185.806 227.28 185.51C227.277 185.317 227.352 185.132 227.487 184.994C227.623 184.857 227.807 184.78 228 184.78Z" fill="white"/>
<path d="M228 181.87C228.296 181.866 228.565 182.041 228.682 182.314C228.798 182.586 228.738 182.902 228.53 183.113C228.322 183.323 228.007 183.388 227.733 183.275C227.459 183.163 227.28 182.896 227.28 182.6C227.277 182.407 227.352 182.222 227.487 182.084C227.623 181.947 227.807 181.87 228 181.87Z" fill="white"/>
<rect x="132.94" y="38.28" width="148.45" height="140.72" rx="7.39" fill="white"/>
<rect x="275.93" y="42.24" width="133.35" height="138.02" rx="5.92" transform="rotate(90 275.93 42.24)" fill="#FFD25A"/>
<g style="mix-blend-mode:overlay" opacity="0.3">
<path d="M249.767 113.59C262.228 87.8253 241.532 52.0445 203.542 33.6711C165.551 15.2977 124.653 21.2892 112.192 47.0536C99.7316 72.818 120.428 108.599 158.418 126.972C196.408 145.346 237.307 139.354 249.767 113.59Z" fill="white"/>
</g>
<path d="M191.26 96.44C188.175 91.2566 187.447 85.0033 189.26 79.25C189.429 78.5444 189.797 77.9022 190.32 77.4C190.886 76.8814 191.754 76.8814 192.32 77.4C195.184 74.4687 198.822 72.4121 202.81 71.47C203.592 71.2414 204.411 71.17 205.22 71.26C206.047 71.3487 206.773 71.849 207.15 72.59C207.503 73.3564 207.196 74.265 206.45 74.66C207.903 73.9933 209.43 73.5031 211 73.2C211.578 73.0502 212.192 73.1519 212.69 73.48C213.242 74.0866 213.242 75.0134 212.69 75.62C212.137 76.1826 211.448 76.5926 210.69 76.81C211.165 76.6607 211.662 76.5898 212.16 76.6C212.67 76.6197 213.132 76.904 213.38 77.35C213.78 78.21 212.94 79.13 212.13 79.62C209.989 80.7497 207.619 81.3788 205.2 81.46C202.79 81.65 200.37 81.62 197.99 82.04C197.188 82.1239 196.425 82.4324 195.79 82.93C194.79 83.85 194.79 85.4 194.79 86.75C195.006 88.6635 194.965 90.5972 194.67 92.5C194.342 94.4247 193.142 96.0894 191.42 97.01" fill="#A6613B"/>
<path d="M251.27 120.04C251.27 120.04 252.78 112.86 253.96 112.12C255.14 111.38 259.72 107.45 259.86 108.29C260 109.13 257.65 111.35 257.99 112.29C258.33 113.23 260.8 113.41 260.8 113.41C260.8 113.41 263.58 113.57 264.33 113.12C265.08 112.67 269.89 107.97 269.52 109.12C269.15 110.27 266.32 116.28 264.6 117.12C262.484 117.961 260.304 118.63 258.08 119.12C257.416 120.322 256.835 121.569 256.34 122.85L251.27 120.04Z" fill="#F0BFAC"/>
<path d="M212.12 131.44C212.12 131.44 230 154.28 239.32 150.67C248.64 147.06 257.73 121.28 257.73 121.28L250.31 116.34L234.92 133.69L215.32 108.28L212.12 131.44Z" fill="#2A2A59"/>
<path d="M181.66 107.49C181.66 107.49 145.35 138.04 146.45 144.36C147.55 150.68 169.8 175.36 169.8 175.36L177.22 167.95L161.56 145.18C161.56 145.18 183.27 128.97 183.82 126.5C184.37 124.03 181.66 107.49 181.66 107.49Z" fill="#2A2A59"/>
<path d="M175.3 121.18C175.3 121.18 182.3 152.71 181.99 155.58C181.68 158.45 179.16 177.78 179.16 177.78L220.59 175.06L218 115.33C217.58 110.22 214.13 105.99 209.53 105.06C205.16 104.19 198.7 103.63 189.53 104.38C183.82 104.86 178.94 109.09 177.16 115.05L175.3 121.18Z" fill="#2A2A59"/>
<path d="M188 104.55C187.39 104.85 200.8 134.07 200.8 134.07L206.68 104.55C206.68 104.55 192.11 102.56 188 104.55Z" fill="white"/>
<path d="M190.85 105.61L191.52 94.05C191.52 94.05 189.25 94.31 188.58 92.58C187.91 90.85 189.91 86.83 193.25 89.64L192.93 79.99H209C209 79.99 211.92 102.33 202 102.33V107.01C202 107.01 195.53 112.1 190.85 105.61Z" fill="#F0BFAC"/>
<path d="M171.45 173.76C171.45 173.76 172.11 177.94 174.32 177.94C176.328 177.871 178.33 177.697 180.32 177.42C180.32 177.42 183.65 181.42 183.87 180.15C184.09 178.88 183.05 175.99 183.05 175.99C183.05 175.99 184.75 179.99 185.4 178.07C186.05 176.15 183.18 172.99 183.18 172.99C183.18 172.99 188.26 175.47 188.39 174.43C188.52 173.39 183.92 170.65 183.87 170.65H178.63L177.23 167.99L171.45 173.76Z" fill="#F0BFAC"/>
<path d="M201.7 92.7C201.7 92.7 201.77 92.85 201.99 92.97C202.322 93.1462 202.73 93.0809 202.99 92.81C203.16 92.6308 203.281 92.4102 203.34 92.17C203.406 91.8885 203.427 91.5981 203.4 91.31C203.4 90.68 203.31 89.99 203.26 89.31C203.17 87.86 203.1 86.54 203.06 85.59C203.06 85.11 203.06 84.73 203.06 84.46C203.037 84.3244 203.037 84.1857 203.06 84.05C203.093 84.1846 203.113 84.3218 203.12 84.46C203.12 84.72 203.19 85.11 203.23 85.58C203.31 86.58 203.4 87.84 203.49 89.29C203.54 90.02 203.58 90.71 203.61 91.34C203.634 91.649 203.607 91.9599 203.53 92.26C203.457 92.5248 203.312 92.7638 203.11 92.95C202.944 93.1118 202.722 93.2047 202.49 93.21C202.317 93.2203 202.145 93.1747 202 93.08C201.846 93.0078 201.734 92.867 201.7 92.7Z" fill="#1B1A51"/>
<path d="M202.78 95.28C202.575 95.4302 202.333 95.5234 202.08 95.55C201.465 95.6599 200.832 95.5501 200.29 95.24C199.757 94.9147 199.352 94.4172 199.14 93.83C199.032 93.5956 198.998 93.3343 199.04 93.08C199.04 93.08 199.09 93.37 199.27 93.78C199.503 94.3117 199.894 94.7587 200.39 95.06C200.895 95.3521 201.48 95.4747 202.06 95.41C202.51 95.36 202.77 95.28 202.78 95.28Z" fill="#1B1A51"/>
<path d="M199.49 92.92C199.49 92.98 199.14 92.92 198.81 93.1C198.48 93.28 198.36 93.6 198.31 93.59C198.26 93.58 198.31 93.49 198.31 93.35C198.384 93.1698 198.518 93.0211 198.69 92.93C198.859 92.8322 199.056 92.7935 199.25 92.82C199.42 92.84 199.49 92.9 199.49 92.92Z" fill="#1B1A51"/>
<path d="M191.53 92.82C191.714 92.6685 191.855 92.4722 191.94 92.25C192.029 92.0183 192.029 91.7617 191.94 91.53C191.855 91.2489 191.582 91.0682 191.29 91.1C191.167 91.1111 191.056 91.1817 190.994 91.2893C190.933 91.3968 190.927 91.5277 190.98 91.64L190.8 91.71C190.688 91.187 190.624 90.6547 190.61 90.12C190.779 90.6254 190.906 91.1438 190.99 91.67L191.09 92.19L190.82 91.74C190.729 91.5728 190.727 91.3711 190.815 91.2023C190.904 91.0336 191.071 90.9201 191.26 90.9C191.455 90.8728 191.652 90.9231 191.81 91.04C191.949 91.1501 192.056 91.295 192.12 91.46C192.227 91.7298 192.227 92.0302 192.12 92.3C192.056 92.4817 191.933 92.6367 191.77 92.74C191.61 92.82 191.53 92.83 191.53 92.82Z" fill="#1B1A51"/>
<path d="M199.56 83.28C199.61 83.55 199.02 83.89 198.24 84.04C197.46 84.19 196.78 84.1 196.73 83.82C196.68 83.54 197.27 83.21 198.05 83.06C198.83 82.91 199.51 83.03 199.56 83.28Z" fill="#A6613B"/>
<path d="M207.81 83.19C207.81 83.46 207.27 83.65 206.65 83.61C206.03 83.57 205.55 83.3 205.57 83.02C205.59 82.74 206.11 82.56 206.73 82.6C207.35 82.64 207.83 82.91 207.81 83.19Z" fill="#A6613B"/>
<path d="M203.52 102.28L203.1 102.37C202.72 102.429 202.335 102.459 201.95 102.46C199.364 102.482 196.864 101.529 194.95 99.79C194.664 99.5326 194.397 99.2553 194.15 98.96C194.054 98.8526 193.971 98.7353 193.9 98.61C193.9 98.61 194.31 99.06 195.05 99.68C196.011 100.497 197.103 101.146 198.28 101.6C199.472 102.038 200.73 102.268 202 102.28C202.92 102.28 203.51 102.2 203.52 102.28Z" fill="#1B1A51"/>
<path d="M178.62 170.65C178.62 170.65 179.31 164.05 179.91 164.89C180.51 165.73 180.64 171.16 180.64 171.16L178.62 170.65Z" fill="#F0BFAC"/>
<path d="M202.45 168.92C202.39 168.92 201.97 161.12 201.52 151.5C201.07 141.88 200.75 134.08 200.81 134.07C200.87 134.06 201.28 141.87 201.73 151.49C202.18 161.11 202.5 168.92 202.45 168.92Z" fill="#1B1A51"/>
<path d="M200.33 134.07C199.926 133.872 199.535 133.649 199.16 133.4C198.136 132.716 197.217 131.887 196.43 130.94C195.24 129.533 194.34 127.905 193.78 126.15C193.083 123.99 192.935 121.691 193.35 119.46L193.43 119.58L193.01 119.45C190.792 118.693 188.884 117.228 187.58 115.28C186.527 113.705 185.922 111.873 185.83 109.98C185.769 108.707 185.938 107.433 186.33 106.22C186.466 105.778 186.644 105.349 186.86 104.94C186.833 105.058 186.793 105.172 186.74 105.28C186.608 105.606 186.498 105.94 186.41 106.28C186.049 107.485 185.903 108.744 185.98 110C186.086 111.864 186.694 113.664 187.74 115.21C189.04 117.082 190.91 118.484 193.07 119.21L193.49 119.34H193.58V119.43C193.164 121.626 193.305 123.892 193.99 126.02C194.53 127.755 195.403 129.368 196.56 130.77C197.327 131.726 198.226 132.568 199.23 133.27C199.57 133.53 199.88 133.68 200.06 133.81C200.158 133.888 200.248 133.975 200.33 134.07Z" fill="#1B1A51"/>
<path d="M200.81 134.07L201.06 133.85C201.22 133.71 201.48 133.51 201.78 133.23C203.963 131.275 205.427 128.645 205.94 125.76C206.12 124.77 206.224 123.767 206.25 122.76V121.95C206.225 121.689 206.161 121.433 206.06 121.19C205.832 120.687 205.554 120.208 205.23 119.76C204.9 119.293 204.543 118.845 204.16 118.42L204.1 118.28L204.16 118.21C204.89 117.47 205.57 116.73 206.16 116C206.778 115.317 207.314 114.566 207.76 113.76C208.301 112.311 208.516 110.761 208.39 109.22C208.301 108.194 208.072 107.185 207.71 106.22L207.38 105.44C207.335 105.352 207.295 105.262 207.26 105.17C207.461 105.488 207.635 105.823 207.78 106.17C208.17 107.13 208.423 108.14 208.53 109.17C208.68 110.739 208.475 112.321 207.93 113.8C207.481 114.624 206.938 115.393 206.31 116.09C205.683 116.83 205.017 117.57 204.31 118.31V118.28C204.702 118.709 205.066 119.164 205.4 119.64C205.735 120.099 206.02 120.591 206.25 121.11C206.361 121.374 206.429 121.654 206.45 121.94V122.76C206.425 123.794 206.315 124.824 206.12 125.84C205.802 127.57 205.143 129.218 204.18 130.69C203.523 131.657 202.735 132.528 201.84 133.28C201.515 133.566 201.171 133.83 200.81 134.07Z" fill="#1B1A51"/>
<path d="M204.12 147.36C204.06 147.36 203.98 147.07 203.94 146.71C203.9 146.35 203.94 146.04 203.94 146.03C203.94 146.02 204.08 146.32 204.12 146.68C204.16 147.04 204.17 147.35 204.12 147.36Z" fill="#1B1A51"/>
<path d="M205.32 160.17C205.26 160.17 205.18 159.89 205.14 159.52C205.1 159.15 205.14 158.85 205.14 158.84C205.14 158.83 205.28 159.13 205.32 159.5C205.36 159.87 205.38 160.16 205.32 160.17Z" fill="#1B1A51"/>
<path d="M219.73 142.96C219.67 142.96 219.24 138.35 218.73 132.66C218.22 126.97 218 122.35 218 122.34C218 122.33 218.49 126.95 219 132.64C219.51 138.33 219.79 142.96 219.73 142.96Z" fill="#1B1A51"/>
<path d="M182 129.28C181.897 129.398 181.78 129.502 181.65 129.59L180.65 130.4C179.8 131.07 178.65 132.01 177.34 133.07C176.03 134.13 174.92 135.07 174.1 135.81L173.1 136.65C172.987 136.763 172.859 136.861 172.72 136.94C172.819 136.814 172.93 136.696 173.05 136.59L173.98 135.7C174.78 134.96 175.91 133.96 177.19 132.9C178.47 131.84 179.67 130.9 180.54 130.28L181.59 129.53C181.719 129.435 181.856 129.352 182 129.28Z" fill="#1B1A51"/>
<path d="M175.24 165.35C175.151 165.464 175.047 165.565 174.93 165.65L174.04 166.39L171.04 168.78L168.04 171.13L167.11 171.82C166.997 171.907 166.877 171.984 166.75 172.05C166.836 171.94 166.937 171.842 167.05 171.76L167.95 171.01L170.95 168.62L173.95 166.27L174.88 165.58C174.993 165.493 175.113 165.416 175.24 165.35Z" fill="#1B1A51"/>
<path d="M169.89 172.67C169.89 172.67 169.72 172.57 169.63 172.39C169.54 172.21 169.51 172.04 169.57 172.02C169.63 172 169.73 172.11 169.82 172.29C169.91 172.47 169.94 172.64 169.89 172.67Z" fill="#1B1A51"/>
<path d="M257.37 124.28C257.226 124.245 257.086 124.198 256.95 124.14L255.84 123.68C254.84 123.29 253.59 122.76 252.14 122.21C250.69 121.66 249.37 121.21 248.41 120.83L247.28 120.42C247.137 120.376 246.999 120.315 246.87 120.24C247.017 120.255 247.161 120.289 247.3 120.34L248.46 120.69C249.46 121 250.77 121.45 252.22 122.01C253.67 122.57 254.97 123.12 255.89 123.55L256.99 124.06C257.125 124.118 257.252 124.192 257.37 124.28Z" fill="#1B1A51"/>
<path d="M249.91 118.28C249.96 118.28 249.78 118.6 249.51 118.91C249.24 119.22 248.98 119.45 248.94 119.41C248.9 119.37 249.08 119.09 249.35 118.78C249.62 118.47 249.87 118.28 249.91 118.28Z" fill="#1B1A51"/>
<path d="M234.66 137.77C234.551 137.042 234.514 136.305 234.55 135.57C234.514 134.838 234.551 134.105 234.66 133.38C234.757 134.106 234.79 134.838 234.76 135.57C234.79 136.305 234.756 137.041 234.66 137.77Z" fill="#1B1A51"/>
<path d="M237.25 138.42C237.2 138.42 236.8 137.42 236.17 136.2C235.54 134.98 234.93 134.07 234.98 134.03C235.542 134.646 236.007 135.344 236.36 136.1C236.776 136.822 237.076 137.605 237.25 138.42Z" fill="#1B1A51"/>
<path d="M161.78 145.09C161.15 145.106 160.521 145.059 159.9 144.95C159.269 144.899 158.646 144.782 158.04 144.6C158.67 144.578 159.3 144.625 159.92 144.74C160.551 144.785 161.176 144.902 161.78 145.09Z" fill="#1B1A51"/>
<path d="M161.94 144.42C161.286 144.173 160.618 143.963 159.94 143.79C159.251 143.686 158.556 143.623 157.86 143.6C158.555 143.418 159.285 143.418 159.98 143.6C160.692 143.704 161.366 143.986 161.94 144.42Z" fill="#1B1A51"/>
<path d="M190.58 105.19C190.47 104.78 190.58 101.77 190.58 101.77C190.58 101.77 198.2 102.36 199.02 108.91C199.02 108.91 200.41 103.48 202.45 103.16L202.79 106.74L201.7 110.57L197.34 111.46L192.67 109.92L190.58 105.19Z" fill="white"/>
<path d="M198.95 110.17L198.08 112.84L199.44 114.8L200 112.13L198.95 110.17Z" fill="#1B1A51"/>
<path d="M199.07 114.27L197.57 126.96L200.99 134.47L203.52 122.29L199.63 113.89L199.07 114.27Z" fill="#1B1A51"/>
<path d="M197.782 89.8201C197.515 88.6214 197.515 87.3787 197.782 86.1801C197.983 86.7643 198.051 87.3861 197.982 88.0001C198.063 88.614 197.994 89.2384 197.782 89.8201Z" fill="#423030"/>
<path d="M206.296 89.3C206.176 89.3 206.076 88.56 206.036 87.62C205.996 86.68 206.036 85.92 206.196 85.92C206.41 86.4529 206.499 87.0275 206.456 87.6C206.476 88.64 206.416 89.3 206.296 89.3Z" fill="#423030"/>
</svg>
