<svg width="1437" height="188" viewBox="0 0 1437 188" fill="none" xmlns="http://www.w3.org/2000/svg">
<path opacity="0.2" fill-rule="evenodd" clip-rule="evenodd" d="M-2 187.529H1437V19.8987C1437 19.8987 1320.36 25.5884 1194.05 117.857C1151.99 148.584 1135.49 147.104 1101.51 141.491C1067.46 135.868 990.016 83.9458 990.016 83.9458C990.016 83.9458 924.675 48.5737 879.747 53.3007C855.339 55.8687 827.386 65.0729 785.411 75.293C749.873 83.9458 638.909 105.683 582.513 113.334C526.116 120.984 501.719 124.911 465.848 124.501C410.391 123.866 362.921 107.981 328.872 100.714C294.824 93.4468 243.882 77.5017 173.304 57.2756C123.623 43.038 -2 2.15088 -2 2.15088V187.529Z" fill="url(#paint0_linear)"/>
<path opacity="0.2" fill-rule="evenodd" clip-rule="evenodd" d="M-2 69.521C-2 69.521 204.427 -41.2726 426.702 16.8734C495.863 34.9653 515.183 34.5824 603.129 65.4221C691.076 96.2617 701.8 107.009 768.119 116.547C840.296 126.928 941.493 106.022 941.493 106.022C941.493 106.022 1131.91 63.0213 1194.45 90.5567C1229.58 106.022 1272.69 133.8 1298.72 141.957C1319.33 148.413 1345.26 139.186 1376.59 116.547C1437 72.8927 1437 65.4221 1437 65.4221V187.416H-2V69.521Z" fill="url(#paint1_linear)"/>
<path opacity="0.2" fill-rule="evenodd" clip-rule="evenodd" d="M-1.49927 186.775H1436C1436 186.775 1319.63 37.5637 1196.2 22.3018C1072.77 7.03988 1013.44 45.6354 948.415 82.305C883.385 118.975 801.659 138.186 773.352 142.003C737.013 146.905 703.525 154.102 650.88 128.648C616.851 112.195 515.641 64.5361 475.616 64.5361C397.693 64.5361 300.842 83.9025 244.355 96.2885C167.322 113.179 126.279 116.279 97.1684 118.975C46.7115 123.648 -1.49927 186.775 -1.49927 186.775Z" fill="url(#paint2_linear)"/>
<defs>
<linearGradient id="paint0_linear" x1="21.118" y1="3.98005" x2="21.118" y2="183.402" gradientUnits="userSpaceOnUse">
<stop stop-color="white"/>
<stop offset="1" stop-color="#E2B350"/>
</linearGradient>
<linearGradient id="paint1_linear" x1="21.1181" y1="1.375" x2="21.1181" y2="183.233" gradientUnits="userSpaceOnUse">
<stop stop-color="white"/>
<stop offset="1" stop-color="#E2B350"/>
</linearGradient>
<linearGradient id="paint2_linear" x1="183.572" y1="58.6776" x2="183.572" y2="183.037" gradientUnits="userSpaceOnUse">
<stop stop-color="white"/>
<stop offset="1" stop-color="#E2B350"/>
</linearGradient>
</defs>
</svg>
