<svg width="1440" height="189" viewBox="0 0 1440 189" fill="none" xmlns="http://www.w3.org/2000/svg">
<path opacity="0.2" fill-rule="evenodd" clip-rule="evenodd" d="M1 188.008H1441V20.3777C1441 20.3777 1324.28 26.0674 1197.88 118.336C1155.79 149.063 1139.28 147.583 1105.27 141.97C1071.2 136.347 993.705 84.4248 993.705 84.4248C993.705 84.4248 928.318 49.0527 883.359 53.7797C858.935 56.3477 830.962 65.5519 788.958 75.772C753.395 84.4248 642.354 106.162 585.918 113.813C529.483 121.463 505.069 125.39 469.173 124.98C413.677 124.345 366.174 108.46 332.102 101.193C298.03 93.9258 247.053 77.9807 176.426 57.7546C126.71 43.5171 1 2.62988 1 2.62988V188.008Z" fill="url(#paint0_linear)"/>
<path opacity="0.2" fill-rule="evenodd" clip-rule="evenodd" d="M1 95.9011C1 95.9011 207.571 -40.7935 430 17.3524C499.208 35.4444 518.542 35.0614 606.549 65.9011C694.557 96.7407 705.288 107.488 771.654 117.026C843.881 127.407 945.148 106.501 945.148 106.501C945.148 106.501 1135.69 63.5004 1198.28 91.0357C1233.43 106.501 1276.58 134.279 1302.63 142.436C1323.24 148.892 1349.19 139.665 1380.54 117.026C1441 73.3717 1441 65.9011 1441 65.9011V187.895H1V95.9011Z" fill="url(#paint1_linear)"/>
<path opacity="0.2" fill-rule="evenodd" clip-rule="evenodd" d="M0 129.127V187.254H1440C1440 187.254 1323.55 38.0427 1200.04 22.7808C1076.52 7.51888 1017.15 46.1144 952.075 82.784C887 119.454 805.217 138.665 776.891 142.482C740.526 147.384 707.015 154.581 654.333 129.127C620.281 112.674 519 65.0151 478.948 65.0151C400.971 65.0151 304.053 84.3816 247.526 96.7675C170.439 113.658 129.368 116.758 100.237 119.454C49.7454 124.127 0 129.127 0 129.127Z" fill="url(#paint2_linear)"/>
<defs>
<linearGradient id="paint0_linear" x1="24.1341" y1="4.45906" x2="24.1341" y2="183.881" gradientUnits="userSpaceOnUse">
<stop stop-color="white"/>
<stop offset="1" stop-color="#E2B350"/>
</linearGradient>
<linearGradient id="paint1_linear" x1="24.1341" y1="1.85401" x2="24.1341" y2="183.712" gradientUnits="userSpaceOnUse">
<stop stop-color="white"/>
<stop offset="1" stop-color="#E2B350"/>
</linearGradient>
<linearGradient id="paint2_linear" x1="186.701" y1="59.1566" x2="186.701" y2="183.516" gradientUnits="userSpaceOnUse">
<stop stop-color="white"/>
<stop offset="1" stop-color="#E2B350"/>
</linearGradient>
</defs>
</svg>
