<svg width="40" height="40" viewBox="0 0 40 40" fill="none" xmlns="http://www.w3.org/2000/svg">
<circle cx="20" cy="20" r="20" fill="#BD462B"/>
<path d="M30.065 13.895C29.4683 12.8335 28.8206 12.6383 27.502 12.564C26.1847 12.4746 22.8724 12.4375 20.0027 12.4375C17.1276 12.4375 13.8139 12.4746 12.498 12.5626C11.1821 12.6383 10.5331 12.8321 9.93088 13.895C9.31625 14.9551 9 16.7811 9 19.9959C9 19.9986 9 20 9 20C9 20.0027 9 20.0041 9 20.0041V20.0069C9 23.2079 9.31625 25.0476 9.93088 26.0968C10.5331 27.1582 11.1807 27.3507 12.4966 27.4401C13.8139 27.5171 17.1276 27.5625 20.0027 27.5625C22.8724 27.5625 26.1847 27.5171 27.5034 27.4415C28.822 27.3521 29.4696 27.1596 30.0664 26.0981C30.6865 25.049 31 23.2092 31 20.0082C31 20.0082 31 20.0041 31 20.0014C31 20.0014 31 19.9986 31 19.9973C31 16.7811 30.6865 14.9551 30.065 13.895ZM17.25 24.125V15.875L24.125 20L17.25 24.125Z" fill="white"/>
</svg>
